<?xml version="1.0" encoding="UTF-8" standalone="no"?>
<!DOCTYPE svg PUBLIC "-//W3C//DTD SVG 1.1//EN" "http://www.w3.org/Graphics/SVG/1.1/DTD/svg11.dtd">
<svg width="100%" height="100%" viewBox="0 0 231 158" version="1.1" xmlns="http://www.w3.org/2000/svg" xmlns:xlink="http://www.w3.org/1999/xlink" xml:space="preserve" xmlnsSerif="http://www.serif.com/" style="fill-rule:evenodd;clip-rule:evenodd;stroke-linejoin:round;stroke-miterlimit:2;">
    <g transform="matrix(1,0,0,1,-9388,-30)">
        <g transform="matrix(0.454787,0,0,0.439236,7052.64,14.1829)">
            <g id="curly-braces" transform="matrix(5.39793e-17,-0.895714,0.895714,5.39793e-17,4278.36,1126.75)">
                <path d="M999.991,1519.62L999.991,1469.39L992.217,1469.39C970.689,1469.39 959.925,1460.42 959.925,1442.48L959.925,1294.78C959.925,1284.01 956.537,1273.85 949.759,1264.28C942.982,1254.71 934.211,1247.93 923.447,1243.95L907.899,1240.36L923.447,1236.77C947.766,1226.8 959.925,1209.86 959.925,1185.94L959.925,1038.24C959.925,1019.5 970.689,1010.13 992.217,1010.13L999.991,1010.13L999.991,959.897L916.869,959.897C878.199,959.897 858.863,979.431 858.863,1018.5L858.863,1198.5C858.863,1210.46 855.076,1220.42 847.501,1228.4C839.927,1236.37 830.757,1240.36 819.993,1240.36C831.156,1240.36 840.425,1244.25 847.8,1252.02C855.176,1259.79 858.863,1269.86 858.863,1282.22L858.863,1461.02C858.863,1479.36 864.046,1493.71 874.411,1504.08C884.777,1514.44 898.929,1519.62 916.869,1519.62L999.991,1519.62Z" style="fill:none;fill-rule:nonzero;stroke:rgb(117,57,252);stroke-width:4.99px;"/>
                <path d="M1213.48,1240.36C1202.32,1240.36 1192.95,1236.37 1185.37,1228.4C1177.8,1220.42 1174.01,1210.46 1174.01,1198.5L1174.01,1018.5C1174.01,1000.56 1168.93,986.308 1158.76,975.744C1148.59,965.179 1134.54,959.897 1116.6,959.897L1033.48,959.897L1033.48,1010.13L1041.25,1010.13C1062.78,1010.13 1073.55,1019.5 1073.55,1038.24L1073.55,1185.94C1073.55,1197.5 1076.93,1207.87 1083.71,1217.04C1092.48,1229.39 1106.43,1237.17 1125.57,1240.36C1121.19,1241.16 1117.3,1242.15 1113.91,1243.35C1110.52,1244.55 1107.63,1245.54 1105.24,1246.34C1097.27,1249.13 1089.99,1255.31 1083.41,1264.88C1076.83,1274.44 1073.55,1284.41 1073.55,1294.78L1073.55,1442.48C1073.55,1460.42 1062.78,1469.39 1041.25,1469.39L1033.48,1469.39L1033.48,1519.62L1116.6,1519.62C1154.87,1519.62 1174.01,1500.09 1174.01,1461.02L1174.01,1282.22C1174.01,1270.66 1177.9,1260.79 1185.67,1252.62C1193.44,1244.44 1202.71,1240.36 1213.48,1240.36Z" style="fill:none;fill-rule:nonzero;stroke:rgb(117,57,252);stroke-width:4.99px;"/>
            </g>
        </g>
    </g>
</svg>
