<?xml version="1.0" encoding="UTF-8" standalone="no"?>
<!DOCTYPE svg PUBLIC "-//W3C//DTD SVG 1.1//EN" "http://www.w3.org/Graphics/SVG/1.1/DTD/svg11.dtd">
<svg width="100%" height="100%" viewBox="0 0 194 80" version="1.1" xmlns="http://www.w3.org/2000/svg" xmlns:xlink="http://www.w3.org/1999/xlink" xml:space="preserve" xmlns:serif="http://www.serif.com/" style="fill-rule:evenodd;clip-rule:evenodd;stroke-linecap:round;stroke-linejoin:round;stroke-miterlimit:1.5;">
    <g transform="matrix(1,0,0,1,-8947,-948)">
        <g transform="matrix(0.454787,0,0,0.439236,7000.36,271.632)">
            <g id="horizontal-lines-1" transform="matrix(1,0,0,1,-2191.45,307.408)">
                <g transform="matrix(0.97495,0,0,1,167.393,-51.2808)">
                    <path d="M6899.51,1287.06L6469.04,1287.06" style="fill:none;stroke:rgb(255,195,0);stroke-width:4.53px;"/>
                </g>
                <g transform="matrix(0.97495,0,0,1,167.393,-29.2318)">
                    <path d="M6899.51,1287.06L6469.04,1287.06" style="fill:none;stroke:rgb(255,195,0);stroke-width:4.53px;"/>
                </g>
                <g transform="matrix(0.97495,0,0,1,167.393,-7.18283)">
                    <path d="M6899.51,1287.06L6469.04,1287.06" style="fill:none;stroke:rgb(255,195,0);stroke-width:4.53px;"/>
                </g>
                <g transform="matrix(0.97495,0,0,1,167.393,14.8662)">
                    <path d="M6899.51,1287.06L6469.04,1287.06" style="fill:none;stroke:rgb(255,195,0);stroke-width:4.53px;"/>
                </g>
                <g transform="matrix(0.97495,0,0,1,167.393,36.9152)">
                    <path d="M6899.51,1287.06L6469.04,1287.06" style="fill:none;stroke:rgb(255,195,0);stroke-width:4.53px;"/>
                </g>
                <g transform="matrix(0.97495,0,0,1,167.393,58.9642)">
                    <path d="M6899.51,1287.06L6469.04,1287.06" style="fill:none;stroke:rgb(255,195,0);stroke-width:4.53px;"/>
                </g>
                <g transform="matrix(0.97495,0,0,1,167.393,81.0132)">
                    <path d="M6899.51,1287.06L6469.04,1287.06" style="fill:none;stroke:rgb(255,195,0);stroke-width:4.53px;"/>
                </g>
                <g transform="matrix(0.97495,0,0,1,167.393,103.062)">
                    <path d="M6899.51,1287.06L6469.04,1287.06" style="fill:none;stroke:rgb(255,195,0);stroke-width:4.53px;"/>
                </g>
                <g transform="matrix(0.97495,0,0,1,167.393,125.111)">
                    <path d="M6899.51,1287.06L6469.04,1287.06" style="fill:none;stroke:rgb(255,195,0);stroke-width:4.53px;"/>
                </g>
            </g>
        </g>
    </g>
</svg>
