<?xml version="1.0" encoding="UTF-8" standalone="no"?>
<!DOCTYPE svg PUBLIC "-//W3C//DTD SVG 1.1//EN" "http://www.w3.org/Graphics/SVG/1.1/DTD/svg11.dtd">
<svg width="100%" height="100%" viewBox="0 0 85 87" version="1.1" xmlns="http://www.w3.org/2000/svg" xmlns:xlink="http://www.w3.org/1999/xlink" xml:space="preserve" xmlns:serif="http://www.serif.com/" style="fill-rule:evenodd;clip-rule:evenodd;stroke-linecap:round;stroke-linejoin:round;stroke-miterlimit:1.5;">
    <g transform="matrix(1,0,0,1,-10023,-298)">
        <g transform="matrix(0.454787,0,0,0.439236,7833.46,274.205)">
            <g id="outline-6" transform="matrix(1,0,0,1,-186.796,-1096.83)">
                <path d="M5074.6,1192.58C5053.39,1207.15 5039.32,1224.33 5027.59,1247.04C5020.85,1260.09 5011.78,1275.17 5008.6,1289.96C5004.94,1306.97 4999.56,1343.71 5025.91,1345.85C5028.94,1346.09 5032.05,1345.69 5035,1344.95C5039.09,1343.93 5043.16,1342.6 5046.86,1340.6C5052.63,1337.48 5062.01,1328.76 5066.71,1324.35C5080.51,1311.38 5095.8,1298.63 5104.52,1281.34C5110.72,1269.05 5114.21,1253.34 5124.55,1243.26C5142.41,1225.83 5166.64,1209.72 5181.02,1188.5C5183.71,1184.53 5184.74,1176.64 5184.53,1172.02C5184.37,1168.63 5183.88,1165.25 5183.04,1161.96C5181.44,1155.71 5174.46,1154.07 5168.91,1153.67C5152.03,1152.46 5139.44,1160.65 5124.48,1167.49C5106.15,1175.87 5091.35,1181.06 5074.6,1192.58Z" style="fill:none;stroke:rgb(107,79,140);stroke-width:4.47px;"/>
            </g>
        </g>
    </g>
</svg>
