<?xml version="1.0" encoding="UTF-8" standalone="no"?>
<!DOCTYPE svg PUBLIC "-//W3C//DTD SVG 1.1//EN" "http://www.w3.org/Graphics/SVG/1.1/DTD/svg11.dtd">
<svg width="100%" height="100%" viewBox="0 0 450 540" version="1.1" xmlns="http://www.w3.org/2000/svg" xmlns:xlink="http://www.w3.org/1999/xlink" xml:space="preserve" xmlnsSerif="http://www.serif.com/" style="fill-rule:evenodd;clip-rule:evenodd;stroke-linecap:round;stroke-linejoin:round;stroke-miterlimit:1.5;">
    <g transform="matrix(1,0,0,1,-8437,-456)">
        <g transform="matrix(0.454787,0,0,0.439236,6643.08,303.943)">
            <g id="splotch-large-4" transform="matrix(1,0,0,1,-950.086,120.534)">
                <g transform="matrix(1,0,0,1,0.163406,-51.2808)">
                    <path d="M5856.98,299.029C5854.9,295.664 5841.93,289.592 5838.88,288.044C5833.69,285.407 5827.51,281.845 5821.61,280.905C5808.5,278.815 5792.04,284.353 5780.5,288.975C5742.13,304.348 5724.16,352.433 5743.45,389.091C5753.53,408.257 5767.97,422.509 5791.17,416.551C5798.94,414.557 5806.46,411.691 5814.01,408.997C5840.51,399.55 5870.43,387.683 5880.12,358.591C5887.23,337.248 5866.68,314.675 5856.98,299.029Z" style="fill:none;stroke:rgb(255,195,0);stroke-width:4.47px;"/>
                </g>
                <g transform="matrix(1,0,0,1,0.163406,-51.2808)">
                    <path d="M5777.56,526.152C5775.14,560.979 5755.76,591.635 5742.76,622.908C5735.85,639.545 5735.12,654.748 5719.57,665.774C5700.29,679.44 5672.16,679.424 5656.04,697.856C5642.89,712.9 5642.85,734.92 5633.43,751.962C5625.7,765.96 5609.47,771.955 5600.95,785.32C5587.86,805.861 5590.77,807.296 5577.97,827.851C5570.73,839.458 5562.08,850.142 5554.91,861.789C5548.62,872.004 5543.19,886.52 5539.47,897.838C5532.17,920.082 5524.31,949.053 5516.03,970.991C5502.36,1007.24 5488.13,1043.29 5473.56,1079.19C5472.1,1082.78 5470.34,1086.33 5467.95,1089.4C5456.08,1104.68 5436.86,1110.88 5421.2,1120.93C5407.65,1129.62 5402.21,1145.99 5389.39,1155.53C5377.92,1164.07 5362.36,1164.71 5352.97,1176.44C5341.88,1190.31 5340.43,1209.04 5331.43,1224.03C5321.82,1240.03 5306.56,1252.01 5294.53,1265.91C5285.4,1276.45 5275.43,1290.83 5269.26,1303.37C5262.86,1316.36 5259.68,1330.1 5254.23,1343.45C5240.48,1377.12 5221.56,1408.43 5201.61,1438.7C5195.55,1447.36 5185.85,1452.73 5176.38,1456.76C5152,1467.13 5125.33,1470.08 5099.89,1476.6C5073.13,1483.45 5049.28,1498.84 5021.79,1503.29C5012.62,1504.77 5002.9,1503.62 4994,1501.29C4976.46,1496.69 4957.45,1491.45 4943.14,1479.52C4930.62,1469.09 4924.88,1453.38 4919.73,1438.5C4910.88,1412.89 4901.5,1386.01 4902.03,1358.42C4902.29,1344.53 4904.51,1330.71 4904.53,1316.81C4904.58,1267.6 4887.62,1217.62 4903.69,1169.25C4911.63,1145.36 4926.55,1123.94 4940.24,1103.23C4955.82,1079.65 4967.57,1031.48 4983.32,1008.02C5006.72,973.173 5053.66,908.202 5092.12,918.364C5120.81,925.941 5135.9,933.121 5165.12,930.17C5180.79,928.587 5197.35,928.362 5209.94,917.501C5240.14,891.459 5234.95,846.553 5256.2,815.303C5265.98,800.908 5270.84,795.524 5285.66,786.232C5306.4,773.231 5336.15,763.052 5348.21,739.03C5364.68,706.221 5363.57,668.817 5378.86,635.803C5393.66,603.86 5421.15,580.36 5449.93,561.337C5482.92,539.532 5525.03,542.57 5562.64,539.417C5600.42,536.25 5638.68,529.936 5673.22,513.513C5690.38,505.353 5699.72,487.777 5715.37,477.627C5724.59,471.644 5733.97,465.822 5743.82,460.93C5745.7,459.995 5748.09,459.754 5750.09,460.373C5755.13,461.927 5759.61,467.451 5762.22,471.629C5772.3,487.819 5778.9,506.86 5777.56,526.152Z" style="fill:none;stroke:rgb(255,195,0);stroke-width:4.47px;"/>
                </g>
            </g>
        </g>
    </g>
</svg>
