<?xml version="1.0" encoding="UTF-8" standalone="no"?>
<!DOCTYPE svg PUBLIC "-//W3C//DTD SVG 1.1//EN" "http://www.w3.org/Graphics/SVG/1.1/DTD/svg11.dtd">
<svg width="100%" height="100%" viewBox="0 0 153 189" version="1.1" xmlns="http://www.w3.org/2000/svg" xmlns:xlink="http://www.w3.org/1999/xlink" xml:space="preserve" xmlnsSerif="http://www.serif.com/" style="fill-rule:evenodd;clip-rule:evenodd;stroke-linecap:round;stroke-linejoin:round;stroke-miterlimit:1.5;">
    <g transform="matrix(1,0,0,1,-8913,-731)">
        <g transform="matrix(0.454787,0,0,0.439236,6643.08,303.943)">
            <g id="splotch-medium-2" transform="matrix(1,0,0,1,-704.37,149.546)">
                <path d="M5880.33,843.828C5877.41,839.163 5873.65,835.048 5869.81,831.116C5853.53,814.477 5832.63,837.67 5820.74,847.708C5817.69,850.28 5814.93,853.325 5811.4,855.194C5790.35,866.356 5759.16,864.787 5746,887.928C5735.46,906.473 5732.8,928.513 5720.74,946.304C5713.24,957.373 5698.42,969.087 5698.52,984.331C5698.62,1000.27 5713.96,1010.79 5722.67,1021.68C5739.33,1042.52 5749.58,1067.96 5754.59,1094C5759.45,1119.22 5758.49,1145.28 5758.81,1170.77C5758.93,1179.86 5757.49,1192.25 5763.77,1200.23C5773.35,1212.4 5788.78,1216.19 5800.38,1225.73C5810.34,1233.91 5819.88,1247.17 5834.14,1248.46C5856.81,1250.51 5881.24,1228.53 5883.97,1206.14C5884.22,1204.04 5880.78,1199.96 5879.69,1198.69C5870.42,1187.91 5859.85,1193.46 5847.05,1194.14C5843.74,1194.32 5836.95,1194.47 5834.87,1190.33C5832.12,1184.87 5823.21,1161.11 5821.19,1151.38C5820.33,1147.26 5820.16,1141.32 5822.96,1137.65C5832.47,1125.13 5838.12,1123.58 5849.07,1112.56C5864.9,1096.63 5880.21,1080.19 5895.69,1063.93C5904.56,1054.62 5912.45,1044.96 5922.41,1036.88C5936.28,1025.66 5952.74,1020.06 5968.33,1011.88C5985.99,1002.61 5993.88,997.587 6008.83,984.005C6020.66,973.252 6029.09,956.547 6027.82,940.307C6027.37,934.549 6026.25,928.826 6024.7,923.263C6021.65,912.298 6010.1,906.03 6003.57,897.747C5994.02,885.62 5996.99,883.858 5987.03,871.859C5981.6,865.319 5974.37,867.195 5966.98,867.933C5948.02,869.826 5930.17,869.689 5914.16,881.027C5906.08,886.749 5879.23,881.351 5882.04,872.145C5882.99,869.055 5885.49,860.9 5884.89,857.509C5884.06,852.775 5882.11,848.292 5880.33,843.828Z" style="fill:none;stroke:rgb(255,195,0);stroke-width:4.47px;"/>
            </g>
        </g>
    </g>
</svg>
