<?xml version="1.0" encoding="UTF-8" standalone="no"?>
<!DOCTYPE svg PUBLIC "-//W3C//DTD SVG 1.1//EN" "http://www.w3.org/Graphics/SVG/1.1/DTD/svg11.dtd">
<svg width="100%" height="100%" viewBox="0 0 236 181" version="1.1" xmlns="http://www.w3.org/2000/svg" xmlns:xlink="http://www.w3.org/1999/xlink" xml:space="preserve" xmlns:serif="http://www.serif.com/" style="fill-rule:evenodd;clip-rule:evenodd;stroke-linecap:round;stroke-linejoin:round;stroke-miterlimit:1.5;">
    <g transform="matrix(1,0,0,1,-8663,-756)">
        <g transform="matrix(0.454787,0,0,0.439236,6643.08,303.943)">
            <g id="splotch-medium-1" transform="matrix(1,0,0,1,-1667.43,460.171)">
                <path d="M6160.88,820.149C6168.92,806.322 6173.09,792.585 6182.18,779.319C6192.17,764.76 6207.1,746.321 6223.14,736.991C6242.41,725.776 6266.22,725.917 6280.75,707.762C6292.29,693.341 6303.19,678.396 6313.67,663.188C6321.5,651.831 6330.67,630.695 6342.35,620.504C6349.16,614.564 6360.02,611.47 6368.52,609.522C6377.92,607.37 6396.3,606.016 6403.63,605.137C6428.66,602.134 6430.9,600.405 6456.07,600.616C6470.43,600.737 6484.18,604.848 6498.52,601.019C6523.09,594.461 6540.5,565.424 6568.96,574.14C6585.65,579.251 6598.66,588.388 6610.05,601.549C6616.57,609.094 6625.15,619.622 6625.47,630.5C6625.64,636.46 6623.28,643.946 6621.13,649.3C6616.93,659.789 6611.79,674.441 6602.02,681.82C6581.94,696.992 6556.53,700.47 6536.74,715.929C6518,730.568 6505.65,749.185 6483.63,759.943C6477.96,762.71 6472.05,764.963 6466.09,767.023C6456.85,770.218 6445.24,771.072 6437.28,777.614C6430.55,783.141 6429,793.187 6426.87,800.87C6426.23,803.172 6425.54,807.989 6423.18,809.551C6403.02,822.892 6374.34,824.9 6359.87,846.698C6354.74,854.426 6353.89,860.854 6351.89,869.702C6350.49,875.926 6350.14,884.003 6344.43,888.294C6328.53,900.249 6305.78,890.312 6289.66,901.989C6274.87,912.699 6278.11,934.825 6270.48,949.724C6266.97,956.576 6256.22,958.586 6250.25,961.019C6241.68,964.514 6233.35,968.613 6224.68,971.852C6219.59,973.753 6214.38,975.473 6209.02,976.415C6181.8,981.208 6161.23,963.86 6141.43,947.696C6130,938.359 6123.36,930.948 6114.68,918.874C6113.3,916.956 6112.11,912.327 6112.77,909.977C6115.76,899.355 6126.47,893.457 6132.93,885.464C6147.8,867.089 6155.91,842.915 6160.88,820.149Z" style="fill:none;stroke:rgb(2,136,254);stroke-width:4.47px;"/>
            </g>
        </g>
    </g>
</svg>
