<?xml version="1.0" encoding="UTF-8" standalone="no"?>
<!DOCTYPE svg PUBLIC "-//W3C//DTD SVG 1.1//EN" "http://www.w3.org/Graphics/SVG/1.1/DTD/svg11.dtd">
<svg width="100%" height="100%" viewBox="0 0 210 152" version="1.1" xmlns="http://www.w3.org/2000/svg" xmlns:xlink="http://www.w3.org/1999/xlink" xml:space="preserve" xmlnsSerif="http://www.serif.com/" style="fill-rule:evenodd;clip-rule:evenodd;stroke-linecap:round;stroke-linejoin:round;stroke-miterlimit:1.5;">
    <g transform="matrix(1,0,0,1,-8838,-534)">
        <g transform="matrix(0.454787,0,0,0.439236,6643.08,303.943)">
            <g id="splotch-medium-3" transform="matrix(1,0,0,1,-1564.98,-87.7594)">
                <path d="M6405.31,903.924C6415.43,891.776 6430.91,886.081 6443.84,877.889C6453.19,871.964 6457.31,860.79 6466.75,854.978C6475.76,849.437 6485.62,845.312 6494.35,839.357C6497.19,837.419 6500.11,829.295 6502.16,826.86C6508.73,819.052 6512.43,819.445 6518.06,810.709C6519.56,808.381 6520.27,805.602 6520.91,802.908C6522.5,796.152 6517.42,792.011 6511.49,789.749C6500.84,785.686 6496.17,787.35 6487.99,782.118C6468.15,769.434 6464.02,743.591 6474.33,723.695C6484.77,703.563 6486.67,704.857 6497.99,685.229C6507.82,668.205 6514.26,647.701 6532.4,637.234C6548.92,627.707 6570.88,630.815 6588.6,628.994C6602.41,627.574 6613.11,616.513 6627.13,615.976C6656.08,614.868 6682.65,624.871 6709.51,634.559C6764.42,654.365 6818.32,678.306 6846.18,732.773C6855.33,750.657 6838.76,768.782 6831.24,783.121C6827.93,789.437 6830.4,790.166 6827.08,796.659C6822.31,805.972 6813.96,813.061 6804.31,816.934C6792.21,821.789 6777.91,817.251 6766.69,824.049C6763.59,825.929 6761.12,828.704 6758.58,831.293C6752.5,837.49 6747.15,844.403 6740.86,850.382C6734.96,855.984 6726.65,858.641 6720.86,864.35C6716.58,868.562 6714.92,877.804 6708.71,880.43C6696.92,885.418 6690.26,878.172 6678.67,875.688C6675.83,875.079 6669.49,877.503 6666.93,878.642C6656.55,883.251 6645.94,887.421 6635.93,892.779C6621.33,900.589 6615.37,922.64 6597.98,925.386C6594.11,925.997 6592.64,918.368 6592.24,916.48C6590.53,908.566 6590.97,892.359 6585.1,886.077C6582.26,883.039 6576.45,881.789 6572.98,881.544C6559.8,880.613 6549.18,883.75 6536.42,885.409C6527.57,886.56 6523.27,901.698 6519.49,907.513C6506.78,927.113 6486.87,945.565 6463.56,951.185C6449.57,954.559 6440.38,954.807 6426.24,952.081C6421.25,951.118 6416.69,948.445 6411.69,947.507C6408.32,946.874 6400.08,950.215 6397.5,945.58C6392.4,936.406 6396.24,925.377 6398.98,916.334C6400.12,912.56 6402.76,906.985 6405.31,903.924Z" style="fill:none;stroke:rgb(250,53,101);stroke-width:4.47px;"/>
            </g>
        </g>
    </g>
</svg>
