<?xml version="1.0" encoding="UTF-8" standalone="no"?>
<!DOCTYPE svg PUBLIC "-//W3C//DTD SVG 1.1//EN" "http://www.w3.org/Graphics/SVG/1.1/DTD/svg11.dtd">
<svg width="100%" height="100%" viewBox="0 0 976 4067" version="1.1" xmlns="http://www.w3.org/2000/svg" xmlns:xlink="http://www.w3.org/1999/xlink" xml:space="preserve" xmlns:serif="http://www.serif.com/" style="fill-rule:evenodd;clip-rule:evenodd;stroke-linejoin:round;stroke-miterlimit:2;">
    <g transform="matrix(1,0,0,1,-6496,-12726)">
        <g transform="matrix(-0.800457,0,0,0.55698,16465.6,11121.3)">
            <g id="Foreground-Tree-Trunk-4" serif:id="Foreground Tree Trunk 4" transform="matrix(1.24929,0,0,1.7954,10312.8,-19965.7)">
                <path d="M818.34,12739.3C797.848,12739.3 735.894,12736.9 739.321,12742.5C760.476,12776.8 812.275,12801.4 847.999,12827.2C881.338,12851.3 903.018,12886.8 924.883,12910.7C973.242,12963.6 1022.27,13028.8 1073.58,13112.7C1100.44,13156.7 1152.74,13331.1 1151.58,13443.1C1150.92,13506.8 1150.16,13548.4 1143.42,13612.8C1140.76,13638.3 1134.18,13663.5 1128.91,13689.8C1117.58,13746.5 1105.43,13803.9 1097.25,13861.2C1086.28,13938 1080.04,13972.2 1069.12,14048.7C1064.22,14083 1056.6,14187.3 1055.86,14222.6C1053.42,14339.5 1058.13,14412.9 1063.71,14518.8C1066.85,14578.2 1054.53,14649.2 1062.93,14708C1072.19,14772.9 1083.68,14824.9 1086.92,14890.6C1090.51,14963.3 1110.41,16791.5 1110.41,16791.5L1265.96,16791.5C1265.96,16791.5 1261.24,15037.7 1255.98,15009.4C1251.78,14986.8 1226.52,14842.6 1217.15,14793.6C1208.74,14749.6 1200.81,14602.9 1201.96,14474.3C1202.82,14379 1202.11,14278.3 1199.49,14192.5C1195.77,14071 1207.68,13899.6 1216.61,13872.8C1221.09,13859.4 1242.92,13706.9 1255.74,13668.4C1262.36,13648.6 1288.44,13577.4 1294.59,13559C1300.77,13540.4 1335.95,13482.2 1343.06,13467.9C1347.26,13459.5 1376.43,13376.9 1378.38,13372.5C1389.99,13346.3 1404.99,13318.2 1408.72,13307C1422,13267.2 1439.54,13232.4 1482.33,13210.5C1499.78,13201.6 1543.4,13163.9 1558.37,13151.7C1587.75,13127.7 1606.22,13097.4 1629.89,13048.9C1643.8,13020.3 1680.38,12874.4 1684,12854.7C1690.06,12821.8 1723.85,12727 1711.94,12727.5C1711.13,12727.5 1702.79,12727.2 1687.4,12727.1C1681.44,12727 1654.42,12723.9 1651.12,12727.2C1650.49,12727.8 1610.52,12987.1 1579.03,13055.6C1561.53,13093.7 1497.5,13135.5 1483.62,13129.9C1449.32,13116 1506.88,12740.5 1501.85,12738.4C1495.36,12735.7 1492.83,12738 1481.89,12738.2C1473.11,12738.3 1469.07,12738.6 1465.27,12737.6C1455.02,12735 1444.32,13022.6 1436.44,13017.5C1390.64,12987.6 1357.86,12743.8 1350.35,12741.1C1343.1,12738.5 1338.2,12742.1 1327.1,12741.7C1316.88,12741.4 1311.34,12741.2 1303.51,12741C1297.41,12740.8 1346.41,12899.7 1358.2,12923.2C1385.51,12977.9 1402.53,13004.4 1420.97,13049.4C1444.56,13106.9 1422.77,13140.8 1367.17,13225C1337.26,13270.3 1304.74,13407 1272.32,13413.5C1243.88,13419.2 1200.1,13296.8 1196.07,13261.9C1181.05,13132 1208.31,12956.5 1210.17,12794.2C1210.4,12774.5 1218.82,12745.8 1215.13,12742.1C1209.42,12736.4 1191.54,12740.5 1177.74,12740.5C1173.64,12740.5 1143.61,12737.1 1143.02,12738.9C1118.48,12812.5 1123.42,12834.7 1127.41,12884.8C1132.48,12948.2 1130.11,12999.6 1116.01,13035.6C1108.34,13055.2 1101.12,13060.9 1098.26,13063.7C1089.38,13072.5 1030.32,12988.8 1005.15,12955.2C997.273,12944.7 922.527,12803.3 879.235,12742.1C870.836,12730.2 833.49,12739.3 818.34,12739.3Z"/>
            </g>
        </g>
    </g>
</svg>
