<?xml version="1.0" encoding="UTF-8" standalone="no"?>
<!DOCTYPE svg PUBLIC "-//W3C//DTD SVG 1.1//EN" "http://www.w3.org/Graphics/SVG/1.1/DTD/svg11.dtd">
<svg width="100%" height="100%" viewBox="0 0 2076 478" version="1.1" xmlns="http://www.w3.org/2000/svg" xmlns:xlink="http://www.w3.org/1999/xlink" xml:space="preserve" xmlnsSerif="http://www.serif.com/" style="fill-rule:evenodd;clip-rule:evenodd;stroke-linejoin:round;stroke-miterlimit:2;">
    <g transform="matrix(1,0,0,1,-961.698,-3631.06)">
        <g transform="matrix(1,0,0,1,-3300.29,3090.3)">
            <g id="First-Name" serifId="First Name" transform="matrix(1,0,0,1,-622.71,217.639)">
                <path d="M5285.36,339.878C5280.9,328.711 5271.74,323.128 5257.89,323.128L5070.29,323.128C5051.09,323.128 5041.48,332.285 5041.48,350.598C5041.48,362.211 5046.62,370.475 5056.89,375.388L5060.24,377.398C5070.07,381.865 5075.88,390.351 5077.66,402.858L5078.33,618.598L5078.33,682.248C5078.33,691.181 5077.66,697.881 5076.32,702.348C5074.53,706.368 5072.97,710.053 5071.63,713.403C5070.29,716.753 5068.73,719.545 5066.94,721.778C5062.48,730.265 5054.44,734.508 5042.82,734.508C5034.34,734.508 5027.08,731.158 5021.05,724.458C5015.02,717.758 5012,711.281 5012,705.028C5012,703.688 5012.45,701.678 5013.34,698.998C5014.23,696.318 5015.24,693.638 5016.36,690.958C5017.47,688.278 5018.7,685.821 5020.04,683.588C5021.38,681.355 5022.72,679.791 5024.06,678.898L5027.41,676.888L5032.77,674.208L5034.78,672.198L5038.13,669.518C5048.4,661.478 5053.54,650.088 5053.54,635.348C5053.54,618.375 5047.07,604.081 5034.11,592.468C5018.48,579.068 4999.94,572.368 4978.5,572.368C4949.91,572.368 4926.69,584.428 4908.82,608.548C4892.74,630.881 4884.7,656.565 4884.7,685.598C4887.83,719.991 4899.89,746.121 4920.88,763.988C4928.92,771.135 4937.41,776.83 4946.34,781.073C4955.28,785.316 4964.43,788.666 4973.81,791.123C4983.19,793.58 4992.8,795.478 5002.62,796.818C5012.45,798.158 5022.05,799.498 5031.43,800.838L5070.29,800.838C5190.44,800.838 5250.52,755.055 5250.52,663.488L5251.19,409.558L5251.19,402.858C5253.43,389.905 5259.01,381.418 5267.94,377.398L5271.29,375.388C5282.01,369.581 5287.37,361.318 5287.37,350.598C5287.37,347.025 5286.7,343.451 5285.36,339.878Z" style="fill:rgb(0,44,81);fill-rule:nonzero;"/>
                <path d="M5702.1,776.718C5702.99,773.145 5703.44,770.241 5703.44,768.008C5703.44,758.628 5700.09,751.481 5693.39,746.568L5689.37,743.888L5685.35,742.548C5675.08,737.188 5669.72,725.128 5669.27,706.368C5669.72,711.281 5669.94,710.165 5669.94,703.018L5669.94,587.108C5669.94,541.995 5651.18,510.281 5613.66,491.968C5596.24,483.481 5580.39,478.345 5566.09,476.558C5557.16,475.218 5547.56,474.325 5537.28,473.878C5527.01,473.431 5516.29,473.431 5505.12,473.878L5459.56,475.888L5442.14,477.898C5426.51,479.685 5412.77,481.806 5400.94,484.263C5389.1,486.72 5379.39,489.511 5371.79,492.638C5346.33,502.911 5333.6,519.215 5333.6,541.548C5333.6,563.881 5344.32,577.281 5365.76,581.748L5375.81,583.758C5378.05,584.205 5380.39,584.54 5382.85,584.763C5385.3,584.986 5387.65,585.098 5389.88,585.098C5408.19,585.098 5423.83,578.398 5436.78,564.998L5444.82,556.288L5458.89,542.218L5464.25,537.528C5470.51,533.955 5476.31,532.168 5481.67,532.168C5498.65,532.168 5509.14,542.441 5513.16,562.988L5514.5,579.738L5513.83,586.438L5476.31,589.118L5461.57,590.458L5438.79,593.138C5429.86,594.031 5421.15,595.483 5412.66,597.493C5404.18,599.503 5395.47,601.848 5386.53,604.528C5332.48,621.055 5305.46,652.545 5305.46,698.998C5305.46,728.478 5314.4,750.588 5332.26,765.328C5362.19,789.001 5391.89,800.838 5421.37,800.838C5446.39,800.838 5466.93,797.935 5483.01,792.128L5485.69,790.788L5496.41,784.758C5508.47,777.611 5516.29,772.028 5519.86,768.008L5521.87,772.028L5525.89,778.058L5528.57,781.408L5529.91,783.418C5535.72,789.225 5544.65,792.128 5556.71,792.128L5677.31,792.128C5688.93,792.128 5697.19,786.991 5702.1,776.718ZM5514.5,694.978L5513.83,697.658L5513.16,703.018C5510.48,709.718 5506.91,715.301 5502.44,719.768C5494.85,728.255 5487.48,732.721 5480.33,733.168C5457.11,736.295 5445.49,724.905 5445.49,698.998C5445.49,677.558 5451.74,662.595 5464.25,654.108C5469.16,650.535 5473.3,647.855 5476.65,646.068C5480,644.281 5482.12,643.165 5483.01,642.718L5511.82,637.358L5514.5,637.358L5514.5,694.978Z" style="fill:rgb(0,44,81);fill-rule:nonzero;"/>
                <path d="M6054.52,538.868C6052.29,518.768 6047.82,505.591 6041.12,499.338C6032.19,490.851 6014.1,484.375 5986.85,479.908C5976.13,478.121 5965.86,476.781 5956.03,475.888C5946.2,474.995 5936.82,474.548 5927.89,474.548C5893.05,474.548 5865.14,477.005 5844.14,481.918C5816,487.725 5791.44,500.231 5770.44,519.438C5750.79,536.411 5740.74,559.191 5740.29,587.778C5739.85,611.005 5749.23,631.998 5768.43,650.758C5783.62,665.945 5799.48,674.878 5816,677.558L5864.24,691.628L5880.32,696.988C5893.72,703.241 5900.42,711.281 5900.42,721.108C5900.42,728.701 5895.51,734.731 5885.68,739.198C5877.64,742.771 5870.27,744.558 5863.57,744.558C5841.69,744.558 5824.49,736.295 5811.98,719.768L5796.57,700.338L5795.23,698.998C5789.87,691.851 5780.27,688.278 5766.42,688.278C5755.7,688.278 5746.77,691.628 5739.62,698.328C5732.48,705.028 5728.9,713.738 5728.9,724.458C5728.9,749.025 5743.19,767.561 5771.78,780.068C5781.61,784.535 5796.8,788.555 5817.34,792.128C5844.14,797.488 5872.95,800.168 5903.77,800.168L5928.56,797.488C5948.22,795.701 5967.87,791.011 5987.52,783.418C6040.23,762.871 6066.58,730.711 6066.58,686.938C6066.58,673.091 6063.12,659.691 6056.2,646.738C6049.27,633.785 6041.12,624.181 6031.74,617.928C6024.15,613.015 6017.78,609.106 6012.65,606.203C6007.51,603.3 6003.38,601.401 6000.25,600.508L5949.33,585.098L5942.63,582.418L5933.25,579.068L5927.22,576.388L5921.86,574.378L5913.82,570.358C5904.44,565.891 5899.75,559.861 5899.75,552.268C5899.75,537.081 5914.72,529.488 5944.64,529.488C5961.17,529.488 5974.12,534.848 5983.5,545.568C5986.63,548.695 5992.44,558.298 6000.92,574.378C6006.28,585.098 6012.53,590.458 6019.68,590.458C6025.49,590.458 6029.06,590.235 6030.4,589.788C6047.38,589.788 6055.86,577.728 6055.86,553.608C6055.86,553.161 6055.75,551.821 6055.53,549.588C6055.3,547.355 6054.97,543.781 6054.52,538.868Z" style="fill:rgb(0,44,81);fill-rule:nonzero;"/>
                <path d="M6492.03,636.688C6492.03,591.575 6477.96,554.948 6449.82,526.808C6414.09,491.075 6363.39,473.208 6297.73,473.208C6291.48,473.208 6270.71,475.218 6235.42,479.238C6196.56,483.705 6164.85,501.348 6140.28,532.168C6115.72,562.095 6103.43,596.935 6103.43,636.688C6103.43,674.655 6114.6,708.825 6136.93,739.198C6160.16,771.358 6190.76,789.448 6228.72,793.468C6247.48,795.701 6261.66,797.376 6271.27,798.493C6280.87,799.61 6285.9,800.168 6286.34,800.168L6297.73,800.168C6328.55,797.041 6351.78,795.031 6367.41,794.138C6404.04,790.118 6434.41,771.805 6458.53,739.198C6480.86,708.825 6492.03,674.655 6492.03,636.688ZM6347.31,615.248C6347.31,632.668 6346.98,647.743 6346.31,660.473C6345.64,673.203 6344.86,683.365 6343.96,690.958C6338.6,728.031 6323.19,746.568 6297.73,746.568C6284.78,746.568 6274.51,741.431 6266.91,731.158C6254.4,713.291 6248.15,681.801 6248.15,636.688C6248.15,594.255 6253.51,564.551 6264.23,547.578C6274.06,535.071 6285.23,528.818 6297.73,528.818C6311.13,528.818 6321.4,533.731 6328.55,543.558C6341.06,560.531 6347.31,584.428 6347.31,615.248Z" style="fill:rgb(0,44,81);fill-rule:nonzero;"/>
                <path d="M6933.56,792.128C6951.43,792.128 6960.36,783.641 6960.36,766.668C6960.36,758.628 6957.01,751.928 6950.31,746.568L6945.62,743.888L6942.27,742.548C6932,735.848 6926.86,725.798 6926.86,712.398L6926.86,678.228L6927.53,670.188L6927.53,617.258C6927.53,568.571 6918.04,532.615 6899.06,509.388C6880.07,486.161 6849.59,474.548 6807.6,474.548C6752.66,474.548 6714.03,490.405 6691.69,522.118L6691.69,502.688L6691.02,499.338C6687.9,481.471 6678.96,472.538 6664.22,472.538C6660.65,472.538 6658.19,472.761 6656.85,473.208L6535.58,507.378C6520.84,511.398 6513.47,519.885 6513.47,532.838C6513.47,542.218 6516.82,549.141 6523.52,553.608L6527.54,556.288L6530.89,558.298C6540.27,564.105 6545.19,571.698 6545.63,581.078L6546.3,712.398L6545.63,717.088C6543.4,730.935 6538.04,739.421 6529.55,742.548L6526.2,743.888C6516.82,750.141 6512.13,757.735 6512.13,766.668C6512.13,772.475 6514.48,778.17 6519.17,783.753C6523.86,789.336 6530.44,792.128 6538.93,792.128L6709.78,792.128C6725.86,792.128 6733.9,783.865 6733.9,767.338C6733.9,757.065 6729.21,749.248 6719.83,743.888L6716.48,742.548C6711.57,740.761 6708.89,739.31 6708.44,738.193C6707.99,737.076 6707.55,732.945 6707.1,725.798L6706.43,592.468C6706.43,561.648 6717.6,546.238 6739.93,546.238C6754.67,546.238 6763.61,555.171 6766.73,573.038L6768.07,581.078L6768.07,599.838L6769.41,623.288L6769.41,668.178L6768.74,693.638L6768.07,712.398L6768.07,719.098L6767.4,725.798L6766.73,736.518C6766.28,737.858 6763.16,739.868 6757.35,742.548L6754.67,743.888C6745.29,748.801 6740.6,756.395 6740.6,766.668C6740.6,772.475 6742.95,778.17 6747.64,783.753C6752.33,789.336 6758.91,792.128 6767.4,792.128L6933.56,792.128Z" style="fill:rgb(0,44,81);fill-rule:nonzero;"/>
            </g>
        </g>
    </g>
</svg>
