<?xml version="1.0" encoding="UTF-8" standalone="no"?>
<!DOCTYPE svg PUBLIC "-//W3C//DTD SVG 1.1//EN" "http://www.w3.org/Graphics/SVG/1.1/DTD/svg11.dtd">
<svg width="100%" height="100%" viewBox="0 0 1926 543" version="1.1" xmlns="http://www.w3.org/2000/svg" xmlns:xlink="http://www.w3.org/1999/xlink" xml:space="preserve" xmlns:serif="http://www.serif.com/" style="fill-rule:evenodd;clip-rule:evenodd;stroke-linejoin:round;stroke-miterlimit:2;">
    <g transform="matrix(1,0,0,1,-1135.99,-3982.8)">
        <g transform="matrix(1,0,0,1,-3300.29,3090.3)">
            <g id="Last-Name" serif:id="Last Name" transform="matrix(1.02716,0,0,1.02716,-567.655,507.463)">
                <path d="M5262.68,431.172L5256.28,402.645L5254.53,397.988C5249.1,389.061 5241.92,384.597 5232.99,384.597L4917.45,384.597C4908.52,384.597 4901.34,389.061 4895.91,397.988L4893.58,403.227L4887.76,431.172C4883.49,452.519 4881.35,463.775 4881.35,464.939C4881.35,472.701 4884.46,479.688 4890.67,485.898C4896.88,492.108 4905.03,494.436 4915.12,492.884C4927.15,491.331 4937.24,482.793 4945.39,467.268C4948.11,462.222 4950.83,458.05 4953.54,454.751C4956.26,451.452 4959.27,448.638 4962.57,446.309C4965.87,443.98 4969.75,442.234 4974.21,441.069C4978.67,439.905 4984.2,438.741 4990.8,437.576L5000.12,437.576L5000.12,717.026L4999.54,722.848C4998.37,733.715 4993.71,741.09 4985.56,744.971L4982.07,746.717C4973.14,750.987 4968.68,757.973 4968.68,767.676C4968.68,771.557 4969.46,774.856 4971.01,777.573C4973.73,787.276 4981.29,792.128 4993.71,792.128L5156.73,792.128C5173.8,792.128 5182.34,784.171 5182.34,768.258C5182.34,758.555 5177.88,751.375 5168.95,746.717L5167.2,745.553L5165.46,744.971C5157.31,741.09 5152.65,733.715 5151.49,722.848L5150.9,437.576L5160.8,437.576C5174,439.517 5183.51,442.428 5189.33,446.309C5195.15,450.19 5200.39,456.982 5205.05,466.686C5212.42,482.211 5222.51,490.943 5235.32,492.884C5244.64,494.436 5252.98,491.914 5260.36,485.316C5266.18,479.494 5269.09,472.896 5269.09,465.521C5269.09,463.581 5268.51,459.796 5267.34,454.169C5266.18,448.541 5264.62,440.875 5262.68,431.172Z" style="fill:none;fill-rule:nonzero;stroke:white;stroke-width:19.47px;"/>
                <path d="M5618.98,657.061C5618.98,617.86 5606.76,586.034 5582.31,561.582C5551.26,530.532 5507.2,515.007 5450.15,515.007C5444.71,515.007 5426.67,516.754 5396.01,520.247C5362.24,524.128 5334.68,539.459 5313.33,566.24C5291.99,592.244 5281.31,622.518 5281.31,657.061C5281.31,690.051 5291.02,719.743 5310.42,746.135C5330.61,774.08 5357.19,789.799 5390.18,793.292C5406.48,795.233 5418.81,796.688 5427.15,797.659C5435.5,798.629 5439.86,799.114 5440.25,799.114L5450.15,799.114C5476.93,796.397 5497.11,794.651 5510.7,793.875C5542.52,790.381 5568.91,774.468 5589.87,746.135C5609.28,719.743 5618.98,690.051 5618.98,657.061ZM5493.23,638.431C5493.23,653.568 5492.94,666.667 5492.36,677.728C5491.78,688.79 5491.1,697.62 5490.32,704.218C5485.66,736.432 5472.27,752.539 5450.15,752.539C5438.89,752.539 5429.97,748.076 5423.37,739.149C5412.5,723.624 5407.07,696.261 5407.07,657.061C5407.07,620.189 5411.72,594.379 5421.04,579.63C5429.58,568.762 5439.28,563.329 5450.15,563.329C5461.79,563.329 5470.72,567.598 5476.93,576.137C5487.8,590.885 5493.23,611.65 5493.23,638.431Z" style="fill:none;fill-rule:nonzero;stroke:white;stroke-width:19.47px;"/>
                <path d="M6000.32,792.128C6015.84,792.128 6023.6,784.754 6023.6,770.005C6023.6,762.242 6020.5,756.421 6014.29,752.539L6010.79,750.211L6008.47,749.046C5999.15,744.389 5994.49,735.656 5994.49,722.848L5994.49,558.671C5994.49,545.475 5992.75,534.413 5989.25,525.486C5986.54,518.112 5980.33,514.425 5970.62,514.425C5967.52,514.425 5965.38,514.619 5964.22,515.007L5846.03,544.699C5833.61,550.132 5827.4,557.701 5827.4,567.404C5827.4,575.166 5830.32,580.988 5836.14,584.869L5841.38,588.363L5843.12,588.945C5850.11,592.826 5854.38,599.424 5855.93,608.739L5855.93,684.423L5854.77,706.547L5854.19,710.04L5853.02,714.697L5851.86,718.772C5849.14,728.476 5841.96,733.909 5830.32,735.074C5827.99,735.074 5826.44,735.268 5825.66,735.656C5813.63,735.656 5806.84,730.416 5805.28,719.937L5807.61,558.671C5808,546.639 5806.25,535.578 5802.37,525.486C5799.65,518.112 5793.25,514.425 5783.16,514.425C5780.05,514.425 5777.92,514.619 5776.76,515.007L5659.73,544.699C5646.54,549.356 5639.94,556.925 5639.94,567.404C5639.94,574.39 5642.85,580.212 5648.67,584.869L5652.75,587.198L5655.66,588.945C5662.65,592.826 5667.11,599.618 5669.05,609.321L5664.98,717.608C5664.2,740.896 5673.03,759.914 5691.47,774.662C5709.9,789.411 5735.42,796.785 5768.02,796.785L5776.17,796.785C5778.89,796.785 5781.22,796.591 5783.16,796.203L5815.18,792.128C5830.7,790.576 5846.62,781.649 5862.92,765.347L5868.16,760.108L5868.74,763.601C5870.29,771.751 5873.49,778.544 5878.35,783.977C5883.2,789.411 5888.53,792.128 5894.36,792.128L6000.32,792.128Z" style="fill:none;fill-rule:nonzero;stroke:white;stroke-width:19.47px;"/>
                <path d="M6409.01,650.074C6409.01,608.545 6395.43,576.137 6368.26,552.849C6351.96,538.877 6336.04,528.98 6320.52,523.158C6319.74,522.77 6310.43,520.441 6292.57,516.171L6277.44,516.171C6246.39,516.171 6223.1,526.263 6207.57,546.445L6199.42,556.925L6199.42,545.281L6198.26,537.712L6196.51,531.89C6191.08,520.247 6183.7,514.425 6174.39,514.425C6171.28,514.425 6169.15,514.619 6167.99,515.007L6052.71,544.699C6039.52,548.192 6032.92,555.76 6032.92,567.404C6032.92,575.166 6035.83,580.988 6041.65,584.869L6045.14,587.198L6046.89,587.78L6048.64,588.945C6050.97,590.109 6052.81,591.079 6054.17,591.856C6055.53,592.632 6056.5,593.796 6057.08,595.349C6057.66,596.901 6058.15,599.036 6058.53,601.753C6058.92,604.47 6059.5,608.157 6060.28,612.814L6060.28,823.566L6059.7,829.388C6059.31,838.703 6055.04,845.495 6046.89,849.765L6043.98,850.929C6035.83,856.363 6031.75,862.961 6031.75,870.723C6031.75,875.769 6033.79,880.717 6037.87,885.569C6041.94,890.421 6047.67,892.846 6055.04,892.846L6206.41,892.846C6221.55,892.846 6229.11,885.472 6229.11,870.723C6229.11,863.737 6226.4,857.915 6220.96,853.258L6217.47,850.929L6213.98,849.765C6205.05,845.107 6200.59,836.374 6200.59,823.566L6200.59,623.294C6200.59,605.828 6202.72,593.796 6206.99,587.198C6211.26,580.6 6218.25,576.719 6227.95,575.554C6241.53,575.554 6251.62,584.093 6258.22,601.171L6260.55,607.575L6262.3,613.397C6266.57,628.533 6268.7,639.401 6268.7,645.999L6269.87,654.15L6269.87,661.718L6270.45,670.451L6270.45,677.437L6269.87,685.588C6268.7,702.277 6266.18,714.212 6262.3,721.392C6258.42,728.573 6252.4,733.133 6244.25,735.074C6238.82,736.626 6234.84,737.791 6232.32,738.567C6229.79,739.343 6228.53,739.731 6228.53,739.731C6218.05,745.553 6212.81,753.51 6212.81,763.601C6215.53,789.993 6228.92,801.637 6252.98,798.532C6260.36,798.532 6264.63,798.338 6265.79,797.95C6282.09,797.95 6310.43,790.964 6350.79,776.991C6381.07,766.124 6398.14,746.135 6402.02,717.026C6406.68,682.095 6409.01,663.077 6409.01,659.972L6409.01,650.074Z" style="fill:none;fill-rule:nonzero;stroke:white;stroke-width:19.47px;"/>
                <path d="M6726.3,572.061C6724.36,554.596 6720.48,543.146 6714.66,537.712C6706.9,530.338 6691.18,524.71 6667.5,520.829C6658.19,519.276 6649.26,518.112 6640.72,517.336C6632.18,516.56 6624.03,516.171 6616.27,516.171C6585.99,516.171 6561.74,518.306 6543.49,522.575C6519.04,527.621 6497.7,538.489 6479.45,555.178C6462.38,569.927 6453.64,589.721 6453.26,614.561C6452.87,634.743 6461.02,652.985 6477.71,669.287C6490.9,682.483 6504.68,690.245 6519.04,692.574L6560.96,704.8L6574.93,709.457C6586.58,714.891 6592.4,721.877 6592.4,730.416C6592.4,737.014 6588.13,742.254 6579.59,746.135C6572.6,749.24 6566.2,750.793 6560.38,750.793C6541.36,750.793 6526.42,743.612 6515.55,729.252L6502.16,712.368L6500.99,711.204C6496.34,704.994 6487.99,701.889 6475.96,701.889C6466.65,701.889 6458.88,704.8 6452.67,710.622C6446.46,716.444 6443.36,724.012 6443.36,733.327C6443.36,754.674 6455.78,770.781 6480.62,781.649C6489.16,785.53 6502.35,789.023 6520.21,792.128C6543.49,796.785 6568.53,799.114 6595.31,799.114L6616.85,796.785C6633.93,795.233 6651.01,791.158 6668.08,784.56C6713.88,766.706 6736.78,738.761 6736.78,700.725C6736.78,688.693 6733.77,677.049 6727.76,665.793C6721.74,654.538 6714.66,646.193 6706.51,640.759C6699.91,636.49 6694.38,633.094 6689.91,630.571C6685.45,628.048 6681.86,626.399 6679.15,625.623L6634.9,612.232L6629.08,609.904L6620.93,606.993L6615.69,604.664L6611.03,602.917L6604.04,599.424C6595.89,595.543 6591.82,590.303 6591.82,583.705C6591.82,570.509 6604.82,563.911 6630.82,563.911C6645.18,563.911 6656.44,568.568 6664.59,577.883C6667.31,580.6 6672.35,588.945 6679.73,602.917C6684.38,612.232 6689.82,616.89 6696.03,616.89C6701.07,616.89 6704.18,616.696 6705.34,616.308C6720.09,616.308 6727.47,605.828 6727.47,584.869C6727.47,584.481 6727.37,583.317 6727.18,581.376C6726.98,579.436 6726.69,576.331 6726.3,572.061Z" style="fill:none;fill-rule:nonzero;stroke:white;stroke-width:19.47px;"/>
            </g>
        </g>
    </g>
</svg>
