<?xml version="1.0" encoding="UTF-8" standalone="no"?>
<!DOCTYPE svg PUBLIC "-//W3C//DTD SVG 1.1//EN" "http://www.w3.org/Graphics/SVG/1.1/DTD/svg11.dtd">
<svg width="100%" height="100%" viewBox="0 0 501 336" version="1.1" xmlns="http://www.w3.org/2000/svg" xmlns:xlink="http://www.w3.org/1999/xlink" xml:space="preserve" xmlns:serif="http://www.serif.com/" style="fill-rule:evenodd;clip-rule:evenodd;stroke-linejoin:round;stroke-miterlimit:2;">
    <g transform="matrix(1,0,0,1,-9839.37,-412.512)">
        <g transform="matrix(1,0,0,1,4714.96,-2.70175)">
            <g id="braces" transform="matrix(5.5475e-17,0.905975,-0.905975,5.5475e-17,5801.21,-125.535)">
                <path d="M769.094,231.558C769.094,216.01 768.296,206.841 766.702,204.05C763.911,198.867 756.536,196.276 744.576,196.276L660.258,196.276C677.799,196.276 667.234,195.678 628.564,194.482C617.8,194.482 609.826,196.475 604.644,200.462C599.461,204.449 596.87,212.821 596.87,225.578L596.87,728.496C597.667,731.287 599.062,734.476 601.056,738.064C602.252,740.456 603.448,742.25 604.644,743.446C605.84,744.642 607.534,745.539 609.727,746.137C611.919,746.735 614.61,747.034 617.8,747.034L752.35,747.034C759.924,747.034 765.306,743.446 768.496,736.27L768.496,707.566C766.901,703.579 763.114,700.789 757.134,699.194L753.546,698.596L724.842,698.596L725.44,261.458L725.44,244.116L746.37,244.116C761.519,244.116 769.094,239.93 769.094,231.558Z" style="fill:rgb(107,79,140);fill-rule:nonzero;"/>
                <path d="M967.63,717.732L967.63,215.412C966.832,212.621 965.836,210.329 964.64,208.535C963.444,206.741 962.447,205.047 961.65,203.452C958.46,198.668 937.73,196.276 899.458,196.276L812.748,196.276C809.957,196.276 806.17,196.874 801.386,198.07C797,201.259 795.206,204.249 796.004,207.04L796.004,220.794L795.406,235.744C796.602,239.332 800.588,242.123 807.366,244.116L811.552,244.714L839.658,244.714L839.06,681.254L839.06,699.194L817.532,699.194C802.781,699.194 795.406,703.579 795.406,712.35C795.406,728.297 796.602,738.064 798.994,741.652C801.386,745.24 808.362,747.034 819.924,747.034L903.644,747.034C936.334,747.034 955.271,746.037 960.454,744.044C965.238,742.449 967.63,733.679 967.63,717.732Z" style="fill:rgb(107,79,140);fill-rule:nonzero;"/>
            </g>
        </g>
    </g>
</svg>
