<?xml version="1.0" encoding="UTF-8" standalone="no"?>
<!DOCTYPE svg PUBLIC "-//W3C//DTD SVG 1.1//EN" "http://www.w3.org/Graphics/SVG/1.1/DTD/svg11.dtd">
<svg width="100%" height="100%" viewBox="0 0 556 338" version="1.1" xmlns="http://www.w3.org/2000/svg" xmlns:xlink="http://www.w3.org/1999/xlink" xml:space="preserve" xmlns:serif="http://www.serif.com/" style="fill-rule:evenodd;clip-rule:evenodd;stroke-linejoin:round;stroke-miterlimit:2;">
    <g transform="matrix(1,0,0,1,-9242.77,-22.1435)">
        <g transform="matrix(1,0,0,1,4714.96,-2.70175)">
            <g id="tags" transform="matrix(0.674264,0,0,0.674264,4030.82,-579.66)">
                <path d="M1026.52,1317.53L1026.52,1298.4C1026.52,1290.82 1024.73,1284.84 1021.14,1280.46C1018.35,1278.07 1012.57,1274.68 1003.8,1270.29L847.122,1202.12L1003.8,1133.95C1018.95,1127.17 1026.52,1117.6 1026.52,1105.24L1026.52,1086.7C1026.52,1067.17 1022.54,1057.4 1014.56,1057.4C1013.37,1057.4 1005.79,1059.6 991.838,1063.98L747.256,1170.42C740.479,1173.61 737.09,1184.18 737.09,1202.12C737.09,1220.06 740.479,1230.62 747.256,1233.81L991.838,1340.26C1002.6,1344.64 1010.18,1346.84 1014.56,1346.84C1022.54,1346.84 1026.52,1337.07 1026.52,1317.53Z" style="fill:rgb(2,136,254);fill-rule:nonzero;"/>
                <path d="M1269.31,908.501C1270.51,904.913 1270.21,902.022 1268.41,899.83C1266.62,897.637 1264.13,896.541 1260.94,896.541L1248.38,897.139L1238.21,897.139L1236.42,897.737C1228.45,897.737 1223.07,899.132 1220.27,901.923C1217.48,904.713 1214.29,910.693 1210.71,919.863L1035.49,1368.96L1028.32,1385.7C1028.32,1390.49 1028.82,1393.38 1029.81,1394.38C1030.81,1395.37 1034.3,1396.27 1040.28,1397.07L1054.03,1397.66L1063.6,1397.66C1073.96,1397.66 1081.74,1390.89 1086.92,1377.33L1263.33,926.441L1269.31,908.501Z" style="fill:rgb(2,136,254);fill-rule:nonzero;"/>
                <path d="M1560.54,1202.12C1560.54,1184.18 1557.15,1173.61 1550.37,1170.42L1305.79,1063.98C1295.02,1059.6 1287.45,1057.4 1283.06,1057.4C1275.09,1057.4 1271.1,1067.17 1271.1,1086.7L1271.1,1105.84C1271.1,1113.81 1272.7,1119.5 1275.89,1122.88C1279.08,1126.27 1285.06,1129.96 1293.83,1133.95L1450.5,1202.12L1293.83,1270.29C1278.68,1277.07 1271.1,1286.64 1271.1,1299L1271.1,1317.53C1271.1,1337.07 1275.09,1346.84 1283.06,1346.84C1287.45,1346.84 1295.02,1344.64 1305.79,1340.26L1550.37,1233.81C1557.15,1230.62 1560.54,1220.06 1560.54,1202.12Z" style="fill:rgb(2,136,254);fill-rule:nonzero;"/>
            </g>
        </g>
    </g>
</svg>
