<?xml version="1.0" encoding="UTF-8" standalone="no"?>
<!DOCTYPE svg PUBLIC "-//W3C//DTD SVG 1.1//EN" "http://www.w3.org/Graphics/SVG/1.1/DTD/svg11.dtd">
<svg width="100%" height="100%" viewBox="0 0 156 138" version="1.1" xmlns="http://www.w3.org/2000/svg" xmlns:xlink="http://www.w3.org/1999/xlink" xml:space="preserve" xmlnsSerif="http://www.serif.com/" style="fill-rule:evenodd;clip-rule:evenodd;stroke-linejoin:round;stroke-miterlimit:2;">
    <g transform="matrix(1,0,0,1,-8432,-3900)">
        <g transform="matrix(0.446014,0,0,0.446014,7013.5,3883.68)">
            <g id="ampersand" transform="matrix(0.701259,0,0,0.701259,2507.81,-935.16)">
                <path d="M1456.26,1777.78C1456.26,1765.02 1452.27,1756.85 1444.3,1753.26C1439.91,1750.47 1435.73,1749.87 1431.74,1751.47C1421.38,1755.06 1412.8,1756.85 1406.03,1756.85C1388.88,1756.85 1372.94,1750.27 1358.19,1737.12L1345.03,1725.75L1361.78,1704.82C1368.55,1696.45 1375.03,1687.88 1381.21,1679.11C1387.39,1670.34 1393.27,1661.37 1398.85,1652.2L1411.41,1631.87C1415.79,1627.08 1421.77,1623.1 1429.35,1619.91C1440.91,1615.92 1447.69,1608.75 1449.68,1598.38C1449.68,1580.84 1444.1,1572.07 1432.94,1572.07L1327.69,1572.07L1313.93,1571.47C1301.58,1574.26 1296.19,1583.03 1297.79,1597.78L1298.99,1603.16C1301.78,1609.14 1306.56,1613.53 1313.34,1616.32C1320.91,1619.11 1324.7,1621.1 1324.7,1622.3C1328.29,1625.49 1330.08,1629.67 1330.08,1634.86C1330.08,1648.41 1323.9,1662.17 1311.54,1676.12L1307.36,1679.71L1304.37,1682.7L1227.23,1583.43L1235,1580.44L1236.79,1579.24L1272.08,1565.49C1307.16,1545.95 1324.7,1517.25 1324.7,1479.38C1324.7,1456.26 1314.73,1436.52 1294.8,1420.18C1268.89,1399.05 1230.61,1388.48 1179.98,1388.48L1176.39,1388.48C1174.8,1388.48 1172.81,1388.68 1170.41,1389.08L1128.56,1392.67C1100.65,1395.06 1076.53,1407.02 1056.2,1428.55C1035.87,1449.68 1025.7,1474.19 1025.7,1502.1L1025.7,1508.68C1025.7,1511.47 1026.3,1517.85 1027.49,1527.82C1028.29,1533.4 1030.58,1540.27 1034.37,1548.45C1038.16,1556.62 1043.44,1565.89 1050.22,1576.25L1058.59,1588.81L1051.41,1591.8L1046.03,1594.19L1031.68,1602.57C998.988,1621.7 977.46,1642.43 967.095,1664.76C962.71,1674.33 960.118,1690.27 959.321,1712.6C958.524,1773.59 995.6,1809.87 1070.55,1821.43L1101.64,1825.62C1159.85,1825.62 1202.91,1817.45 1230.81,1801.1L1241.58,1794.52L1252.94,1801.1C1271.68,1812.27 1288.02,1819.04 1301.98,1821.43C1307.56,1822.23 1315.03,1822.83 1324.4,1823.23C1333.77,1823.63 1345.43,1823.83 1359.38,1823.83C1376.53,1823.83 1393.47,1820.64 1410.21,1814.26L1422.17,1809.47C1444.9,1800.7 1456.26,1790.14 1456.26,1777.78ZM1216.46,1489.54C1216.46,1496.72 1212.87,1505.29 1205.7,1515.26L1194.34,1526.62L1188.95,1531.4L1186.56,1533.8L1181.78,1526.02L1179.98,1523.63L1171.61,1515.26C1166.03,1508.88 1162.44,1502.9 1160.85,1497.32L1159.05,1491.34C1157.86,1485.36 1157.26,1480.17 1157.26,1475.79C1157.26,1454.66 1166.43,1444.1 1184.77,1444.1C1206.3,1444.1 1217.06,1456.85 1217.06,1482.37C1217.06,1485.96 1216.86,1488.35 1216.46,1489.54ZM1191.94,1753.26L1188.95,1756.25L1185.37,1758.64C1176.59,1764.23 1165.63,1767.02 1152.48,1767.02C1130.55,1767.02 1113.01,1761.04 1099.85,1749.08C1086.69,1737.12 1080.12,1720.17 1080.12,1698.25L1080.12,1690.47C1081.71,1681.3 1083.41,1672.13 1085.2,1662.96C1086.99,1653.8 1091.48,1645.62 1098.65,1638.45L1191.94,1753.26Z" style="fill:rgb(250,53,101);fill-rule:nonzero;"/>
            </g>
        </g>
    </g>
</svg>
