<?xml version="1.0" encoding="UTF-8" standalone="no"?>
<!DOCTYPE svg PUBLIC "-//W3C//DTD SVG 1.1//EN" "http://www.w3.org/Graphics/SVG/1.1/DTD/svg11.dtd">
<svg width="100%" height="100%" viewBox="0 0 224 72" version="1.1" xmlns="http://www.w3.org/2000/svg" xmlns:xlink="http://www.w3.org/1999/xlink" xml:space="preserve" xmlnsSerif="http://www.serif.com/" style="fill-rule:evenodd;clip-rule:evenodd;stroke-linejoin:round;stroke-miterlimit:2;">
    <g transform="matrix(1,0,0,1,-9557,-3900)">
        <g transform="matrix(0.446014,0,0,0.446014,7013.5,3883.68)">
            <g id="curly-top" transform="matrix(5.39793e-17,-0.895714,0.895714,5.39793e-17,4843.77,1123.62)">
                <path d="M1213.48,1240.36C1202.32,1240.36 1192.95,1236.37 1185.37,1228.4C1177.8,1220.42 1174.01,1210.46 1174.01,1198.5L1174.01,1018.5C1174.01,1000.56 1168.93,986.308 1158.76,975.744C1148.59,965.179 1134.54,959.897 1116.6,959.897L1033.48,959.897L1033.48,1010.13L1041.25,1010.13C1062.78,1010.13 1073.55,1019.5 1073.55,1038.24L1073.55,1185.94C1073.55,1197.5 1076.93,1207.87 1083.71,1217.04C1092.48,1229.39 1106.43,1237.17 1125.57,1240.36C1121.19,1241.16 1117.3,1242.15 1113.91,1243.35C1110.52,1244.55 1107.63,1245.54 1105.24,1246.34C1097.27,1249.13 1089.99,1255.31 1083.41,1264.88C1076.83,1274.44 1073.55,1284.41 1073.55,1294.78L1073.55,1442.48C1073.55,1460.42 1062.78,1469.39 1041.25,1469.39L1033.48,1469.39L1033.48,1519.62L1116.6,1519.62C1154.87,1519.62 1174.01,1500.09 1174.01,1461.02L1174.01,1282.22C1174.01,1270.66 1177.9,1260.79 1185.67,1252.62C1193.44,1244.44 1202.71,1240.36 1213.48,1240.36Z" style="fill:rgb(117,57,252);fill-rule:nonzero;"/>
            </g>
        </g>
    </g>
</svg>
