<?xml version="1.0" encoding="UTF-8" standalone="no"?>
<!DOCTYPE svg PUBLIC "-//W3C//DTD SVG 1.1//EN" "http://www.w3.org/Graphics/SVG/1.1/DTD/svg11.dtd">
<svg width="100%" height="100%" viewBox="0 0 194 251" version="1.1" xmlns="http://www.w3.org/2000/svg" xmlns:xlink="http://www.w3.org/1999/xlink" xml:space="preserve" xmlns:serif="http://www.serif.com/" style="fill-rule:evenodd;clip-rule:evenodd;stroke-linejoin:round;stroke-miterlimit:2;">
    <g transform="matrix(1,0,0,1,-9149,-4350)">
        <g transform="matrix(0.446014,0,0,0.446014,6611.84,4177.91)">
            <g id="dribble-large-2" transform="matrix(1.20086,0,0,1.45548,-1696.21,-771.734)">
                <path d="M6509.14,799.126C6500.05,789.791 6485.53,802.68 6478.35,806.897C6462.81,816.037 6457.56,819.274 6440.71,825.824C6425.53,831.725 6408.79,834.576 6396.82,846.593C6385.02,858.452 6380.65,875.96 6373.61,890.429C6364.92,908.293 6355.76,925.292 6341.53,939.288C6325.57,954.989 6324.49,953.566 6308.9,969.837C6295.08,984.26 6281.44,1003.85 6265.85,1017.14C6249.56,1031.02 6223.13,1022.54 6208.97,1040.59C6201.7,1049.86 6199.98,1063.03 6197.54,1073.98C6191.17,1102.54 6192.06,1102.5 6187.47,1131.26C6184.83,1147.82 6164.69,1148.86 6155.44,1160.19C6152.11,1164.26 6148.53,1173.06 6152.73,1178.08C6154.67,1180.41 6158.6,1181.73 6161.55,1180.88C6176.01,1176.7 6177.85,1173.94 6190.45,1165.72C6201.34,1158.62 6217.8,1151.43 6220.46,1136.55C6221.56,1130.43 6218.91,1118.96 6218.81,1112.94C6218.68,1105.14 6220.03,1092.43 6222.34,1084.94C6224.68,1077.37 6229.31,1065.8 6238.2,1063.11C6251.53,1059.09 6270.53,1067.21 6282,1057.27C6290.27,1050.11 6297.88,1039.98 6303.01,1029.99C6307.15,1021.92 6309.37,1013.66 6314.72,1006.11C6321.89,995.984 6332.63,990.031 6341.59,981.715C6354.2,970.002 6372.94,950.364 6383.39,936.643C6396.86,918.964 6399.47,896.131 6411.46,877.591C6416.88,869.224 6428.7,862.902 6436.91,858.679C6456.74,848.479 6479.4,840.69 6496.59,825.768C6501.28,821.698 6517.55,807.769 6509.14,799.126Z" style="fill:rgb(255,195,0);"/>
            </g>
        </g>
    </g>
</svg>
