<?xml version="1.0" encoding="UTF-8" standalone="no"?>
<!DOCTYPE svg PUBLIC "-//W3C//DTD SVG 1.1//EN" "http://www.w3.org/Graphics/SVG/1.1/DTD/svg11.dtd">
<svg width="100%" height="100%" viewBox="0 0 203 108" version="1.1" xmlns="http://www.w3.org/2000/svg" xmlns:xlink="http://www.w3.org/1999/xlink" xml:space="preserve" xmlns:serif="http://www.serif.com/" style="fill-rule:evenodd;clip-rule:evenodd;stroke-linejoin:round;stroke-miterlimit:2;">
    <g transform="matrix(1,0,0,1,-9077,-4670)">
        <g transform="matrix(0.446014,0,0,0.446014,6611.84,4177.91)">
            <g id="dribble-small-3" transform="matrix(0.897369,-0.0700304,0.0579586,0.742681,494.403,1106.18)">
                <path d="M5618.72,776.691C5646.7,771.53 5675.81,777.481 5704.02,774.837C5714.38,773.866 5720.04,770.386 5729.63,766.575C5729.68,766.555 5747.75,759.846 5751.03,758.063C5760.23,753.057 5768.02,741.53 5774.29,735.461C5785.05,725.044 5802.7,707.437 5818.49,703.384C5825.19,701.664 5832.31,702.497 5839.16,701.536C5848.71,700.196 5858.22,698.51 5867.65,696.486C5894.91,690.637 5920.75,681.555 5944.12,666.001C5950.42,661.806 5953.83,655.116 5957.95,649.132C5969.7,632.061 5979.43,617.45 5992.97,601.696C5995.21,599.091 6000.49,596.536 6003.5,595.173C6019.92,587.736 6036.18,579.909 6052.87,573.094C6059.22,570.5 6070.91,566.863 6074.29,576.21C6079.27,589.97 6070.56,600.184 6062.05,609.791C6055.34,617.367 6053.49,620.733 6044.06,624.759C6035.59,628.374 6024.99,628.653 6017.26,634.224C6005.07,643 5993.02,651.98 5981.31,661.385C5969.82,670.605 5963.78,685.422 5955.56,697.035C5949.18,706.042 5937.78,709.416 5928.76,714.637C5918.07,720.822 5905.58,730.488 5893.91,735.006C5884.27,738.742 5856.49,744.967 5846.18,745.789C5839.76,746.3 5829.79,741.108 5823.51,745.789C5807.38,757.816 5802.53,778.274 5786.86,790.714C5753.02,817.56 5706.43,814.564 5666.4,821.067C5648.48,823.979 5649.35,826.507 5632.03,831.875C5623.64,834.474 5615.02,836.27 5606.56,838.614C5591.21,842.865 5577.05,849.323 5561,845.121C5545.59,841.085 5560.58,822.578 5564.87,817.373C5573.97,806.34 5584.37,798.799 5595.94,790.703C5602.39,786.192 5610.33,778.24 5618.72,776.691Z" style="fill:rgb(1,195,129);"/>
            </g>
        </g>
    </g>
</svg>
