<?xml version="1.0" encoding="UTF-8" standalone="no"?>
<!DOCTYPE svg PUBLIC "-//W3C//DTD SVG 1.1//EN" "http://www.w3.org/Graphics/SVG/1.1/DTD/svg11.dtd">
<svg width="100%" height="100%" viewBox="0 0 238 232" version="1.1" xmlns="http://www.w3.org/2000/svg" xmlns:xlink="http://www.w3.org/1999/xlink" xml:space="preserve" xmlnsSerif="http://www.serif.com/" style="fill-rule:evenodd;clip-rule:evenodd;stroke-linejoin:round;stroke-miterlimit:2;">
    <g transform="matrix(1,0,0,1,-8352,-4363)">
        <g transform="matrix(0.446014,0,0,0.446014,6611.84,4177.91)">
            <g id="splotch-large-3" transform="matrix(1,0,0,1,-601.491,-559.394)">
                <path d="M4931.56,976.125C4915.65,977.272 4906.6,977.292 4891.38,982.658C4875.75,988.167 4860.38,997.304 4845.69,1004.75C4830.2,1012.59 4814.51,1020.01 4799.09,1027.99C4762.06,1047.14 4723.42,1066.47 4690.11,1092.07C4667.3,1109.6 4645.73,1129.01 4625.31,1149.24C4596.03,1178.26 4567.13,1207.33 4544.63,1242.06C4539.33,1250.24 4533.22,1261.12 4535.75,1271.49C4536.88,1276.13 4540.93,1281.76 4543.22,1285.78C4545.02,1288.93 4545.38,1291.34 4548.72,1293.37C4552.13,1295.43 4556.07,1296.52 4559.5,1298.56C4563.65,1301.03 4568,1307.38 4573.88,1305.67C4576.63,1304.87 4579.16,1303.43 4581.72,1302.14C4584.98,1300.5 4588.05,1298.52 4591.31,1296.88C4601.28,1291.84 4622.01,1282.14 4626.4,1299.09C4627.3,1302.58 4627.95,1306.15 4628.22,1309.74C4629.51,1326.7 4622.97,1339.24 4608.18,1347.93C4591.09,1357.98 4569.14,1357.88 4553.25,1370.06C4542.73,1378.11 4536.42,1388.05 4528.45,1398.32C4515.47,1415.02 4499.4,1430.36 4506.15,1453.15C4507.17,1456.61 4508.66,1459.92 4510.29,1463.13C4516.52,1475.37 4521.93,1487.32 4535.56,1492.16C4540.32,1493.85 4546.1,1487.45 4549.91,1486.57C4564.57,1483.17 4579.58,1481.49 4594.28,1478.32C4615.79,1473.68 4637.7,1468.12 4656.52,1456.17C4673.96,1445.11 4690.68,1429.71 4709.73,1420.98C4733.67,1410 4741,1448.67 4763.54,1444.14C4779.54,1440.93 4790.07,1427.66 4791.14,1411.6C4791.61,1404.71 4790.27,1397.77 4790.84,1390.89C4790.98,1389.2 4791.71,1387.17 4793.21,1386.39C4795.11,1385.4 4800.65,1388.6 4801.78,1389.65C4807.99,1395.43 4815.98,1408.79 4826.98,1406.75C4832.28,1405.77 4837.13,1403.13 4842.25,1401.46C4852.31,1398.17 4864.65,1396.08 4872.82,1388.45C4879.83,1381.9 4885.81,1374.28 4893.02,1367.94C4915.52,1348.17 4941.92,1333.17 4957.65,1306.79C4982.43,1265.21 4994.27,1217.6 5007.89,1171.72C5019.35,1133.08 5032.13,1094.57 5034.99,1054.08C5035.86,1041.76 5036.46,1024.55 5027.11,1014.38C5010.93,996.764 4987.64,989.694 4965.04,984.794" style="fill:rgb(107,79,140);"/>
            </g>
        </g>
    </g>
</svg>
