<?xml version="1.0" encoding="UTF-8" standalone="no"?>
<!DOCTYPE svg PUBLIC "-//W3C//DTD SVG 1.1//EN" "http://www.w3.org/Graphics/SVG/1.1/DTD/svg11.dtd">
<svg width="100%" height="100%" viewBox="0 0 290 187" version="1.1" xmlns="http://www.w3.org/2000/svg" xmlns:xlink="http://www.w3.org/1999/xlink" xml:space="preserve" xmlns:serif="http://www.serif.com/" style="fill-rule:evenodd;clip-rule:evenodd;stroke-linejoin:round;stroke-miterlimit:2;">
    <g transform="matrix(1,0,0,1,-8284.52,-74.4458)">
        <g transform="matrix(1,0,0,1,4714.96,-2.70175)">
            <g id="equal" transform="matrix(1,0,0,1,3134.71,-1481.18)">
                <path d="M724.287,1593.01C724.287,1577.06 721.895,1567.29 717.111,1563.71C712.725,1560.12 702.161,1558.32 685.417,1558.32L464.157,1558.32C457.778,1558.32 453.592,1558.52 451.599,1558.92C440.436,1560.52 434.855,1571.88 434.855,1593.01C434.855,1607.76 436.848,1617.23 440.835,1621.41C444.821,1625.6 452.595,1627.69 464.157,1627.69L685.417,1627.69C702.161,1627.69 712.725,1625.9 717.111,1622.31C721.895,1618.72 724.287,1608.95 724.287,1593.01ZM724.287,1710.22C724.287,1694.27 721.895,1684.5 717.111,1680.91C712.725,1677.33 702.161,1675.53 685.417,1675.53L464.157,1675.53C457.778,1675.53 453.592,1675.73 451.599,1676.13C440.436,1677.72 434.855,1689.09 434.855,1710.22C434.855,1724.97 436.848,1734.43 440.835,1738.62C444.821,1742.81 452.595,1744.9 464.157,1744.9L685.417,1744.9C702.161,1744.9 712.725,1743.11 717.111,1739.52C721.895,1735.93 724.287,1726.16 724.287,1710.22Z" style="fill:rgb(1,195,129);fill-rule:nonzero;"/>
            </g>
        </g>
    </g>
</svg>
