<svg width="432" height="26" xmlns="http://www.w3.org/2000/svg" viewBox="0 0 370.84 21.61">
<title>Pottery Barn Teen</title>
<g>
<path d="M303.65,0v6.01h3.97v2.58h-3.97v8.88c0,0.68,0.36,1.23,1.1,1.23c1.23,0,1.55-0.87,1.55-2.36v-2.52h2.58v2.87c0,3.16-1.55,4.91-5.43,4.91c-3.33,0-5.17-1.61-5.17-4.91V8.59h-2.16V6.01c3.23,0,4.07-3.33,4.33-6.01H303.65z"></path>
<path d="M317.91,14.31c0,2.26,0.52,4.52,3.23,4.52c1.13,0,2.97-0.87,3.26-2.78h3.75c-0.52,3.88-4.29,5.55-7.78,5.55c-5.52,0-8.17-3.07-8.17-8.04c0-5.01,3.55-8.04,8.17-8.04c5.26,0,8.2,3.75,8.2,8.78H317.91z M322.85,11.72v-0.84c0-1.65-0.87-2.78-2.42-2.78c-1.58,0-2.45,1.13-2.45,2.78v0.84H322.85z"></path>
<path d="M337.3,14.31c0,2.26,0.52,4.52,3.23,4.52c1.13,0,2.97-0.87,3.26-2.78h3.75c-0.52,3.88-4.29,5.55-7.78,5.55c-5.52,0-8.17-3.07-8.17-8.04c0-5.01,3.55-8.04,8.17-8.04c5.26,0,8.2,3.75,8.2,8.78H337.3z M342.24,11.72v-0.84c0-1.65-0.87-2.78-2.42-2.78c-1.58,0-2.45,1.13-2.45,2.78v0.84H342.24z"></path>
<path d="M357.92,6.01v2.49h0.06c1.42-2.07,2.94-2.97,5.55-2.97c3.68,0,4.91,2.13,4.91,5.49v6.14c0,0.9,0.23,1.39,1.16,1.39h1.23v2.58h-9.59v-2.58h0.68c0.94,0,1.16-0.48,1.16-1.39v-5.55c0-1.87-0.29-3.16-2.49-3.16c-1.49,0-2.42,1.39-2.42,2.75v5.97c0,0.9,0.23,1.39,1.16,1.39h0.78v2.58h-9.75v-2.58h1.29c0.94,0,1.16-0.48,1.16-1.39V9.98c0-0.9-0.23-1.39-1.16-1.39h-1.32V6.01H357.92z"></path>
</g>
<g>
<path class="st0" d="M3.9,11.09v8.28h0.78v0.41H0v-0.41h0.76V2.09H0V1.68h5.49c0.38,0,1.78-0.08,2.58,0.43C8.94,2.66,9.19,3.4,9.19,4.31v4.3c0,0.46-0.11,1.26-0.97,1.83c-0.81,0.54-2.16,0.65-3.26,0.65H3.9z M6.04,3.27c0-0.35,0.02-0.61-0.19-0.87c-0.23-0.27-0.55-0.32-1-0.32H3.9v8.61h1.14c0.36,0,0.64-0.13,0.83-0.35c0.23-0.27,0.17-0.69,0.17-0.92V3.27z"></path>
<path class="st0" d="M32.79,17.26c0,1.63-1.07,2.68-3.96,2.67c-3.09,0-3.92-1.04-3.92-2.67V6.32c0-1.95,1.36-2.94,4.01-2.96c2.54-0.01,3.87,1.27,3.87,2.96V17.26z M29.95,4.93c0-0.91-0.34-1.28-1.04-1.26c-0.75,0-1.18,0.33-1.18,1.26V18.4c0,0.68,0.22,1.21,1.07,1.21c0.84,0,1.14-0.34,1.14-1.21V4.93z"></path>
<path class="st0" d="M57.91,3.49v3.28h-0.43V4.21h-2.4v15.19h0.7v0.37h-4.21v-0.37h0.68V4.21h-2.39v2.56h-0.43V3.49H57.91z"></path>
<path class="st0" d="M83.04,3.49v3.28h-0.43V4.21h-2.41v15.19h0.7v0.37H76.7v-0.37h0.68V4.21h-2.39v2.56h-0.43V3.49H83.04z"></path>
<path class="st0" d="M103.14,11.12h3.12V9.7h0.43v3.58h-0.43v-1.43h-3.12v7.2h3.12v-2.46h0.43v3.18h-7.08v-0.37h0.7V3.86h-0.7V3.49h7.08v3.18h-0.43V4.21h-3.12V11.12z"></path>
<path class="st0" d="M129.58,11.43c0,0.1,1.04,0.18,1.76,0.67c0.73,0.5,0.8,1.02,0.8,1.75v5.56h0.7v0.37h-3.53v-6.51c0-0.51,0.12-1.01-0.37-1.31c-0.31-0.2-0.89-0.16-1.21-0.16h-0.95v7.6h0.68v0.37h-4.21v-0.37h0.7V3.86h-0.7V3.49h4.95c0.34,0,1.6-0.07,2.32,0.38c0.78,0.5,1.01,1.16,1.01,1.99v3.47c0,0.17,0.05,0.95-0.58,1.49C130.35,11.33,129.58,11.36,129.58,11.43z M128.68,4.93c0-0.31,0.05-0.54-0.17-0.78c-0.24-0.26-0.6-0.28-0.87-0.28h-0.87v7.59h1.02c0.32,0,0.58-0.11,0.75-0.31c0.21-0.24,0.14-0.63,0.14-0.82V4.93z"></path>
<path class="st0" d="M150.99,13.96l-2.95-10.1h-0.7V3.49h4.21v0.37h-0.68l2.49,8.57l2.2-8.57h-0.7V3.49h2.3v0.37h-0.68l-2.66,10.13v5.41h0.68v0.37h-4.21v-0.37h0.7V13.96z"></path>
<path class="st0" d="M183.56,13.06v4.07c0,0.69-0.04,1.2-0.53,1.75c-0.68,0.74-2.1,0.88-2.71,0.88h-6.82v-0.41h0.76V2.09h-0.76V1.68h6.5c0.81,0,1.42,0.14,2.03,0.6c1,0.76,0.91,1.69,0.91,1.71v4.34c0,0.02,0.04,0.89-0.61,1.42c-0.83,0.69-1.48,0.73-1.46,0.8c0,0.13,1.16,0.11,1.99,0.82C183.36,11.8,183.56,12.24,183.56,13.06z M177.41,19.36h1.69c0.06,0,0.63,0,0.91-0.22c0.3-0.25,0.42-0.52,0.42-0.88v-6.4c0-0.27-0.02-0.49-0.19-0.69c-0.19-0.22-0.51-0.28-0.87-0.28h-1.95V19.36z M177.41,2.09v8.31h1.65c0.06,0,0.4,0.02,0.61-0.21c0.19-0.21,0.13-0.51,0.13-0.66V3.16c0-0.06,0.04-0.66-0.13-0.87c-0.17-0.21-0.89-0.21-0.91-0.21H177.41z"></path>
<path class="st0" d="M204.55,3.86h-0.7V3.49h4.35v0.37h-0.79l2.83,15.55h0.7v0.37h-4.26v-0.37h0.6l-0.68-4.55h-3.46l-0.94,4.55h0.7v0.37h-2.22v-0.37h0.61L204.55,3.86z M203.23,14.23h3.21l-1.5-8.85L203.23,14.23z"></path>
<path class="st0" d="M233.82,11.43c0,0.1,1.04,0.18,1.76,0.67c0.73,0.5,0.8,1.02,0.8,1.75v5.56h0.7v0.37h-3.53v-6.51c0-0.51,0.12-1.01-0.38-1.31c-0.31-0.2-0.88-0.16-1.21-0.16h-0.95v7.6h0.68v0.37h-4.21v-0.37h0.7V3.86h-0.7V3.49h4.94c0.34,0,1.61-0.07,2.32,0.38c0.79,0.5,1.01,1.16,1.01,1.99v3.47c0,0.17,0.05,0.95-0.58,1.49C234.59,11.33,233.82,11.36,233.82,11.43z M232.92,4.93c0-0.31,0.05-0.54-0.17-0.78c-0.24-0.26-0.6-0.28-0.87-0.28h-0.87v7.59h1.02c0.32,0,0.58-0.11,0.75-0.31c0.2-0.24,0.14-0.63,0.14-0.82V4.93z"></path>
<path class="st0" d="M258.62,19.78L255.2,6.25v13.16h0.7v0.37h-2.22v-0.37h0.68V3.86h-0.68V3.49h3.53l3.57,14.11V3.86h-0.68V3.49h2.22v0.37h-0.7v15.91H258.62z"></path>
</g>
<rect x="278.98" y="0.02" width="1.3" height="21.57"></rect>
</svg>