<?xml version="1.0" encoding="UTF-8" standalone="no"?>
<!DOCTYPE svg PUBLIC "-//W3C//DTD SVG 1.1//EN" "http://www.w3.org/Graphics/SVG/1.1/DTD/svg11.dtd">
<svg width="100%" height="100%" viewBox="0 0 74 82" version="1.1" xmlns="http://www.w3.org/2000/svg" xmlns:xlink="http://www.w3.org/1999/xlink" xml:space="preserve" xmlns:serif="http://www.serif.com/" style="fill-rule:evenodd;clip-rule:evenodd;stroke-linejoin:round;stroke-miterlimit:2;">
    <g transform="matrix(1,0,0,1,-8929,-52)">
        <g transform="matrix(0.454787,0,0,0.439236,7052.64,14.1829)">
            <g id="comma" transform="matrix(1,0,0,1,2927.18,-1295.04)">
                <path d="M1347.4,1488.75C1354.18,1477.19 1357.57,1465.03 1357.57,1452.27C1357.57,1420.78 1341.42,1399.65 1309.13,1388.88C1298.77,1385.69 1289.2,1384.1 1280.43,1384.1L1272.06,1384.1C1270.06,1384.1 1268.07,1384.3 1266.08,1384.7C1248.93,1387.09 1234.58,1393.27 1223.02,1403.24C1209.86,1413.6 1202.89,1426.95 1202.09,1443.3C1201.69,1458.05 1208.67,1470.61 1223.02,1480.98C1235.38,1489.75 1247.14,1493.53 1258.3,1492.34L1267.87,1492.34L1264.28,1498.32L1261.89,1502.5L1257.7,1507.88L1243.95,1524.03L1227.8,1540.18C1225.01,1542.97 1223.62,1546.36 1223.62,1550.34C1223.62,1560.31 1232.39,1565.29 1249.93,1565.29C1253.12,1564.5 1257.11,1563.1 1261.89,1561.11C1275.44,1555.53 1287.2,1548.95 1297.17,1541.37C1317.11,1529.41 1333.85,1511.87 1347.4,1488.75Z" style="fill:none;fill-rule:nonzero;stroke:rgb(0,44,81);stroke-width:4.47px;"/>
            </g>
        </g>
    </g>
</svg>
