<?xml version="1.0" encoding="UTF-8" standalone="no"?>
<!DOCTYPE svg PUBLIC "-//W3C//DTD SVG 1.1//EN" "http://www.w3.org/Graphics/SVG/1.1/DTD/svg11.dtd">
<svg width="100%" height="100%" viewBox="0 0 240 127" version="1.1" xmlns="http://www.w3.org/2000/svg" xmlns:xlink="http://www.w3.org/1999/xlink" xml:space="preserve" xmlns:serif="http://www.serif.com/" style="fill-rule:evenodd;clip-rule:evenodd;stroke-linecap:round;stroke-linejoin:round;stroke-miterlimit:1.5;">
    <g transform="matrix(1,0,0,1,-8963,-378)">
        <g transform="matrix(0.454787,0,0,0.439236,6643.08,303.943)">
            <g id="splotch-medium-4" transform="matrix(1.06551,0.15547,-0.143749,0.985181,-138.091,-1769.08)">
                <path d="M5416.75,1128.8C5399.5,1130.37 5384.34,1138 5368.04,1142.98C5346.85,1149.45 5325.26,1152.34 5304.83,1161.49C5295.86,1165.5 5294.53,1169.82 5285.49,1173.73C5264.13,1182.97 5235.21,1187.47 5219.92,1207.37C5203.52,1228.72 5207.96,1261.72 5184.94,1278.8C5164.38,1294.05 5138.46,1300.1 5119.05,1317.16C5089.89,1342.79 5106.33,1388.2 5129.68,1411.52C5154.81,1436.63 5188.94,1438.51 5222.48,1432.64C5230.49,1431.24 5243.28,1428.62 5250.86,1423.3C5266.83,1412.07 5262.39,1387.24 5282.62,1380.39C5301.21,1374.1 5318.59,1374.06 5338.03,1371.25C5348.14,1369.79 5357.9,1366.39 5368,1364.95C5385.8,1362.41 5404.9,1361.2 5419.6,1349.13C5430.14,1340.47 5413.71,1328.01 5407.93,1323.48C5406.58,1322.44 5402.48,1318.95 5404.9,1316.63C5413.75,1308.13 5427.72,1307.2 5435.67,1297.85C5444.22,1287.8 5444.02,1275.7 5448.94,1264.17C5453.1,1254.43 5456.97,1250.4 5465.67,1244.05C5474.9,1237.31 5496.75,1227.76 5503.78,1223.42C5519.75,1213.59 5530.01,1204.06 5541.47,1189.26C5547.67,1181.26 5554.76,1166.43 5557.49,1156.99C5559.32,1150.65 5560.35,1144.08 5561.01,1137.51C5563.34,1114.38 5543.24,1100.89 5522.47,1099.31C5508.12,1098.22 5494.49,1103.52 5481.69,1109.31C5472.63,1113.4 5463.87,1118.14 5454.73,1122.06L5416.75,1128.8Z" style="fill:none;stroke:rgb(1,195,129);stroke-width:4.33px;"/>
            </g>
        </g>
    </g>
</svg>
