<?xml version="1.0" encoding="UTF-8" standalone="no"?>
<!DOCTYPE svg PUBLIC "-//W3C//DTD SVG 1.1//EN" "http://www.w3.org/Graphics/SVG/1.1/DTD/svg11.dtd">
<svg width="100%" height="100%" viewBox="0 0 347 215" version="1.1" xmlns="http://www.w3.org/2000/svg" xmlns:xlink="http://www.w3.org/1999/xlink" xml:space="preserve" xmlns:serif="http://www.serif.com/" style="fill-rule:evenodd;clip-rule:evenodd;stroke-linecap:round;stroke-linejoin:round;stroke-miterlimit:1.5;">
    <g transform="matrix(1,0,0,1,-8731,-247)">
        <g transform="matrix(0.454787,0,0,0.439236,6643.08,303.943)">
            <g id="splotch-large-2" transform="matrix(0.995487,0.102881,-0.102881,0.995487,559.492,-1128.45)">
                <g transform="matrix(1,0,0,1,29.1634,-63.2808)">
                    <path d="M4620.82,764.502C4622.89,765.249 4601.39,765.301 4599.64,765.41C4587.44,766.173 4574.57,763.702 4562.55,766.413C4555.79,767.935 4549.53,771.208 4542.82,772.924C4525.76,777.292 4525.25,774.375 4508.71,780.303C4496.67,784.619 4475.63,794.654 4464.81,801.498C4453.19,808.847 4436.25,820.513 4430.72,834.579C4428.1,841.24 4427.78,848.685 4424.97,855.267C4421.69,862.94 4411.64,874.155 4405.66,879.69C4391.76,892.554 4373.03,902.253 4354.03,904.25C4345.37,905.161 4334.55,901.963 4326.97,908.26C4320.59,913.559 4322.37,924.029 4320.45,930.815C4316.29,945.553 4303.2,955.58 4295.89,968.407C4292.02,975.206 4292.55,988.375 4283.86,992.466C4269.08,999.423 4253.54,992.221 4238.25,994.972C4213.49,999.429 4191.41,1012.49 4170.08,1025.05C4139.61,1042.99 4118.41,1082.15 4138.51,1115.27C4148.22,1131.28 4171.75,1116.02 4183.12,1111.76C4199.67,1105.56 4219.36,1101.05 4234.61,1091.32C4247.45,1083.14 4254.75,1076.21 4265.29,1065.29C4270.38,1060.02 4275.42,1053.63 4278.82,1047.1C4284.03,1037.07 4285.88,1024.47 4298.29,1020.82C4312.62,1016.61 4328.76,1022.19 4343.01,1022.04C4353.69,1021.93 4364.28,1019.99 4374.95,1019.46C4423.13,1017.11 4423.07,1019.5 4471.32,1015.52C4488.89,1014.07 4513.45,1012.81 4527.24,998.848C4534.17,991.835 4537.17,981.896 4541.49,973.42C4545.61,965.344 4557.86,943.823 4562.66,932.244C4568.81,917.391 4570.24,901.412 4575.95,886.513C4583.83,865.972 4600.81,846.263 4614.67,829.567C4620.76,822.236 4624.64,821.81 4629.71,813.528C4632.24,809.39 4634.22,804.892 4635.8,800.307C4637.89,794.263 4646.96,765.912 4631.21,765.41" style="fill:none;stroke:rgb(117,57,252);stroke-width:4.49px;"/>
                </g>
                <g transform="matrix(1,-4.16334e-17,4.16334e-17,1,112.485,-36.3074)">
                    <path d="M4682.07,548.214C4650.61,556.267 4635.8,594.114 4643.6,623.572C4646.56,634.725 4655.41,643.071 4663.9,650.189C4667.78,653.435 4676.34,658.456 4681.52,659.12C4694.61,660.795 4704.44,659.014 4716.65,654.277C4734.17,647.475 4746.93,632.012 4754.36,615.217C4756.88,609.522 4758.83,602.216 4757.55,595.895C4753.08,573.82 4737.16,554.39 4716.1,546.198C4711.88,544.556 4699.91,543.812 4695.58,545.528" style="fill:none;stroke:rgb(1,195,129);stroke-width:4.49px;"/>
                </g>
            </g>
        </g>
    </g>
</svg>
