<?xml version="1.0" encoding="UTF-8" standalone="no"?>
<!DOCTYPE svg PUBLIC "-//W3C//DTD SVG 1.1//EN" "http://www.w3.org/Graphics/SVG/1.1/DTD/svg11.dtd">
<svg width="100%" height="100%" viewBox="0 0 758 177" version="1.1" xmlns="http://www.w3.org/2000/svg" xmlns:xlink="http://www.w3.org/1999/xlink" xml:space="preserve" xmlnsSerif="http://www.serif.com/" style="fill-rule:evenodd;clip-rule:evenodd;stroke-linejoin:round;stroke-miterlimit:2;">
    <g transform="matrix(1,0,0,1,-42.8089,-6.58566)">
        <g id="Markdown-Resume-Logo" serifId="Markdown Resume Logo" transform="matrix(1,0,0,1,-2126.93,-361.242)">
            <g id="Markdown-Resume---Expanded-Text" serifId="Markdown Resume - Expanded Text" transform="matrix(0.96021,0,0,1.1659,1902.93,455.278)">
                <path d="M445.36,39.371L446.8,-38.389L457.456,-38.389L471.184,24.683L485.008,-38.389L495.568,-38.389L497.008,39.371L488.272,39.371L487.408,-17.077L474.256,39.371L468.112,39.371L455.056,-17.077L454.192,39.371L445.36,39.371Z" style="fill-rule:nonzero;"/>
                <path d="M518.032,40.139C515.856,40.139 513.936,39.515 512.272,38.267C510.608,37.019 509.296,35.419 508.336,33.467C507.376,31.515 506.896,29.451 506.896,27.275C506.896,23.819 507.472,20.907 508.624,18.539C509.776,16.171 511.36,14.171 513.376,12.539C515.392,10.907 517.728,9.483 520.384,8.267C523.04,7.051 525.84,5.867 528.784,4.715L528.784,0.779C528.784,-1.461 528.656,-3.317 528.4,-4.789C528.144,-6.261 527.616,-7.365 526.816,-8.101C526.016,-8.837 524.816,-9.205 523.216,-9.205C521.808,-9.205 520.672,-8.885 519.808,-8.245C518.944,-7.605 518.32,-6.693 517.936,-5.509C517.552,-4.325 517.36,-2.933 517.36,-1.333L517.36,1.451L507.184,1.067C507.312,-5.077 508.72,-9.605 511.408,-12.517C514.096,-15.429 518.256,-16.885 523.888,-16.885C529.392,-16.885 533.296,-15.381 535.6,-12.373C537.904,-9.365 539.056,-5.013 539.056,0.683L539.056,26.027C539.056,27.755 539.104,29.419 539.2,31.019C539.296,32.619 539.424,34.107 539.584,35.483C539.744,36.859 539.888,38.155 540.016,39.371L530.608,39.371C530.416,38.347 530.176,37.051 529.888,35.483C529.6,33.915 529.392,32.491 529.264,31.211C528.624,33.387 527.392,35.419 525.568,37.307C523.744,39.195 521.232,40.139 518.032,40.139ZM522.064,31.307C523.088,31.307 524.048,31.019 524.944,30.443C525.84,29.867 526.64,29.211 527.344,28.475C528.048,27.739 528.528,27.147 528.784,26.699L528.784,10.955C527.184,11.851 525.68,12.747 524.272,13.643C522.864,14.539 521.632,15.483 520.576,16.475C519.52,17.467 518.688,18.587 518.08,19.835C517.472,21.083 517.168,22.507 517.168,24.107C517.168,26.347 517.584,28.107 518.416,29.387C519.248,30.667 520.464,31.307 522.064,31.307Z" style="fill-rule:nonzero;"/>
                <path d="M549.232,39.371L549.232,-16.117L559.504,-16.117L559.504,-8.245C561.552,-11.637 563.6,-13.909 565.648,-15.061C567.696,-16.213 569.744,-16.789 571.792,-16.789L572.512,-16.789C572.736,-16.789 573.04,-16.757 573.424,-16.693L573.424,-5.365C572.656,-5.685 571.776,-5.957 570.784,-6.181C569.792,-6.405 568.784,-6.517 567.76,-6.517C566.16,-6.517 564.704,-6.149 563.392,-5.413C562.08,-4.677 560.784,-3.253 559.504,-1.141L559.504,39.371L549.232,39.371Z" style="fill-rule:nonzero;"/>
                <path d="M579.952,39.275L579.952,-38.485L590.224,-38.485L590.224,7.883L605.2,-16.117L615.952,-16.117L602.896,5.579L615.568,39.371L605.296,39.371L594.928,10.955L590.224,18.059L590.224,39.275L579.952,39.275Z" style="fill-rule:nonzero;"/>
                <path d="M633.808,40.139C629.136,40.139 625.648,38.427 623.344,35.003C621.04,31.579 619.888,25.771 619.888,17.579L619.888,6.827C619.888,2.603 620.24,-1.317 620.944,-4.933C621.648,-8.549 622.976,-11.445 624.928,-13.621C626.88,-15.797 629.744,-16.885 633.52,-16.885C635.376,-16.885 637.072,-16.469 638.608,-15.637C640.144,-14.805 641.52,-13.781 642.736,-12.565L642.736,-38.389L653.008,-38.389L653.008,39.371L642.736,39.371L642.736,35.819C641.52,37.099 640.192,38.139 638.752,38.939C637.312,39.739 635.664,40.139 633.808,40.139ZM636.4,32.075C637.36,32.075 638.384,31.899 639.472,31.547C640.56,31.195 641.648,30.667 642.736,29.963L642.736,-6.421C641.84,-7.061 640.848,-7.621 639.76,-8.101C638.672,-8.581 637.488,-8.821 636.208,-8.821C633.84,-8.821 632.24,-7.685 631.408,-5.413C630.576,-3.141 630.16,-0.405 630.16,2.795L630.16,18.443C630.16,21.003 630.304,23.323 630.592,25.403C630.88,27.483 631.472,29.115 632.368,30.299C633.264,31.483 634.608,32.075 636.4,32.075Z" style="fill-rule:nonzero;"/>
                <path d="M678.64,40.139C674.544,40.139 671.312,39.307 668.944,37.643C666.576,35.979 664.896,33.611 663.904,30.539C662.912,27.467 662.416,23.851 662.416,19.691L662.416,3.563C662.416,-0.597 662.912,-4.213 663.904,-7.285C664.896,-10.357 666.576,-12.725 668.944,-14.389C671.312,-16.053 674.544,-16.885 678.64,-16.885C682.736,-16.885 685.952,-16.053 688.288,-14.389C690.624,-12.725 692.288,-10.357 693.28,-7.285C694.272,-4.213 694.768,-0.597 694.768,3.563L694.768,19.691C694.768,23.851 694.272,27.467 693.28,30.539C692.288,33.611 690.624,35.979 688.288,37.643C685.952,39.307 682.736,40.139 678.64,40.139ZM678.64,32.555C680.624,32.555 682.016,31.979 682.816,30.827C683.616,29.675 684.096,28.155 684.256,26.267C684.416,24.379 684.496,22.411 684.496,20.363L684.496,2.987C684.496,0.875 684.416,-1.109 684.256,-2.965C684.096,-4.821 683.616,-6.341 682.816,-7.525C682.016,-8.709 680.624,-9.301 678.64,-9.301C676.656,-9.301 675.248,-8.709 674.416,-7.525C673.584,-6.341 673.088,-4.821 672.928,-2.965C672.768,-1.109 672.688,0.875 672.688,2.987L672.688,20.363C672.688,22.411 672.768,24.379 672.928,26.267C673.088,28.155 673.584,29.675 674.416,30.827C675.248,31.979 676.656,32.555 678.64,32.555Z" style="fill-rule:nonzero;"/>
                <path d="M709.84,39.371L700.912,-16.117L709.36,-16.117L715.12,24.779L722.512,-16.117L730.384,-16.117L737.776,24.587L743.536,-16.117L751.984,-16.117L742.768,39.371L734.128,39.371L726.544,0.203L719.056,39.371L709.84,39.371Z" style="fill-rule:nonzero;"/>
                <path d="M759.856,39.371L759.856,-16.117L770.128,-16.117L770.128,-10.645C771.984,-12.373 774.032,-13.845 776.272,-15.061C778.512,-16.277 780.976,-16.885 783.664,-16.885C785.904,-16.885 787.616,-16.309 788.8,-15.157C789.984,-14.005 790.816,-12.565 791.296,-10.837C791.776,-9.109 792.016,-7.349 792.016,-5.557L792.016,39.371L781.744,39.371L781.744,-2.581C781.744,-4.565 781.456,-6.101 780.88,-7.189C780.304,-8.277 779.12,-8.821 777.328,-8.821C776.176,-8.821 774.976,-8.485 773.728,-7.813C772.48,-7.141 771.28,-6.325 770.128,-5.365L770.128,39.371L759.856,39.371Z" style="fill-rule:nonzero;"/>
                <path d="M802.864,39.371L802.864,-38.389L818.512,-38.389C823.696,-38.389 827.984,-37.701 831.376,-36.325C834.768,-34.949 837.28,-32.741 838.912,-29.701C840.544,-26.661 841.36,-22.677 841.36,-17.749C841.36,-14.741 841.04,-12.005 840.4,-9.541C839.76,-7.077 838.736,-4.997 837.328,-3.301C835.92,-1.605 834.064,-0.373 831.76,0.395L842.8,39.371L832.336,39.371L822.16,2.891L813.712,2.891L813.712,39.371L802.864,39.371ZM813.712,-4.885L817.84,-4.885C820.912,-4.885 823.408,-5.269 825.328,-6.037C827.248,-6.805 828.656,-8.117 829.552,-9.973C830.448,-11.829 830.896,-14.421 830.896,-17.749C830.896,-22.293 830.064,-25.573 828.4,-27.589C826.736,-29.605 823.44,-30.613 818.512,-30.613L813.712,-30.613L813.712,-4.885Z" style="fill-rule:nonzero;"/>
                <path d="M867.184,40.139C862.832,40.139 859.472,39.291 857.104,37.595C854.736,35.899 853.088,33.403 852.16,30.107C851.232,26.811 850.768,22.763 850.768,17.963L850.768,5.291C850.768,0.363 851.248,-3.733 852.208,-6.997C853.168,-10.261 854.848,-12.725 857.248,-14.389C859.648,-16.053 862.96,-16.885 867.184,-16.885C871.856,-16.885 875.296,-15.925 877.504,-14.005C879.712,-12.085 881.168,-9.317 881.872,-5.701C882.576,-2.085 882.928,2.251 882.928,7.307L882.928,11.819L861.04,11.819L861.04,22.955C861.04,25.195 861.248,27.019 861.664,28.427C862.08,29.835 862.752,30.875 863.68,31.547C864.608,32.219 865.808,32.555 867.28,32.555C868.816,32.555 869.984,32.187 870.784,31.451C871.584,30.715 872.128,29.659 872.416,28.283C872.704,26.907 872.848,25.291 872.848,23.435L872.848,20.075L882.832,20.075L882.832,22.187C882.832,27.755 881.648,32.139 879.28,35.339C876.912,38.539 872.88,40.139 867.184,40.139ZM861.04,6.251L872.848,6.251L872.848,1.259C872.848,-1.045 872.72,-2.981 872.464,-4.549C872.208,-6.117 871.68,-7.301 870.88,-8.101C870.08,-8.901 868.816,-9.301 867.088,-9.301C865.424,-9.301 864.16,-8.917 863.296,-8.149C862.432,-7.381 861.84,-6.085 861.52,-4.261C861.2,-2.437 861.04,0.075 861.04,3.275L861.04,6.251Z" style="fill-rule:nonzero;"/>
                <path d="M905.104,40.139C900.56,40.139 896.912,38.715 894.16,35.867C891.408,33.019 889.84,29.259 889.456,24.587L898,21.995C898.512,25.515 899.376,28.155 900.592,29.915C901.808,31.675 903.6,32.555 905.968,32.555C907.824,32.555 909.232,32.027 910.192,30.971C911.152,29.915 911.632,28.491 911.632,26.699C911.632,25.099 911.28,23.659 910.576,22.379C909.872,21.099 908.72,19.787 907.12,18.443L897.616,10.283C895.696,8.619 894.08,6.763 892.768,4.715C891.456,2.667 890.8,0.011 890.8,-3.253C890.8,-6.197 891.392,-8.677 892.576,-10.693C893.76,-12.709 895.424,-14.245 897.568,-15.301C899.712,-16.357 902.224,-16.885 905.104,-16.885C909.52,-16.885 912.896,-15.461 915.232,-12.613C917.568,-9.765 918.896,-6.325 919.216,-2.293L912.304,0.299C912.048,-1.621 911.664,-3.301 911.152,-4.741C910.64,-6.181 909.936,-7.301 909.04,-8.101C908.144,-8.901 906.96,-9.301 905.488,-9.301C903.824,-9.301 902.496,-8.741 901.504,-7.621C900.512,-6.501 900.016,-5.173 900.016,-3.637C900.016,-2.677 900.224,-1.733 900.64,-0.805C901.056,0.123 901.776,1.035 902.8,1.931L912.592,10.955C913.936,12.171 915.2,13.483 916.384,14.891C917.568,16.299 918.544,17.899 919.312,19.691C920.08,21.483 920.464,23.563 920.464,25.931C920.464,29.067 919.824,31.691 918.544,33.803C917.264,35.915 915.472,37.499 913.168,38.555C910.864,39.611 908.176,40.139 905.104,40.139Z" style="fill-rule:nonzero;"/>
                <path d="M936.112,40.139C933.936,40.139 932.24,39.563 931.024,38.411C929.808,37.259 928.96,35.819 928.48,34.091C928,32.363 927.76,30.603 927.76,28.811L927.76,-16.117L938.032,-16.117L938.032,25.739C938.032,27.723 938.32,29.275 938.896,30.395C939.472,31.515 940.656,32.075 942.448,32.075C943.6,32.075 944.8,31.739 946.048,31.067C947.296,30.395 948.496,29.579 949.648,28.619L949.648,-16.117L959.92,-16.117L959.92,39.371L949.648,39.371L949.648,33.899C947.856,35.627 945.824,37.099 943.552,38.315C941.28,39.531 938.8,40.139 936.112,40.139Z" style="fill-rule:nonzero;"/>
                <path d="M970.384,39.371L970.384,-16.117L979.888,-16.117L979.888,-10.837C981.744,-12.949 983.792,-14.517 986.032,-15.541C988.272,-16.565 990.576,-17.077 992.944,-17.077C994.992,-17.077 996.832,-16.565 998.464,-15.541C1000.1,-14.517 1001.26,-12.693 1001.97,-10.069C1003.95,-12.501 1006.11,-14.277 1008.45,-15.397C1010.78,-16.517 1013.23,-17.077 1015.79,-17.077C1017.58,-17.077 1019.22,-16.645 1020.69,-15.781C1022.16,-14.917 1023.34,-13.541 1024.24,-11.653C1025.14,-9.765 1025.58,-7.285 1025.58,-4.213L1025.58,39.371L1016.18,39.371L1016.18,-3.541C1016.18,-6.229 1015.74,-8.037 1014.88,-8.965C1014.02,-9.893 1012.85,-10.357 1011.38,-10.357C1009.97,-10.357 1008.5,-9.957 1006.96,-9.157C1005.42,-8.357 1004.02,-7.253 1002.74,-5.845L1002.74,39.371L993.328,39.371L993.328,-3.541C993.328,-6.229 992.896,-8.037 992.032,-8.965C991.168,-9.893 990,-10.357 988.528,-10.357C987.12,-10.357 985.664,-9.957 984.16,-9.157C982.656,-8.357 981.232,-7.253 979.888,-5.845L979.888,39.371L970.384,39.371Z" style="fill-rule:nonzero;"/>
                <path d="M1051.02,40.139C1046.67,40.139 1043.31,39.291 1040.94,37.595C1038.58,35.899 1036.93,33.403 1036,30.107C1035.07,26.811 1034.61,22.763 1034.61,17.963L1034.61,5.291C1034.61,0.363 1035.09,-3.733 1036.05,-6.997C1037.01,-10.261 1038.69,-12.725 1041.09,-14.389C1043.49,-16.053 1046.8,-16.885 1051.02,-16.885C1055.7,-16.885 1059.14,-15.925 1061.34,-14.005C1063.55,-12.085 1065.01,-9.317 1065.71,-5.701C1066.42,-2.085 1066.77,2.251 1066.77,7.307L1066.77,11.819L1044.88,11.819L1044.88,22.955C1044.88,25.195 1045.09,27.019 1045.5,28.427C1045.92,29.835 1046.59,30.875 1047.52,31.547C1048.45,32.219 1049.65,32.555 1051.12,32.555C1052.66,32.555 1053.82,32.187 1054.62,31.451C1055.42,30.715 1055.97,29.659 1056.26,28.283C1056.54,26.907 1056.69,25.291 1056.69,23.435L1056.69,20.075L1066.67,20.075L1066.67,22.187C1066.67,27.755 1065.49,32.139 1063.12,35.339C1060.75,38.539 1056.72,40.139 1051.02,40.139ZM1044.88,6.251L1056.69,6.251L1056.69,1.259C1056.69,-1.045 1056.56,-2.981 1056.3,-4.549C1056.05,-6.117 1055.52,-7.301 1054.72,-8.101C1053.92,-8.901 1052.66,-9.301 1050.93,-9.301C1049.26,-9.301 1048,-8.917 1047.14,-8.149C1046.27,-7.381 1045.68,-6.085 1045.36,-4.261C1045.04,-2.437 1044.88,0.075 1044.88,3.275L1044.88,6.251Z" style="fill-rule:nonzero;"/>
            </g>
            <g transform="matrix(1,0,0,1,-38.2792,-0.0574052)">
                <g transform="matrix(11.0543,0,0,11.0543,2208.02,367.885)">
                    <path d="M0,2C0,0.897 0.897,0 2,0L7,0L7,4C7,4.553 7.447,5 8,5L12,5L12,14C12,15.103 11.103,16 10,16L2,16C0.897,16 0,15.103 0,14L0,2ZM12,4L8,4L8,0L12,4Z" style="fill:rgb(97,218,251);fill-rule:nonzero;"/>
                </g>
                <g transform="matrix(1.1675,0,0,1.1675,2062.12,387.887)">
                    <path d="M194.24,42.713C194.593,41.157 195.247,40.043 196.202,39.371C197.157,38.7 198.129,38.434 199.119,38.576C200.109,38.717 200.993,39.23 201.771,40.114C202.549,40.998 202.903,42.218 202.832,43.774C202.478,46.107 202.16,48.423 201.877,50.722C201.594,53.02 201.276,55.301 200.922,57.564L213.015,57.564C214.359,57.988 215.349,58.624 215.985,59.473C216.622,60.322 216.922,61.188 216.887,62.072C216.852,62.956 216.48,63.805 215.773,64.618C215.066,65.431 214.041,65.979 212.697,66.262L199.756,66.262C199.402,68.525 199.101,70.753 198.854,72.945C198.606,75.137 198.306,77.329 197.952,79.522L210.151,79.522C211.495,79.946 212.485,80.582 213.121,81.431C213.758,82.28 214.058,83.146 214.023,84.03C213.988,84.914 213.616,85.763 212.909,86.576C212.202,87.389 211.177,87.937 209.833,88.22L196.785,88.22C196.432,90.907 196.078,93.577 195.725,96.229C195.371,98.881 195.017,101.55 194.664,104.238C194.169,105.511 193.462,106.43 192.542,106.996C191.623,107.561 190.721,107.791 189.837,107.685C188.953,107.579 188.14,107.155 187.398,106.412C186.655,105.67 186.213,104.591 186.072,103.177C186.425,100.702 186.761,98.209 187.079,95.698C187.398,93.188 187.733,90.695 188.087,88.22L170.16,88.22C169.806,90.907 169.435,93.577 169.046,96.229C168.657,98.881 168.286,101.55 167.932,104.238C167.437,105.511 166.73,106.43 165.811,106.996C164.891,107.561 163.99,107.791 163.106,107.685C162.222,107.579 161.409,107.155 160.666,106.412C159.924,105.67 159.482,104.591 159.34,103.177C159.694,100.702 160.03,98.209 160.348,95.698C160.666,93.188 161.002,90.695 161.356,88.22L151.172,88.22C149.616,88.008 148.467,87.46 147.725,86.576C146.982,85.692 146.629,84.737 146.664,83.712C146.699,82.686 147.124,81.749 147.937,80.901C148.75,80.052 149.935,79.592 151.49,79.522L162.522,79.522C162.876,77.329 163.177,75.137 163.424,72.945C163.672,70.753 163.972,68.525 164.326,66.262L154.461,66.262C152.905,66.05 151.756,65.502 151.013,64.618C150.27,63.734 149.917,62.779 149.952,61.754C149.988,60.728 150.412,59.791 151.225,58.943C152.038,58.094 153.223,57.634 154.779,57.564L165.493,57.564C165.846,55.089 166.182,52.631 166.5,50.191C166.819,47.751 167.154,45.294 167.508,42.819C167.862,41.263 168.516,40.149 169.47,39.477C170.425,38.806 171.398,38.54 172.388,38.682C173.378,38.823 174.262,39.336 175.04,40.22C175.817,41.104 176.171,42.324 176.1,43.88L174.191,57.564L192.118,57.564L194.24,42.713ZM189.254,79.522C189.608,77.329 189.908,75.137 190.156,72.945C190.403,70.753 190.668,68.525 190.951,66.262L173.024,66.262C172.741,68.525 172.458,70.753 172.175,72.945C171.893,75.137 171.61,77.329 171.327,79.522L189.254,79.522Z" style="fill:white;fill-rule:nonzero;"/>
                </g>
            </g>
        </g>
    </g>
</svg>
