<?xml version="1.0" encoding="UTF-8"?>
<svg width="351px" height="467px" viewBox="0 0 351 467" version="1.1" xmlns="http://www.w3.org/2000/svg" xmlns:xlink="http://www.w3.org/1999/xlink">
    <title>markdown-resume</title>
    <g id="Symbols" stroke="none" stroke-width="1" fill="none" fill-rule="evenodd">
        <g id="project-MarkdownResume" fill-rule="nonzero">
            <g id="markdown-resume">
                <g id="Group" fill="#61DAFB">
                    <path d="M0,58.3715841 C0,26.1796555 26.1796555,0 58.3715841,0 L204.300544,0 L204.300544,116.743168 C204.300544,132.882911 217.346593,145.92896 233.486336,145.92896 L350.229504,145.92896 L350.229504,408.601088 C350.229504,440.793017 324.049849,466.972672 291.85792,466.972672 L58.3715841,466.972672 C26.1796555,466.972672 0,440.793017 0,408.601088 L0,58.3715841 Z M350.229504,116.743168 L233.486336,116.743168 L233.486336,0 L350.229504,116.743168 Z" id="Shape"></path>
                </g>
                <g id="Group" transform="translate(66.8701, 171.6043)" fill="#FFFFFF">
                    <path d="M146.658306,12.8664312 C147.746414,8.07012703 149.762341,4.63626915 152.706088,2.56485757 C155.649835,0.496528455 158.645984,-0.323405294 161.697617,0.1143037 C164.74925,0.548930236 167.474143,2.13023104 169.872295,4.85512365 C172.270447,7.58001626 173.361637,11.3406147 173.142783,16.1369188 C172.051593,23.3282927 171.071371,30.4672647 170.199036,37.553835 C169.3267,44.6373228 168.346479,51.6684088 167.255289,58.6440106 L204.53145,58.6440106 C208.674273,59.9509726 211.725906,61.9114157 213.686349,64.5284223 C215.649874,67.1454289 216.574612,69.8148373 216.466726,72.5397299 C216.35884,75.2646225 215.212165,77.8816291 213.032868,80.3876672 C210.85357,82.8937053 207.694051,84.5828922 203.551228,85.4552277 L163.661143,85.4552277 C162.569953,92.4308295 161.642133,99.2985452 160.880766,106.055293 C160.116316,112.81204 159.191579,119.568787 158.100389,126.328617 L195.703291,126.328617 C199.846114,127.635579 202.897747,129.596022 204.85819,132.213029 C206.821716,134.830035 207.746453,137.499444 207.638567,140.224336 C207.530681,142.949229 206.384007,145.566235 204.204709,148.072273 C202.025411,150.578312 198.865892,152.267498 194.723069,153.139834 L154.503161,153.139834 C153.415053,161.422398 152.323863,169.65256 151.235756,177.827238 C150.144566,186.001916 149.053376,194.228995 147.965268,202.514641 C146.439452,206.43861 144.260154,209.271389 141.424293,211.01606 C138.591514,212.757648 135.811137,213.466614 133.086245,213.139873 C130.361352,212.813133 127.855314,211.506171 125.568131,209.215904 C123.277864,206.928721 121.915418,203.602749 121.480792,199.244154 C122.568899,191.615071 123.604605,183.930504 124.584827,176.190453 C125.568131,168.453484 126.600754,160.768917 127.691944,153.139834 L72.4327246,153.139834 C71.3415346,161.422398 70.1979428,169.65256 68.9988668,177.827238 C67.7997907,186.001916 66.6561989,194.228995 65.5650089,202.514641 C64.0391923,206.43861 61.8598947,209.271389 59.0271161,211.01606 C56.191255,212.757648 53.4139606,213.466614 50.689068,213.139873 C47.9641754,212.813133 45.4581373,211.506171 43.1678712,209.215904 C40.8806876,206.928721 39.5182413,203.602749 39.0805323,199.244154 C40.1717223,191.615071 41.2074281,183.930504 42.1876496,176.190453 C43.1678712,168.453484 44.203577,160.768917 45.294767,153.139834 L13.9030178,153.139834 C9.10671357,152.486353 5.56496966,150.797166 3.27778605,148.072273 C0.987519974,145.347381 -0.100587595,142.403634 0.00729842418,139.244115 C0.115184444,136.081513 1.42522897,133.19325 3.93126708,130.579326 C6.43730519,127.962319 10.0900176,126.544389 14.8832393,126.328617 L48.8889127,126.328617 C49.9801027,119.568787 50.9079225,112.81204 51.6692895,106.055293 C52.4337391,99.2985452 53.3584764,92.4308295 54.4496664,85.4552277 L24.0412211,85.4552277 C19.244917,84.8017467 15.7031731,83.1125598 13.412907,80.3876672 C11.1226409,77.6627746 10.0345333,74.7190275 10.1424194,71.5595084 C10.2533878,68.3969068 11.5603499,65.5086439 14.066388,62.8947198 C16.5724261,60.2777132 20.2251385,58.8597826 25.0214427,58.6440106 L58.0468945,58.6440106 C59.1350021,51.0149278 60.1707079,43.4382467 61.1509294,35.9170499 C62.1342334,28.3958531 63.1668568,20.8222546 64.2580468,13.1931717 C65.3492368,8.39686755 67.3651642,4.96300967 70.3058288,2.89159809 C73.2495759,0.823268972 76.2488073,0.00333522256 79.3004404,0.441044216 C82.3520735,0.875670753 85.0769661,2.45697155 87.4751182,5.18186416 C89.8701879,7.90675678 90.9613779,11.6673552 90.7425234,16.4636594 L84.8581116,58.6440106 L140.117331,58.6440106 L146.658306,12.8664312 Z M131.289172,126.328617 C132.380362,119.568787 133.305099,112.81204 134.069549,106.055293 C134.830916,99.2985452 135.647767,92.4308295 136.520103,85.4552277 L81.2608835,85.4552277 C80.388548,92.4308295 79.5162124,99.2985452 78.6438769,106.055293 C77.7746238,112.81204 76.9022883,119.568787 76.0299528,126.328617 L131.289172,126.328617 Z" id="Shape"></path>
                </g>
            </g>
        </g>
    </g>
</svg>