<?xml version="1.0" encoding="UTF-8" standalone="no"?>
<!DOCTYPE svg PUBLIC "-//W3C//DTD SVG 1.1//EN" "http://www.w3.org/Graphics/SVG/1.1/DTD/svg11.dtd">
<svg width="100%" height="100%" viewBox="0 0 805 190" version="1.1" xmlns="http://www.w3.org/2000/svg" xmlns:xlink="http://www.w3.org/1999/xlink" xml:space="preserve" xmlns:serif="http://www.serif.com/" style="fill-rule:evenodd;clip-rule:evenodd;stroke-linejoin:round;stroke-miterlimit:2;">
    <g transform="matrix(1,0,0,1,-2126.93,-361.242)">
        <g transform="matrix(0.96021,0,0,1.1659,1902.93,455.278)">
            <text x="439.504px" y="39.371px" style="font-family:'Oswald-Regular', 'Oswald';font-size:96px;">Markdo<tspan x="698.224px " y="39.371px ">w</tspan>nResume</text>
        </g>
        <g transform="matrix(1,0,0,1,-38.2792,-0.0574052)">
            <g transform="matrix(11.0543,0,0,11.0543,2208.02,367.885)">
                <path d="M0,2C0,0.897 0.897,0 2,0L7,0L7,4C7,4.553 7.447,5 8,5L12,5L12,14C12,15.103 11.103,16 10,16L2,16C0.897,16 0,15.103 0,14L0,2ZM12,4L8,4L8,0L12,4Z" style="fill:rgb(97,218,251);fill-rule:nonzero;"/>
            </g>
            <g transform="matrix(1.1675,0,0,1.1675,2062.12,387.887)">
                <path d="M194.24,42.713C194.593,41.157 195.247,40.043 196.202,39.371C197.157,38.7 198.129,38.434 199.119,38.576C200.109,38.717 200.993,39.23 201.771,40.114C202.549,40.998 202.903,42.218 202.832,43.774C202.478,46.107 202.16,48.423 201.877,50.722C201.594,53.02 201.276,55.301 200.922,57.564L213.015,57.564C214.359,57.988 215.349,58.624 215.985,59.473C216.622,60.322 216.922,61.188 216.887,62.072C216.852,62.956 216.48,63.805 215.773,64.618C215.066,65.431 214.041,65.979 212.697,66.262L199.756,66.262C199.402,68.525 199.101,70.753 198.854,72.945C198.606,75.137 198.306,77.329 197.952,79.522L210.151,79.522C211.495,79.946 212.485,80.582 213.121,81.431C213.758,82.28 214.058,83.146 214.023,84.03C213.988,84.914 213.616,85.763 212.909,86.576C212.202,87.389 211.177,87.937 209.833,88.22L196.785,88.22C196.432,90.907 196.078,93.577 195.725,96.229C195.371,98.881 195.017,101.55 194.664,104.238C194.169,105.511 193.462,106.43 192.542,106.996C191.623,107.561 190.721,107.791 189.837,107.685C188.953,107.579 188.14,107.155 187.398,106.412C186.655,105.67 186.213,104.591 186.072,103.177C186.425,100.702 186.761,98.209 187.079,95.698C187.398,93.188 187.733,90.695 188.087,88.22L170.16,88.22C169.806,90.907 169.435,93.577 169.046,96.229C168.657,98.881 168.286,101.55 167.932,104.238C167.437,105.511 166.73,106.43 165.811,106.996C164.891,107.561 163.99,107.791 163.106,107.685C162.222,107.579 161.409,107.155 160.666,106.412C159.924,105.67 159.482,104.591 159.34,103.177C159.694,100.702 160.03,98.209 160.348,95.698C160.666,93.188 161.002,90.695 161.356,88.22L151.172,88.22C149.616,88.008 148.467,87.46 147.725,86.576C146.982,85.692 146.629,84.737 146.664,83.712C146.699,82.686 147.124,81.749 147.937,80.901C148.75,80.052 149.935,79.592 151.49,79.522L162.522,79.522C162.876,77.329 163.177,75.137 163.424,72.945C163.672,70.753 163.972,68.525 164.326,66.262L154.461,66.262C152.905,66.05 151.756,65.502 151.013,64.618C150.27,63.734 149.917,62.779 149.952,61.754C149.988,60.728 150.412,59.791 151.225,58.943C152.038,58.094 153.223,57.634 154.779,57.564L165.493,57.564C165.846,55.089 166.182,52.631 166.5,50.191C166.819,47.751 167.154,45.294 167.508,42.819C167.862,41.263 168.516,40.149 169.47,39.477C170.425,38.806 171.398,38.54 172.388,38.682C173.378,38.823 174.262,39.336 175.04,40.22C175.817,41.104 176.171,42.324 176.1,43.88L174.191,57.564L192.118,57.564L194.24,42.713ZM189.254,79.522C189.608,77.329 189.908,75.137 190.156,72.945C190.403,70.753 190.668,68.525 190.951,66.262L173.024,66.262C172.741,68.525 172.458,70.753 172.175,72.945C171.893,75.137 171.61,77.329 171.327,79.522L189.254,79.522Z" style="fill:white;fill-rule:nonzero;"/>
            </g>
        </g>
    </g>
</svg>
