<?xml version="1.0" encoding="UTF-8"?>
<svg width="350px" height="467px" viewBox="0 0 350 467" version="1.1" xmlns="http://www.w3.org/2000/svg" xmlns:xlink="http://www.w3.org/1999/xlink">
    <title>project-MarkdownResume</title>
    <g id="project-MarkdownResume" stroke="none" stroke-width="1" fill="none" fill-rule="evenodd">
        <g id="markdown-resume" transform="translate(28, 37)" fill-rule="nonzero">
            <g id="Group" fill="#61DAFB">
                <path d="M0,49 C0,21.9765 21.9765,0 49,0 L171.5,0 L171.5,98 C171.5,111.5485 182.4515,122.5 196,122.5 L294,122.5 L294,343 C294,370.0235 272.0235,392 245,392 L49,392 C21.9765,392 0,370.0235 0,343 L0,49 Z M294,98 L196,98 L196,0 L294,98 Z" id="Shape"></path>
            </g>
            <g id="Group" transform="translate(56, 145)" fill="#FFFFFF">
                <path d="M123.30195,10.8016204 C124.216769,6.7750293 125.911646,3.89223852 128.386581,2.15324804 C130.861516,0.416845338 133.380507,-0.271505062 135.946146,0.095960189 C138.511786,0.460837657 140.80272,1.78837057 142.81895,4.07597115 C144.83518,6.36357173 145.75259,9.52066755 145.56859,13.5472586 C144.651179,19.5845574 143.827065,25.5778639 143.093655,31.5271781 C142.360245,37.4739045 141.53613,43.3766386 140.61872,49.2327925 L171.958393,49.2327925 C175.441443,50.3300127 178.007082,51.975843 179.655311,54.1728711 C181.306131,56.3698993 182.083598,58.6109198 181.992893,60.8985204 C181.902189,63.1861209 180.93813,65.3831491 179.105901,67.487017 C177.273672,69.590885 174.617328,71.0089903 171.134278,71.7413331 L137.596967,71.7413331 C136.679557,77.597487 135.899498,83.3630686 135.259384,89.0354899 C134.616679,94.7079113 133.839212,100.380333 132.921802,106.055342 L164.53618,106.055342 C168.019229,107.152562 170.584869,108.798392 172.233098,110.99542 C173.883918,113.192449 174.661385,115.433469 174.57068,117.72107 C174.479976,120.00867 173.515917,122.205698 171.683688,124.309566 C169.851459,126.413434 167.195115,127.83154 163.712065,128.563882 L129.897457,128.563882 C128.982639,135.517256 128.065228,142.426638 127.150409,149.28944 C126.232999,156.152242 125.315588,163.059036 124.40077,170.014998 C123.11795,173.309246 121.285721,175.687419 118.90149,177.152105 C116.519851,178.614202 114.182269,179.209392 111.891334,178.935087 C109.6004,178.660782 107.493466,177.563562 105.570532,175.640839 C103.645007,173.720704 102.499539,170.928485 102.13413,167.269359 C103.048949,160.864595 103.919711,154.413251 104.743826,147.915327 C105.570532,141.41999 106.438703,134.968646 107.356113,128.563882 L60.8973092,128.563882 C59.9798988,135.517256 59.0184319,142.426638 58.0103171,149.28944 C57.0022022,156.152242 56.0407354,163.059036 55.1233249,170.014998 C53.8405053,173.309246 52.008276,175.687419 49.6266371,177.152105 C47.2424066,178.614202 44.9074157,179.209392 42.6164812,178.935087 C40.3255467,178.660782 38.2186126,177.563562 36.2930873,175.640839 C34.3701536,173.720704 33.2246863,170.928485 32.8566856,167.269359 C33.774096,160.864595 34.6448584,154.413251 35.4689729,147.915327 C36.2930873,141.41999 37.1638497,134.968646 38.0812602,128.563882 L11.6888654,128.563882 C7.65640606,128.015272 4.67870952,126.597167 2.75577581,124.309566 C0.830250546,122.021966 -0.0845683209,119.550632 0.00613609934,116.898154 C0.0968405196,114.243089 1.19825134,111.818335 3.30518544,109.623895 C5.41211955,107.426867 8.48311206,106.236487 12.5129799,106.055342 L41.1030131,106.055342 C42.0204236,100.380333 42.8004816,94.7079113 43.4405956,89.0354899 C44.0833012,83.3630686 44.8607677,77.597487 45.7781781,71.7413331 L20.2124894,71.7413331 C16.18003,71.192723 13.2023335,69.7746176 11.2768082,67.487017 C9.35128294,65.1994165 8.43646407,62.7280833 8.52716849,60.0756052 C8.62046447,57.4205394 9.71928373,54.9957863 11.8262178,52.8013459 C13.9331519,50.6043178 17.0041445,49.4139374 21.0366038,49.2327925 L48.8025226,49.2327925 C49.7173415,42.8280285 50.5881039,36.4672567 51.4122184,30.1530651 C52.2389244,23.8388734 53.1070953,17.4806895 54.0245057,11.0759254 C54.9419161,7.04933435 56.636793,4.16654357 59.1091363,2.42755309 C61.5840712,0.691150385 64.1056541,0.00279998449 66.6712934,0.370265236 C69.2369327,0.735142704 71.5278672,2.06267562 73.5440969,4.3502762 C75.557735,6.63787678 76.4751455,9.7949726 76.2911451,13.8215637 L71.3438668,49.2327925 L117.802671,49.2327925 L123.30195,10.8016204 Z M110.380458,106.055342 C111.297868,100.380333 112.075335,94.7079113 112.71804,89.0354899 C113.358154,83.3630686 114.044916,77.597487 114.778326,71.7413331 L68.3195223,71.7413331 C67.5861123,77.597487 66.8527023,83.3630686 66.1192922,89.0354899 C65.3884738,94.7079113 64.6550637,100.380333 63.9216537,106.055342 L110.380458,106.055342 Z" id="Shape"></path>
            </g>
        </g>
    </g>
</svg>