<?xml version="1.0" encoding="UTF-8"?>
<svg width="350px" height="260px" viewBox="0 0 350 260" version="1.1" xmlns="http://www.w3.org/2000/svg" xmlns:xlink="http://www.w3.org/1999/xlink">
    <title>react-tube</title>
    <g id="Symbols" stroke="none" stroke-width="1" fill="none" fill-rule="evenodd">
        <g id="reacttube-logo" transform="translate(0, 2)">
            <g id="react-tube" transform="translate(0, -1.924)">
                <g id="react-background-image" transform="translate(0, 7.1829)">
                    <g id="Group" fill="#61DAFB">
                        <path d="M346.050364,62.0397951 C343.326477,47.3922523 340.213464,30.7180802 330.193452,20.3256674 C320.32909,10.0955433 304.277614,5.87207937 289.957752,3.95826044 C264.586692,0.569989504 215.342709,0 178.02546,0 C140.027239,0 88.253933,0.550198202 62.0462505,3.95826044 C47.356718,5.86614198 31.0523097,10.1430424 20.6820835,20.4463943 C10.2340319,30.8328697 6.98482406,47.3803775 3.94963589,62.0397951 C0.505864695,78.7476124 0,101.095951 0,120.693298 C0,140.71418 0.778253377,165.255394 3.94963589,182.161125 C6.59569737,196.187221 9.61142921,211.875786 19.1255767,222.131639 C29.5736283,233.406744 46.6952026,238.138844 62.0462505,240.244638 C88.8570793,243.921862 142.050698,244.202899 180.048919,244.202899 C216.704653,244.202899 264.800712,243.753636 289.957752,240.244638 C304.569459,238.204155 320.990605,233.814444 330.89388,223.144953 C340.485852,212.802019 343.209739,196.470236 346.050364,182.161125 C349.241203,166.098504 350,145.276075 350,126.759332 C350,106.74043 349.357941,79.7787392 346.050364,62.0397951 Z" id="Path"></path>
                    </g>
                    <g id="play" transform="translate(183.6588, 122.5071) rotate(90) translate(-183.6588, -122.5071)translate(152.2197, 93.49)" fill="#FFFFFF">
                        <polygon id="Path" points="31.439137 0 62.878274 58.0342494 0 58.0342494"></polygon>
                    </g>
                </g>
                <g id="Group" transform="translate(54.2602, 0)" fill="#FFFFFF" fill-rule="nonzero">
                    <path d="M120.741415,8.74592019 C149.546352,8.74592019 170.583202,63.0002417 170.583202,129.488688 C170.583202,195.977135 149.546352,250.231456 120.741415,250.231456 C91.9364773,250.231456 70.8996282,195.977135 70.8996282,129.488688 C70.8996282,63.0002417 91.9364773,8.74592019 120.741415,8.74592019 Z M120.741415,18.625355 C99.9488962,18.625355 80.779063,68.0646172 80.779063,129.488688 C80.779063,190.912759 99.9488962,240.352022 120.741415,240.352022 C141.533933,240.352022 160.703767,190.912759 160.703767,129.488688 C160.703767,68.0646172 141.533933,18.625355 120.741415,18.625355 Z" id="Oval" transform="translate(120.7414, 129.4887) rotate(30) translate(-120.7414, -129.4887)"></path>
                    <path d="M120.74277,8.74271391 C149.547672,8.74271391 170.58449,62.9970349 170.58449,129.485484 C170.58449,195.973934 149.547672,250.228255 120.74277,250.228255 C91.9378692,250.228255 70.9010513,195.973934 70.9010513,129.485484 C70.9010513,62.9970349 91.9378692,8.74271391 120.74277,8.74271391 Z M120.74277,18.6221414 C99.9502861,18.6221414 80.7804788,68.0614095 80.7804788,129.485484 C80.7804788,190.909559 99.9502861,240.348827 120.74277,240.348827 C141.535255,240.348827 160.705062,190.909559 160.705062,129.485484 C160.705062,68.0614095 141.535255,18.6221414 120.74277,18.6221414 Z" id="Oval" transform="translate(120.7428, 129.4855) rotate(90) translate(-120.7428, -129.4855)"></path>
                    <path d="M120.74374,8.74442819 C149.548678,8.74442819 170.585527,62.9987497 170.585527,129.487196 C170.585527,195.975643 149.548678,250.229964 120.74374,250.229964 C91.9388028,250.229964 70.9019537,195.975643 70.9019537,129.487196 C70.9019537,62.9987497 91.9388028,8.74442819 120.74374,8.74442819 Z M120.74374,18.623863 C99.9512218,18.623863 80.7813885,68.0631252 80.7813885,129.487196 C80.7813885,190.911267 99.9512218,240.35053 120.74374,240.35053 C141.536259,240.35053 160.706092,190.911267 160.706092,129.487196 C160.706092,68.0631252 141.536259,18.623863 120.74374,18.623863 Z" id="Oval" transform="translate(120.7437, 129.4872) rotate(150) translate(-120.7437, -129.4872)"></path>
                </g>
            </g>
        </g>
    </g>
</svg>