<svg id="Layer_1" data-name="Layer 1" xmlns="http://www.w3.org/2000/svg" viewBox="0 0 369 323"><defs><style>.cls-1{fill:none;}.cls-2{fill:#1c1c1c;}.cls-3{fill:#272727;}.cls-4{fill:#222;}.cls-5{fill:#b0b0b0;}.cls-6{fill:#2f2f2f;}.cls-7{fill:#ebebeb;}.cls-8{fill:#151515;}.cls-9{fill:#e6e6e6;}.cls-10{fill:#fefefe;}.cls-11{fill:#fdfdfd;}</style></defs><title>AdultSwimGames-Logo</title><path class="cls-1" d="M490.92,513.93c0,13.14-.09,26.28.07,39.42,0,2.81-.36,3.69-3.51,3.65-15.46-.22-30.94-.1-46.41-.1h-277a1.06,1.06,0,0,1,.22-1.46,3.14,3.14,0,0,1,.85-.52c14.33-4.11,18.06-13,18.47-27.2.31-11,.06-22,.06-32.92,0-10.64-.11-21.29.06-31.93.06-4-1.29-5.91-5.46-5.54a36.18,36.18,0,0,1-6,0c-4.17-.34-7.35.33-7,5.62.07,1.09-.21,2.59-1.53,2.84-1.57.3-2.26-1.23-2.91-2.31-3.3-5.43-7.94-8.18-14.41-8.16-9.92,0-15.89,4.27-18.65,13.9a81.49,81.49,0,0,0-.37,43.84c3.95,15.05,18.24,19.79,30.75,10.35,1-.8,2-1.77,3.48-1.74,3.35,3.39,1.25,7.64,1.85,11.46,0,4.25-1.12,8-5.39,9.84-4.5,1.95-8.56.81-11.93-2.48-3.53-3.46-7.85-2-11.86-2.16-2.36-.1-5.67-1.25-6.9,1.31-1.41,2.91.85,5.74,2.52,8.19,2.89,4.24,7.91,5.3,12.07,7.64a1.05,1.05,0,0,1,.11,1.43c-6,0-12-.09-18,.05-1.71,0-2.38-.27-2-2a10.26,10.26,0,0,0,0-2q0-157.3-.11-314.63c0-3.81,1-4.25,4.43-4.25q180.08.15,360.13,0c4.05,0,4.44,1.25,4.44,4.75q-.15,132.58-.08,265.18c-1.89.19-2.12-1.42-2.47-2.57-2.28-7.44-8-11.22-14.73-13.82-3.58-1.37-7.26-2.45-10.93-3.55a14.57,14.57,0,0,1-8.16-5.44c-3.5-5-.67-11.17,5.4-11.84s8.08.37,10.92,6.19c.84,1.73,1.9,2.62,3.76,2.67,3.33.07,6.66,0,10,0s3.91-1.7,3.34-4.58c-1.39-7.05-5.63-11.85-12.26-13.89-10-3.06-20.11-3.12-29.82,1-6.45,2.74-10,8-10.65,15.12-.76,8.49.75,16,8.83,20.69a66.78,66.78,0,0,0,13.28,5.74,35.58,35.58,0,0,1,8.72,3.66c4.05,2.64,5.79,7.06,4.56,11.21-1.11,3.78-4.31,6.07-8.71,6.24a8.87,8.87,0,0,1-9.29-6.8c-1.07-3.89-3.28-5.05-6.91-4.74-1.32.12-2.66,0-4,0-7.77,0-8.64,1.25-6.37,8.84,1.46,4.86,4,8.93,8.9,10.78a44.84,44.84,0,0,0,32.21.33c5.45-2,9-6.06,11.36-11.32C488.57,516.4,488.35,514,490.92,513.93Z" transform="translate(-122 -234)"/><path d="M490.92,513.93c-2.72,6.82-5.76,13.38-13.24,16.36a44.27,44.27,0,0,1-33.47,0c-8.1-3.19-11.88-11.21-11.28-20.38.14-2.15.95-2.41,2.7-2.38,4.5.07,9,.22,13.48,0,3-.18,3.82.73,4.19,3.74.85,6.79,4.48,9.31,10.46,8s8.27-7.88,4.29-12.69c-2.61-3.16-6.43-4.08-10-5.31A124.91,124.91,0,0,1,445.18,496c-9.27-4.4-12.09-12-11.45-21.68.57-8.7,4.67-14.9,12.73-17.87,11-4,22.14-4.24,33,.61,7.3,3.27,9.93,9.71,10.42,17.32.14,2.18-.44,2.9-2.68,2.82-4.65-.16-9.32-.19-14,0-2.55.1-3.17-.7-3.5-3.25-.78-6-7.4-8.72-12.51-5.38a6.57,6.57,0,0,0-1.6,9.59,11.64,11.64,0,0,0,5.71,3.84c3,1,6,2.07,9,2.89,10.19,2.76,17.89,8.17,20.63,19Z" transform="translate(-122 -234)"/><path class="cls-2" d="M164.27,556a.89.89,0,0,0-.18.91h-22a.87.87,0,0,0-.17-.91A31.38,31.38,0,0,1,164.27,556Z" transform="translate(-122 -234)"/><path d="M348.14,366.06c9.93-14.45,28.28-14,37,1,5.6-10.13,14.26-13.07,24.92-10.65,7.92,1.81,12.78,7.07,12.95,15.57.39,19.63.11,39.28.18,58.93,0,2.4-1.19,2.66-3.1,2.64-5-.07-10-.23-15,0-3.43.2-4.52-.78-4.47-4.35.2-15.32.08-30.64.09-46,0-7.23-1.92-10.31-6.51-10.37-4.95-.06-8.25,3.69-8.33,10.36-.17,15.32-.2,30.64,0,46,.05,3.57-1,4.57-4.42,4.36a130.38,130.38,0,0,0-14,0c-3.14.14-4.25-.61-4.19-4.1.25-14.48.11-29,.1-43.46,0-1.5.05-3-.06-4.49-.3-4.21-1.2-8.1-6.41-8.57-4.15-.38-7.83,3-8.52,8.08a71.11,71.11,0,0,0-.23,9.47c0,13-.16,26,.09,39,.06,3.44-1,4.27-4.18,4.11a134.5,134.5,0,0,0-14.48,0c-3.26.19-3.79-1.07-3.78-4q.18-34,0-67.93c0-3.09.74-4.06,3.85-3.84a67.45,67.45,0,0,0,12.47,0c5.11-.61,6.45,1.47,5.51,6a6.56,6.56,0,0,0-.06,1.47C347.63,365.41,347.79,365.54,348.14,366.06Z" transform="translate(-122 -234)"/><path d="M283.18,464.44c14-15,30.79-14.49,37.47.41,1.66-.45,1.9-2.14,2.73-3.26,5.4-7.35,14.37-9.82,24.65-6.71,6.93,2.1,11,8.33,11,17.6.11,18.48,0,36.95.14,55.43,0,3.16-.93,4-3.95,3.82a112.27,112.27,0,0,0-13.48,0c-3.74.25-5.09-.6-5-4.78.31-15.14.13-30.29.12-45.44a19.2,19.2,0,0,0-.5-5.42c-.77-2.66-2.22-4.47-4.9-5a7,7,0,0,0-7.13,2.53c-2.25,2.59-2.39,5.71-2.39,8.9,0,15-.12,30,.1,44.94.05,3.57-.95,4.56-4.42,4.32a102.62,102.62,0,0,0-13.47,0c-3.69.23-5.12-.53-5-4.78.34-14.3.14-28.62.12-42.94,0-2.16,0-4.33-.13-6.48-.18-3.35-1.84-5.77-5.15-6.48-3.47-.75-6.17.75-8,3.77-1.69,2.83-1.77,6-1.77,9.16,0,14.31-.18,28.63.11,42.94.09,4.13-1.26,5.06-5,4.82-4.81-.31-9.66-.16-14.48,0-2.13.06-2.91-.59-2.91-2.8q.09-35.44,0-70.9c0-2.1.87-2.48,2.68-2.44,4.66.09,9.38.47,14-.09,5-.62,5.55,1.83,5.17,5.62C283.66,461.9,283.48,462.69,283.18,464.44Z" transform="translate(-122 -234)"/><path d="M234.18,384c-2.45,14.74-5.07,29.46-7.22,44.24-.59,4.06-1.6,5.78-6,5.37a86.88,86.88,0,0,0-15.47,0c-4.21.37-5.73-1.18-6.51-5.15-3.82-19.2-7.9-38.36-11.89-57.53-.88-4.22-1.78-8.43-2.75-13.05,6.81,0,13.45.14,20.08-.06,2.9-.09,2.56,1.67,2.8,3.46,2.24,17.11,4.52,34.21,7.58,51.41q2.11-13.93,4.24-27.87c1.23-8,2.61-16.08,3.67-24.14.32-2.42,1.28-2.91,3.49-2.85,6,.15,12,.18,18,0,2.55-.08,3.44.76,3.79,3.25,2.36,17.12,4.86,34.21,8.13,51.44,1-6.69,2-13.37,2.89-20.06,1.43-10.2,2.9-20.4,4.19-30.63.38-3,1.44-4.2,4.68-4,5.64.31,11.3.09,17.6.09-1.65,8-3.2,15.65-4.85,23.31-3.41,15.89-7,31.75-10.24,47.68-.75,3.66-2.11,5-5.87,4.72a156.2,156.2,0,0,0-16.48,0c-3.28.14-4.57-.76-5-4.26-2.16-16.12-4.69-32.19-7.08-48.28C233.18,380.8,235.39,383.39,234.18,384Z" transform="translate(-122 -234)"/><path d="M164.27,556H141.93c-10.1-2.23-15.4-7.32-16.75-15.78-.44-2.79.18-4,3.22-3.73,3.47.24,7,.07,10.46,0s6.64-.43,9,3.77c1.78,3.22,6.19,2.76,9.6,1.62,3.6-1.19,4.84-4.19,4.74-7.83.92-3.69.25-7.45.4-11.17,0-.91-.27-1.64-1.42-1-9.71,12.08-27.58,10.43-33.21-3.87-6.81-17.34-6.46-35.31-.06-52.87,2.68-7.37,8.5-11.1,16.51-11.39,8.45-.31,14.91,2.52,18.34,10.7.1.23.49.35.75.52.2-.21.56-.4.57-.61.11-8.82.11-8.82,9.17-8.82,11.72,0,11.72,0,11.72,11.85v59.9a46.85,46.85,0,0,1-1.46,11.82C180.9,549.18,174.31,554.54,164.27,556Z" transform="translate(-122 -234)"/><path d="M230.26,235.26c6.16,0,12.32.1,18.48-.06,2.49-.06,3.45.47,3.44,3.25q-.15,46.95,0,93.89c0,2.51-.82,3.07-3.13,3a118.37,118.37,0,0,0-14,.05c-4,.34-5.24-1.13-4.73-4.85.14-1.07.83-2.2-.26-3.7-2.87,5.64-6.72,9.8-13.35,10.38C204,338.32,196.13,333,193,320.49a100.66,100.66,0,0,1,.08-47.75c1.76-7.47,6.27-13.09,14.06-14.48,8.23-1.48,16-.29,20.94,7.79,2.78-.43,1.35-2.6,1.38-3.88.15-7.41,0-14.82.11-22.23C229.63,238.39,228.92,236.66,230.26,235.26Z" transform="translate(-122 -234)"/><path d="M300.58,326.32C294.72,337,285.86,338.43,276.06,337c-6.9-1.05-12.81-7.27-12.94-14.51-.38-20.09-.23-40.19-.34-60.29,0-1.76.62-2.31,2.32-2.29,5.83.07,11.66.16,17.49,0,3.09-.1,2.48,1.88,2.48,3.6q0,22.49,0,45a31.87,31.87,0,0,0,.14,5c.55,3.48,1.8,6.55,6,6.76,3.94.2,6.57-1.6,8-5.4a21.05,21.05,0,0,0,.86-7.38c0-14.48.13-29-.07-43.46,0-3.3.85-4.26,4.11-4.09,5.15.27,10.32.17,15.48,0,2.41-.07,3,.72,3,3.14q-.15,34.71,0,69.43c0,2.71-1,3-3.14,2.9-3.32-.1-6.66,0-10,0C301.29,335.29,301.29,335.29,300.58,326.32Z" transform="translate(-122 -234)"/><path d="M253.36,531.66c-5.81,0-11-.36-16.12.11s-6.61-1.66-6.35-6.18c0-.74,0-1.49,0-3.73-5.78,9.73-13.56,12.47-23,11.19-7.42-1-13.07-5.83-14.54-13.11a37.79,37.79,0,0,1-.7-13.88c1.73-10.26,6.42-15.53,16.54-18.06,5-1.25,10-2.39,14.93-3.89,5.38-1.64,6.51-3.81,5.84-9.81-.45-4.06-3-5.75-6.74-5.93-4.6-.22-7.77,1.77-8.39,6.61-.37,2.84-1.56,3.92-4.54,3.71-4.29-.29-8.62-.14-12.93-.07-2,0-2.94-.46-2.86-2.83.4-11.37,6.71-18.83,18.11-21.07a59.19,59.19,0,0,1,23.79.26c9.42,2,14.35,9.16,14.4,20.48.05,13.65,0,27.3,0,41C250.8,521.39,250.9,526.36,253.36,531.66Z" transform="translate(-122 -234)"/><path d="M184.17,335.28c-6.57,0-12.71.1-18.85,0-2.89-.07-2.91-.35-3.36-7.49-1.66-.34-1.63,1.26-2.24,2.05-5.86,7.56-13.93,8.69-22.47,7-7.24-1.4-11.2-6.69-12.85-13.69a33.55,33.55,0,0,1,0-16.27c2.57-10,10.27-13.59,19.23-15.73,4-1,8.1-1.81,12.07-3,5.07-1.51,6.39-4.21,5.46-10.07-.65-4.05-3.33-5.45-7-5.6-4.64-.19-7.32,1.91-8,6.92-.35,2.73-1.27,3.74-4,3.6a99.93,99.93,0,0,0-12.48,0c-3.34.25-3.82-1.18-3.72-4,.3-9.09,5.44-16.28,14.05-19.16,8.43-2.82,17.12-2.72,25.64-1.13,11.4,2.13,16.29,8.05,16.53,19.66.32,14.81.14,29.63.16,44.45A37.07,37.07,0,0,0,184.17,335.28Z" transform="translate(-122 -234)"/><path d="M427.69,505.86c-.81,10.51-3.29,19.73-13.4,24.29-10.34,4.66-21.08,4.48-31.49.38-8.11-3.2-12.12-10.31-13.59-18.45a98.88,98.88,0,0,1-.25-36.14c2.39-12.67,10.3-20.44,23.06-21.81a61.51,61.51,0,0,1,12.94,0c12.19,1.29,18.62,7.29,21.56,19.32,1.71,7,1.39,14.2,2,21.3.26,2.95-1.73,2.23-3.21,2.24-10.32,0-20.65.24-31-.09-4-.13-4.79,1.19-4.48,4.76.34,4,.05,8,1.19,11.85s3.42,6.06,7.48,6,6.24-2.49,7.22-6.27c1.91-7.41,1.94-7.4,9.51-7.4Z" transform="translate(-122 -234)"/><path d="M170.14,379.39a33.6,33.6,0,0,0-4.49,0c-3.64.47-5.84-.18-5.77-4.69.06-3.33-2.56-4.84-5.76-4.94-3.35-.1-6.92-.36-8.55,3.51-1.35,3.23-.82,6.26,2.06,8.52,2.66,2.09,6,2.87,9.08,4s6.39,1.85,9.46,3.08c15.88,6.35,20.59,26.19,9.17,38.48-4.28,4.6-9.81,6.77-15.88,7.54a54,54,0,0,1-20.31-.91c-11.82-3.06-15.53-10.67-15.88-22.24-.08-2.39,1.25-2.28,2.79-2.28,3.16,0,6.34.16,9.49,0,4.84-.31,9-.74,8.86,6.5-.07,3.75,3.71,5.85,7.54,5.85,3.66,0,6.94-1.33,8.08-5.34,1.18-4.18,0-7.93-3.81-9.85-4.57-2.28-9.6-3.63-14.34-5.61-7.08-3-14.19-6-16.72-14.31-4.41-14.53,2.33-26.39,17.18-29.75,9.95-2.24,19.84-2.09,29,3,6.61,3.69,9,9.78,9,17.11,0,2.23-1,2.4-2.73,2.36C175.14,379.34,172.64,379.39,170.14,379.39Z" transform="translate(-122 -234)"/><path d="M372.74,299.62c0-6.65-.15-13.31.07-19.95.11-3.31-.58-5.17-4.3-4.51-4.35.76-6.46-.73-5.55-5.43a9.92,9.92,0,0,0,0-3.48c-.83-5,.81-7.4,6.18-6.38,2.9.56,3.74-.87,3.65-3.63-.16-5.32.14-10.65-.14-16-.13-2.55.67-3.12,3-3.07,5.49.13,11,.18,16.47,0,2.62-.09,3,1.05,2.94,3.25-.12,5.32.12,10.65-.1,16-.12,2.86.76,3.61,3.6,3.56,6.94-.1,6.94.06,7,7,0,.16,0,.33,0,.5,0,7.46,0,7.66-7.21,7.65-3.18,0-3.37,1.32-3.35,3.85.12,11.48,0,22.95.06,34.43,0,5.65,1.52,7.42,7.41,7.47,2.86,0,3.17,1,3.22,3.4.23,12.1.28,12.11-12.09,12.19-1.83,0-3.66-.08-5.48-.21-11.51-.82-15.67-5.25-15.6-16.65,0-3.32.2-6.63.24-9.95S372.74,303,372.74,299.62Z" transform="translate(-122 -234)"/><path d="M356,285.6c0,15.3-.08,30.59.08,45.88,0,3-.64,4.06-3.81,3.88-5.14-.28-10.3-.15-15.46,0-2.32.05-3.49-.17-3.48-3.17q.21-46.87,0-93.76c0-2.42.68-3.23,3.07-3.17,5,.12,10,.27,14.95-.05,3.63-.23,4.79.68,4.73,4.55C355.89,255,356,270.31,356,285.6Z" transform="translate(-122 -234)"/><path d="M315.14,395.68c0,11.33-.1,22.65.07,34,.05,3-.71,4.1-3.87,3.93-5-.26-10-.2-15,0-2.73.1-3.79-.61-3.77-3.58q.15-34.71,0-69.44c0-2.38.86-2.71,2.84-2.68,5.5.09,11,.18,16.49,0,2.71-.11,3.32.81,3.29,3.37C315.07,372.7,315.14,384.19,315.14,395.68Z" transform="translate(-122 -234)"/><path class="cls-3" d="M437.25,358.1c-3.14,2.65-2.2,5.57-2.33,8.27-.05,1,.23,2.2-1.14,2.35-1.74.18-1.6-1.22-1.69-2.37-.21-2.65,1.05-5.64-2.22-7.73C432.22,357.32,434.26,357.84,437.25,358.1Z" transform="translate(-122 -234)"/><path class="cls-4" d="M442,362.87c1.9-1.16.18-5.6,3.49-4.85s1.22,4.13,1.4,6.27c.14,1.51,1.59,4.2-1.77,4.64-1.16-.58-.73-2.52-2.34-2.73a4.37,4.37,0,0,1-1.2-2.84Z" transform="translate(-122 -234)"/><path class="cls-5" d="M230.26,235.26q-.18,14.91-.35,29.84c0,.86.75,2.12-.79,2.35-.73.1-1-.66-1-1.4,1.78-8.65.26-17.39.85-26.07C229.08,238.39,227.77,236.25,230.26,235.26Z" transform="translate(-122 -234)"/><path class="cls-6" d="M440.8,364.28c-2.78.4.44,4.91-2.3,4.17-2.25-.61-.46-3.83-.87-5.84a10.93,10.93,0,0,1,0-2.49c.05-1.19.05-2.34,1.78-2.33,1.52,0,2,.84,2.2,2.13.14,1,.27,2,.41,2.95l-.14.47C441.56,363.69,441.41,364.26,440.8,364.28Z" transform="translate(-122 -234)"/><path class="cls-7" d="M161.15,521.93l1.14-2.71c.43,5,1.45,9.95-.12,14.87C161.33,530.08,163.28,525.84,161.15,521.93Z" transform="translate(-122 -234)"/><path class="cls-8" d="M440.8,364.28l1.1-.94,1.14,2.87a1.31,1.31,0,0,1,0,1.84C439.11,368.72,441.72,365.44,440.8,364.28Z" transform="translate(-122 -234)"/><path class="cls-9" d="M234.18,384v-6c2.63.35,1.68,1.91,1.71,3Z" transform="translate(-122 -234)"/><path class="cls-9" d="M443.07,368.05l0-1.84c.59-.32,1.18-2.55,1.78,0a24.88,24.88,0,0,1,.34,2.75Z" transform="translate(-122 -234)"/><path class="cls-10" d="M146.14,491.91c.06-4.82-.24-9.68,1.13-14.37,1.15-4,3.4-7,8.07-6.6,4.44.36,6.13,3.65,6.75,7.45a83.24,83.24,0,0,1-.13,27.77c-.66,3.79-2.57,6.82-7.11,7s-6.55-2.63-7.63-6.41C145.84,501.91,146.25,496.88,146.14,491.91Z" transform="translate(-122 -234)"/><path class="cls-10" d="M230,297.76c0,5.3.34,10.64-1,15.83-1,3.79-2.33,7.51-7.23,7.49s-7.05-3.62-7.71-7.66a102,102,0,0,1-.11-32.15c.61-3.95,2.84-6.68,7.12-7.08,4.58-.42,6.54,2.63,7.68,6.29C230.47,286.12,229.88,292,230,297.76Z" transform="translate(-122 -234)"/><path class="cls-11" d="M229.91,494.17c0,4.75.09,8.9,0,13.05-.18,6.26-2.88,9.94-7.62,10.58-4.15.57-6.66-1.54-7.88-5.27-2-6,.11-11.79,5.13-14.07C222.79,497,226.17,495.7,229.91,494.17Z" transform="translate(-122 -234)"/><path class="cls-11" d="M161,298.36c0,5.54.37,10.79-.1,16-.45,5-4.12,7.73-8.79,7.6-4.1-.13-6.4-2.85-6.87-8.14-.55-6.36,1.38-9.54,7.28-12Z" transform="translate(-122 -234)"/><path class="cls-11" d="M398.38,484.09c-9.2,0-10.21-1.44-7.43-10.31,1.29-4.1,3.72-6.51,8.26-6.29s6,3.38,6.75,7.19C407.79,484.09,407.8,484.09,398.38,484.09Z" transform="translate(-122 -234)"/></svg>