<svg xmlns="http://www.w3.org/2000/svg" xmlns:xlink="http://www.w3.org/1999/xlink" viewBox="0 0 606.18 699.43"><defs><style>.cls-1{fill:none;}.cls-2{clip-path:url(#clip-path);}.cls-3{fill:#d81c22;}</style><clipPath id="clip-path" transform="translate(0.01 0)"><rect class="cls-1" width="612" height="699.43"/></clipPath></defs><title>Asset 1</title><g id="Layer_2" data-name="Layer 2"><g id="Layer_1-2" data-name="Layer 1"><g class="cls-2"><path class="cls-3" d="M474.71,2.73S522.9-1.82,560.62,23c13.7-.64,24.74,5.24,31.91,18.3s20.15,44.4,9.76,63.37c-3.27,3.91-10.44-11.76-10.44-11.76s-5.19,18.93-15,26.1c1.29,39.16-14.31,66.6-18.86,75.74-2,5.2-.64,9.8,1.29,15s28,97.3,26.67,128S569.08,405,556.72,417.37c2.61,25.47-9.12,47-15,57.45s-18.87,49.63-22.13,67.9-4.56,37.9-.64,43.74,21.43,24.18,20.14,33.32-20.14,19.59-29.3,19.59-28-5.89-32.51-18.3-5.24-33.92-2-46.33S500.74,471.56,487.76,418c-31.91,14.34-85.26,13.7-85.26,13.7s-9.11,47.66-20.19,75.09c-3.91,6.53-3.26,50.93-3.26,79s9.74,71.83,9.74,71.83,13.71,9.79,11.73,22.2S383,699.43,369.3,699.43,337.42,689,337.42,672s2.58-55.48,1.29-83.57-.64-46.35-5.2-64-17.58-64-18.89-99.89c-4.56,0-9.12-3.26-9.12-3.26S284,446.1,269.08,460.45c1.93,9.78,7.14,27.43,7.14,31.34s3.94,7.16,10.43,9.79,26.67,13.73,26,24.82-26,13-48.16,3.26c-5.2-2.62-24.09-65.92-26.68-74.42s-4.54-13.08-1.28-20.26,12.33-30.66,11-44.4-26.68-35.25-43.6-35.25c-13,0-32.9,20-47.52,31.35-17.56,13.69-37.7,34.6-42.94,37.86s-46.18,77.72-54,99.23c-3.27,8.5-9.75,51-44.25,49.64-15.63-1.29-29.94-18.29,14.31-49,11.23-26,26.86-52.91,27.85-58.29S70.13,393.69,89.66,330s48.31-94,53.66-98.43c4.41-3.42,6.83-5.39,2.47-7.86S95,181.61,103.83,97.41c1.43-9.79,5.83-7.36,8.76,15.18s21,75.4,61,92.06c3.91,1.48,32.71-20.57,179.6-31.35,1-26,4.9-53.39,4.9-53.39s-10.24-7.82-11.73-23.49c-4.89,7.86-7.81,9.8-14.15,8.81s-5.84-31.3-4.4-52.86,26.37-30.89,35.67-31.84c12.18-6.38,25.34-5.39,25.34-5.39S411.26-7.7,474.71,2.73Z" transform="translate(0.01 0)"/></g></g></g></svg>