<?xml version="1.0" encoding="UTF-8" standalone="no"?>
<!DOCTYPE svg PUBLIC "-//W3C//DTD SVG 1.1//EN" "http://www.w3.org/Graphics/SVG/1.1/DTD/svg11.dtd">
<svg width="100%" height="100%" viewBox="0 0 837 525" version="1.1" xmlns="http://www.w3.org/2000/svg" xmlns:xlink="http://www.w3.org/1999/xlink" xml:space="preserve" xmlns:serif="http://www.serif.com/" style="fill-rule:evenodd;clip-rule:evenodd;stroke-linecap:round;stroke-linejoin:round;stroke-miterlimit:1.5;">
    <g transform="matrix(1,0,0,1,-4417.51,-556.463)">
        <g transform="matrix(1,0,0,1,505.47,652.887)">
            <g id="splotch-large-1" transform="matrix(1,0,0,1,-1049.51,-1164.31)">
                <path d="M4971.84,1496.26C4971.19,1496.26 4971.81,1494.89 4972.15,1494.34C4972.86,1493.19 4973.92,1492.3 4974.86,1491.32C4978.75,1487.25 4982.74,1483.27 4986.64,1479.19C5000.64,1464.58 5014.03,1447.32 5033.18,1438.88C5039.54,1436.07 5046.25,1434.13 5052.9,1432.09C5070.66,1426.64 5074.6,1427.53 5091.67,1419.88C5137.06,1399.56 5178.53,1371.4 5221.16,1346.18C5233.72,1338.75 5232.55,1316.12 5244.37,1307.39C5267.37,1290.42 5291.67,1288.54 5311.08,1267.99C5325.64,1252.57 5340.3,1237.24 5355.48,1222.42C5400.77,1178.2 5450.13,1134.12 5508.54,1107.79C5531.98,1097.22 5557,1087.48 5583,1085.77C5602.02,1084.53 5621.18,1086.66 5640.18,1085.15C5651.39,1084.26 5662.42,1081.79 5673.58,1080.46C5711.24,1075.97 5768.43,1071.97 5783.9,1117.82C5798.15,1160.04 5775.72,1201.76 5747.42,1232.16C5734.92,1245.59 5725.75,1249.19 5711.91,1260.95C5706.26,1265.76 5701.72,1271.83 5695.83,1276.36C5690.5,1280.45 5675.79,1286.39 5669.45,1288.26C5649.6,1294.11 5642.09,1305.54 5621.42,1307.07C5612.78,1307.71 5617.74,1306.09 5608.22,1309.96C5589.85,1317.43 5589.57,1314.59 5587.26,1315.83C5574.24,1322.84 5565.07,1323.02 5558.19,1334.18C5553.93,1341.09 5544.07,1341.42 5537.41,1343.41C5532.06,1345.01 5526.9,1347.19 5521.53,1348.72C5510.02,1352 5498.23,1355.19 5486.23,1352.63C5466.67,1348.46 5437.83,1333.66 5420.56,1351.99C5409.84,1363.36 5402.43,1376.84 5400.99,1392.63C5398.43,1420.7 5405.88,1452.28 5394.06,1478.95C5386.23,1496.61 5369.89,1508.08 5353.01,1516.14C5335.75,1524.39 5318.65,1533.03 5300.94,1540.24C5283.23,1547.46 5265,1553.35 5246.85,1559.4C5195.33,1576.57 5146.18,1588.27 5091.92,1578.26C5067.16,1573.69 5045.86,1566.12 5022.76,1556.31C5006.76,1549.51 4993.95,1535.86 4982.96,1523.05C4976.58,1515.61 4970.1,1506.67 4971.84,1496.26Z" style="fill:none;stroke:rgb(2,136,254);stroke-width:20px;"/>
            </g>
        </g>
    </g>
</svg>
