<svg xmlns="http://www.w3.org/2000/svg" viewBox="0 0 569.9 445"><defs><style>.cls-1{fill:none;}.cls-2{fill:#00548e;}.cls-3{fill:#01548e;}.cls-4{fill:#fdfdfd;}</style></defs><title>BigFish-logo</title><g id="Layer_2" data-name="Layer 2"><g id="Layer_1-2" data-name="Layer 1"><path class="cls-1" d="M285,445Q143.66,445,2.29,445C.35,445,0,444.58,0,442.68Q.09,222.53,0,2.35C0,.51.25,0,2.26,0Q284.88.09,567.49,0c2,0,2.41.46,2.41,2.44q-.07,220.17,0,440.33c0,1.7-.26,2.23-2.13,2.23Q426.4,444.91,285,445ZM334.34,91.66c-.37-1-.58-1.64-.78-2.23-4.73-14.13-9.43-28.27-14.2-42.39C311.48,23.71,291.58,8.2,267,7.14c-15.07-.65-30.2-.16-45.3-.24-2.13,0-1.38,1-1,2a112.83,112.83,0,0,1,7.07,26.46c1.67,12,3.13,24,4.88,35.9,2.81,19.25,9.24,37.31,18.33,54.45a5.26,5.26,0,0,1-.06,5.75,182.72,182.72,0,0,0-12.3,28.91c-5.34,15.68-6.85,32.06-9,48.33-1.75,13.48-3.73,26.9-9,39.56-.68,1.62-.31,2,1.37,2,14.07,0,28.15.15,42.22-.08,26.11-.43,46.89-15.8,55.28-40.63,4.72-14,9.36-28,14.07-41.92.27-.82.22-1.86,1.2-2.41.63,2,1.18,3.86,1.83,5.72,13.06,37,38.88,61.14,75.38,74.25,25.18,9,51.18,10.7,77.59,7.25a154.56,154.56,0,0,0,67-24.93c6.65-4.46,9.94-10.53,9.93-18.53q-.06-35.08,0-70.19c0-6.54-3.57-10.14-10.08-10.14q-37.12,0-74.25,0c-6.5,0-10.11,3.63-10.11,10.13,0,11.54,0,23.08,0,34.62,0,1.52-.33,2.07-2,1.95a45.78,45.78,0,0,1-15.63-3.49c-18-8-26.63-22.31-27.13-41.65-.72-28.55,20.72-48.79,49.2-46.83,12.36.84,23,5.66,32.58,13.26,4.57,3.62,9.58,3,13-1.72q16.7-23.16,33.32-46.38c3.37-4.71,2.74-9.52-1.79-13.18C530.49,16.66,504,5.84,474.29,3.52A145.79,145.79,0,0,0,404.8,14.74c-25.63,11-45.94,28.06-59.95,52.34A117.27,117.27,0,0,0,334.34,91.66Zm-144,31.87,2.62-1.61c6.12-3.76,11.61-8.3,15.66-14.27,12.25-18.09,12.91-37.57,5.59-57.44-5.53-15-17-24.8-31.16-31.56-16.32-7.8-33.79-11-51.66-11.39C91.65,6.37,51.88,7,12.12,6.91c-4.41,0-7.72,2.3-9,6a14.18,14.18,0,0,0-.56,4.68q0,111,0,221.91a15.14,15.14,0,0,0,.37,4A8.49,8.49,0,0,0,10,250a22.44,22.44,0,0,0,4,.24H118.83c8.3,0,16.6,0,24.88-.76,14.87-1.34,29.29-4.41,42.92-10.8,35.28-16.52,42.63-51.51,34.92-77.42C216.56,144.55,205.72,132.27,190.36,123.53ZM566.57,352q0-39.13,0-78.26c0-6.62-3.46-10.08-10.07-10.09H505.25c-7.25,0-10.51,3.28-10.52,10.59,0,14.78,0,29.57,0,44.35,0,1.65-.44,2.12-2.1,2.1q-12.69-.12-25.38,0c-1.83,0-2.35-.42-2.34-2.31.09-14.78.05-29.56.05-44.34q0-10.41-10.28-10.4H403.48c-6.9,0-10.41,3.44-10.41,10.28q0,78,0,156.05c0,6.72,3.53,10.25,10.22,10.25h51.47c6.71,0,10.23-3.52,10.24-10.22,0-14.86,0-29.72,0-44.58,0-1.71.33-2.26,2.17-2.24q12.45.16,24.9,0c2.09,0,2.78.41,2.76,2.67-.11,14.54-.06,29.09-.06,43.63,0,7.48,3.24,10.74,10.63,10.74h50.76c7.08,0,10.45-3.37,10.45-10.45Zm-260.8,91c2.45,0,4.91.08,7.35,0,15.61-.59,30.58-3.8,44.13-11.84,19.47-11.57,30.51-28.24,29.87-51.49-.39-14.44-5.83-26.52-17.51-35.45-6.46-4.94-13.73-8.34-21.29-11.2-11.33-4.28-23.17-6.71-34.91-9.48-3.24-.76-6.44-1.71-8.92-4.1a4.19,4.19,0,0,1,.35-6.59,9,9,0,0,1,3.87-1.68,29.61,29.61,0,0,1,9.44-.2c9.25,1.06,17.68,4.5,25.82,8.82,4.33,2.3,8.55,1.43,11.33-2.42Q364.24,305,373,292.47c3.25-4.67,2.07-10.13-2.81-13.1-27-16.39-56.06-22.4-87.26-16-13.83,2.82-26.47,8.41-36.81,18.32-12.07,11.56-17.39,25.89-15.83,42.4,1.31,13.94,8.95,24.52,19.83,32.91,10.51,8.12,22.66,12.6,35.35,15.89,6,1.56,12.21,2.58,18,4.87,4.18,1.64,6.2,4.27,5.72,6.94-.51,2.83-3.73,5-7.9,5.26a38,38,0,0,1-11.74-1.22c-10.53-2.59-20.13-7.3-29.4-12.77-4.78-2.82-9-1.92-12.18,2.58q-9.44,13.2-18.79,26.46c-3.4,4.82-2.46,9.9,2.3,13.44C253.57,434.8,278.43,442.66,305.77,443ZM2.55,352q0,39.12,0,78.24c0,6.38,3.64,10,10,10h49.1c6.54,0,10.07-3.55,10.07-10.12,0-14.7,0-29.4,0-44.1,0-1.86.46-2.33,2.32-2.32,14.86.08,29.72,0,44.59,0,6.72,0,10.23-3.49,10.25-10.21q0-14.46,0-28.92c0-7.43-3.28-10.72-10.66-10.73-14.7,0-29.41,0-44.11,0-1.77,0-2.51-.3-2.4-2.28a75.06,75.06,0,0,0,0-9.72c-.16-2.23.68-2.54,2.65-2.53,19.85.07,39.69,0,59.53,0,7.1,0,10.48-3.39,10.49-10.43,0-11.54-.23-23.08.09-34.61.17-6.45-3.93-10.85-10.72-10.82q-60.12.27-120.25,0c-7.2,0-11,4.43-10.95,11.1C2.67,300.46,2.55,326.22,2.55,352Zm218.61.08q0-39.24,0-78.49c0-6.3-3.55-9.89-9.8-9.89q-24.54,0-49.09,0c-6.62,0-10.13,3.47-10.13,10.06q0,78.24,0,156.49c0,6.56,3.54,10,10.16,10h48.38c7.07,0,10.48-3.39,10.48-10.42Z"/><path class="cls-2" d="M334.34,91.66a117.27,117.27,0,0,1,10.51-24.58c14-24.28,34.32-41.39,59.95-52.34A145.79,145.79,0,0,1,474.29,3.52C504,5.84,530.49,16.66,553.7,35.39c4.53,3.66,5.16,8.47,1.79,13.18Q538.87,71.79,522.17,95c-3.38,4.69-8.39,5.34-13,1.72-9.57-7.6-20.22-12.42-32.58-13.26-28.48-2-49.92,18.28-49.2,46.83.5,19.34,9.1,33.64,27.13,41.65a45.78,45.78,0,0,0,15.63,3.49c1.63.12,2-.43,2-1.95-.06-11.54,0-23.08,0-34.62,0-6.5,3.61-10.13,10.11-10.13q37.13,0,74.25,0c6.51,0,10.08,3.6,10.08,10.14q0,35.1,0,70.19c0,8-3.28,14.07-9.93,18.53a154.56,154.56,0,0,1-67,24.93c-26.41,3.45-52.41,1.79-77.59-7.25C375.51,232.11,349.69,208,336.63,171c-.65-1.86-1.2-3.75-1.83-5.72-1,.55-.93,1.59-1.2,2.41-4.71,14-9.35,28-14.07,41.92-8.39,24.83-29.17,40.2-55.28,40.63-14.07.23-28.15,0-42.22.08-1.68,0-2.05-.36-1.37-2,5.3-12.66,7.28-26.08,9-39.56,2.11-16.27,3.62-32.65,9-48.33A182.72,182.72,0,0,1,251,131.51a5.26,5.26,0,0,0,.06-5.75c-9.09-17.14-15.52-35.2-18.33-54.45-1.75-12-3.21-23.94-4.88-35.9A112.83,112.83,0,0,0,220.73,9c-.41-1-1.16-2.06,1-2,15.1.08,30.23-.41,45.3.24C291.58,8.2,311.48,23.71,319.36,47c4.77,14.12,9.47,28.26,14.2,42.39C333.76,90,334,90.61,334.34,91.66Z"/><path class="cls-3" d="M190.36,123.53c15.36,8.74,26.2,21,31.19,37.78,7.71,25.91.36,60.9-34.92,77.42-13.63,6.39-28,9.46-42.92,10.8-8.28.74-16.58.75-24.88.76H14a22.44,22.44,0,0,1-4-.24,8.49,8.49,0,0,1-7-6.52,15.14,15.14,0,0,1-.37-4q0-111,0-221.91a14.18,14.18,0,0,1,.56-4.68c1.29-3.73,4.6-6,9-6,39.76.13,79.53-.54,119.29.35,17.87.39,35.34,3.59,51.66,11.39,14.15,6.76,25.63,16.54,31.16,31.56,7.32,19.87,6.66,39.35-5.59,57.44-4,6-9.54,10.51-15.66,14.27Zm-95.71,43c0,5.29,0,10.58,0,15.87,0,1.13,0,2,1.56,1.93,6.48-.14,13,.28,19.43-.3,4.4-.4,8.52-1.81,11.71-5.05,5.14-5.22,5.83-11.6,3.93-18.26s-6.9-10-13.4-11.2c-7.28-1.3-14.66-.34-22-.6-1.41,0-1.23.87-1.23,1.74Zm0-77.78q0,7.59,0,15.17c0,.9-.3,2,1.29,1.9,6.07-.21,12.17.41,18.23-.46,8.72-1.25,13.71-6.78,14.11-15.65.41-9.42-3.83-15.33-12.67-17.25-6.55-1.42-13.23-.51-19.85-.72-1.45,0-1.1,1.06-1.11,1.84C94.64,78.64,94.65,83.7,94.65,88.75Z"/><path class="cls-2" d="M566.57,352v77.78c0,7.08-3.37,10.45-10.45,10.45H505.36c-7.39,0-10.62-3.26-10.63-10.74,0-14.54-.05-29.09.06-43.63,0-2.26-.67-2.7-2.76-2.67q-12.45.18-24.9,0c-1.84,0-2.18.53-2.17,2.24.07,14.86,0,29.72,0,44.58,0,6.7-3.53,10.22-10.24,10.22H403.29c-6.69,0-10.22-3.53-10.22-10.25q0-78,0-156c0-6.84,3.51-10.28,10.41-10.28h51.24q10.29,0,10.28,10.4c0,14.78,0,29.56-.05,44.34,0,1.89.51,2.33,2.34,2.31q12.69-.15,25.38,0c1.66,0,2.11-.45,2.1-2.1-.06-14.78,0-29.57,0-44.35,0-7.31,3.27-10.59,10.52-10.59h51.24c6.61,0,10.07,3.47,10.07,10.09Q566.58,312.91,566.57,352Z"/><path class="cls-3" d="M305.77,443c-27.34-.35-52.2-8.21-74.25-24.58-4.76-3.54-5.7-8.62-2.3-13.44q9.34-13.26,18.79-26.46c3.21-4.5,7.4-5.4,12.18-2.58,9.27,5.47,18.87,10.18,29.4,12.77a38,38,0,0,0,11.74,1.22c4.17-.29,7.39-2.43,7.9-5.26.48-2.67-1.54-5.3-5.72-6.94-5.82-2.29-12-3.31-18-4.87-12.69-3.29-24.84-7.77-35.35-15.89-10.88-8.39-18.52-19-19.83-32.91-1.56-16.51,3.76-30.84,15.83-42.4,10.34-9.91,23-15.5,36.81-18.32,31.2-6.38,60.22-.37,87.26,16,4.88,3,6.06,8.43,2.81,13.1q-8.75,12.52-17.71,24.9c-2.78,3.85-7,4.72-11.33,2.42-8.14-4.32-16.57-7.76-25.82-8.82a29.61,29.61,0,0,0-9.44.2,9,9,0,0,0-3.87,1.68,4.19,4.19,0,0,0-.35,6.59c2.48,2.39,5.68,3.34,8.92,4.1,11.74,2.77,23.58,5.2,34.91,9.48,7.56,2.86,14.83,6.26,21.29,11.2,11.68,8.93,17.12,21,17.51,35.45.64,23.25-10.4,39.92-29.87,51.49-13.55,8-28.52,11.25-44.13,11.84C310.68,443.09,308.22,443,305.77,443Z"/><path class="cls-2" d="M2.55,352c0-25.77.12-51.53-.07-77.3,0-6.67,3.75-11.14,11-11.1q60.12.29,120.25,0c6.79,0,10.89,4.37,10.72,10.82-.32,11.53-.09,23.07-.09,34.61,0,7-3.39,10.42-10.49,10.43-19.84,0-39.68,0-59.53,0-2,0-2.81.3-2.65,2.53a75.06,75.06,0,0,1,0,9.72c-.11,2,.63,2.29,2.4,2.28,14.7-.06,29.41,0,44.11,0,7.38,0,10.65,3.3,10.66,10.73q0,14.46,0,28.92c0,6.72-3.53,10.21-10.25,10.21-14.87,0-29.73,0-44.59,0-1.86,0-2.33.46-2.32,2.32.08,14.7,0,29.4,0,44.1,0,6.57-3.53,10.11-10.07,10.12H12.53c-6.33,0-10-3.65-10-10Q2.53,391.11,2.55,352Z"/><path class="cls-2" d="M221.16,352.07v77.77c0,7-3.41,10.42-10.48,10.42H162.3c-6.62,0-10.16-3.46-10.16-10q0-78.25,0-156.49c0-6.59,3.51-10.06,10.13-10.06q24.54,0,49.09,0c6.25,0,9.8,3.59,9.8,9.89Q221.18,312.82,221.16,352.07Z"/><path class="cls-4" d="M94.65,166.53V150.66c0-.87-.18-1.79,1.23-1.74,7.33.26,14.71-.7,22,.6,6.5,1.16,11.52,4.6,13.4,11.2s1.21,13-3.93,18.26c-3.19,3.24-7.31,4.65-11.71,5.05-6.46.58-12.95.16-19.43.3-1.56,0-1.57-.8-1.56-1.93C94.67,177.11,94.65,171.82,94.65,166.53Z"/><path class="cls-4" d="M94.65,88.75c0-5,0-10.11,0-15.17,0-.78-.34-1.89,1.11-1.84,6.62.21,13.3-.7,19.85.72,8.84,1.92,13.08,7.83,12.67,17.25-.4,8.87-5.39,14.4-14.11,15.65-6.06.87-12.16.25-18.23.46-1.59.06-1.29-1-1.29-1.9Q94.65,96.35,94.65,88.75Z"/></g></g></svg>