<svg xmlns="http://www.w3.org/2000/svg" viewBox="0 0 295 303"><defs><style>.cls-1{fill:none;}.cls-2{fill:#83bd41;}.cls-3{fill:#84bd43;}</style></defs><title>chartboost-logo</title><g id="Layer_2" data-name="Layer 2"><g id="Layer_1-2" data-name="Layer 1"><path class="cls-1" d="M.1,302.9Q.1,153.5,0,4.09C0,.67.67,0,4.09,0Q147.51.18,290.91,0c3.42,0,4.09.67,4.09,4.09q-.18,147.41,0,294.82c0,3.42-.67,4.09-4.09,4.09Q145.5,302.82.1,302.9Zm125.76-36.85c33.28,0,66.57-.05,99.86.06,3.75,0,5.45-1,6.45-4.9,5.55-21.78,10-43.73,12.39-66.1,1.55-14.78,2-29.53-1.58-44.14-3.42-13.94-12.35-21.12-25.08-19.92a42.74,42.74,0,0,0-13.36,3.85c-21.17,9.47-38.56,24.28-54.79,40.3-30.36,30-64.7,54.17-102.41,73.81-7.82,4.07-15.73,8-23.59,12-1.31.66-3,1.15-2.71,3.08.36,2.37,2.37,1.87,4,1.95s3,0,4.49,0ZM32.24,236.42a20.15,20.15,0,0,0,2.41-1.06,543.85,543.85,0,0,0,77.41-53.71c19.07-15.85,36.39-33.51,52.84-52.05Q184,108.12,201.42,85.34c1.52-2,2.27-3.8,1.55-6.36-3.8-13.61-7.6-27.22-11.14-40.9-1.16-4.49-2.8-4.09-6-1.84-10.63,7.44-21.3,14.83-32.23,21.82A21.65,21.65,0,0,0,145,68.58a469.46,469.46,0,0,1-32.35,63C92.94,163.61,68.81,192.18,43,219.39q-5.85,6.17-11.77,12.24c-1,1-1.75,2-1.27,3.52C30.26,236.05,31,236.39,32.24,236.42Z"/><path class="cls-2" d="M125.86,266H29.49c-1.5,0-3,0-4.49,0s-3.6.42-4-1.95c-.29-1.93,1.4-2.42,2.71-3.08,7.86-4,15.77-7.89,23.59-12,37.71-19.64,72.05-43.86,102.41-73.81,16.23-16,33.62-30.83,54.79-40.3a42.74,42.74,0,0,1,13.36-3.85c12.73-1.2,21.66,6,25.08,19.92,3.59,14.61,3.13,29.36,1.58,44.14-2.36,22.37-6.84,44.32-12.39,66.1-1,3.94-2.7,4.92-6.45,4.9C192.43,266,159.14,266.05,125.86,266Z"/><path class="cls-3" d="M32.24,236.42c-1.27,0-2-.37-2.28-1.27-.48-1.49.29-2.51,1.27-3.52q5.91-6.09,11.77-12.24c25.81-27.21,49.94-55.78,69.66-87.83a469.46,469.46,0,0,0,32.35-63,21.65,21.65,0,0,1,8.58-10.52c10.93-7,21.6-14.38,32.23-21.82,3.21-2.25,4.85-2.65,6,1.84C195.37,51.76,199.17,65.37,203,79c.72,2.56,0,4.37-1.55,6.36Q184,108.13,164.9,129.6c-16.45,18.54-33.77,36.2-52.84,52.05a543.85,543.85,0,0,1-77.41,53.71A20.15,20.15,0,0,1,32.24,236.42Z"/></g></g></svg>