<svg xmlns="http://www.w3.org/2000/svg" viewBox="0 0 550.7 378.42"><defs><style>.cls-1{fill:#fdc20e;}.cls-2{fill:#f9a41a;}.cls-3{fill:#eae9e8;}.cls-4{fill:#e98f25;}.cls-5{fill:#fbd006;}.cls-6{fill:#fefefe;}</style></defs><title>Asset 2</title><g id="Layer_2" data-name="Layer 2"><g id="Layer_1-2" data-name="Layer 1"><path class="cls-1" d="M209,266.85c0-8,0-16-.12-24-.16-8.61-.51-17.21-.82-25.82a2.17,2.17,0,0,1,1-2.14A248.1,248.1,0,0,1,250,192.54c1.8-.76,1.79-.76,1.81,1.25.06,9.86,0,19.73.46,29.59.46,11.1,1,22.2,2.83,33.18a50.07,50.07,0,0,0,2.79,10.84,12.18,12.18,0,0,0,2.57,4.28,4.23,4.23,0,0,0,5.22.87c3.29-1.64,5.14-4.51,6.44-7.8A49.46,49.46,0,0,0,275,251c1.16-12.48,1-25,.8-37.5-.2-10.59-.51-21.17-1.33-31.73A4.17,4.17,0,0,1,276,178c4.77-4.42,9.64-8.72,15.3-12,3.76-2.19,7.67-4,12.17-4a10,10,0,0,1,8.32,4.17c2.8,3.69,3.74,8.06,4.29,12.53.26,2.08.36,4.18.56,6.65,1.17-3.25,2.13-6.15,3.24-9,3.14-8.07,7.09-15.69,13-22.12,4-4.37,8.66-7.83,14.55-9.18,7.6-1.75,14,.69,19.54,5.94,5.17,5,8.24,11.18,10.32,17.93,3,9.59,3.62,19.43,3.05,29.39-.26,4.51-.45,9-.62,13.55-.51,13.28-1,26.55-.62,39.84a49.76,49.76,0,0,0,1.41,12.15c1.2,4.26,3.82,5.15,7.44,2.5,2.7-2,4.26-4.8,5.46-7.82A38.45,38.45,0,0,0,395.91,243c-.63-21.09,1.64-41.76,9.17-61.63,3.24-8.56,7.5-16.56,13.82-23.31a45.74,45.74,0,0,1,17.19-11.87c10.58-4,20.5-2.26,29.83,3.78a54.71,54.71,0,0,1,14.6,14.22l.93,1.28c.55-.35.58-.92.78-1.38,4.4-10.07,9.6-19.63,17.49-27.46,4.65-4.62,10-8.2,16.51-9.53a27.8,27.8,0,0,1,28.71,12.3,29.37,29.37,0,0,1,4.61,12.81c.21,1.81.19,3.62.39,5.41-.14,1.45-.29,2.9-.43,4.36-.09.11-.23.21-.25.33a30.45,30.45,0,0,1-28.8,24.2,26.85,26.85,0,0,1-9.89-1.46c-1-.34-1.48-.16-1.77.86-.72,2.49-1.57,4.93-2.26,7.42A155.1,155.1,0,0,0,503,209.28c-.65,3.9-1.19,7.82-1.7,11.74-.28,2.12-.4,4.25-.59,6.38l-.06,2.21c-.57,1-.14,2.11-.27,3.17l-.05,1.16c-.43.53-.17,1.15-.23,1.73a14.64,14.64,0,0,0-.49,5c-.07,3.86-.62,7.71-.41,11.59a19.87,19.87,0,0,1-.12,2.43c-.47,0-.68.23-.72.71-.27,3.42-.55,6.85-.87,10.27-.23,2.57-.46,5.14-.8,7.69s-.92,4.88-1.19,7.34a60,60,0,0,1-2.19,11.75c-.69,2.19-1.08,2.38-3.44,2.38H469.22c-.61,0-1.34.12-1.45-.77-.18-1.42-.85-2.85-.56-4.25.62-3-.23-6-.08-9a2.8,2.8,0,0,0-2-3,1.41,1.41,0,0,0-.29,0c-.76-.67-1.39-.13-2.08.2-2.41,1.14-3.79,3.47-5.87,5-4.23,3.1-8.26,6.47-13.24,8.44-7.49,3-15.08,4.29-23,1.94-3-.91-5.94-2.12-8.05-4.68a7.75,7.75,0,0,0-1.68-1.56,9.74,9.74,0,0,1-3.54-3.59c-2.34-4.55-5.21-8.84-6.82-13.75-.21-.63-.37-1.46-1.31-1.55-.43-.71-.24-1.65-.86-2.29-2.75.45-4.35,2.34-5.49,4.63a42.54,42.54,0,0,1-9.87,13.46c-3.44,3-6.93,6-11.19,7.92a29.73,29.73,0,0,1-17.93,2.51c-3-.53-5.91-2-7.38-4.78a31.77,31.77,0,0,1-3.78-9.83,80.42,80.42,0,0,1-1.26-15c.09-4.49-.6-8.93-.47-13.46.2-6.71.82-13.4.76-20.12,0-3.79.18-7.58.26-11.37,0-.56.27-1.35-.77-1.35v-.56c.79,0,.78-.51.78-1.07,0-4.4.14-8.8-.87-13.15a21.49,21.49,0,0,0-3.44-7.51c-1.12-1.6-3.09-2.38-4.36-2h-1.73c-1.26-.54-2.32.06-3.31.66a17.87,17.87,0,0,0-6,6.07,39.26,39.26,0,0,0-5.49,16.3c-.08.62.11,1.51-.83,1.8a41.28,41.28,0,0,1,3.27-13.76,26.63,26.63,0,0,1,6.3-9.53c5.1-4.93,11.22-3.88,14.39,2.44,2.22,4.44,2.72,9.26,2.87,14.1a63.55,63.55,0,0,1-.21,9.35c-.33,2.85-.16,5.75-.24,8.62-.13,4.8-.39,9.6-.4,14.4,0,.93.27,1.27,1.23,1.25,2.11,0,4.21-.27,6.31-.4,1.48-.08,3-.09,4.45-.22,4.28-.38,8.56-.79,12.85-1.12,3.14-.23,6.28-.5,9.42-.85.86-.09,1-.43,1-1.17.07-4.13-.15-8.26.24-12.39.3-3.19.08-6.41.25-9.63.26-4.83.42-9.67.6-14.51.19-5.13.44-10.26.37-15.41a74.71,74.71,0,0,0-2.07-17.19c-2.12-8.51-5.41-16.41-12.36-22.22-5.14-4.31-11-5.89-17.55-4-6.75,1.92-11.55,6.48-15.65,11.85a76,76,0,0,0-11,21.43c-.7,2-1.33,4.1-2.06,6.13-.29.82-.81,1.68-1.79,1.56s-1.42-1-1.39-2.06c0-1.34-.17-2.67-.25-4a34.53,34.53,0,0,0-2.06-10.67c-2.41-6.07-6.36-8.64-13-7-4.77,1.18-8.74,3.87-12.66,6.63-3.21,2.27-6,5-9,7.55a4,4,0,0,0-1.71,3.84c.47,2.93.34,5.92.53,8.88.31,4.87.39,9.76.59,14.65.2,4.7.1,9.4.31,14.11.31,7.2-.36,14.41-.32,21.62a24.76,24.76,0,0,1-.31,4.71c-.24,1.25.13,1.36,1.17,1.35,11.92-.18,23.85.32,35.78-.28.88-.05,1.32-.2,1.27-1.2-.24-5.29.28-10.56.29-15.85,0-3.11.18-6.23.28-9.34a.91.91,0,0,1,.29-.78c.09.21.27.42.27.63,0,2.52.14,5.05-.11,7.55s-.09,5.16-.13,7.74c0,.69-.08,1.56.77,2l-.25,24.54c-.62.09-.55.56-.55,1,0,.63.05,1.26,0,1.88-.75,6-.9,12-1.2,18-.15,3,0,6-.81,9-1.2,4.18-1.84,5-5.73,5.86a19.78,19.78,0,0,1-3.85.36,56.45,56.45,0,0,1-9.19-.29,19,19,0,0,1-10.71-4.77c-3.55-3.36-4.77-7.87-6-12.34-.49-1.74-.79-3.54-1.2-5.31a1.22,1.22,0,0,0-1.12-1l-.07-1.34-.8,1.07c-.56,0-.84.41-1.18.74a13.58,13.58,0,0,0-3,4.87c-1.61,3.91-4.16,7.24-6.58,10.58a43.15,43.15,0,0,1-9.15,9.65c-2.48,1.82-4.94,3.22-8.25,3.1-6-.23-11.93-.06-17.9-.07a5.41,5.41,0,0,1-1.56-.14c-2.94-.93-4.78-3.2-6.47-5.55-1.53-2.13-2.57-4.62-4.48-6.48-.56-.54-1.18-1.24-2.1-.52h-.58c-.68-.65-1.16,0-1.6.32a9.66,9.66,0,0,0-2.11,2.71c-1.57,2.56-2.6,5.42-4.54,7.8a4.36,4.36,0,0,1-3.74,1.89c-17-.05-34.06-.11-51.08.05a7.85,7.85,0,0,1-6.31-2.9,76.8,76.8,0,0,1-7.57-10.07c-2.62-4-5.17-8.05-7.54-12.21q-3.11-5.43-6.29-10.81c-.25-.42-.44-1-1.08-1.05a3.37,3.37,0,0,1-.86-1.74c.43-.45.06-.51-.29-.58-.57-1.22-1.13-2.44-1.7-3.65-4.57-9.89-8.81-19.92-13-30-3.4-8.24-6.8-16.49-10-24.81a60.54,60.54,0,0,0-3.07-7.41c0-.84.74-.67,1.16-.76A474.77,474.77,0,0,0,185.7,167.8c23-10.22,45-22.16,65.06-37.52,10.85-8.32,20.87-17.51,28.87-28.7a61.48,61.48,0,0,0,7.83-14.06,32,32,0,0,0,2.62-8.65c.64-1.52.57-3.18.82-4.76.17-1-.57-.7-1.11-.46-.35-.43-.76-.28-1.18-.14-1.1.37-2.21.68-3.28,1.09a36.61,36.61,0,0,1-26.15.5,37.89,37.89,0,0,1-15.63-10.23,37,37,0,0,1-7.7-12.55A38.24,38.24,0,0,1,234,32.54a37.09,37.09,0,0,1,8.71-18.49,36.84,36.84,0,0,1,14-10.28c5.79-2.34,11.71-3.54,18-2.64,8,1.15,14.65,4.87,20.5,10.25a51.55,51.55,0,0,1,10.25,13.25,69.39,69.39,0,0,1,7.12,19.21,89.31,89.31,0,0,1,1.48,19.59,71.08,71.08,0,0,1-1.35,11.66,106.38,106.38,0,0,1-4.91,17.4,107.34,107.34,0,0,1-8.1,17.47,181.67,181.67,0,0,1-14.36,21c-4.09,5.22-8.68,10-13.11,14.85-3.36,3.7-7.33,6.85-11,10.27a222.69,222.69,0,0,1-18.63,15.08c-1.22.91-2.33,2.15-4,2.44.53-.49.57-1.25,1.15-1.76,2.08-1.85,4.35-3.46,6.29-5.48,1.68-1.75,3.61-3.25,5.4-4.89a42.94,42.94,0,0,0,4.64-4.5c1.73-2.16,3.67-4.12,5.53-6.14a5.37,5.37,0,0,0,1.43-1.91,3.68,3.68,0,0,1,1.5-1.86c.64-.49,1.31-1,1.92-1.49s.46-.94-.28-1.1a5.51,5.51,0,0,0-1.15,0c-7.46,0-14.92,0-22.38,0a7.1,7.1,0,0,0-4.47,1.21c-1.28.92-2.68,1.68-4,2.48-1.69,1-3.68,1.32-5.33,2.45a62,62,0,0,1-9.79,5.12c-3.67,1.65-7.19,3.62-10.91,5.18-4.95,2.07-9.81,4.39-14.79,6.38-5.81,2.33-11.72,4.4-17.56,6.64-12.63,4.85-25.22,9.76-38.13,13.83-8.37,2.64-16.78,5.1-25.26,7.31-5.19,1.35-10.36,2.76-15.63,3.77-.9.17-1.38.59-.85,1.58a13.75,13.75,0,0,1,.82,1.84c3.25,8.61,6.82,17.09,10.19,25.66.84,2.14,1.88,3.15,4.16,3.47,4.34.62,8.64,1.57,13,2.34,5.36,1,10.72,1.88,16.09,2.75s10.66,1.64,16,2.43c.44.06,1.06.26,1.32-.18s-.21-.8-.42-1.17c-2.85-5.16-5.7-10.33-8.63-15.46-.52-.92-.37-1.12.54-1.49,7.12-2.87,14.24-5.72,21.21-9,3-1.37,6-2.62,9-3.92-.08.75-.77.81-1.25,1-7.43,3.55-15,6.79-22.6,10-1.5.62-3.22,1-4.18,2.56-1.56.47-.36,1.33-.28,2-.39.7.07,1.27.34,1.82,2.68,5.37,5.83,10.48,8.68,15.75,3.25,6,6.95,11.71,10.09,17.75,2.94,5.64,5.91,11.25,10,16.18,2.32,2.78,4.17,5.95,6.39,8.82a19,19,0,0,0,9.7,7.08,9.59,9.59,0,0,0,12.14-6.31c1.67-5.24,1.6-10.67,1.51-16.08C209.72,267.75,209.69,267.07,209,266.85ZM432.53,224.4c-.68,1.53-.18,3.14-.3,4.71a91,91,0,0,0,1.14,17.06c.55,3.19,1.07,6.42,2.83,9.26a12.71,12.71,0,0,0,7.55,6.5c8.13,2.9,18.55-1.35,22.58-9.15a8.41,8.41,0,0,0,1.91-4.28c.57-6.55,1-13.11,1.55-19.66q.76-9.39,1.9-18.76c.77-6.47,1.83-12.9,2.95-19.33a7.81,7.81,0,0,0-1.07-7.94,25.42,25.42,0,0,0-6.87-6.65,16.34,16.34,0,0,0-7.84-2.59c-4.9-.25-8.86,1.88-12.24,5.14A34.28,34.28,0,0,0,438.84,191,84.5,84.5,0,0,0,434,208.88a80.23,80.23,0,0,0-1.49,15.54Zm-35,8.71c0,2.27,0,4.53,0,6.79,0,1.06.4,1.37,1.36,1.25,1.9-.22,3.8-.41,5.69-.66,4.07-.53,8.14-1.07,12.2-1.65,4.21-.61,8.4-1.31,12.61-1.87,1.19-.16,1.42-.65,1.41-1.76a143.84,143.84,0,0,1,.8-20.54,124.35,124.35,0,0,1,2.92-15.7A63.55,63.55,0,0,1,439.92,185a26.82,26.82,0,0,1,9.16-10.3c5.5-3.44,11.21-3.78,16.94-.83a23.44,23.44,0,0,1,10,10,5.59,5.59,0,0,1,.9,3.85c-1.2,5.75-2.28,11.52-3,17.35-.45,3.55-.86,7.11-1.29,10.67-.27,2.27-.57,4.54-.78,6.82-.18,1.91-.25,3.82-.37,5.73,0,.65.07,1,.89.76,2.37-.55,4.77-1,7.15-1.5,6.4-1.42,12.79-2.9,19.13-4.57.61-.15,1.07-.25,1.14-1,.38-4.14,1.05-8.23,1.71-12.33a162.86,162.86,0,0,1,6.23-25.49c.44-1.32,1-1.49,2.2-1a26.7,26.7,0,0,0,19.37,0c8.81-3.26,14.59-9.48,17.62-18.3.38-1.08,1-2.27.71-3.32a21.71,21.71,0,0,1-.38-4.93A26.59,26.59,0,0,0,544.36,146a25.51,25.51,0,0,0-10.11-10.92,24.12,24.12,0,0,0-12.08-3.68,24.4,24.4,0,0,0-13,3.53A45.13,45.13,0,0,0,499,142.88a69.84,69.84,0,0,0-7.18,9c-.65,1-1.29,2-2,3-1.78,2.59-3.54,5.2-5.22,7.85-1,1.55-1.31,3.39-2,5.07-.15.39-.25,1-.67,1s-.63-.51-.85-.84a65.94,65.94,0,0,0-6.8-8.71,53.73,53.73,0,0,0-8.16-7,35.06,35.06,0,0,0-16.87-6.29,28.35,28.35,0,0,0-14.41,2.58A45.79,45.79,0,0,0,417,162.78a79.52,79.52,0,0,0-11.68,22.66A138.75,138.75,0,0,0,399.23,211,138.06,138.06,0,0,0,397.54,233.11ZM250.21,204.19c0-3.28-.06-5.84,0-8.38,0-1.25-.3-1.55-1.43-1-2.31,1.07-4.65,2.07-6.94,3.19-4.53,2.21-9,4.5-13.43,7-6.06,3.42-12,7-17.81,10.87a1.7,1.7,0,0,0-.86,1.65c.06,2.88.18,5.76.23,8.63.08,5.43.56,10.85.37,16.28a10.93,10.93,0,0,0,.15,1.13c0,1,.7,1.3,1.52,1.37,2.72.21,5.44.5,8.16.57,4,.11,7.94.51,11.91.68,2,.08,3.93.08,5.89.25,4.45.38,8.9.58,13.36.54.71,0,.89-.29.82-1-.39-4-.84-8-1.06-12s-.51-8.24-.54-12.34C250.52,215.56,250,209.52,250.21,204.19Z"/><path class="cls-2" d="M465.14,277.84a2.8,2.8,0,0,1,2,3c-.15,3,.7,6,.08,9-.29,1.4.38,2.83.56,4.25.11.89.84.77,1.45.77h20.65c2.36,0,2.75-.19,3.44-2.38a60,60,0,0,0,2.19-11.75c.27-2.46.86-4.89,1.19-7.34s.57-5.12.8-7.69c.32-3.42.6-6.85.87-10.27,0-.48.25-.7.72-.71q-.39,12.63-.77,25.24c-.08,2.55-.22,5.09-.32,7.64-.35,8.41-1,16.8-2,25.16a95.92,95.92,0,0,1-1.38,9.53c-.46.36-.25.87-.27,1.32v.4a3,3,0,0,0-.31.62c-1.76,7.24-3.88,14.34-7.56,20.9a40.61,40.61,0,0,1-17.48,17c-6.7,3.35-14,4.7-21.36,5.08a98.3,98.3,0,0,1-16.79-.74,162.68,162.68,0,0,1-20.7-3.88c-7.33-1.86-14.66-3.73-22-5.41-8.53-1.94-17.1-3.72-25.71-5.22-5.65-1-11.29-2-17-2.82s-11.07-1.52-16.62-2.15c-5.27-.6-10.55-1.09-15.82-1.64-4.23-.44-8.49-.68-12.74-.88-5.61-.26-11.22-.5-16.83-.56-4.12-.05-8.25,0-12.38.18-5,.26-10.07.25-15.1.6-3.67.26-7.34.55-11,.89q-9.06.82-18,2.31a169.94,169.94,0,0,0-26.25,6.08c-.41.14-.87.57-1.29,0,2.25-3.47,5.47-5.91,8.86-8.12,8.42-5.48,17.72-9,27.25-11.93a219.37,219.37,0,0,1,29.28-6.73c5.39-.9,10.82-1.6,16.26-2.15,4.07-.41,8.13-.75,12.2-1.13,4.32-.41,8.65-.6,13-.82a224.15,224.15,0,0,1,23-.19c3.13.16,6.28.07,9.42.36s6.36.4,9.53.67,6.47.67,9.7,1.06l9.54,1.17c3.75.48,7.47,1.16,11.21,1.72,4.45.68,8.89,1.43,13.35,2.08,5.4.8,10.79,1.73,16.21,2.3a107.32,107.32,0,0,0,15.63.63,42.62,42.62,0,0,0,16.39-3.61,31.59,31.59,0,0,0,13.45-12.2A56.33,56.33,0,0,0,460,302.66a34.63,34.63,0,0,0,1.42-5.47c.47-.3.43-.83.51-1.27.78-3.87,1.52-7.75,2.27-11.62C464.51,282.14,464.83,280,465.14,277.84Z"/><path class="cls-2" d="M98.19,260.79c1.66,8.23,3.24,16.48,5,24.69,3.24,15.22,7,30.31,12.72,44.81,3.56,9,7.83,17.55,14.16,25A44.43,44.43,0,0,0,141,364.51c-.2.86-1,.67-1.53.76A115.4,115.4,0,0,1,124.55,367c-8.06.34-16.09,0-23.92-2.29a41.15,41.15,0,0,1-20.25-12.85c-5.93-6.95-9.49-15.14-11.89-23.88-.65-2.38-1.33-4.76-2-7.14l0-.43c0-.45.19-.94-.27-1.31-.93-4.07-1.39-8.22-2-12.34-1.32-9.62-2-19.3-2.91-28.95-.55-5.77-.85-11.55-1.26-17.33.3,0,.56.11.62.47.59,3.66,1.25,7.32,1.75,11,.45,3.36.9,6.74,1.65,10,.93,4.06,1.46,8.25,3.06,12.16a13.57,13.57,0,0,1,1.33,3.31c.19,1.44,1,1.8,2.42,1.79,7.93-.05,15.87,0,23.8,0h3.61c1.88,0,2-.11,2-1.93a9.05,9.05,0,0,1,0-1.73c.78-3.81,0-7.61-.16-11.41-.12-3-.68-6-1-8.94-.48-3.83-.58-7.71-1.35-11.51C97.59,262.77,97.17,261.62,98.19,260.79Z"/><path class="cls-1" d="M98.19,260.79c-1,.83-.6,2-.41,2.89.77,3.8.87,7.68,1.35,11.51.36,3,.92,5.95,1,8.94.15,3.8.94,7.6.16,11.41a9.05,9.05,0,0,0,0,1.73c0,1.82-.11,1.92-2,1.93H94.68c-7.93,0-15.87,0-23.8,0-1.38,0-2.23-.35-2.42-1.79a13.57,13.57,0,0,0-1.33-3.31C65.53,290.22,65,286,64.07,282c-.75-3.27-1.2-6.65-1.65-10-.5-3.67-1.16-7.33-1.75-11-.06-.36-.32-.44-.62-.47l-.66-5.83c-.34-3-.67-6.06-1-9.09.25-2.33-.33-4.59-.63-6.85-.76-5.83-1.68-11.63-2.8-17.4a179.5,179.5,0,0,0-7.83-28.07c-.3-.81-.65-1-1.49-.63a29,29,0,0,1-10.12,2.56A30.81,30.81,0,0,1,22,193.24a32,32,0,0,1-18.5-17.91c-.89-2.07-1.15-4.31-2-6.37l0,0c0-.69.25-1.41-.23-2l-.17-3.21c.28-2.4.09-4.82.67-7.23,2.06-8.56,6.52-15.5,14-20.18,11.3-7.08,22.69-6.38,33.87.44,7.52,4.59,13.24,11.06,18.36,18.13,6.33,8.76,10.26,18.65,13.52,28.84A354.68,354.68,0,0,1,91.29,224C93.68,236.24,95.9,248.52,98.19,260.79ZM2.92,163.1a47.25,47.25,0,0,0,.26,5.3,29.67,29.67,0,0,0,11.94,19.31,29.35,29.35,0,0,0,19.66,5.84A30.8,30.8,0,0,0,46,190.71c1.17-.53,1.76-.38,2.18.81.68,1.95,1.45,3.86,2.12,5.81a176,176,0,0,1,5.43,19.79A1.4,1.4,0,0,0,57,218.41c2.23.53,4.43,1.21,6.65,1.8,8.46,2.26,16.93,4.49,25.5,6.31.89.18,1.08.17.89-.84-1.37-7.28-3-14.51-4.67-21.72q-2.07-8.88-4.74-17.61a130.66,130.66,0,0,0-7.77-20.26,78.5,78.5,0,0,0-8.76-13.66,61,61,0,0,0-15.14-14.16c-6.43-4-13.34-6-21-4.85A28.28,28.28,0,0,0,8.76,145,27.56,27.56,0,0,0,2.92,163.1Z"/><path class="cls-3" d="M494.62,322.3a95.92,95.92,0,0,0,1.38-9.53c1-8.36,1.64-16.75,2-25.16.1-2.55.24-5.09.32-7.64q.39-12.62.77-25.24a19.87,19.87,0,0,0,.12-2.43c-.21-3.88.34-7.73.41-11.59a14.64,14.64,0,0,1,.49-5,2.94,2.94,0,0,0,.23-1.73l.05-1.16a7,7,0,0,0,.27-3.17l.06-2.21c.47-.13.48-.52.53-.91.28-2,.56-4,.87-6a164.61,164.61,0,0,1,7.2-29.49c.4-1.15.77-1.5,2-1a24.52,24.52,0,0,0,8.07,1.33c20.73.26,29.15-16.17,30.12-29.29.14-1.46.29-2.91.43-4.36a1.56,1.56,0,0,1,.71,1.48c.23,6.33-.27,12.55-2.57,18.53-4,10.26-11.17,16.85-22.08,18.94a36.85,36.85,0,0,1-10.75.15c-3.59-.38-5.1.41-6.35,3.79a97.54,97.54,0,0,0-3.31,11.9c-1,4.14-1.76,8.32-2.44,12.52-.53,3.25-.92,6.52-1.36,9.78-.63,4.79-.88,9.61-1.36,14.41-.19,1.8-.26,3.64-.27,5.44,0,5.24-.29,10.47-.43,15.7-.14,5.61-.41,11.21-.57,16.82-.11,4-.17,8-.54,11.91-.54,5.9-.87,11.81-1.62,17.69-.78,6.07-1.42,12.15-2.69,18.13-2.05,9.69-5.08,19-11.23,27a39.17,39.17,0,0,1-15.31,12.07,54.47,54.47,0,0,1-17.5,4.21,77.54,77.54,0,0,1-12.09.18A160.62,160.62,0,0,1,407.42,373q-19.08-5-38.47-8.77c-7.92-1.52-15.89-2.83-23.87-4.07-5.47-.84-11-1.45-16.47-2.12-5.22-.64-10.46-1.06-15.68-1.64-3.28-.37-6.59-.38-9.88-.63-12.78-1-25.57-.52-38.35-.51a143.19,143.19,0,0,0-15.6,1c-2.32.26-4.67.35-7,.64-3.36.42-6.74.77-10.1,1.22-5.77.78-11.5,1.87-17.19,3.13-3.55.79-7.07,1.73-10.58,2.66a11.45,11.45,0,0,1-3.73.17c-1.51-.09-2.56-1.87-2.25-3.61.08-.47.23-.93.35-1.4.42.68.92.38,1.49.2,2.29-.72,4.57-1.46,6.89-2.07,21-5.52,42.46-7.54,64.09-8,7.55-.18,15.11-.08,22.67.22,8,.31,16,.81,24,1.55q15.72,1.45,31.32,3.91c15.54,2.41,30.93,5.5,46.21,9.16,12.19,2.92,24.24,6.46,36.77,7.79,8.32.88,16.61,1.09,24.86-.5,9.12-1.76,17.13-5.64,23.42-12.66a47.79,47.79,0,0,0,8.59-14.1A83.52,83.52,0,0,0,494.34,324c0-.13,0-.26,0-.4C494.71,323.24,494.61,322.76,494.62,322.3Z"/><path class="cls-3" d="M317.77,306.06c1,2.29-.9,5.53-3.65,6.14a32,32,0,0,1-7,.87c-3.13,0-6.27.13-9.39,0A25.82,25.82,0,0,1,284.33,309a18.88,18.88,0,0,1-7-9.23,31.17,31.17,0,0,0-1.82-4.54,1.47,1.47,0,0,0-2.47-.44,10.16,10.16,0,0,0-2.09,2.91A78.81,78.81,0,0,1,259.19,315c-4.55,4.87-9.74,8.63-16.3,10.23-6,1.47-11.37-.09-16.29-3.55a30,30,0,0,1-8.25-9.62c-.57-.95-1.18-1.87-1.81-2.77-1.19-1.74-2.54-1.65-3.65.16a34.61,34.61,0,0,0-2.21,5,80.13,80.13,0,0,1-12.52,21.4c-4.15,4.95-8.92,9-15.38,10.55-4.95,1.19-9.6,0-14.08-2a39.52,39.52,0,0,1-11.1-7.86c-7.57-7.3-13.31-15.94-18.73-24.84-6-9.86-11.12-20.21-16.13-30.59q-6.43-13.35-12.15-27.05c-2.83-6.82-5.79-13.58-8.58-20.42-3-7.41-5.92-14.88-8.86-22.33a10.91,10.91,0,0,1-.67-4.8c0-.64.09-1.28.92-1.42.38.91.79,1.81,1.16,2.72,6.81,17.31,13.78,34.55,21.35,51.53,7.5,16.83,15.34,33.48,25,49.21,5.32,8.67,11.12,17,18.71,23.89a36.58,36.58,0,0,0,10.3,6.82c7.43,3.14,14.43,2.59,20.93-2.42a43.28,43.28,0,0,0,7.58-7.48c7.22-9.11,11.89-19.48,15.1-30.57a11.89,11.89,0,0,1,1-3.13,45.4,45.4,0,0,0,7.39,15.52c7.44,9.69,18.41,11.63,28.74,5.09a43.65,43.65,0,0,0,10.83-10.08c5.9-7.47,10-15.91,13.53-24.7.18-.45.21-1,.8-1.38a53.88,53.88,0,0,0,.95,10.17c1.8,9.44,7,14.72,16.47,16.55C301.46,308.36,309.63,307.38,317.77,306.06Z"/><path class="cls-4" d="M494.34,324A83.52,83.52,0,0,1,489,344.59a47.79,47.79,0,0,1-8.59,14.1c-6.29,7-14.3,10.9-23.42,12.66-8.25,1.59-16.54,1.38-24.86.5-12.53-1.33-24.58-4.87-36.77-7.79-15.28-3.66-30.67-6.75-46.21-9.16q-15.6-2.43-31.32-3.91c-8-.74-16-1.24-24-1.55-7.56-.3-15.12-.4-22.67-.22-21.63.5-43.09,2.52-64.09,8-2.32.61-4.6,1.35-6.89,2.07-.57.18-1.07.48-1.49-.2-.42-1.7-.82-3.4.76-4.79.42.58.88.15,1.29,0a169.94,169.94,0,0,1,26.25-6.08q9-1.47,18-2.31c3.67-.34,7.34-.63,11-.89,5-.35,10.07-.34,15.1-.6,4.13-.22,8.26-.23,12.38-.18,5.61.06,11.22.3,16.83.56,4.25.2,8.51.44,12.74.88,5.27.55,10.55,1,15.82,1.64,5.55.63,11.09,1.37,16.62,2.15s11.31,1.84,17,2.82c8.61,1.5,17.18,3.28,25.71,5.22,7.37,1.68,14.7,3.55,22,5.41a162.68,162.68,0,0,0,20.7,3.88,98.3,98.3,0,0,0,16.79.74c7.4-.38,14.66-1.73,21.36-5.08a40.61,40.61,0,0,0,17.48-17c3.68-6.56,5.8-13.66,7.56-20.9A3,3,0,0,1,494.34,324Z"/><path class="cls-4" d="M317.77,306.06c-8.14,1.32-16.31,2.3-24.52.72-9.47-1.83-14.67-7.11-16.47-16.55a53.88,53.88,0,0,1-.95-10.17c-.59.38-.62.93-.8,1.38-3.49,8.79-7.63,17.23-13.53,24.7a43.65,43.65,0,0,1-10.83,10.08c-10.33,6.54-21.3,4.6-28.74-5.09a45.4,45.4,0,0,1-7.39-15.52,11.89,11.89,0,0,0-1,3.13c-3.21,11.09-7.88,21.46-15.1,30.57a43.28,43.28,0,0,1-7.58,7.48c-6.5,5-13.5,5.56-20.93,2.42a36.58,36.58,0,0,1-10.3-6.82c-7.59-6.9-13.39-15.22-18.71-23.89-9.66-15.73-17.5-32.38-25-49.21-7.57-17-14.54-34.22-21.35-51.53-.37-.91-.78-1.81-1.16-2.72a15.08,15.08,0,0,1-.05-6.65,60.54,60.54,0,0,1,3.07,7.41c3.21,8.32,6.61,16.57,10,24.81,4.15,10.07,8.39,20.1,13,30,.57,1.21,1.13,2.43,1.7,3.65a.55.55,0,0,0,.29.58,3.37,3.37,0,0,0,.86,1.74,86.13,86.13,0,0,0,4.44,9.67c4.58,9.41,9.41,18.69,14.91,27.62,5.2,8.43,10.79,16.54,18.06,23.37,4.48,4.21,9.45,7.49,15.59,8.74a17.58,17.58,0,0,0,12.7-2.1,39.12,39.12,0,0,0,10.28-9.12,72.58,72.58,0,0,0,9.43-15.09c1.49-3.05,2.69-6.25,3.88-9.43a37,37,0,0,0,2.57-9.39h.58a36.73,36.73,0,0,0,9.72,18c6.39,6.32,14.87,7.21,22.58,3.72,6-2.71,10.55-7.19,14.56-12.18a81.25,81.25,0,0,0,12.13-21.42,22.33,22.33,0,0,0,1.68-4.26l.8-1.07c0,.56.05,1,.07,1.34A51,51,0,0,0,278,288.67c1.55,5.42,4.52,9.69,9.92,11.93a25.93,25.93,0,0,0,7.77,1.89,76.27,76.27,0,0,0,11.21.06c3.43-.2,6.83-.68,10.25-1,.12.87.25,1.74.37,2.61A4,4,0,0,0,317.77,306.06Z"/><path class="cls-3" d="M58.38,245.58c.34,3,.67,6.06,1,9.09l.66,5.83c.41,5.78.71,11.56,1.26,17.33.92,9.65,1.59,19.33,2.91,28.95.57,4.12,1,8.27,2,12.34a1.82,1.82,0,0,0,.27,1.31l0,.43a4.33,4.33,0,0,0,0,.72,103,103,0,0,0,6.55,22.49c3.81,8.58,9.17,15.88,17.32,20.86s17.31,6.69,26.75,7a115.55,115.55,0,0,0,22-1.78c.67-.11,1.46-.08,1.92-.78,2,2.53.22,5.3-1.91,6.31a20.42,20.42,0,0,1-6.7,1.45,96.78,96.78,0,0,1-14.32.88c-9.56-.35-18.86-1.88-27.34-6.74A41.38,41.38,0,0,1,75.65,356.2c-5-8.47-7.81-17.77-9.75-27.36-1.2-5.95-2-12-2.82-18-.5-3.78-1-7.58-1.25-11.39-.37-4.9-1-9.79-1.39-14.69-.27-3.14-.36-6.3-.61-9.45-.32-3.9-.79-7.79-1.08-11.69-.28-3.53-.77-7-1.22-10.53-.66-5.16-1.5-10.29-2.45-15.41a182,182,0,0,0-5.68-22.67,50.21,50.21,0,0,0-2.72-7.12c-1.29-2.6-2.78-3.41-5.6-2.81a40.34,40.34,0,0,1-8.7.82A30.26,30.26,0,0,1,11.94,198C5.38,192.21,1.91,184.77.6,176.2a34.06,34.06,0,0,1-.27-10.85c.1-.6.07-1.27.73-1.62.05,1.07.11,2.14.17,3.21,0,.68-.2,1.4.23,2l0,0a32.51,32.51,0,0,0,2.86,11.91c7.33,16.68,24.88,22.72,39.74,17.29,1.75-.64,1.74-.66,2.48,1.1a169.78,169.78,0,0,1,10.16,36.26C57.26,238.87,57.81,242.22,58.38,245.58Z"/><path class="cls-3" d="M315.17,65.55a3.92,3.92,0,0,1,.47,3,34.58,34.58,0,0,0-.36,5.29,102.37,102.37,0,0,1-2.52,15.69,118.94,118.94,0,0,1-11.64,30.12,146.45,146.45,0,0,1-15.36,22.89c-3.15,3.87-6.45,7.59-9.79,11.29-3.62,4-7.52,7.71-11.48,11.33a254.27,254.27,0,0,1-22.89,18.51c-8.34,6-16.9,11.64-25.75,16.84q-7.26,4.28-14.69,8.24c-5.39,2.88-10.82,5.68-16.34,8.31-7.8,3.71-15.67,7.28-23.64,10.6-2.05.86-4.34,1.41-5.73,3.41a20.58,20.58,0,0,1-2.89-5.51c.41-.14.82-.26,1.22-.42q10.68-4.32,21.19-9.1c25.34-11.58,49.61-25,71.85-41.91,15.27-11.61,29.19-24.61,40.87-39.89,10.23-13.37,18.27-27.88,23-44.09A74.78,74.78,0,0,0,313.79,76v0s.08-.06.07-.08a.69.69,0,0,0-.1-.19c-.2-1.09.57-2,.64-3C314.55,70.29,314.9,67.92,315.17,65.55Z"/><path class="cls-3" d="M464.2,284.29c-.75,3.88-1.49,7.76-2.27,11.63-.08.44,0,1-.51,1.27-1.17-.86-2.24-.43-3.31.24-2,1.25-3.5,3.11-5.37,4.53a49.74,49.74,0,0,1-10.13,6,34.79,34.79,0,0,1-12.41,3,25.93,25.93,0,0,1-7.81-.73,27.77,27.77,0,0,1-9.8-4.51,26.31,26.31,0,0,1-7.46-9c-1.5-2.89-3.25-5.74-3.93-9a20.22,20.22,0,0,0-1.86-4.15c-.64-1.39-2.76-1.14-3.88.38-.94,1.28-1.78,2.62-2.62,4a64.86,64.86,0,0,1-11.21,13.8c-2.15,1.95-4.69,3.45-7,5.18a24.74,24.74,0,0,1-9.7,4.07,25.31,25.31,0,0,1-15.64-1.05,14.22,14.22,0,0,1-7.38-7.36,30.94,30.94,0,0,1-2.72-13.83c.11-7.65,0-15.31,0-23,0-.84-.13-1.74.77-2.29,0,.62.06,1.25,0,1.86-.3,4.78-.23,9.56-.16,14.34,0,5.52.31,11,2.34,16.22,2.52,6.44,7.49,9.35,14.17,9.76,8.21.5,15.43-2.09,21.87-7.05,7-5.42,12.1-12.44,16.44-20.06,1.37-2.42,2.62-4.91,4-7.54.15.53.26.85.33,1.17a83.3,83.3,0,0,0,4.1,13.49c2,4.94,4.46,9.62,8.5,13.23,6.81,6.1,14.83,7.56,23.55,5.7,9.71-2.07,17.55-7.37,24.21-14.54C461,288.14,462.59,286.19,464.2,284.29Z"/><path class="cls-2" d="M315.17,65.55c-.27,2.37-.62,4.74-.77,7.12-.07,1.07-.84,2-.64,3a2.48,2.48,0,0,0,0,.27v0a.78.78,0,0,0-.31.61,91.15,91.15,0,0,1-2.77,10.69,126.48,126.48,0,0,1-11.21,25.06,161.57,161.57,0,0,1-22,29.4,214.09,214.09,0,0,1-16,15.58c-4.56,4-9.19,7.83-14,11.5-7.15,5.49-14.61,10.54-22.21,15.41-10.31,6.61-21,12.56-31.89,18.16-11.66,6-23.62,11.37-35.73,16.39a37.46,37.46,0,0,1-6.58,2.46c1-1.55,2.68-1.94,4.18-2.56,7.6-3.17,15.17-6.41,22.6-10,.48-.24,1.17-.3,1.25-1a1.64,1.64,0,0,1,1.15-.57c.3.4.59.1.88,0,5.58-2.19,10.76-5.22,16.15-7.81.48-.23,1.08-.45,1.17-1.14a.9.9,0,0,1,.87-.57c.29.41.6.13.87,0,2.24-1.19,4.47-2.39,6.69-3.62.43-.23,1.07-.3,1.1-1h0c.86-.07,1.66-.23,2-1.16h0c.85-.07,1.65-.22,2-1.15h0c.63,0,1.28,0,1.44-.87h0c.64,0,1.28,0,1.45-.86h0c.85-.08,1.65-.23,2-1.16h0a2.53,2.53,0,0,0,2.31-1.44h0c.63,0,1.28,0,1.44-.87h0c.64,0,1.29,0,1.44-.87h0a2.51,2.51,0,0,0,2.31-1.44h0a7.2,7.2,0,0,0,4.33-2.89.64.64,0,0,1,.58-.29c.42,0,.84,0,.86-.57a.91.91,0,0,1,.87-.58c.43,0,.85,0,.87-.58.22-.51.74-.62,1.16-.87.42,0,.84,0,.86-.57h0c.43,0,.85,0,.87-.58h0c.79-.07,1.57-.15,1.73-1.16l.29-.28c.42,0,.84,0,.87-.58a.89.89,0,0,1,.87-.58c1.63-.29,2.74-1.53,4-2.44a222.69,222.69,0,0,0,18.63-15.08c3.68-3.42,7.65-6.57,11-10.27,4.43-4.89,9-9.63,13.11-14.85a181.67,181.67,0,0,0,14.36-21,107.34,107.34,0,0,0,8.1-17.47,106.38,106.38,0,0,0,4.91-17.4,71.08,71.08,0,0,0,1.35-11.66,89.31,89.31,0,0,0-1.48-19.59,69.39,69.39,0,0,0-7.12-19.21,51.55,51.55,0,0,0-10.25-13.25c-5.85-5.38-12.52-9.1-20.5-10.25-6.26-.9-12.18.3-18,2.64a36.84,36.84,0,0,0-14,10.28A37.09,37.09,0,0,0,234,32.54a38.24,38.24,0,0,0,1.84,19.78,37,37,0,0,0,7.7,12.55A37.89,37.89,0,0,0,259.18,75.1a36.61,36.61,0,0,0,26.15-.5c1.07-.41,2.18-.72,3.28-1.09.42-.14.83-.29,1.18.14a9.58,9.58,0,0,1-2.8,1.41,37.14,37.14,0,0,1-21.06,2.84,38.48,38.48,0,0,1-23.49-12.71,40.11,40.11,0,0,1-9.31-18.67c-.45-2.11-.35-4.26-.77-6.36A38.9,38.9,0,0,1,240.62,15a37.74,37.74,0,0,1,21.1-14A34.92,34.92,0,0,1,273.92.2,36.62,36.62,0,0,1,291,6.67a49.53,49.53,0,0,1,14.4,15.84,67.23,67.23,0,0,1,7.38,17.94,73.6,73.6,0,0,1,1.89,11.92A109.51,109.51,0,0,1,315.17,65.55Z"/><path class="cls-2" d="M339.82,279.58c-.07-4.78-.14-9.56.16-14.34,0-.61,0-1.24,0-1.86.08-2.78.15-5.55.23-8.33q.35-12.59.68-25.16l.43-11.27c1,0,.78.79.77,1.35-.08,3.79-.29,7.58-.26,11.37.06,6.72-.56,13.41-.76,20.12-.13,4.53.56,9,.47,13.46a80.42,80.42,0,0,0,1.26,15,31.77,31.77,0,0,0,3.78,9.83c1.47,2.77,4.35,4.25,7.38,4.78A29.73,29.73,0,0,0,371.87,292c4.26-2,7.75-4.88,11.19-7.92a42.54,42.54,0,0,0,9.87-13.46c1.14-2.29,2.74-4.18,5.49-4.63-.91,3-2.66,5.63-4.19,8.34-4.3,7.63-9.56,14.49-16.62,19.78s-15.2,7.67-24.16,6.23a13.61,13.61,0,0,1-8.06-4.1,19.6,19.6,0,0,1-4.49-9.34C340.36,284.49,340.22,282,339.82,279.58Z"/><path class="cls-4" d="M141,369.37c-.46.7-1.25.67-1.92.78a115.55,115.55,0,0,1-22,1.78c-9.44-.31-18.54-2-26.75-7s-13.51-12.28-17.32-20.86a103,103,0,0,1-6.55-22.49,4.33,4.33,0,0,1,0-.72c.67,2.38,1.35,4.76,2,7.14,2.4,8.74,6,16.93,11.89,23.88a41.15,41.15,0,0,0,20.25,12.85c7.83,2.3,15.86,2.63,23.92,2.29a115.4,115.4,0,0,0,14.92-1.75c.5-.09,1.33.1,1.53-.76,1,1,.55,2.1.37,3.2C141.29,368.27,141.13,368.82,141,369.37Z"/><path class="cls-3" d="M290.08,78.87a32,32,0,0,1-2.62,8.65c-3-1.3-5.73.17-8.51.71a40,40,0,0,1-35.2-10.87,39,39,0,0,1-9.15-14.3A40,40,0,0,1,232,47.59c0-.49-.21-1.09.43-1.4a40.29,40.29,0,0,0,4.34,15.7c7.64,14,19.34,21.34,35.34,21.58A37.37,37.37,0,0,0,290.08,78.87Z"/><path class="cls-4" d="M290.08,78.87a37.37,37.37,0,0,1-17.95,4.6c-16-.24-27.7-7.63-35.34-21.58a40.29,40.29,0,0,1-4.34-15.7,46.68,46.68,0,0,1-.09-6c.42,2.1.32,4.25.77,6.36a40.11,40.11,0,0,0,9.31,18.67A38.48,38.48,0,0,0,265.93,77.9,37.14,37.14,0,0,0,287,75.06a9.58,9.58,0,0,0,2.8-1.41c.54-.24,1.28-.59,1.11.46C290.65,75.69,290.72,77.35,290.08,78.87Z"/><path class="cls-3" d="M341.3,218.62l-.43,11.27c-.7-.15-.52-.71-.52-1.16,0-1.78,0-3.56,0-5.34a36.64,36.64,0,0,0-2.3-12.77,8.66,8.66,0,0,0-2.48-3.47c-2.75-2.32-6.53-1.07-8.66,1.19-3.69,3.93-5.47,8.87-7.07,13.89a29,29,0,0,0-1.21,6.22c-.11,1.31-.59,2.68-.3,4.12a3.91,3.91,0,0,1-.43,3.46c-.1.12-.06.37-.06.56q0,31.36,0,62.73a12.82,12.82,0,0,0,.18,4.23c.12.34-.16.51-.48.57-.12-.87-.25-1.74-.37-2.61-.15-7.19-.32-14.38-.43-21.57-.08-5.81-.09-11.61-.13-17.42l.25-24.54.09-6.21a1.6,1.6,0,0,0,.17-1.26c.05-1.33.09-2.67.14-4a4.62,4.62,0,0,0,.23-1.84c.6-6.69,2.28-13,5.95-18.75a15.48,15.48,0,0,1,6.28-6,5.86,5.86,0,0,1,7.49,1.74,15.53,15.53,0,0,1,2.53,5,59.39,59.39,0,0,1,1.4,6.59c0,1,.09,2.08.14,3.11v2.27Z"/><path class="cls-2" d="M152.56,225.56a20.58,20.58,0,0,0,2.89,5.51c3.22,6.12,6.72,12.09,10.13,18.1A248.35,248.35,0,0,0,183,276.48a46.66,46.66,0,0,0,9,9.48,12.21,12.21,0,0,0,7.09,2.89,7.14,7.14,0,0,0,7-4.2,25.51,25.51,0,0,0,2.23-9c.3-2.91.45-5.84.66-8.76.72.22.75.9.76,1.41.09,5.41.16,10.84-1.51,16.08a9.59,9.59,0,0,1-12.14,6.31,19,19,0,0,1-9.7-7.08c-2.22-2.87-4.07-6-6.39-8.82-4.13-4.93-7.1-10.54-10-16.18-3.14-6-6.84-11.77-10.09-17.75-2.85-5.27-6-10.38-8.68-15.75-.27-.55-.73-1.12-.34-1.82C151.53,223.93,151.71,225,152.56,225.56Z"/><path class="cls-5" d="M397.54,233.11A138.06,138.06,0,0,1,399.23,211a138.75,138.75,0,0,1,6.06-25.52A79.52,79.52,0,0,1,417,162.78a45.79,45.79,0,0,1,17.9-14.32,28.35,28.35,0,0,1,14.41-2.58,35.06,35.06,0,0,1,16.87,6.29,53.73,53.73,0,0,1,8.16,7,65.94,65.94,0,0,1,6.8,8.71c.22.33.38.92.85.84s.52-.64.67-1c.69-1.68,1-3.52,2-5.07,1.68-2.65,3.44-5.26,5.22-7.85.68-1,1.32-2,2-3a69.84,69.84,0,0,1,7.18-9A45.13,45.13,0,0,1,509.16,135a24.4,24.4,0,0,1,13-3.53,24.12,24.12,0,0,1,12.08,3.68A25.51,25.51,0,0,1,544.36,146a26.59,26.59,0,0,1,2.91,10.55,21.71,21.71,0,0,0,.38,4.93c.3,1.05-.33,2.24-.71,3.32-3,8.82-8.81,15-17.62,18.3a26.7,26.7,0,0,1-19.37,0c-1.19-.45-1.76-.28-2.2,1a162.86,162.86,0,0,0-6.23,25.49c-.66,4.1-1.33,8.19-1.71,12.33-.07.77-.53.87-1.14,1-6.34,1.67-12.73,3.15-19.13,4.57-2.38.53-4.78.95-7.15,1.5-.82.2-.93-.11-.89-.76.12-1.91.19-3.82.37-5.73.21-2.28.51-4.55.78-6.82.43-3.56.84-7.12,1.29-10.67.74-5.83,1.82-11.6,3-17.35a5.59,5.59,0,0,0-.9-3.85,23.44,23.44,0,0,0-10-10c-5.73-2.95-11.44-2.61-16.94.83a26.82,26.82,0,0,0-9.16,10.3A63.55,63.55,0,0,0,434.51,199a124.35,124.35,0,0,0-2.92,15.7,143.84,143.84,0,0,0-.8,20.54c0,1.11-.22,1.6-1.41,1.76-4.21.56-8.4,1.26-12.61,1.87-4.06.58-8.13,1.12-12.2,1.65-1.89.25-3.79.44-5.69.66-1,.12-1.39-.19-1.36-1.25C397.59,237.64,397.54,235.38,397.54,233.11Z"/><path class="cls-5" d="M316.08,220.07a.91.91,0,0,0-.29.78c-.1,3.11-.27,6.23-.28,9.34,0,5.29-.53,10.56-.29,15.85,0,1-.39,1.15-1.27,1.2-11.93.6-23.86.1-35.78.28-1,0-1.41-.1-1.17-1.35a24.76,24.76,0,0,0,.31-4.71c0-7.21.63-14.42.32-21.62-.21-4.71-.11-9.41-.31-14.11-.2-4.89-.28-9.78-.59-14.65-.19-3-.06-6-.53-8.88a4,4,0,0,1,1.71-3.84c3-2.53,5.82-5.28,9-7.55,3.92-2.76,7.89-5.45,12.66-6.63,6.65-1.64,10.6.93,13,7a34.53,34.53,0,0,1,2.06,10.67c.08,1.33.29,2.66.25,4,0,1,.34,1.93,1.39,2.06s1.5-.74,1.79-1.56c.73-2,1.36-4.1,2.06-6.13a76,76,0,0,1,11-21.43c4.1-5.37,8.9-9.93,15.65-11.85,6.57-1.86,12.41-.28,17.55,4,6.95,5.81,10.24,13.71,12.36,22.22a74.71,74.71,0,0,1,2.07,17.19c.07,5.15-.18,10.28-.37,15.41-.18,4.84-.34,9.68-.6,14.51-.17,3.22.05,6.44-.25,9.63-.39,4.13-.17,8.26-.24,12.39,0,.74-.15,1.08-1,1.17-3.14.35-6.28.62-9.42.85-4.29.33-8.57.74-12.85,1.12-1.48.13-3,.14-4.45.22-2.1.13-4.2.36-6.31.4-1,0-1.23-.32-1.23-1.25,0-4.8.27-9.6.4-14.4.08-2.87-.09-5.77.24-8.62a63.55,63.55,0,0,0,.21-9.35c-.15-4.84-.65-9.66-2.87-14.1-3.17-6.32-9.29-7.37-14.39-2.44a26.63,26.63,0,0,0-6.3,9.53,41.28,41.28,0,0,0-3.27,13.76Z"/><path class="cls-5" d="M199.37,197.55a.9.9,0,0,0-.87.57c-.49.19-1,.36-1.46.59-4.69,2.34-9.39,4.66-14.06,7a9.87,9.87,0,0,0-2.68,1.33,1.64,1.64,0,0,0-1.15.57c-3,1.3-6,2.55-9,3.92-7,3.23-14.09,6.08-21.21,9-.91.37-1.06.57-.54,1.49,2.93,5.13,5.78,10.3,8.63,15.46.21.37.64.8.42,1.17s-.88.24-1.32.18c-5.33-.79-10.67-1.57-16-2.43s-10.73-1.8-16.09-2.75c-4.33-.77-8.63-1.72-13-2.34-2.28-.32-3.32-1.33-4.16-3.47-3.37-8.57-6.94-17.05-10.19-25.66a13.75,13.75,0,0,0-.82-1.84c-.53-1,0-1.41.85-1.58,5.27-1,10.44-2.42,15.63-3.77,8.48-2.21,16.89-4.67,25.26-7.31,12.91-4.07,25.5-9,38.13-13.83,5.84-2.24,11.75-4.31,17.56-6.64,5-2,9.84-4.31,14.79-6.38,3.72-1.56,7.24-3.53,10.91-5.18a62,62,0,0,0,9.79-5.12c1.65-1.13,3.64-1.45,5.33-2.45,1.36-.8,2.76-1.56,4-2.48a7.1,7.1,0,0,1,4.47-1.21c7.46.05,14.92,0,22.38,0a5.51,5.51,0,0,1,1.15,0c.74.16.85.6.28,1.1s-1.28,1-1.92,1.49a3.68,3.68,0,0,0-1.5,1.86,5.37,5.37,0,0,1-1.43,1.91c-1.86,2-3.8,4-5.53,6.14a42.94,42.94,0,0,1-4.64,4.5c-1.79,1.64-3.72,3.14-5.4,4.89-1.94,2-4.21,3.63-6.29,5.48-.58.51-.62,1.27-1.15,1.76a.89.89,0,0,0-.87.58.87.87,0,0,0-.87.58l-.29.28a3,3,0,0,0-1.73,1.16h0a.87.87,0,0,0-.87.58h0a.87.87,0,0,0-.86.57c-.42.25-.94.36-1.16.87a194.75,194.75,0,0,0-1.73,1.16.87.87,0,0,0-.87.57.64.64,0,0,0-.58.29,17.24,17.24,0,0,0-4.33,2.89h0a4.18,4.18,0,0,0-2.31,1.44h0a1.83,1.83,0,0,0-1.44.87h0a1.8,1.8,0,0,0-1.44.87h0a4.13,4.13,0,0,0-2.31,1.44h0a3.1,3.1,0,0,0-2,1.16h0a1.79,1.79,0,0,0-1.45.86h0a1.79,1.79,0,0,0-1.44.87h0a3.13,3.13,0,0,0-2,1.15h0a3.19,3.19,0,0,0-2,1.16h0A83.63,83.63,0,0,0,199.37,197.55Z"/><path class="cls-6" d="M466.33,252.78c-4,7.8-14.45,12-22.58,9.15a12.71,12.71,0,0,1-7.55-6.5,4,4,0,0,0-.08-1.28,56.48,56.48,0,0,1-1.55-11.33,121.77,121.77,0,0,1,.17-12.67c.31-3.67.72-7.33,1.31-11a76.07,76.07,0,0,1,4.55-16.88c2-5,4.46-9.8,8.87-13.21,3.57-2.77,7.48-3.93,12-2.4a20.06,20.06,0,0,1,7,4.61c3,2.76,3.88,6.06,3.1,10-.68,3.46-1,7-1.53,10.48s-.89,7-1.22,10.52c-.36,3.85-.88,7.68-1.1,11.55-.14,2.58-.36,5.15-.61,7.72C466.77,245.34,466.36,249,466.33,252.78Z"/><path class="cls-5" d="M250.21,204.19c-.22,5.33.31,11.37.36,17.43,0,4.1.31,8.23.54,12.34s.67,8,1.06,12c.07.69-.11,1-.82,1-4.46,0-8.91-.16-13.36-.54-2-.17-3.93-.17-5.89-.25-4-.17-7.93-.57-11.91-.68-2.72-.07-5.44-.36-8.16-.57-.82-.07-1.48-.38-1.52-1.37a10.93,10.93,0,0,1-.15-1.13c.19-5.43-.29-10.85-.37-16.28-.05-2.87-.17-5.75-.23-8.63a1.7,1.7,0,0,1,.86-1.65c5.79-3.87,11.75-7.45,17.81-10.87,4.4-2.48,8.9-4.77,13.43-7,2.29-1.12,4.63-2.12,6.94-3.19,1.13-.53,1.47-.23,1.43,1C250.15,198.35,250.21,200.91,250.21,204.19Z"/><path class="cls-2" d="M214.1,290.84a37,37,0,0,1-2.57,9.39c-1.19,3.18-2.39,6.38-3.88,9.43a72.58,72.58,0,0,1-9.43,15.09,39.12,39.12,0,0,1-10.28,9.12,17.58,17.58,0,0,1-12.7,2.1c-6.14-1.25-11.11-4.53-15.59-8.74-7.27-6.83-12.86-14.94-18.06-23.37-5.5-8.93-10.33-18.21-14.91-27.62a86.13,86.13,0,0,1-4.44-9.67c.64.05.83.63,1.08,1.05q3.18,5.38,6.29,10.81c2.37,4.16,4.92,8.22,7.54,12.21a76.8,76.8,0,0,0,7.57,10.07,7.85,7.85,0,0,0,6.31,2.9c17-.16,34.05-.1,51.08-.05a4.36,4.36,0,0,0,3.74-1.89c1.94-2.38,3-5.24,4.54-7.8a9.66,9.66,0,0,1,2.11-2.71C212.94,290.82,213.42,290.19,214.1,290.84Z"/><path class="cls-4" d="M152.56,225.56c-.85-.56-1-1.63-1.72-2.31-.08-.7-1.28-1.56.28-2a37.46,37.46,0,0,0,6.58-2.46c12.11-5,24.07-10.4,35.73-16.39,10.89-5.6,21.58-11.55,31.89-18.16,7.6-4.87,15.06-9.92,22.21-15.41,4.78-3.67,9.41-7.54,14-11.5a214.09,214.09,0,0,0,16-15.58,161.57,161.57,0,0,0,22-29.4,126.48,126.48,0,0,0,11.21-25.06,91.15,91.15,0,0,0,2.77-10.69.78.78,0,0,1,.31-.61,74.78,74.78,0,0,1-3.06,14.19c-4.77,16.21-12.81,30.72-23,44.09-11.68,15.28-25.6,28.28-40.87,39.89C224.58,191,200.31,204.46,175,216q-10.5,4.78-21.19,9.1C153.38,225.3,153,225.42,152.56,225.56Z"/><path class="cls-4" d="M339.82,279.58c.4,2.44.54,4.91,1.08,7.33a19.6,19.6,0,0,0,4.49,9.34,13.61,13.61,0,0,0,8.06,4.1c9,1.44,17-.86,24.16-6.23s12.32-12.15,16.62-19.78c1.53-2.71,3.28-5.31,4.19-8.34.62.64.43,1.58.86,2.29a6.43,6.43,0,0,0,.08,1c1.61,6.15,3.52,12.18,6.69,17.72,4.43,7.75,11,12.49,20,13.3a33.32,33.32,0,0,0,17.3-3.34,48.23,48.23,0,0,0,12-7.84,43.67,43.67,0,0,0,9.51-11.28,1.41,1.41,0,0,1,.29,0c-.31,2.15-.63,4.3-.94,6.46-1.61,1.89-3.17,3.84-4.86,5.66-6.66,7.17-14.5,12.47-24.21,14.54-8.72,1.86-16.74.4-23.55-5.7-4-3.61-6.5-8.29-8.5-13.23a83.3,83.3,0,0,1-4.1-13.49c-.07-.32-.18-.64-.33-1.17-1.39,2.63-2.64,5.12-4,7.54-4.34,7.62-9.42,14.64-16.44,20.06-6.44,5-13.66,7.55-21.87,7.05-6.68-.41-11.65-3.32-14.17-9.76C340.13,290.58,339.83,285.1,339.82,279.58Z"/><path class="cls-3" d="M466.33,252.78c0-3.74.44-7.44.79-11.15.25-2.57.47-5.14.61-7.72.22-3.87.74-7.7,1.1-11.55.33-3.52.73-7,1.22-10.52s.85-7,1.53-10.48c.78-4-.1-7.28-3.1-10a20.06,20.06,0,0,0-7-4.61c-4.49-1.53-8.4-.37-12,2.4-4.41,3.41-6.82,8.21-8.87,13.21a76.07,76.07,0,0,0-4.55,16.88c-.59,3.62-1,7.28-1.31,11a121.77,121.77,0,0,0-.17,12.67,56.48,56.48,0,0,0,1.55,11.33,4,4,0,0,1,.08,1.28c-1.76-2.84-2.28-6.07-2.83-9.26a91,91,0,0,1-1.14-17.06,20.66,20.66,0,0,0,.3-4.71l0,0c.27-.26.22-.62.25-.95a105.3,105.3,0,0,1,3.8-21.06c1.78-6,4.09-11.79,8.09-16.74,7-8.64,16.75-9.26,24.79-1.59a34.59,34.59,0,0,1,5.2,6.67c-1.12,6.43-2.18,12.86-2.95,19.33q-1.12,9.38-1.9,18.76c-.53,6.55-1,13.11-1.55,19.66A8.41,8.41,0,0,1,466.33,252.78Z"/><path class="cls-2" d="M275.35,274.66a22.33,22.33,0,0,1-1.68,4.26,81.25,81.25,0,0,1-12.13,21.42c-4,5-8.56,9.47-14.56,12.18-7.71,3.49-16.19,2.6-22.58-3.72a36.73,36.73,0,0,1-9.72-18c.92-.72,1.54,0,2.1.52,1.91,1.86,2.95,4.35,4.48,6.48,1.69,2.35,3.53,4.62,6.47,5.55a5.41,5.41,0,0,0,1.56.14c6,0,11.94-.16,17.9.07,3.31.12,5.77-1.28,8.25-3.1a43.15,43.15,0,0,0,9.15-9.65c2.42-3.34,5-6.67,6.58-10.58a13.58,13.58,0,0,1,3-4.87C274.51,275.07,274.79,274.64,275.35,274.66Z"/><path class="cls-2" d="M464.85,277.85a43.67,43.67,0,0,1-9.51,11.28,48.23,48.23,0,0,1-12,7.84,33.32,33.32,0,0,1-17.3,3.34c-9-.81-15.56-5.55-20-13.3-3.17-5.54-5.08-11.57-6.69-17.72a6.43,6.43,0,0,1-.08-1c.94.09,1.1.92,1.31,1.55,1.61,4.91,4.48,9.2,6.82,13.75a9.74,9.74,0,0,0,3.54,3.59,7.75,7.75,0,0,1,1.68,1.56c2.11,2.56,5,3.77,8.05,4.68,7.9,2.35,15.49,1,23-1.94,5-2,9-5.34,13.24-8.44,2.08-1.52,3.46-3.85,5.87-5C463.46,277.72,464.09,277.18,464.85,277.85Z"/><path class="cls-2" d="M316.63,262.52c0,5.81.05,11.61.13,17.42.11,7.19.28,14.38.43,21.57-3.42.36-6.82.84-10.25,1a76.27,76.27,0,0,1-11.21-.06A25.93,25.93,0,0,1,288,300.6c-5.4-2.24-8.37-6.51-9.92-11.93a51,51,0,0,1-1.82-13.74,1.22,1.22,0,0,1,1.12,1c.41,1.77.71,3.57,1.2,5.31,1.26,4.47,2.48,9,6,12.34a19,19,0,0,0,10.71,4.77,56.45,56.45,0,0,0,9.19.29,19.78,19.78,0,0,0,3.85-.36c3.89-.85,4.53-1.68,5.73-5.86.85-2.95.66-6,.81-9,.3-6,.45-12,1.2-18,.07-.62,0-1.25,0-1.88C316.08,263.08,316,262.61,316.63,262.52Z"/><path class="cls-4" d="M549.51,162c-1,13.12-9.39,29.55-30.12,29.29a24.52,24.52,0,0,1-8.07-1.33c-1.24-.45-1.61-.1-2,1a164.61,164.61,0,0,0-7.2,29.49c-.31,2-.59,4-.87,6-.05.39-.06.78-.53.91.19-2.13.31-4.26.59-6.38.51-3.92,1.05-7.84,1.7-11.74a155.1,155.1,0,0,1,3.54-15.93c.69-2.49,1.54-4.93,2.26-7.42.29-1,.74-1.2,1.77-.86a26.85,26.85,0,0,0,9.89,1.46,30.45,30.45,0,0,0,28.8-24.2C549.28,162.21,549.42,162.11,549.51,162Z"/><path class="cls-4" d="M474.64,190.75a34.59,34.59,0,0,0-5.2-6.67c-8-7.67-17.82-7.05-24.79,1.59-4,5-6.31,10.73-8.09,16.74a105.3,105.3,0,0,0-3.8,21.06c0,.33,0,.69-.25.95A80.23,80.23,0,0,1,434,208.88,84.5,84.5,0,0,1,438.84,191a34.28,34.28,0,0,1,7.78-12.32c3.38-3.26,7.34-5.39,12.24-5.14a16.34,16.34,0,0,1,7.84,2.59,25.42,25.42,0,0,1,6.87,6.65A7.81,7.81,0,0,1,474.64,190.75Z"/><path class="cls-4" d="M341.16,213.24a59.39,59.39,0,0,0-1.4-6.59,15.53,15.53,0,0,0-2.53-5,5.86,5.86,0,0,0-7.49-1.74,15.48,15.48,0,0,0-6.28,6c-3.67,5.7-5.35,12.06-5.95,18.75a4.62,4.62,0,0,1-.23,1.84c-.09-1.58.15-3.15.19-4.72a41.11,41.11,0,0,1,3.28-15.46c2.24-5.2,5-10.09,10.93-12h1.73a8.61,8.61,0,0,1,5.67,5.65A31.8,31.8,0,0,1,341.16,213.24Z"/><path class="cls-2" d="M331.68,194.38c-6,1.86-8.69,6.75-10.93,12a41.11,41.11,0,0,0-3.28,15.46c0,1.57-.28,3.14-.19,4.72,0,1.33-.09,2.67-.14,4-.32.39-.14.84-.17,1.26l-.09,6.21c-.85-.43-.78-1.3-.77-2,0-2.58-.12-5.15.13-7.74s.11-5,.11-7.55c0-.21-.18-.42-.27-.63v-.86c.94-.29.75-1.18.83-1.8a39.26,39.26,0,0,1,5.49-16.3,17.87,17.87,0,0,1,6-6.07C329.36,194.44,330.42,193.84,331.68,194.38Z"/><path class="cls-2" d="M341.16,213.24A31.8,31.8,0,0,0,339.08,200a8.61,8.61,0,0,0-5.67-5.65c1.27-.43,3.24.35,4.36,2a21.49,21.49,0,0,1,3.44,7.51c1,4.35.87,8.75.87,13.15,0,.56,0,1.09-.78,1.07v-.63a.8.8,0,0,0,0-1.08C341.25,215.32,341.21,214.28,341.16,213.24Z"/><path class="cls-4" d="M432.53,224.4a20.66,20.66,0,0,1-.3,4.71C432.35,227.54,431.85,225.93,432.53,224.4Z"/><path class="cls-2" d="M500.65,229.61a7,7,0,0,1-.27,3.17C500.51,231.72,500.08,230.62,500.65,229.61Z"/><path class="cls-2" d="M500.33,233.94a2.94,2.94,0,0,1-.23,1.73C500.16,235.09,499.9,234.47,500.33,233.94Z"/><path class="cls-2" d="M121.38,264.83a.55.55,0,0,1-.29-.58C121.44,264.32,121.81,264.38,121.38,264.83Z"/><path class="cls-4" d="M494.62,322.3c0,.46.09.94-.27,1.32C494.37,323.17,494.16,322.66,494.62,322.3Z"/><path class="cls-4" d="M66.45,320.43a1.82,1.82,0,0,1-.27-1.31C66.64,319.49,66.43,320,66.45,320.43Z"/><path class="cls-5" d="M2.92,163.1A27.56,27.56,0,0,1,8.76,145a28.28,28.28,0,0,1,19.18-11.55c7.63-1.11,14.54.81,21,4.85a61,61,0,0,1,15.14,14.16,78.5,78.5,0,0,1,8.76,13.66,130.66,130.66,0,0,1,7.77,20.26q2.69,8.72,4.74,17.61c1.69,7.21,3.3,14.44,4.67,21.72.19,1,0,1-.89.84-8.57-1.82-17-4.05-25.5-6.31-2.22-.59-4.42-1.27-6.65-1.8a1.4,1.4,0,0,1-1.24-1.29,176,176,0,0,0-5.43-19.79c-.67-2-1.44-3.86-2.12-5.81-.42-1.19-1-1.34-2.18-.81a30.8,30.8,0,0,1-11.2,2.84,29.35,29.35,0,0,1-19.66-5.84A29.67,29.67,0,0,1,3.18,168.4,47.25,47.25,0,0,1,2.92,163.1Z"/><path class="cls-4" d="M58.38,245.58c-.57-3.36-1.12-6.71-1.71-10.06a169.78,169.78,0,0,0-10.16-36.26c-.74-1.76-.73-1.74-2.48-1.1-14.86,5.43-32.41-.61-39.74-17.29A32.51,32.51,0,0,1,1.43,169c.87,2.06,1.13,4.3,2,6.37A32,32,0,0,0,22,193.24a30.81,30.81,0,0,0,13.56,1.95,29,29,0,0,0,10.12-2.56c.84-.39,1.19-.18,1.49.63A179.5,179.5,0,0,1,55,221.33c1.12,5.77,2,11.57,2.8,17.4C58.05,241,58.63,243.25,58.38,245.58Z"/><path class="cls-4" d="M1.46,169c-.43-.64-.21-1.36-.23-2C1.71,167.57,1.42,168.29,1.46,169Z"/><path class="cls-4" d="M313.79,76a2.48,2.48,0,0,1,0-.27.69.69,0,0,1,.1.19S313.81,76,313.79,76Z"/><path class="cls-1" d="M180.3,207.08a9.87,9.87,0,0,1,2.68-1.33c4.67-2.38,9.37-4.7,14.06-7,.47-.23,1-.4,1.46-.59-.09.69-.69.91-1.17,1.14-5.39,2.59-10.57,5.62-16.15,7.81C180.89,207.18,180.6,207.48,180.3,207.08Z"/><path class="cls-1" d="M199.37,197.55a83.63,83.63,0,0,1,8.66-4.63c0,.69-.67.76-1.1,1-2.22,1.23-4.45,2.43-6.69,3.62C200,197.68,199.66,198,199.37,197.55Z"/><path class="cls-1" d="M224.5,183.1a17.24,17.24,0,0,1,4.33-2.89A7.2,7.2,0,0,1,224.5,183.1Z"/><path class="cls-1" d="M222.19,184.54a4.18,4.18,0,0,1,2.31-1.44A2.51,2.51,0,0,1,222.19,184.54Z"/><path class="cls-1" d="M217,187.72a4.13,4.13,0,0,1,2.31-1.44A2.53,2.53,0,0,1,217,187.72Z"/><path class="cls-1" d="M210.06,191.76a3.13,3.13,0,0,1,2-1.15C211.71,191.54,210.91,191.69,210.06,191.76Z"/><path class="cls-1" d="M208,192.92a3.19,3.19,0,0,1,2-1.16C209.69,192.69,208.89,192.85,208,192.92Z"/><path class="cls-1" d="M215,188.88a3.1,3.1,0,0,1,2-1.16C216.62,188.65,215.82,188.8,215,188.88Z"/><path class="cls-1" d="M234.9,176.17a3,3,0,0,1,1.73-1.16C236.47,176,235.69,176.1,234.9,176.17Z"/><path class="cls-1" d="M212.08,190.61a1.79,1.79,0,0,1,1.44-.87C213.36,190.57,212.71,190.57,212.08,190.61Z"/><path class="cls-1" d="M213.52,189.74a1.79,1.79,0,0,1,1.45-.86C214.8,189.7,214.16,189.71,213.52,189.74Z"/><path class="cls-1" d="M219.3,186.28a1.8,1.8,0,0,1,1.44-.87C220.58,186.24,219.93,186.24,219.3,186.28Z"/><path class="cls-1" d="M220.74,185.41a1.83,1.83,0,0,1,1.44-.87C222,185.37,221.38,185.37,220.74,185.41Z"/><path class="cls-1" d="M236.92,174.73a.87.87,0,0,1,.87-.58C237.76,174.74,237.34,174.73,236.92,174.73Z"/><path class="cls-1" d="M229.41,179.92a.87.87,0,0,1,.87-.57C230.25,179.94,229.83,179.93,229.41,179.92Z"/><path class="cls-1" d="M231.14,178.77a.89.89,0,0,1,.87-.58C232,178.78,231.57,178.78,231.14,178.77Z"/><path class="cls-1" d="M233.17,177.32a.87.87,0,0,1,.86-.57C234,177.34,233.59,177.33,233.17,177.32Z"/><path class="cls-1" d="M234,176.75a.87.87,0,0,1,.87-.58C234.88,176.76,234.46,176.76,234,176.75Z"/><path class="cls-1" d="M317,231.77c0-.42-.15-.87.17-1.26A1.6,1.6,0,0,1,317,231.77Z"/><path class="cls-1" d="M341.3,216.35a.8.8,0,0,1,0,1.08Z"/></g></g></svg>