<svg xmlns="http://www.w3.org/2000/svg" viewBox="0 0 357 357"><defs><style>.cls-1{fill:#fff;}</style></defs><title>Asset 1</title><g id="Layer_2" data-name="Layer 2"><g id="Layer_1-2" data-name="Layer 1"><path class="cls-1" d="M204,0H357V357H0V0H189c-.95,1.33-2.27,2.52-2.77,4-1.74,5.18-7.17,6.68-11,2.83a31.36,31.36,0,0,1-2.41-3.08c-10.24,3.64-17,9.33-17.85,21-.55,7.33-3,14.59-5.11,21.72-1,3.24-3.21,6.11-7.62,6.58,11.5-15.39,10.64-29.84-2.17-37.8-.31,1.17-.91,2.27-.83,3.33.34,4.85-1.76,7.8-5.82,10.58-5.94,4.06-9.23,10-7.79,17.65a62.19,62.19,0,0,1,.51,6.21L97.68,42.89c1.44,4,2.5,7.16,3.65,10.23,2.22,6,6.55,12.05,6.17,17.84s-5.36,11.57-8.31,17.34c-3.75,7.33-7.47,14.67-11.34,22.27l7.74,3c-6.1,11-17.7,19.28-13.55,33.45-9,6.15-8.75,13.81,0,19a5.42,5.42,0,0,1,2,3.06c.63,2.23.87,4.57,1.35,6.85,1.68,8,3.65,9.64,11.63,7,5.11-1.7,9.4-2.3,13.69,2l10.76-16.88-6.85-4.36c4.41-2.2,7.91-4.49,11.74-5.64,2.15-.64,4.87.61,7.33,1-.62,2.83-1,5.77-2,8.43-.44,1.14-2.43,1.59-3.57,2.54-2.14,1.78-4.5,3.43-6.16,5.6-2.81,3.67-5.14,7.7-7.79,11.75l3.85,3-4.61,5.41c9.57,4.86,17.68,2.82,25.14-3,6.5-5.09,9-11.42,5.18-18.13,4.33-5.83,8.75-10.67,11.88-16.22,5.48-9.71,11.91-17.83,21.58-24.15,15.56-10.18,17.26-32.07,4.84-45.84a4.62,4.62,0,0,1-.51-1l1.16-1c2.86,3.27,6.44,6.16,8.42,9.89,6.21,11.72,4.36,23.46-2.57,34.07-3.4,5.18-6.69,9.4-3.6,15.89,1,2.1.72,4.92.68,7.4-.36,23.44-9.44,43.62-23.39,61.91-3.16,4.14-2.82,8.27-1,12.53,1,2.26,2.77,4.17,3.84,6.41,1.64,3.41,4,4.54,7.86,4.53q65-.26,130-.05a8.94,8.94,0,0,0,7.69-3.42c7.93-9.5,16.2-18.62,28.76-22.28a5.36,5.36,0,0,0,3.17-3.8c.3-7.61.15-15.23.15-22.85l-2.07.78c-1.93-2.13-4.54-4-5.55-6.5-.61-1.53.74-5.34,2.11-5.89,4.68-1.88,4.17-5.26,3.81-8.94-.44-4.62-.79-9.26-1.19-14-4.09-.37-7.56-1.52-8.18-6s2.46-6.45,6.63-7.93q-2.07-11.48-4.13-22.92l-1.25,1.09c-2.6-1.86-6.12-3.2-7.59-5.73-1.89-3.24.18-6.27,3.58-8.15a3.2,3.2,0,0,0,.88-2.9c-2.09-6.25-4.39-12.44-6.66-18.75-4.45,1.8-7.75,1.18-9.74-2.44-2.3-4.19.24-7.18,3.69-9.88l-13.13-19-1,1.93c-2.95-.55-7.2-.13-8.52-1.9-1.81-2.41-1.39-6.49-1.92-9.86l1.65-.62-14.9-12.29L279,28.56c-2.88.36-6.9,2.06-8.4.79-2.52-2.14-3.43-6.17-5-9.4l1.47-1L248,9.59l0,2c-2.91.86-6.42,3.12-8.58,2.21-2.64-1.12-4.15-4.9-6.14-7.53l1.25-1.35-17-3.72c-1.74,4-3.6,7.67-8.4,6.65C205.19,7,203.44,4.12,204,0ZM138.41,322.5H331.92c-13.63-12.1-16.44-27.89-17.83-44H156.19C154.86,295.08,151.78,310.57,138.41,322.5Zm201,33.27c0-6.08,0-11.71,0-17.34,0-6.95-1.46-8.36-8.54-8.36H139.48c-1.16,0-2.6-.42-3.44.11-1.8,1.14-4.59,2.68-4.7,4.23-.51,7-.22,14.16-.22,21.36ZM156.2,270.15l1.38,1.24h156.6c-2.91-5.29-4.88-10.06-7.88-14.05-4.76-6.34-10.83-9.73-19.55-9.61-35,.48-70,.31-105,.09-6,0-11.07,1.82-14.64,6.07C162.93,258.86,159.79,264.7,156.2,270.15ZM100.36,64.35C97.43,56.28,95,49.43,92.43,42.62a4,4,0,0,0-1.75-2.26C84.43,38,78.13,35.72,71,33.14c2,5.64,3.52,10.22,5.35,14.66a9.15,9.15,0,0,0,3.2,4.11C86.05,56,92.68,59.79,100.36,64.35ZM45.66,23.89l-1,1.06c1.42,2.93,2.09,6.9,4.42,8.57C55.6,38.21,62.79,42,70.88,46.77c-1.88-5.16-3.19-9-4.73-12.82-.52-1.29-1.37-3-2.49-3.42C57.73,28.14,51.67,26.07,45.66,23.89Zm-5.34,4.69.94-.65c-1.27-2.34-2-5.89-3.9-6.81C31,18.1,24.21,16,17.58,13.61l-.5,1.12Z"/><path d="M204,0c-.56,4.12,1.19,7,5.18,7.83,4.8,1,6.66-2.65,8.4-6.65l17,3.72-1.25,1.35c2,2.63,3.5,6.41,6.14,7.53,2.16.91,5.67-1.35,8.58-2.21l0-2,19.09,9.33-1.47,1c1.58,3.23,2.49,7.26,5,9.4,1.5,1.27,5.52-.43,8.4-.79l.24-1.63,14.9,12.29-1.65.62c.53,3.37.11,7.45,1.92,9.86,1.32,1.77,5.57,1.35,8.52,1.9l1-1.93,13.13,19c-3.45,2.7-6,5.69-3.69,9.88,2,3.62,5.29,4.24,9.74,2.44,2.27,6.31,4.57,12.5,6.66,18.75a3.2,3.2,0,0,1-.88,2.9c-3.4,1.88-5.47,4.91-3.58,8.15,1.47,2.53,5,3.87,7.59,5.73l1.25-1.09q2.07,11.46,4.13,22.92c-4.17,1.48-7.25,3.41-6.63,7.93s4.09,5.62,8.18,6c.4,4.75.75,9.39,1.19,14,.36,3.68.87,7.06-3.81,8.94-1.37.55-2.72,4.36-2.11,5.89,1,2.51,3.62,4.37,5.55,6.5l2.07-.78c0,7.62.15,15.24-.15,22.85a5.36,5.36,0,0,1-3.17,3.8c-12.56,3.66-20.83,12.78-28.76,22.28a8.94,8.94,0,0,1-7.69,3.42q-65-.13-130,.05c-3.89,0-6.22-1.12-7.86-4.53-1.07-2.24-2.86-4.15-3.84-6.41-1.86-4.26-2.2-8.39,1-12.53,14-18.29,23-38.47,23.39-61.91,0-2.48.33-5.3-.68-7.4-3.09-6.49.2-10.71,3.6-15.89,6.93-10.61,8.78-22.35,2.57-34.07-2-3.73-5.56-6.62-8.42-9.89l-1.16,1a4.62,4.62,0,0,0,.51,1c12.42,13.77,10.72,35.66-4.84,45.84-9.67,6.32-16.1,14.44-21.58,24.15-3.13,5.55-7.55,10.39-11.88,16.22,3.81,6.71,1.32,13-5.18,18.13-7.46,5.84-15.57,7.88-25.14,3l4.61-5.41-3.85-3c2.65-4.05,5-8.08,7.79-11.75,1.66-2.17,4-3.82,6.16-5.6,1.14-1,3.13-1.4,3.57-2.54,1-2.66,1.38-5.6,2-8.43-2.46-.4-5.18-1.65-7.33-1-3.83,1.15-7.33,3.44-11.74,5.64l6.85,4.36L110.72,185c-4.29-4.34-8.58-3.74-13.69-2-8,2.66-10,1.06-11.63-7-.48-2.28-.72-4.62-1.35-6.85a5.42,5.42,0,0,0-2-3.06c-8.79-5.2-9-12.86,0-19-4.15-14.17,7.45-22.5,13.55-33.45l-7.74-3c3.87-7.6,7.59-14.94,11.34-22.27,3-5.77,7.93-11.41,8.31-17.34s-4-11.87-6.17-17.84c-1.15-3.07-2.21-6.18-3.65-10.23l28.45,10.16a62.19,62.19,0,0,0-.51-6.21c-1.44-7.68,1.85-13.59,7.79-17.65,4.06-2.78,6.16-5.73,5.82-10.58-.08-1.06.52-2.16.83-3.33,12.81,8,13.67,22.41,2.17,37.8,4.41-.47,6.65-3.34,7.62-6.58,2.12-7.13,4.56-14.39,5.11-21.72.88-11.7,7.61-17.39,17.85-21a31.36,31.36,0,0,0,2.41,3.08c3.84,3.85,9.27,2.35,11-2.83.5-1.48,1.82-2.67,2.77-4Zm85.65,223.12,1.92-.14c.2-1.71.52-3.42.58-5.14.43-11.31.88-22.62,1.16-33.94.55-22,.38-44-5.31-65.46-4.87-18.38-11.65-35.87-25.17-49.8C244.05,49.29,220.52,41.07,194,40.39c-8.66-.22-17.16.88-25,5a34.79,34.79,0,0,0,5.32-.31c1.83-.17,3.66-.26,5.49-.34,32.13-1.53,59.93,7.85,80.79,33.29,17,20.77,23.52,45.63,25.21,71.82,1.47,22.75,2.05,45.56,3.07,68.35A45.66,45.66,0,0,0,289.65,223.12Zm-73.4-24.44C238,172,233.06,106,208.8,94.44a20.66,20.66,0,0,0,.9,1.93c12.44,20.19,15.76,42.16,12.47,65.31C220.46,173.77,218.33,185.8,216.25,198.68ZM148.19,89.05a17.89,17.89,0,0,0-1.7,1.88c-.5,1-1,2.1-1.43,3.17-5,11.75-11.82,21.68-23.65,27.81a43.88,43.88,0,0,0-17.66,17.18,38.35,38.35,0,0,0-1.85,4c8.18-6.19,16.29-12.18,24.24-18.37a96.61,96.61,0,0,0,12.06-10.37C144.42,107.65,147.69,99.49,148.19,89.05ZM101,106.56c.51,2.45,1.73,3.14,4.72,1.57,1.86-1,4.44-.5,6.59-1.06,1.65-.43,4.52-1.53,4.49-2.2-.33-6.2,4-5.8,8-6.22,1.91-.2,3.79-.59,6-.94-6.77-4.73-9.45-4.61-15.05-.57C111.14,100.41,106.26,103.19,101,106.56Zm-10.12,50c-3.13-2.88-6.1-3.78-9.16-1.08-.47.42-.14,2.84.51,3.25C85.44,160.81,88.38,160.32,90.83,156.56Z"/><path d="M138.41,322.5c13.37-11.93,16.45-27.42,17.78-44h157.9c1.39,16.13,4.2,31.92,17.83,44Z"/><path d="M339.36,355.77H131.12c0-7.2-.29-14.31.22-21.36.11-1.55,2.9-3.09,4.7-4.23.84-.53,2.28-.11,3.44-.11H330.81c7.08,0,8.52,1.41,8.54,8.36C339.37,344.06,339.36,349.69,339.36,355.77Z"/><path d="M156.2,270.15c3.59-5.45,6.73-11.29,10.91-16.26,3.57-4.25,8.62-6.11,14.64-6.07,35,.22,70,.39,105-.09,8.72-.12,14.79,3.27,19.55,9.61,3,4,5,8.76,7.88,14.05H157.58Z"/><path d="M100.36,64.35C92.68,59.79,86.05,56,79.59,51.91a9.15,9.15,0,0,1-3.2-4.11c-1.83-4.44-3.32-9-5.35-14.66,7.09,2.58,13.39,4.82,19.64,7.22a4,4,0,0,1,1.75,2.26C95,49.43,97.43,56.28,100.36,64.35Z"/><path d="M45.66,23.89c6,2.18,12.07,4.25,18,6.64,1.12.46,2,2.13,2.49,3.42,1.54,3.79,2.85,7.66,4.73,12.82C62.79,42,55.6,38.21,49.1,33.52c-2.33-1.67-3-5.64-4.42-8.57Z"/><path d="M40.32,28.58,17.08,14.73l.5-1.12C24.21,16,31,18.1,37.36,21.12c1.94.92,2.63,4.47,3.9,6.81Z"/><path class="cls-1" d="M289.65,223.12a45.66,45.66,0,0,1-.74-4.88c-1-22.79-1.6-45.6-3.07-68.35-1.69-26.19-8.19-51-25.21-71.82C239.77,52.63,212,43.25,179.84,44.78c-1.83.08-3.66.17-5.49.34a34.79,34.79,0,0,1-5.32.31c7.83-4.16,16.33-5.26,25-5,26.5.68,50,8.9,68.81,28.25,13.52,13.93,20.3,31.42,25.17,49.8,5.69,21.5,5.86,43.46,5.31,65.46-.28,11.32-.73,22.63-1.16,33.94-.06,1.72-.38,3.43-.58,5.14Z"/><path class="cls-1" d="M216.25,198.68c2.08-12.88,4.21-24.91,5.92-37,3.29-23.15,0-45.12-12.47-65.31a20.66,20.66,0,0,1-.9-1.93C233.06,106,238,172,216.25,198.68Z"/><path class="cls-1" d="M148.19,89.05c-.5,10.44-3.77,18.6-10,25.34a96.61,96.61,0,0,1-12.06,10.37c-8,6.19-16.06,12.18-24.24,18.37a38.35,38.35,0,0,1,1.85-4,43.88,43.88,0,0,1,17.66-17.18c11.83-6.13,18.69-16.06,23.65-27.81.45-1.07.93-2.13,1.43-3.17A17.89,17.89,0,0,1,148.19,89.05Z"/><path class="cls-1" d="M101,106.56c5.31-3.37,10.19-6.15,14.71-9.42,5.6-4,8.28-4.16,15.05.57-2.19.35-4.07.74-6,.94-3.94.42-8.31,0-8,6.22,0,.67-2.84,1.77-4.49,2.2-2.15.56-4.73.08-6.59,1.06C102.68,109.7,101.46,109,101,106.56Z"/><path class="cls-1" d="M90.83,156.56c-2.45,3.76-5.39,4.25-8.65,2.17-.65-.41-1-2.83-.51-3.25C84.73,152.78,87.7,153.68,90.83,156.56Z"/></g></g></svg>