<svg id="Layer_1" data-name="Layer 1" xmlns="http://www.w3.org/2000/svg" viewBox="0 0 174.85 219.84"><defs><style>.cls-1{fill:#044fb4;}.cls-2{fill:#f8fafc;}</style></defs><title>WarnerBros-color-logo</title><path class="cls-1" d="M300,286.07h12c1.09,2,3.17,1.45,4.83,1.77q16.14,3.12,32.31,6c2,.35,3.7.87,3.7,3.17,0,6.8,4.39,8.86,10.1,9.73,2,.3,3.84,1.08,5.79,1.45,2.42.45,4,1.62,4.06,4.2.1,6,3.72,8.23,9.11,8.87,6.6.79,11.79,3.16,11.29,11.2,0,.17.48.37.73.55v34c-1.8.8-1.28,2.58-1.47,3.91-7.8,56.13-35.81,99.76-81.68,132.38-1,.73-2.53,1-2.77,2.61h-3c-.56-2-2.56-2.44-4-3.45C256.12,470,228.61,427,220.7,371.77c-.19-1.34.35-3.13-1.61-3.76v-4c.91-1.33-.1-2.66,0-4V331c1.53-9,9.35-8.77,15.67-10.75a2.56,2.56,0,0,1,.48-.1c2.54-.22,4-1.6,4.06-4.14.11-6,3.76-8.22,9.06-8.92,1.3-.18,2.55-.85,3.85-1,4.81-.46,7.48-2.93,7.7-7.83.14-3,1.64-4.09,4.65-4.58,10.46-1.72,20.86-3.8,31.27-5.83C297.31,287.63,299.31,288.21,300,286.07Zm-49.19,49.55a3.19,3.19,0,0,0-3.08,1.43c-2.64,2.77-5.21,5.61-7.84,8.39a6.75,6.75,0,0,0-1.65,5.54c1.86,24.58,6.71,48.44,17.19,70.92,4.36,9.35,4.58,9.46,13.16,3.85,3.29-2.16,4.2-1.35,5.24,2a134.23,134.23,0,0,0,18.33,38.06c2.15,3,4.53,5.91,6.8,8.86a9.74,9.74,0,0,0,1.09-5.21q0-35.72,0-71.43,0-40.2-.06-80.41c0-1.53.95-4-.92-4.44-3.61-.8-7.26.44-10.7,1.62-2.6.89-1.46,3.45-1.45,5.25q.29,52.69.69,105.38c0,.43,0,1-1.17.73-6.51-20.88-9.32-42.55-10.55-64.49q-1.06-19.2-.9-38.43c0-1.17,1.16-3.28-1.42-3.45-4.55-.3-11.64,6.47-11.71,11.12-.35,25.36,1,50.58,6.12,75.5.42,2.06.84,4.14-1.77,4.94-2.76.84-2.74-1.77-3.36-3.22a121.94,121.94,0,0,1-6.77-21.87A236.31,236.31,0,0,1,250.83,335.62ZM313,474.21l1.93,1.25c3.53-4,6.92-8.11,10.61-11.94,14.86-15.38,28.78-31.45,37.94-51,4.12-8.83,7.06-18,6.34-27.93-.53-7.3-3.42-13.34-10.49-16.26-3.36-1.4-2.18-2.53-.85-4.55,9.85-14.9,6.51-31-8.43-40.67-9.59-6.23-20.45-8.51-31.56-10.08-4.23-.6-5.62.38-5.61,5.06.2,50.61.12,101.22.12,151.83Z" transform="translate(-219.09 -286.07)"/><path class="cls-2" d="M219.09,360c-.1,1.34.91,2.67,0,4Z" transform="translate(-219.09 -286.07)"/><path class="cls-2" d="M250.83,335.62a236.31,236.31,0,0,0,5.26,50.65,121.94,121.94,0,0,0,6.77,21.87c.62,1.45.6,4.06,3.36,3.22,2.61-.8,2.19-2.88,1.77-4.94-5.1-24.92-6.47-50.14-6.12-75.5.07-4.65,7.16-11.42,11.71-11.12,2.58.17,1.43,2.28,1.42,3.45q-.15,19.23.9,38.43c1.23,21.94,4,43.61,10.55,64.49,1.13.31,1.17-.3,1.17-.73q-.36-52.69-.69-105.38c0-1.8-1.15-4.36,1.45-5.25,3.44-1.18,7.09-2.42,10.7-1.62,1.87.41.91,2.91.92,4.44q.09,40.2.06,80.41,0,35.71,0,71.43a9.74,9.74,0,0,1-1.09,5.21c-2.27-2.95-4.65-5.82-6.8-8.86a134.23,134.23,0,0,1-18.33-38.06c-1-3.36-2-4.17-5.24-2-8.58,5.61-8.8,5.5-13.16-3.85C245,399.42,240.12,375.56,238.26,351a6.75,6.75,0,0,1,1.65-5.54c2.63-2.78,5.2-5.62,7.84-8.39A3.19,3.19,0,0,1,250.83,335.62Z" transform="translate(-219.09 -286.07)"/><path class="cls-2" d="M313,474.21v-4.33c0-50.61.08-101.22-.12-151.83,0-4.68,1.38-5.66,5.61-5.06,11.11,1.57,22,3.85,31.56,10.08,14.94,9.69,18.28,25.77,8.43,40.67-1.33,2-2.51,3.15.85,4.55,7.07,2.92,10,9,10.49,16.26.72,9.94-2.22,19.1-6.34,27.93-9.16,19.59-23.08,35.66-37.94,51-3.69,3.83-7.08,8-10.61,11.94Zm13-32.78c12.36-12.59,23-26,28.53-42.79a26.22,26.22,0,0,0,1.5-9.28c-.31-7.84-4.93-11.16-12.31-8.63-6,2.08-11,6.06-16.25,9.55-1.28.85-1.48,2-1.48,3.44Q326,417.57,325.94,441.43Zm0-65.9a62.11,62.11,0,0,0,16.13-12.06c5.78-6.19,10.48-13.23,7.53-22-2.85-8.49-10.69-11.28-18.75-13.08-.48-.11-1-.15-1.47-.28-2.52-.64-3.52.09-3.5,2.93C326,345.54,325.94,360,325.94,375.53Z" transform="translate(-219.09 -286.07)"/><path class="cls-1" d="M325.94,441.43q0-23.85,0-47.71c0-1.4.2-2.59,1.48-3.44,5.24-3.49,10.21-7.47,16.25-9.55,7.38-2.53,12,.79,12.31,8.63a26.22,26.22,0,0,1-1.5,9.28C349,415.39,338.3,428.84,325.94,441.43Z" transform="translate(-219.09 -286.07)"/><path class="cls-1" d="M325.94,375.53c0-15.51.07-30-.06-44.47,0-2.84,1-3.57,3.5-2.93.49.13,1,.17,1.47.28,8.06,1.8,15.9,4.59,18.75,13.08,2.95,8.75-1.75,15.79-7.53,22A62.11,62.11,0,0,1,325.94,375.53Z" transform="translate(-219.09 -286.07)"/></svg>