<svg xmlns="http://www.w3.org/2000/svg" viewBox="0 0 175 220"><defs><style>.cls-1{fill:#fff;}</style></defs><title>Asset 1</title><g id="Layer_2" data-name="Layer 2"><g id="Layer_1-2" data-name="Layer 1"><path d="M86,0h3a20.54,20.54,0,0,0,3.2,1.17c12.38,2.36,24.78,4.58,37.12,7.1,1.57.32,4,2.05,4.06,3.25.4,6.5,4.5,8.55,10,9.52A28.25,28.25,0,0,1,150,22.9c1.29.58,3,2,3.09,3.16.41,6.94,4.88,9.07,10.74,10,1.8.28,3.79.51,5.23,1.47a9.16,9.16,0,0,1,3.67,4.4A99.83,99.83,0,0,1,175,53V71c-.79,5.91-1.46,11.84-2.4,17.72-7.62,47.75-30.34,86.9-67.34,117.84-5.59,4.68-11.5,9-17.26,13.44H87c-2.06-1.64-4.06-3.35-6.18-4.9-42.35-31-69.06-71.87-77.86-124C1.83,84.45,1,77.72,0,71V54c.25-.61.77-1.24.71-1.82-1.15-12,5.42-16.69,16.21-17.91,1.31-.15,3.37-2.17,3.44-3.43.43-7,5.06-8.85,10.83-9.76a18.16,18.16,0,0,0,5.7-1.69c1.4-.76,3.31-2.28,3.37-3.54.3-6.5,4.39-8.14,9.81-8.61a54.81,54.81,0,0,0,6.36-1.07Q71.22,3.11,86,0ZM31.83,49.31,30,48c-2.12,2.52-4,5.31-6.41,7.5C19.27,59.38,18.12,64,19,69.46c1.39,8.7,2.25,17.5,4,26.13,3,15.4,7.58,30.37,15,44.32,2.58,4.87,3.94,5.18,8.6,2.41,2.08-1.23,4.17-2.44,6.56-3.83,6.23,18.86,13.82,36.26,28,50V26.23c-3,.41-5.61.91-8.2,1.08-4.5.29-5.63,2.71-5.59,7,.31,33.31.43,66.63.6,100,0,1,0,2,0,3C57,103.27,56.61,68.33,56.21,32.5,53,34,50.43,35.08,48,36.28c-3,1.48-5.86,3-5.69,7.23.49,12.81.21,25.67,1.25,38.42,1.07,13.07,3.4,26,5,39.06.15,1.17-.89,2.48-1.38,3.73a16.55,16.55,0,0,1-2.73-2.24,9.65,9.65,0,0,1-1.17-2.74C37.43,104,34.42,87.7,33.2,71,32.68,63.79,32.28,56.55,31.83,49.31ZM93.92,189.75a44.61,44.61,0,0,0,4-3.2c9.75-10.47,19.9-20.61,29.06-31.57,10.2-12.18,18.93-25.58,22.51-41.3,1.53-6.74,1.88-14.4.23-21-1.22-4.93-6.53-8.84-10.41-13.69.07-.11.93-1.34,1.68-2.61,8.34-14.06,5.41-29.79-8.36-38.53-6.87-4.35-15-6.89-22.85-9.42-4.91-1.58-10.31-1.62-15.82-2.4Z"/><path class="cls-1" d="M0,71c1,6.72,1.83,13.45,3,20.14,8.8,52.09,35.51,92.94,77.86,124,2.12,1.55,4.12,3.26,6.18,4.9H0Z"/><path class="cls-1" d="M88,220c5.76-4.47,11.67-8.76,17.26-13.44,37-30.94,59.72-70.09,67.34-117.84.94-5.88,1.61-11.81,2.4-17.72V220Z"/><path class="cls-1" d="M86,0Q71.23,3.09,56.43,6.17a54.81,54.81,0,0,1-6.36,1.07c-5.42.47-9.51,2.11-9.81,8.61-.06,1.26-2,2.78-3.37,3.54a18.16,18.16,0,0,1-5.7,1.69c-5.77.91-10.4,2.74-10.83,9.76-.07,1.26-2.13,3.28-3.44,3.43C6.13,35.49-.44,40.23.71,52.18.77,52.76.25,53.39,0,54V0Z"/><path class="cls-1" d="M175,53a99.83,99.83,0,0,0-2.23-11.09,9.16,9.16,0,0,0-3.67-4.4c-1.44-1-3.43-1.19-5.23-1.47-5.86-.91-10.33-3-10.74-10-.06-1.14-1.8-2.58-3.09-3.16A28.25,28.25,0,0,0,143.35,21c-5.47-1-9.57-3-10-9.52-.07-1.2-2.49-2.93-4.06-3.25C117,5.75,104.58,3.53,92.2,1.17A20.54,20.54,0,0,1,89,0h86Z"/><path class="cls-1" d="M31.83,49.31c.45,7.24.85,14.48,1.37,21.72,1.22,16.67,4.23,33,10,48.71a9.65,9.65,0,0,0,1.17,2.74,16.55,16.55,0,0,0,2.73,2.24c.49-1.25,1.53-2.56,1.38-3.73-1.62-13-4-26-5-39.06-1-12.75-.76-25.61-1.25-38.42-.17-4.27,2.65-5.75,5.69-7.23,2.48-1.2,5-2.3,8.26-3.78.4,35.83.77,70.77,11.64,104.72,0-1,0-2,0-3-.17-33.32-.29-66.64-.6-100,0-4.24,1.09-6.66,5.59-6.95,2.59-.17,5.16-.67,8.2-1.08V188.51c-14.14-13.76-21.73-31.16-28-50-2.39,1.39-4.48,2.6-6.56,3.83-4.66,2.77-6,2.46-8.6-2.41C30.52,126,26,111,22.94,95.59c-1.7-8.63-2.56-17.43-4-26.13-.87-5.49.28-10.08,4.56-13.94,2.42-2.19,4.29-5,6.41-7.5Z"/><path class="cls-1" d="M93.92,189.75V26c5.51.78,10.91.82,15.82,2.4,7.83,2.53,16,5.07,22.85,9.42,13.77,8.74,16.7,24.47,8.36,38.53-.75,1.27-1.61,2.5-1.68,2.61,3.88,4.85,9.19,8.76,10.41,13.69,1.65,6.61,1.3,14.27-.23,21-3.58,15.72-12.31,29.12-22.51,41.3-9.16,11-19.31,21.1-29.06,31.57A44.61,44.61,0,0,1,93.92,189.75Zm13.4-34.8c11.52-8.73,27.6-35.76,29.14-48.78a18.41,18.41,0,0,0-.58-6.38c-1-4.23-4.31-6.76-8.14-5.16-6.66,2.79-13.43,6-18.88,10.57-2.23,1.86-1.25,7.68-1.5,11.71-.2,3.15,0,6.32,0,9.47Zm.23-67.32L109,89c5.65-5.18,11.82-9.92,16.8-15.68,4.82-5.56,7.29-12.48,3.51-19.84C126,47,115.62,42.1,107.55,43Z"/><path d="M107.32,155V126.38c0-3.15-.16-6.32,0-9.47.25-4-.73-9.85,1.5-11.71,5.45-4.56,12.22-7.78,18.88-10.57,3.83-1.6,7.11.93,8.14,5.16a18.41,18.41,0,0,1,.58,6.38C134.92,119.19,118.84,146.22,107.32,155Z"/><path d="M107.55,87.63V43c8.07-.87,18.41,4,21.76,10.51,3.78,7.36,1.31,14.28-3.51,19.84-5,5.76-11.15,10.5-16.8,15.68Z"/></g></g></svg>