<svg xmlns="http://www.w3.org/2000/svg" viewBox="0 0 174.85 219.84"><defs><style>.cls-1{fill:#044fb4;}.cls-2{fill:#f8fafc;}</style></defs><title>WarnerBros-color-logo</title><g id="Layer_2" data-name="Layer 2"><g id="Layer_1-2" data-name="Layer 1"><path class="cls-1" d="M80.93,0h12c1.1,2,3.17,1.45,4.83,1.77q16.14,3.12,32.31,6c2,.35,3.7.87,3.7,3.17,0,6.8,4.4,8.86,10.1,9.73,2,.3,3.84,1.08,5.8,1.45,2.42.45,4,1.62,4.06,4.2.09,6,3.72,8.23,9.1,8.87,6.6.79,11.79,3.16,11.29,11.2,0,.17.48.37.74.56v34c-1.81.8-1.29,2.58-1.47,3.91-7.8,56.13-35.81,99.76-81.69,132.38-1,.73-2.53,1-2.76,2.61h-3c-.56-2-2.57-2.44-4-3.45C37,184,9.52,140.88,1.62,85.7,1.43,84.37,2,82.57,0,81.94v-4c.91-1.33-.11-2.66,0-4V45c1.53-9,9.34-8.77,15.66-10.75a2.66,2.66,0,0,1,.49-.1c2.53-.22,4-1.6,4.06-4.13.1-6,3.76-8.23,9.05-8.93,1.31-.18,2.55-.85,3.85-1,4.81-.47,7.49-2.93,7.71-7.84.13-3,1.63-4.09,4.64-4.58C55.93,6,66.34,3.87,76.75,1.84,78.22,1.56,80.22,2.15,80.93,0ZM31.75,49.55A3.18,3.18,0,0,0,28.67,51c-2.65,2.77-5.21,5.61-7.85,8.39a6.74,6.74,0,0,0-1.64,5.54c1.85,24.58,6.7,48.44,17.18,70.92,4.36,9.35,4.59,9.46,13.16,3.85,3.3-2.16,4.2-1.35,5.24,2A134.26,134.26,0,0,0,73.1,179.75c2.14,3,4.52,5.91,6.8,8.86A9.74,9.74,0,0,0,81,183.4q0-35.72,0-71.43,0-40.2-.06-80.41c0-1.53,1-4-.91-4.44-3.61-.8-7.26.45-10.71,1.62-2.6.89-1.45,3.45-1.44,5.25q.27,52.7.68,105.38c0,.43,0,1-1.17.73C60.85,119.22,58,97.55,56.82,75.62c-.72-12.81-1-25.62-.91-38.44,0-1.17,1.17-3.27-1.41-3.45C50,33.43,42.85,40.2,42.79,44.85c-.36,25.36,1,50.58,6.12,75.5.42,2.06.84,4.14-1.77,4.94-2.77.85-2.75-1.77-3.37-3.22A121.94,121.94,0,0,1,37,100.2,236.23,236.23,0,0,1,31.75,49.55ZM93.89,188.14l1.92,1.25c3.53-4,6.92-8.11,10.62-11.94,14.86-15.37,28.78-31.44,37.93-51,4.13-8.83,7.07-18,6.35-27.93-.53-7.3-3.42-13.34-10.5-16.26-3.36-1.39-2.18-2.53-.85-4.55,9.86-14.9,6.51-31-8.43-40.67-9.59-6.22-20.44-8.51-31.55-10.08-4.23-.6-5.63.38-5.61,5.06.19,50.61.12,101.22.12,151.83Z"/><path class="cls-2" d="M0,74c-.11,1.33.91,2.66,0,4Z"/><path class="cls-2" d="M31.75,49.55A236.23,236.23,0,0,0,37,100.2a121.94,121.94,0,0,0,6.77,21.87c.62,1.45.6,4.07,3.37,3.22,2.61-.8,2.19-2.88,1.77-4.94-5.11-24.92-6.48-50.14-6.12-75.5C42.85,40.2,50,33.43,54.5,33.73c2.58.18,1.42,2.28,1.41,3.45-.09,12.82.19,25.63.91,38.44,1.22,21.93,4,43.6,10.54,64.48,1.13.31,1.17-.3,1.17-.73Q68.19,86.67,67.85,34c0-1.8-1.16-4.36,1.44-5.25,3.45-1.17,7.1-2.42,10.71-1.62,1.86.41.91,2.91.91,4.44Q81,71.76,81,112q0,35.72,0,71.43a9.74,9.74,0,0,1-1.09,5.21c-2.28-3-4.66-5.82-6.8-8.86a134.26,134.26,0,0,1-18.34-38.06c-1-3.36-1.94-4.17-5.24-2-8.57,5.61-8.8,5.5-13.16-3.85C25.88,113.35,21,89.49,19.18,64.91a6.74,6.74,0,0,1,1.64-5.54c2.64-2.78,5.2-5.62,7.85-8.39A3.18,3.18,0,0,1,31.75,49.55Z"/><path class="cls-2" d="M93.89,188.14v-4.33c0-50.61.07-101.22-.12-151.83,0-4.68,1.38-5.66,5.61-5.06,11.11,1.57,22,3.86,31.55,10.08,14.94,9.7,18.29,25.77,8.43,40.67-1.33,2-2.51,3.16.85,4.55,7.08,2.92,10,9,10.5,16.26.72,9.94-2.22,19.1-6.35,27.93-9.15,19.6-23.07,35.67-37.93,51-3.7,3.83-7.09,8-10.62,11.94Zm13-32.78c12.36-12.59,23-26,28.52-42.79a26.22,26.22,0,0,0,1.5-9.28c-.31-7.84-4.92-11.16-12.3-8.63-6,2.08-11,6.06-16.26,9.55a3.64,3.64,0,0,0-1.48,3.44Q106.89,131.5,106.86,155.36Zm0-65.9A62.45,62.45,0,0,0,123,77.4c5.77-6.19,10.47-13.23,7.53-22-2.86-8.49-10.7-11.28-18.75-13.08-.49-.11-1-.15-1.47-.28-2.53-.63-3.53.09-3.5,2.93C106.92,59.47,106.86,74,106.86,89.46Z"/><path class="cls-1" d="M106.86,155.36q0-23.85,0-47.71a3.64,3.64,0,0,1,1.48-3.44c5.24-3.49,10.21-7.47,16.26-9.55,7.38-2.53,12,.79,12.3,8.63a26.22,26.22,0,0,1-1.5,9.28C129.88,129.33,119.22,142.77,106.86,155.36Z"/><path class="cls-1" d="M106.86,89.46c0-15.51.06-30-.06-44.47,0-2.84,1-3.56,3.5-2.93.48.13,1,.17,1.47.28,8,1.8,15.89,4.59,18.75,13.08,2.94,8.75-1.76,15.79-7.53,22A62.45,62.45,0,0,1,106.86,89.46Z"/></g></g></svg>