<svg xmlns="http://www.w3.org/2000/svg" viewBox="0 0 504.74 631.66"><defs><style>.cls-1{fill:none;}.cls-2{fill:#0144ae;}.cls-3{fill:#fefefe;}.cls-4{fill:#031570;}</style></defs><title>warner-bros-color-logo</title><g id="Layer_2" data-name="Layer 2"><g id="Layer_1-2" data-name="Layer 1"><path class="cls-1" d="M0,185.7c.27,5.47.59,11,.83,16.43a514.46,514.46,0,0,0,29,150.23C71.12,468.62,144.23,560,245.9,629.22c5,3.39,8.55,3.15,13.36-.11C344.31,571.45,409.94,497,454,404a517.86,517.86,0,0,0,41.14-126.66,579.8,579.8,0,0,0,9.17-81.11A379.18,379.18,0,0,0,499,113.3c-.54-3.09-2-4.83-5.3-5.66-13.7-3.41-27.31-7.19-41-10.72-2.8-.72-4.46-1.68-5.06-5-1.26-7-3.43-13.81-4.9-20.77-.75-3.58-2.63-5.2-6.08-6.09-13.84-3.56-27.58-7.48-41.44-11-3.05-.77-4.37-2.28-5-5.07-1.35-6.15-3.15-12.22-4.07-18.42-.73-5-3.18-6.82-8-7.69-35.34-6.38-70.61-13.13-106-19.49-7.8-1.4-15.52-4.5-23.61-3-41.22,7.54-82.4,15.27-123.61,22.8-3.73.68-5.35,2.49-6,6.06-1.21,6.37-3,12.63-4.16,19-.67,3.57-2.42,5.08-6,6-13.7,3.42-27.27,7.34-40.95,10.86-3.32.85-5,2.45-5.74,5.81-1.49,7-3.56,13.86-4.9,20.87-.61,3.2-2.19,4.41-5,5.14C38.89,100.32,25.59,104,12.2,107.26c-3.95,1-5.73,2.86-6.47,6.88A366.71,366.71,0,0,0,0,185.7Z"/><path class="cls-2" d="M0,185.7a366.71,366.71,0,0,1,5.69-71.56c.74-4,2.52-5.91,6.47-6.88C25.59,104,38.89,100.32,52.26,96.9c2.84-.73,4.42-1.94,5-5.14,1.34-7,3.41-13.88,4.9-20.87.71-3.36,2.42-5,5.74-5.81,13.68-3.52,27.25-7.44,40.95-10.86,3.56-.89,5.31-2.4,6-6,1.2-6.37,3-12.63,4.16-19,.68-3.57,2.3-5.38,6-6.06C166.26,15.66,207.44,7.93,248.66.39c8.09-1.48,15.81,1.62,23.61,3,35.34,6.36,70.61,13.11,106,19.49,4.78.87,7.23,2.69,8,7.69.92,6.2,2.72,12.27,4.07,18.42.62,2.79,1.94,4.3,5,5.07,13.86,3.49,27.6,7.41,41.44,11,3.45.89,5.33,2.51,6.08,6.09,1.47,7,3.64,13.78,4.9,20.77.6,3.33,2.26,4.29,5.06,5,13.67,3.53,27.28,7.31,41,10.72,3.3.83,4.76,2.57,5.3,5.66a379.18,379.18,0,0,1,5.35,82.91,579.8,579.8,0,0,1-9.17,81.11A517.86,517.86,0,0,1,454,404c-44.1,93-109.73,167.47-194.78,225.13-4.81,3.26-8.38,3.5-13.36.11C144.23,560,71.12,468.62,29.9,352.36a514.46,514.46,0,0,1-29-150.23C.63,196.65.31,191.17,0,185.7Zm234.88,356a1.5,1.5,0,0,0,.46.19c.14,0,.39-.11.4-.18.09-1.46.2-2.93.2-4.4q0-67.68,0-135.36,0-159.09-.06-318.17c0-1.94,1.25-4.44-1.48-5.78a5.7,5.7,0,0,0-3.84-.5c-9.43,1.1-18.7,3.1-28,4.89-4.78.93-6.63,3-6.47,8,.46,14.14.41,28.3.49,42.46q.21,38,.33,76,.33,76.45.72,152.92c.09,13.65.78,27.29,1.15,40.93.05,1.54.79,3.35-1.55,4.67-2.65-4.87-3.71-10.23-5.2-15.38-20.31-70.26-26.72-142.41-28.78-215.09-.72-25.12-.32-50.26-.44-75.4,0-5.37-.69-5.82-5.78-3.72-7.7,3.18-14.78,7.68-22.36,11-8.55,3.72-10.61,9.66-10.62,18.43,0,39.14.76,78.23,3.9,117.26a839.57,839.57,0,0,0,14.55,104.24c1.65,7.86,1.67,7.7-5,11.95-3.46,2.2-5.51,1.39-7-2.08-.74-1.67-1.51-3.33-2.21-5C109.42,307.55,100.7,259.25,96,210c-2-21.22-2.87-42.5-3-63.81,0-1.71,0-3.52-1.74-4.29s-2.69.93-3.73,1.89c-6.49,6-12.23,12.79-18.81,18.59-10.3,9.06-13.75,19.85-11.5,33,0,.17,0,.34,0,.5A614.67,614.67,0,0,0,88.31,348c6.94,20.32,15.16,40.11,25.88,58.78,4.34,7.56,8.9,8.68,16,4.24,6.91-4.33,13.91-8.53,20.62-13.15,3.32-2.28,4.27-1.75,5.42,2a443.66,443.66,0,0,0,32.47,79.72,332.25,332.25,0,0,0,41,60.67C231,541.7,232.1,545.13,234.92,541.73Zm36.31-231.64q0,114,.06,227.94c0,1.64-1.18,4,1,4.88,1.82.72,2.71-1.56,4.1-2.37a9.18,9.18,0,0,0,1.45-1.35c19-17.93,37.64-36.3,55.16-55.73,32-35.48,61.32-72.85,82.1-116.22,11.89-24.82,20.68-50.5,20-78.54-.65-26-10.6-45.78-36.82-54.47-2.31-.77-2.63-1.41-1-3.28a79,79,0,0,0,9.13-13.08c17.48-30.7,15.45-65.54-5.66-91.07-11.15-13.48-25.56-22.69-41.36-29.83-26.1-11.81-53.76-17-82.11-19.32-6.07-.48-6.07-.59-6.07,5.5Q271.23,196.61,271.23,310.09Z"/><path class="cls-3" d="M234.92,541.73c-2.82,3.4-4,0-5.21-1.48a332.25,332.25,0,0,1-41-60.67,443.66,443.66,0,0,1-32.47-79.72c-1.15-3.77-2.1-4.3-5.42-2-6.71,4.62-13.71,8.82-20.62,13.15-7.09,4.44-11.65,3.32-16-4.24C103.47,388.08,95.25,368.29,88.31,348a614.67,614.67,0,0,1-31-152.09c0-.16,0-.33,0-.5-2.25-13.11,1.2-23.9,11.5-33,6.58-5.8,12.32-12.61,18.81-18.59,1-1,2-2.65,3.73-1.89s1.73,2.58,1.74,4.29c.11,21.31,1,42.59,3,63.81,4.66,49.21,13.38,97.51,32.24,143.53.7,1.69,1.47,3.35,2.21,5,1.53,3.47,3.58,4.28,7,2.08,6.68-4.25,6.66-4.09,5-11.95A839.57,839.57,0,0,1,128,244.48c-3.14-39-3.95-78.12-3.9-117.26,0-8.77,2.07-14.71,10.62-18.43,7.58-3.31,14.66-7.81,22.36-11,5.09-2.1,5.75-1.65,5.78,3.72.12,25.14-.28,50.28.44,75.4,2.06,72.68,8.47,144.83,28.78,215.09,1.49,5.15,2.55,10.51,5.2,15.38,2.34-1.32,1.6-3.13,1.55-4.67-.37-13.64-1.06-27.28-1.15-40.93q-.51-76.46-.72-152.92-.16-38-.33-76c-.08-14.16,0-28.32-.49-42.46-.16-5.07,1.69-7.1,6.47-8,9.31-1.79,18.58-3.79,28-4.89a5.7,5.7,0,0,1,3.84.5c.06,2.16.17,4.33.17,6.49q0,225.38.06,450.74C234.68,537.42,234.84,539.58,234.92,541.73Z"/><path class="cls-3" d="M271.23,310.09q0-113.47,0-226.94c0-6.09,0-6,6.07-5.5,28.35,2.27,56,7.51,82.11,19.32,15.8,7.14,30.21,16.35,41.36,29.83,21.11,25.53,23.14,60.37,5.66,91.07A79,79,0,0,1,397.31,231c-1.63,1.87-1.31,2.51,1,3.28,26.22,8.69,36.17,28.48,36.82,54.47.69,28-8.1,53.72-20,78.54C394.36,410.61,365,448,333,483.46c-17.52,19.43-36.12,37.8-55.16,55.73a9.18,9.18,0,0,1-1.45,1.35c-1.39.81-2.28,3.09-4.1,2.37-2.22-.89-1-3.24-1-4.88Q271.2,424.06,271.23,310.09ZM311,256.62c16.47-9.25,31.56-20.33,44.62-34,9.4-9.86,16.91-20.91,21-34.08,6.28-20.32,1-37.05-16-49.82-14.66-11-31.47-16.07-49.57-17.37-3.83,0-1.84,3-1.85,4.24Q309,189.29,309.07,253a15.5,15.5,0,0,0,.11,3.48C309.53,257.94,310.35,257,311,256.62Zm-1,46.22c-1.89,1.57-.91,3.71-.92,5.54q-.09,68.42-.05,136.84v6l3.13-4.1c1.17-1.13,2.44-2.18,3.52-3.41a531,531,0,0,0,39.85-51.07c14.39-21.23,27.36-43.24,34.91-68,3.87-12.64,6.6-25.47,2.61-38.66-3.5-11.58-11.31-16.73-23.26-15.53a43.06,43.06,0,0,0-12.51,3.09C340.06,281,324.92,291.69,310,302.84Z"/><path class="cls-4" d="M234.92,541.73c-.08-2.15-.24-4.31-.24-6.47q0-225.37-.06-450.74c0-2.16-.11-4.33-.17-6.49,2.73,1.34,1.48,3.84,1.48,5.78Q236,242.9,236,402q0,67.68,0,135.36c0,1.47-.11,2.94-.2,4.4,0,.07-.26.18-.4.18A1.5,1.5,0,0,1,234.92,541.73Z"/><path class="cls-2" d="M310,302.84c14.89-11.15,30-21.89,47.28-29.22a43.06,43.06,0,0,1,12.51-3.09c11.95-1.2,19.76,4,23.26,15.53,4,13.19,1.26,26-2.61,38.66-7.55,24.72-20.52,46.73-34.91,68a531,531,0,0,1-39.85,51.07c-1.08,1.23-2.35,2.28-3.52,3.41-3.4-1-2.09-3.8-2.09-5.86Q310,372.07,310,302.84Z"/><path class="cls-2" d="M311,121.31c18.1,1.3,34.91,6.35,49.57,17.37,17,12.77,22.28,29.5,16,49.82-4.07,13.17-11.58,24.22-21,34.08-13.06,13.71-28.15,24.79-44.62,34a18.48,18.48,0,0,1-1-6.85q0-61.35,0-122.69C310.06,125.12,309.65,123.06,311,121.31Z"/><path class="cls-4" d="M310,302.84q0,69.23.07,138.46c0,2.06-1.31,4.89,2.09,5.86l-3.13,4.1v-6q0-68.43.05-136.84C309.12,306.55,308.14,304.41,310,302.84Z"/><path class="cls-4" d="M311,121.31c-1.38,1.75-1,3.81-1,5.77q0,61.35,0,122.69a18.48,18.48,0,0,0,1,6.85c-.65.33-1.47,1.32-1.82-.13a15.5,15.5,0,0,1-.11-3.48q0-63.73.11-127.46C309.19,124.26,307.2,121.26,311,121.31Z"/></g></g></svg>