<?xml version="1.0" encoding="UTF-8" standalone="no"?>
<!DOCTYPE svg PUBLIC "-//W3C//DTD SVG 1.1//EN" "http://www.w3.org/Graphics/SVG/1.1/DTD/svg11.dtd">
<svg width="100%" height="100%" viewBox="0 0 63 73" version="1.1" xmlns="http://www.w3.org/2000/svg" xmlns:xlink="http://www.w3.org/1999/xlink" xml:space="preserve" xmlns:serif="http://www.serif.com/" style="fill-rule:evenodd;clip-rule:evenodd;stroke-linejoin:round;stroke-miterlimit:2;">
    <g>
        <clipPath id="_clip1">
            <rect x="0" y="0" width="63" height="72"/>
        </clipPath>
        <g clip-path="url(#_clip1)">
            <path d="M48.867,0.281C48.867,0.281 53.828,-0.187 57.711,2.363C59.121,2.297 60.258,2.902 60.996,4.246C61.734,5.594 63.07,8.817 62,10.77C61.664,11.172 60.926,9.559 60.926,9.559C60.926,9.559 60.391,11.508 59.387,12.246C59.52,16.277 57.914,19.102 57.445,20.043C57.242,20.578 57.379,21.051 57.578,21.59C57.777,22.129 60.461,31.606 60.324,34.762C60.191,37.922 58.582,41.688 57.309,42.965C57.578,45.586 56.371,47.805 55.77,48.879C55.164,49.953 53.828,53.988 53.492,55.868C53.156,57.75 53.023,59.77 53.426,60.371C53.828,60.977 55.633,62.86 55.5,63.801C55.367,64.742 53.426,65.817 52.484,65.817C51.547,65.817 49.605,65.211 49.137,63.934C48.668,62.656 48.598,60.442 48.934,59.164C49.27,57.883 51.547,48.543 50.211,43.031C46.926,44.508 41.434,44.442 41.434,44.442C41.434,44.442 40.496,49.348 39.355,52.172C38.953,52.844 39.02,57.414 39.02,60.305C39.02,63.195 40.023,67.699 40.023,67.699C40.023,67.699 41.434,68.707 41.23,69.985C41.031,71.262 39.422,72 38.016,72C36.609,72 34.734,70.926 34.734,69.176C34.734,67.43 35,63.465 34.867,60.574C34.734,57.684 34.801,55.802 34.332,53.985C33.863,52.172 32.522,47.399 32.387,43.703C31.918,43.703 31.449,43.367 31.449,43.367C31.449,43.367 29.238,45.922 27.699,47.399C27.898,48.406 28.434,50.223 28.434,50.625C28.434,51.027 28.84,51.363 29.508,51.633C30.18,51.902 32.254,53.047 32.188,54.188C32.12,55.332 29.508,55.531 27.23,54.524C26.695,54.254 24.75,47.738 24.484,46.863C24.215,45.988 24.016,45.516 24.352,44.777C24.684,44.039 25.621,41.621 25.488,40.207C25.355,38.797 22.742,36.578 21,36.578C19.66,36.578 17.613,38.633 16.108,39.805C14.301,41.215 12.227,43.367 11.688,43.703C11.152,44.039 6.934,51.703 6.129,53.918C5.793,54.793 5.125,59.164 1.574,59.027C-0.035,58.895 -1.508,57.145 3.047,53.985C4.203,51.313 5.812,48.539 5.914,47.985C6.012,47.434 7.219,40.527 9.23,33.973C11.238,27.418 14.203,24.293 14.754,23.84C15.207,23.488 15.457,23.285 15.008,23.031C14.555,22.781 9.781,18.695 10.688,10.027C10.836,9.02 11.289,9.27 11.59,11.59C11.891,13.906 13.75,19.352 17.871,21.067C18.273,21.219 21.238,18.949 36.359,17.84C36.461,15.168 36.863,12.344 36.863,12.344C36.863,12.344 35.809,11.539 35.656,9.926C35.152,10.735 34.852,10.934 34.199,10.832C33.547,10.735 33.598,7.61 33.746,5.391C33.898,3.172 36.461,2.211 37.418,2.113C38.672,1.457 40.027,1.559 40.027,1.559C40.027,1.559 42.336,-0.793 48.867,0.281Z" style="fill-rule:nonzero;"/>
        </g>
    </g>
</svg>
