<?xml version="1.0" encoding="UTF-8" standalone="no"?>
<!DOCTYPE svg PUBLIC "-//W3C//DTD SVG 1.1//EN" "http://www.w3.org/Graphics/SVG/1.1/DTD/svg11.dtd">
<svg width="100%" height="100%" viewBox="0 0 577 670" version="1.1" xmlns="http://www.w3.org/2000/svg" xmlns:xlink="http://www.w3.org/1999/xlink" xml:space="preserve" xmlnsSerif="http://www.serif.com/" style="fill-rule:evenodd;clip-rule:evenodd;stroke-linecap:round;stroke-linejoin:round;stroke-miterlimit:1.5;">
    <g transform="matrix(1,0,0,1,-10194.6,-1434.99)">
        <g transform="matrix(1,0,0,1,4599.99,583.427)">
            <g id="Compass" transform="matrix(1,0,0,1,1761.16,182.085)">
                <g transform="matrix(2.17421,0,0,2.17421,-5094.82,-1668.32)">
                    <path d="M4147.53,1330.84C4147.07,1326.03 4147.1,1325.42 4147.1,1320.49C4147.1,1236.34 4215.41,1168.02 4299.56,1168.02C4321.3,1168.02 4341.98,1172.58 4360.7,1180.8" style="fill:none;stroke:rgb(255,195,0);stroke-width:9.2px;"/>
                </g>
                <g transform="matrix(1.0584,0,0,1,-2933.53,182.229)">
                    <rect x="6393.57" y="1028.72" width="544.932" height="35.292" style="fill:rgb(1,195,129);"/>
                </g>
                <g transform="matrix(6.48083e-17,1.0584,-1,6.12323e-17,5435.54,-6097.47)">
                    <rect x="6393.57" y="1028.72" width="544.932" height="35.292" style="fill:rgb(1,195,129);"/>
                </g>
                <g transform="matrix(1,0,0,1,-46.2333,-103.784)">
                    <path d="M4147.1,1320.49C4147.1,1236.34 4215.41,1168.02 4299.56,1168.02C4383.71,1168.02 4452.03,1236.34 4452.03,1320.49" style="fill:rgb(2,136,254);"/>
                </g>
                <g transform="matrix(0.0543108,0,0,0.331131,3747.66,918.819)">
                    <rect x="4238.77" y="988.519" width="2332.07" height="279.562" style="fill:rgb(250,53,101);"/>
                </g>
            </g>
        </g>
    </g>
</svg>
