<?xml version="1.0" encoding="UTF-8" standalone="no"?>
<!DOCTYPE svg PUBLIC "-//W3C//DTD SVG 1.1//EN" "http://www.w3.org/Graphics/SVG/1.1/DTD/svg11.dtd">
<svg width="100%" height="100%" viewBox="0 0 309 579" version="1.1" xmlns="http://www.w3.org/2000/svg" xmlns:xlink="http://www.w3.org/1999/xlink" xml:space="preserve" xmlnsSerif="http://www.serif.com/" style="fill-rule:evenodd;clip-rule:evenodd;stroke-linecap:round;stroke-linejoin:round;stroke-miterlimit:1.5;">
    <g transform="matrix(1,0,0,1,-1810,-3304)">
        <g transform="matrix(1,0,0,1,-3324.77,3102.82)">
            <g id="half-circles-concentric" transform="matrix(0.980956,0,0,0.94462,-108.868,-186.216)">
                <g transform="matrix(0.86364,0,0,0.86364,707.255,240.815)">
                    <path d="M5724.88,848.138C5560.97,848.138 5427.9,715.067 5427.9,551.16C5427.9,387.254 5560.97,254.183 5724.88,254.183" style="fill:none;stroke:rgb(2,136,254);stroke-width:19.8px;"/>
                </g>
                <g transform="matrix(0.715583,0,0,0.715583,1554.87,322.419)">
                    <path d="M5724.88,848.138C5560.97,848.138 5427.9,715.067 5427.9,551.16C5427.9,387.254 5560.97,254.183 5724.88,254.183" style="fill:none;stroke:rgb(2,136,254);stroke-width:23.89px;"/>
                </g>
                <g transform="matrix(0.571233,0,0,0.571233,2381.25,401.978)">
                    <path d="M5724.88,848.138C5560.97,848.138 5427.9,715.067 5427.9,551.16C5427.9,387.254 5560.97,254.183 5724.88,254.183" style="fill:none;stroke:rgb(2,136,254);stroke-width:29.93px;"/>
                </g>
                <g transform="matrix(0.4179,0,0,0.4179,3259.06,486.489)">
                    <path d="M5724.88,848.138C5560.97,848.138 5427.9,715.067 5427.9,551.16C5427.9,387.254 5560.97,254.183 5724.88,254.183" style="fill:none;stroke:rgb(2,136,254);stroke-width:40.91px;"/>
                </g>
                <g transform="matrix(0.26145,0,0,0.26145,4151.19,572.719)">
                    <path d="M5724.88,848.138C5560.97,848.138 5427.9,715.067 5427.9,551.16C5427.9,387.254 5560.97,254.183 5724.88,254.183" style="fill:none;stroke:rgb(2,136,254);stroke-width:65.39px;"/>
                </g>
                <g transform="matrix(1,0,0,1,-73.3876,165.659)">
                    <path d="M5724.88,848.138C5560.97,848.138 5427.9,715.067 5427.9,551.16C5427.9,387.254 5560.97,254.183 5724.88,254.183" style="fill:none;stroke:rgb(2,136,254);stroke-width:17.1px;"/>
                </g>
            </g>
        </g>
    </g>
</svg>
