<?xml version="1.0" encoding="UTF-8" standalone="no"?>
<!DOCTYPE svg PUBLIC "-//W3C//DTD SVG 1.1//EN" "http://www.w3.org/Graphics/SVG/1.1/DTD/svg11.dtd">
<svg width="100%" height="100%" viewBox="0 0 745 321" version="1.1" xmlns="http://www.w3.org/2000/svg" xmlns:xlink="http://www.w3.org/1999/xlink" xml:space="preserve" xmlns:serif="http://www.serif.com/" style="fill-rule:evenodd;clip-rule:evenodd;stroke-linejoin:round;stroke-miterlimit:2;">
    <g transform="matrix(1,0,0,1,-5935,-4574)">
        <g transform="matrix(1,0,0,1,501.996,3661.44)">
            <g id="dribble-large-3" transform="matrix(1.32137,0.310604,-0.310604,1.32137,-1222.91,-2471.5)">
                <path d="M5806.86,1208.56C5784.88,1216.2 5774.45,1240.67 5761.45,1257.43C5758.62,1261.07 5752.27,1263.61 5749.13,1266.84C5742.71,1273.45 5744.3,1284.48 5736.84,1290.34C5727.93,1297.35 5708.93,1308.74 5699.06,1314.23C5685.82,1321.59 5671.6,1327.72 5656.36,1329.31C5651.34,1329.83 5646.24,1329.9 5641.22,1329.45C5632.45,1328.67 5622.54,1323.42 5613.84,1328.26C5597.3,1337.47 5586.71,1354.03 5573.68,1367.03C5562.48,1378.19 5557.62,1381.1 5542.94,1386.85C5527.27,1392.98 5509.97,1391.66 5493.6,1392.55C5480.83,1393.24 5465.42,1392.79 5455.05,1402.07C5443.23,1412.64 5440.16,1429.23 5440.49,1444.31C5440.72,1454.83 5444.1,1466.08 5436.65,1475.13C5434.61,1477.6 5432.08,1479.7 5429.35,1481.38C5418.59,1487.95 5402.38,1492.27 5395.19,1504.13C5391.81,1509.7 5392.11,1514.42 5396.3,1519.43C5402.77,1527.14 5413.32,1529.6 5422.88,1528.48C5443.18,1526.09 5461.89,1510.49 5468.76,1491.49C5471.83,1483 5473.21,1462.85 5474.28,1457.4C5476.09,1448.16 5479.49,1436.59 5488.12,1431.03C5499.99,1423.37 5511.48,1428.05 5524.61,1428.76C5546.2,1429.92 5553.24,1429.72 5574,1423.35C5582.41,1420.77 5593.61,1415.4 5598.13,1406.95C5605.66,1392.85 5610.33,1372.96 5624.97,1363.5C5643.48,1351.54 5667.03,1352.73 5687.6,1348.57C5708.68,1344.31 5730.44,1338.17 5748.54,1326.01C5760.43,1318.03 5766.73,1304.15 5776.13,1293.9C5788.04,1280.91 5800.65,1268.58 5813.23,1256.24C5818.27,1251.3 5826.01,1251.69 5831.69,1247.91C5837.08,1244.31 5841.34,1239.24 5846.57,1235.41C5855.4,1228.92 5868.19,1224.19 5875.1,1215C5878.34,1210.7 5883.32,1203.75 5882.06,1197.43C5879.62,1185.24 5864.72,1183.14 5855.13,1185.42L5806.86,1208.56Z" style="fill:rgb(2,136,254);"/>
            </g>
        </g>
    </g>
</svg>
