<?xml version="1.0" encoding="UTF-8" standalone="no"?>
<!DOCTYPE svg PUBLIC "-//W3C//DTD SVG 1.1//EN" "http://www.w3.org/Graphics/SVG/1.1/DTD/svg11.dtd">
<svg width="100%" height="100%" viewBox="0 0 218 304" version="1.1" xmlns="http://www.w3.org/2000/svg" xmlns:xlink="http://www.w3.org/1999/xlink" xml:space="preserve" xmlns:serif="http://www.serif.com/" style="fill-rule:evenodd;clip-rule:evenodd;stroke-linecap:round;stroke-linejoin:round;stroke-miterlimit:1.5;">
    <g transform="matrix(1,0,0,1,-6483,-1087)">
        <g transform="matrix(1,0,0,1,505.47,652.887)">
            <g id="dribble-small-1" transform="matrix(0.748816,0.26877,-0.428391,1.19353,2920.3,-2310.25)">
                <path d="M5012.62,1186.02C5013.93,1183.99 5009.69,1189.86 5008.09,1191.66C5004.78,1195.38 5002.05,1198.45 4996.97,1199.71C4991.53,1201.06 4985.78,1200.8 4980.37,1202.26C4964.48,1206.53 4952.84,1220.57 4946.26,1234.96C4939.21,1250.37 4937.32,1267.69 4938.11,1284.48C4938.23,1287.05 4942.35,1303.36 4942.18,1308.74C4941.98,1315.41 4941.02,1317.43 4936.26,1321.64C4932.36,1325.09 4924.6,1327.86 4923.78,1333.94C4923.24,1338.02 4926.51,1343.6 4927.84,1346.34C4932.02,1354.99 4938.66,1363.43 4936.92,1373.79C4935.58,1381.79 4932.38,1384.21 4925.25,1387.18C4918.69,1389.92 4908.65,1389.27 4906.68,1398.21C4903.62,1412.15 4910.46,1424.48 4922.76,1430.99C4940.36,1440.3 4958.95,1420.67 4970.38,1409.96C4983.54,1397.63 4998.69,1384.04 4999.59,1364.54C5000.23,1350.71 4985.48,1344.35 4982.13,1332.05C4975.96,1309.42 4979.06,1284.47 4984.57,1262.08C4987.28,1251.1 4992.43,1240.9 5000.44,1232.81C5011.5,1221.66 5028.55,1216.14 5035.31,1200.95C5039.06,1192.52 5037.81,1172.9 5024.18,1177.45" style="fill:none;stroke:rgb(1,195,129);stroke-width:20px;"/>
            </g>
        </g>
    </g>
</svg>
