<?xml version="1.0" encoding="UTF-8" standalone="no"?>
<!DOCTYPE svg PUBLIC "-//W3C//DTD SVG 1.1//EN" "http://www.w3.org/Graphics/SVG/1.1/DTD/svg11.dtd">
<svg width="100%" height="100%" viewBox="0 0 227 219" version="1.1" xmlns="http://www.w3.org/2000/svg" xmlns:xlink="http://www.w3.org/1999/xlink" xml:space="preserve" xmlns:serif="http://www.serif.com/" style="fill-rule:evenodd;clip-rule:evenodd;stroke-linecap:round;stroke-linejoin:round;stroke-miterlimit:1.5;">
    <g transform="matrix(1,0,0,1,-7821,-374)">
        <g transform="matrix(1,0,0,1,3122.93,585.182)">
            <g id="outline-4" transform="matrix(1,0,0,1,-1519.29,-901.188)">
                <path d="M6330.53,774.177C6338.26,769.785 6339.5,759.146 6342.85,752.11C6350.09,736.933 6356.45,724.435 6370.42,715.055C6383.97,705.96 6398.9,698.615 6415.14,696.075C6422.06,694.993 6432.67,696.839 6436.53,703.592C6438.94,707.811 6438.81,715.419 6438.15,720.027C6436.84,729.1 6418.43,731.618 6415.12,732.93C6407.03,736.14 6404.09,737.046 6397.99,743.42C6388.39,753.439 6400.35,769.339 6395.82,780.966C6393.81,786.142 6387.43,791.469 6383.03,794.404C6372.6,801.364 6359.37,806.847 6350.25,815.877C6333.39,832.564 6321.3,853.417 6306.79,871.969C6298.57,882.467 6286.82,897.429 6273.2,902.302C6253.89,909.21 6238.18,893.676 6230.92,877.359C6226.37,867.136 6224.28,854.536 6223.21,843.844C6221.49,826.696 6222.31,808.677 6234.17,795.089C6249.92,777.05 6277.08,776.991 6298.92,777.092C6309.07,777.139 6321.02,779.585 6330.53,774.177Z" style="fill:none;stroke:rgb(255,195,0);stroke-width:10px;"/>
            </g>
        </g>
    </g>
</svg>
