<?xml version="1.0" encoding="UTF-8" standalone="no"?>
<!DOCTYPE svg PUBLIC "-//W3C//DTD SVG 1.1//EN" "http://www.w3.org/Graphics/SVG/1.1/DTD/svg11.dtd">
<svg width="100%" height="100%" viewBox="0 0 492 351" version="1.1" xmlns="http://www.w3.org/2000/svg" xmlns:xlink="http://www.w3.org/1999/xlink" xml:space="preserve" xmlns:serif="http://www.serif.com/" style="fill-rule:evenodd;clip-rule:evenodd;stroke-linecap:round;stroke-linejoin:round;stroke-miterlimit:1.5;">
    <g transform="matrix(1,0,0,1,-208,-197)">
        <g id="Jason-Toups" serif:id="Jason Toups">
            <g id="Toups">
                <path d="M403.918,390.647C405.725,390.63 409.441,393.083 405.053,393.083C386.72,393.083 369.135,393.93 351.892,386.54C350.287,385.852 346.568,384.503 347.802,383.268C351.406,379.665 462.313,386.985 476.207,385.722C487.223,384.72 501.775,384.721 512.193,380.815C513.827,380.202 517.516,378.778 516.282,377.543C511.993,373.254 477.749,397.28 473.753,400.443C440.018,427.15 410.245,457.85 378.063,486.319C371.209,492.382 355.515,510.037 345.349,510.037" style="fill:none;stroke:black;stroke-width:5px;"/>
                <path d="M459.569,440.783C459.569,440.783 416.909,458.573 428.947,474.01C440.451,488.762 475.16,460.527 470.658,445.385C466.02,429.783 440.247,451.577 447.758,458.471C463.276,472.714 504.832,444.608 504.832,444.608C504.832,444.608 481.087,468.181 490.564,476.298C500.788,485.054 531.309,445.496 531.309,445.496C531.309,445.496 513.196,484.024 529.368,478.14C548.006,471.36 571.897,438.883 571.897,438.883C571.897,438.883 561.996,462.759 557.175,471.597C545.548,492.915 488.361,554.132 489.293,543.569C490.447,530.475 585.766,418.094 598.329,437.46C608.579,453.261 556.357,478.14 556.357,478.14C556.357,478.14 581.906,479.832 604.4,467.629C639.274,448.709 667.518,411.63 651.229,415.983C632.769,420.915 678.146,464.736 622.642,468.669C618.618,468.955 671.937,489.814 697.368,446.411" style="fill:none;stroke:black;stroke-width:5px;"/>
            </g>
            <path id="Jason" d="M339.507,293.756C310.084,325.22 185.648,378.723 222.139,315.229C250.834,265.297 412.782,220.606 402.261,202.503C390.359,182.024 322.627,291.185 288.128,324.639C273.16,339.153 214.063,415.359 211.219,397.99C207.644,376.156 330.419,341.051 377.046,316.67C394.071,307.768 408.347,289.763 399.217,285.302C386.806,279.237 345.783,313.768 351.892,322.032C355.071,326.333 377.736,315.774 377.046,316.67C370.536,325.121 383.829,325.827 387.878,324.382C415.688,314.456 425.746,283.675 425.746,283.675C425.746,283.675 453.687,336.49 396.623,328.375C381.911,326.283 427.422,346.239 462.14,301.286C467.843,293.903 445.869,326.014 457.2,328.834C477.803,333.962 497.629,299.817 488.767,287.916C481.393,278.012 448.341,307.615 468.533,305.3C477.219,304.304 483.485,298.798 488.231,295.952C529.757,271.05 499.041,323.389 499.041,323.389C499.041,323.389 522.705,267.309 539.996,288.181C545.572,294.911 536.502,308.359 532.559,316.968C526.928,329.262 565.311,327.005 582.304,293.922" style="fill:none;stroke:black;stroke-width:4.96px;"/>
        </g>
    </g>
</svg>
