<?xml version="1.0" encoding="UTF-8" standalone="no"?>
<!DOCTYPE svg PUBLIC "-//W3C//DTD SVG 1.1//EN" "http://www.w3.org/Graphics/SVG/1.1/DTD/svg11.dtd">
<svg width="100%" height="100%" viewBox="0 0 358 174" version="1.1" xmlns="http://www.w3.org/2000/svg" xmlns:xlink="http://www.w3.org/1999/xlink" xml:space="preserve" xmlns:serif="http://www.serif.com/" style="fill-rule:evenodd;clip-rule:evenodd;stroke-linecap:round;stroke-linejoin:round;stroke-miterlimit:1.5;">
    <g transform="matrix(1,0,0,1,-342,-374)">
        <g id="Toups">
            <path d="M403.918,390.647C405.725,390.63 409.441,393.083 405.053,393.083C386.72,393.083 369.135,393.93 351.892,386.54C350.287,385.852 346.568,384.503 347.802,383.268C351.406,379.665 462.313,386.985 476.207,385.722C487.223,384.72 501.775,384.721 512.193,380.815C513.827,380.202 517.516,378.778 516.282,377.543C511.993,373.254 477.749,397.28 473.753,400.443C440.018,427.15 410.245,457.85 378.063,486.319C371.209,492.382 355.515,510.037 345.349,510.037" style="fill:none;stroke:black;stroke-width:5px;"/>
            <path d="M459.569,440.783C459.569,440.783 416.909,458.573 428.947,474.01C440.451,488.762 475.16,460.527 470.658,445.385C466.02,429.783 440.247,451.577 447.758,458.471C463.276,472.714 504.832,444.608 504.832,444.608C504.832,444.608 481.087,468.181 490.564,476.298C500.788,485.054 531.309,445.496 531.309,445.496C531.309,445.496 513.196,484.024 529.368,478.14C548.006,471.36 571.897,438.883 571.897,438.883C571.897,438.883 561.996,462.759 557.175,471.597C545.548,492.915 488.361,554.132 489.293,543.569C490.447,530.475 585.766,418.094 598.329,437.46C608.579,453.261 556.357,478.14 556.357,478.14C556.357,478.14 581.906,479.832 604.4,467.629C639.274,448.709 667.518,411.63 651.229,415.983C632.769,420.915 678.146,464.736 622.642,468.669C618.618,468.955 671.937,489.814 697.368,446.411" style="fill:none;stroke:black;stroke-width:5px;"/>
        </g>
    </g>
</svg>
