<?xml version="1.0" encoding="UTF-8" standalone="no"?>
<!DOCTYPE svg PUBLIC "-//W3C//DTD SVG 1.1//EN" "http://www.w3.org/Graphics/SVG/1.1/DTD/svg11.dtd">
<svg width="100%" height="100%" viewBox="0 0 70 159" version="1.1" xmlns="http://www.w3.org/2000/svg" xmlns:xlink="http://www.w3.org/1999/xlink" xml:space="preserve" xmlns:serif="http://www.serif.com/" style="fill-rule:evenodd;clip-rule:evenodd;stroke-linejoin:round;stroke-miterlimit:2;">
    <g transform="matrix(1,0,0,1,-8762,-3901)">
        <g transform="matrix(0.446014,0,0,0.446014,7013.5,3883.68)">
            <g id="semicolon" transform="matrix(1,0,0,1,2660.83,-1390.6)">
                <path d="M1339.56,1549.12C1349.53,1549.12 1359,1547.82 1367.97,1545.23C1376.94,1542.64 1384.81,1538.75 1391.59,1533.57C1398.36,1528.39 1403.75,1522.31 1407.73,1515.33C1411.72,1508.36 1413.71,1500.28 1413.71,1491.11C1413.71,1473.17 1405.74,1458.22 1389.79,1446.26C1374.64,1435.5 1357.9,1430.12 1339.56,1430.12C1323.22,1428.52 1306.27,1433.7 1288.73,1445.66C1269.6,1459.22 1260.23,1475.77 1260.62,1495.3C1261.02,1510.85 1268.5,1523.7 1283.05,1533.87C1297.6,1544.04 1316.44,1549.12 1339.56,1549.12ZM1405.34,1708.79C1412.52,1696.43 1416.11,1684.07 1416.11,1671.71C1416.11,1650.58 1407.13,1633.44 1389.19,1620.28C1373.65,1608.32 1356.9,1602.94 1338.96,1604.13C1334.58,1604.13 1331.39,1604.34 1329.39,1604.73C1300.69,1607.92 1280.76,1618.29 1269.6,1635.83C1264.01,1642.61 1260.82,1651.78 1260.03,1663.34C1259.63,1678.09 1266.61,1690.65 1280.96,1701.01C1293.32,1709.78 1305.08,1713.57 1316.24,1712.37L1326.4,1712.37L1324.61,1715.36L1322.22,1718.35L1319.83,1722.54L1315.64,1727.92L1301.89,1744.07L1289.33,1757.22L1286.34,1760.21C1283.15,1763.4 1281.56,1766.79 1281.56,1770.38C1281.56,1780.35 1290.53,1785.33 1308.46,1785.33C1312.85,1784.53 1321.02,1780.94 1332.98,1774.57C1338.96,1771.38 1344.05,1768.49 1348.23,1765.89C1352.42,1763.3 1355.91,1761.01 1358.7,1759.02C1380.23,1741.88 1395.77,1725.13 1405.34,1708.79Z" style="fill:rgb(255,195,0);fill-rule:nonzero;"/>
            </g>
        </g>
    </g>
</svg>
