<?xml version="1.0" encoding="UTF-8" standalone="no"?>
<!DOCTYPE svg PUBLIC "-//W3C//DTD SVG 1.1//EN" "http://www.w3.org/Graphics/SVG/1.1/DTD/svg11.dtd">
<svg width="100%" height="100%" viewBox="0 0 412 475" version="1.1" xmlns="http://www.w3.org/2000/svg" xmlns:xlink="http://www.w3.org/1999/xlink" xml:space="preserve" xmlnsSerif="http://www.serif.com/" style="fill-rule:evenodd;clip-rule:evenodd;stroke-linejoin:round;stroke-miterlimit:2;">
    <g transform="matrix(1,0,0,1,-49.8593,-18.8902)">
        <path d="M100.4,491.1C95.5,488.1 92.7,483.4 92.2,477.4C91.6,470.5 92.4,467.8 96.1,463.5C98.696,461.349 98.335,462.003 100.4,461.2C104.35,458.999 101.1,455.9 93.3,447.6C62.9,415.5 50.8,369.8 58.5,316.6C62.5,289.2 61.973,292.112 66,280.5C67.601,275.885 81.9,245.8 96.3,224.3C117.9,192.2 126.062,164.452 126.1,157C126.2,137.2 121.4,116.7 113,99.9C109.2,92.4 98.8,77.1 95.4,74C94.346,73.016 93.687,72.181 93.388,71.771C93.262,71.597 93.2,71.5 93.2,71.5L83,60.3C73.6,49.9 73.832,47.807 72.6,50.1C68.634,53.577 60.4,50.7 57.3,48.4C49.7,42.7 47.6,33 52.5,25.7C57.5,18.5 47.1,18.701 187,19C302.191,19.246 292.715,18.763 300.609,21.099C315.886,25.62 317.387,36.268 313.315,42.608C312.005,44.648 302,68.9 301.5,73C301.3,74.7 302.141,74.448 302.4,73.9C303.359,71.238 331.2,59.6 340.5,58.5C340.5,58.5 346.3,57.3 348.5,56.9C356.7,55.3 378.1,56 387.2,58C414.9,62.221 423.389,70.032 437.17,83.496C445.87,91.996 452.8,104.2 456,112.8C460.6,125 461.4,130 461.5,145.5C461.5,162.4 460.1,170.8 454.4,187.9C447.1,210 439.3,223.1 413.6,256.4C405.6,266.7 398.1,276.7 396.9,278.6C395.8,280.5 394.2,282.6 390.3,288.7C383.4,299.5 378,313.2 376,324.8C375.4,328.3 370.7,337.2 377.1,356.8C379,362.6 381,364.3 381,360.1C381,359.1 383.668,350.527 388.123,346.964C390.648,344.945 395.3,344 400,344C411.4,344 425.172,345.994 425.364,369.405C425.39,372.662 423.355,379.113 420.607,384.805C419.273,387.567 414.8,393.7 412.3,396.9C412.3,396.9 407.3,401.6 405.8,402.9C404.8,403.6 398.1,409.7 391.3,411.1C386.5,412.1 383.7,412.1 379,411.2C371.9,409.9 360.4,404.2 358.9,402.3C357.7,400.8 357.5,401 356.5,400.8C355.3,400.6 354,402.6 351.4,409C349.4,413.7 347.4,418 346.9,418.5C346.3,419.1 338.3,431.2 330.6,440.4C327.3,444.3 318.8,453 316.8,454.9C312.7,458.6 312.636,460.231 316.5,460.2C318.873,460.181 318.897,459.665 322.059,460.66C323.906,461.24 324.466,461.701 326.081,463.997C331.061,471.073 330,480.6 324.8,486.6C318.8,493.5 327,493 209.8,493C107.2,493 103.4,492.9 100.4,491.1ZM368.3,250.8C372.6,245.3 376.1,240.6 379.1,237.3C380.4,235.9 381.1,234.6 384.1,231.3C385.4,229.9 387.5,226.7 389.5,224.5C391.5,222.3 396,216.8 399.4,212.3C417.5,188.3 424.9,168.2 423.7,146.5C423.2,136.1 419.578,123.641 416.5,118.5C414.998,115.992 413.303,113.56 411.262,111.468C409.186,109.339 406.839,107.684 404.046,105.731C401.677,104.075 401.6,104.3 397,102C380.4,93.5 350.7,96.1 326.8,108.1C320.5,111.3 319.2,112.4 318.1,112.9C315.5,114.3 313.9,115.5 313.1,115.8C312.2,116.1 310.9,117.5 310.1,117.8C309.3,118.1 308.8,118.5 307.6,119.8C305.3,122.4 303.306,123.501 302.348,124.361C302.015,124.66 299.6,126.9 296.7,129.6C293.9,132.3 291.6,137.1 291.6,141.9C291.9,157 298.7,182.2 307.5,200.8C312.6,211.4 311.962,210.428 312.3,211C312.707,211.689 316.629,218.542 317.7,220.7C318.185,221.678 320.9,226.9 325.6,234C334.3,247.3 343.1,263.4 347,273.2L349.3,278.9L354.9,269.9C358,264.9 364,256.3 368.3,250.8Z" style="fill:rgb(57,121,240);fill-rule:nonzero;"/>
    </g>
</svg>
