<?xml version="1.0" encoding="UTF-8" standalone="no"?>
<!DOCTYPE svg PUBLIC "-//W3C//DTD SVG 1.1//EN" "http://www.w3.org/Graphics/SVG/1.1/DTD/svg11.dtd">
<svg width="100%" height="100%" viewBox="0 0 103 156" version="1.1" xmlns="http://www.w3.org/2000/svg" xmlns:xlink="http://www.w3.org/1999/xlink" xml:space="preserve" xmlns:serif="http://www.serif.com/" style="fill-rule:evenodd;clip-rule:evenodd;stroke-linecap:round;stroke-linejoin:round;stroke-miterlimit:1.5;">
    <g transform="matrix(1,0,0,1,-11357.9,-428.948)">
        <g transform="matrix(1,0,0,1,6431.85,589.285)">
            <g id="outline-7" transform="matrix(1,0,0,1,-478.532,-937.413)">
                <path d="M5498.72,786.803C5490.56,777.013 5475.52,784.068 5469.93,793.147C5466.77,798.278 5463.83,803.628 5461.84,809.317C5458.64,818.46 5460.1,832.235 5453.63,840.495C5440.83,856.854 5422.89,866.309 5415.14,886.634C5412.12,894.543 5406.49,910.262 5411.75,919.397C5420.67,934.866 5441.14,923.662 5450.31,915.763C5453.51,913.008 5456.47,909.923 5458.97,906.525C5470.41,890.993 5468.17,889.874 5476.98,872.611C5483.78,859.267 5495.4,842.323 5499.52,826.542C5502.14,816.554 5502.64,808.228 5501.91,798.291C5501.69,795.281 5500.92,789.441 5498.72,786.803Z" style="fill:none;stroke:rgb(107,79,140);stroke-width:10px;"/>
            </g>
        </g>
    </g>
</svg>
