<?xml version="1.0" encoding="UTF-8" standalone="no"?>
<!DOCTYPE svg PUBLIC "-//W3C//DTD SVG 1.1//EN" "http://www.w3.org/Graphics/SVG/1.1/DTD/svg11.dtd">
<svg width="100%" height="100%" viewBox="0 0 487 190" version="1.1" xmlns="http://www.w3.org/2000/svg" xmlns:xlink="http://www.w3.org/1999/xlink" xml:space="preserve" xmlns:serif="http://www.serif.com/" style="fill-rule:evenodd;clip-rule:evenodd;stroke-linecap:round;stroke-linejoin:round;stroke-miterlimit:1.5;">
    <g transform="matrix(1,0,0,1,-9358.87,-2122.01)">
        <g transform="matrix(1,0,0,1,4599.99,583.427)">
            <g transform="matrix(1.12892,0,0,1,-2543.79,309.195)">
                <g id="horizontal-lines-2">
                    <g id="horizontal-lines" serif:id="horizontal lines">
                        <g transform="matrix(0.97495,0,0,1,167.393,-51.2808)">
                            <path d="M6899.51,1287.06L6469.04,1287.06" style="fill:none;stroke:rgb(1,136,254);stroke-width:12.15px;"/>
                        </g>
                        <g transform="matrix(0.97495,0,0,1,167.393,-29.2318)">
                            <path d="M6899.51,1287.06L6469.04,1287.06" style="fill:none;stroke:rgb(1,136,254);stroke-width:12.15px;"/>
                        </g>
                        <g transform="matrix(0.97495,0,0,1,167.393,-7.18283)">
                            <path d="M6899.51,1287.06L6469.04,1287.06" style="fill:none;stroke:rgb(1,136,254);stroke-width:12.15px;"/>
                        </g>
                        <g transform="matrix(0.97495,0,0,1,167.393,14.8662)">
                            <path d="M6899.51,1287.06L6469.04,1287.06" style="fill:none;stroke:rgb(1,136,254);stroke-width:12.15px;"/>
                        </g>
                        <g transform="matrix(0.97495,0,0,1,167.393,36.9152)">
                            <path d="M6899.51,1287.06L6469.04,1287.06" style="fill:none;stroke:rgb(1,136,254);stroke-width:12.15px;"/>
                        </g>
                        <g transform="matrix(0.97495,0,0,1,167.393,58.9642)">
                            <path d="M6899.51,1287.06L6469.04,1287.06" style="fill:none;stroke:rgb(1,136,254);stroke-width:12.15px;"/>
                        </g>
                        <g transform="matrix(0.97495,0,0,1,167.393,81.0132)">
                            <path d="M6899.51,1287.06L6469.04,1287.06" style="fill:none;stroke:rgb(1,136,254);stroke-width:12.15px;"/>
                        </g>
                        <g transform="matrix(0.97495,0,0,1,167.393,103.062)">
                            <path d="M6899.51,1287.06L6469.04,1287.06" style="fill:none;stroke:rgb(1,136,254);stroke-width:12.15px;"/>
                        </g>
                        <g transform="matrix(0.97495,0,0,1,167.393,125.111)">
                            <path d="M6899.51,1287.06L6469.04,1287.06" style="fill:none;stroke:rgb(1,136,254);stroke-width:12.15px;"/>
                        </g>
                    </g>
                </g>
            </g>
        </g>
    </g>
</svg>
