<?xml version="1.0" encoding="utf-8"?>
<!-- Generator: Adobe Illustrator 19.2.1, SVG Export Plug-In . SVG Version: 6.00 Build 0)  -->
<svg version="1.1" id="layer" xmlns="http://www.w3.org/2000/svg" xmlns:xlink="http://www.w3.org/1999/xlink" x="0px" y="0px"
	 viewBox="0 0 652 652" style="enable-background:new 0 0 652 652;" xml:space="preserve">
<style type="text/css">
	.st0{fill:#241F21;}
</style>
<path class="st0" d="M77.2,297.3c-4.9,0.2-5.9,1-5.9,6.2v36c0,5.3,1,6,5.9,6.2v1.5c-2.3-0.1-5.9-0.2-9.2-0.2c-3.8,0-7.3,0.1-9.3,0.2
	v-1.5c4.9-0.2,5.8-0.9,5.8-6.2v-38.8L47,347.5h-1.2l-18.3-47.1v38.3c0,5.3,0.9,6.8,6.6,7v1.5c-1.7-0.1-4.9-0.2-7.4-0.2
	c-2.4,0-5.1,0.1-6.7,0.2v-1.5c4.9-0.2,5.9-1.7,5.9-7v-35.3c0-5.3-1-6-5.9-6.2v-1.5c1.6,0.1,4.3,0.2,6.7,0.2c2.1,0,4.6-0.1,6.2-0.2
	l15.9,42.1L64.5,296H68c3.3,0,6.9-0.1,9.2-0.2V297.3z"/>
<path class="st0" d="M100.5,304.6l-8.3,21.6h16.4L100.5,304.6z M121.3,341.1c1.5,3.7,3.5,4.6,5,4.6v1.5c-2-0.1-5-0.2-7.8-0.2
	c-3.8,0-7.2,0.1-9.3,0.2v-1.5c3.5-0.1,5.1-0.7,5.1-2.7c0-0.9-0.3-2-0.9-3.4l-4.5-11.9H91.6l-3,7.7c-1,2.5-1.5,4.5-1.5,6
	c0,3.2,2.2,4.3,6.3,4.4v1.5c-2.8-0.1-5.8-0.2-8.4-0.2c-2.4,0-4,0.1-5.4,0.2v-1.5c1.9-0.4,4-1.9,5.7-6.3l17.1-44h1.2L121.3,341.1z"/>
<path class="st0" d="M141.9,303.5v17.9h4.9c10.3,0,12.5-5.4,12.5-12c0-7.6-3.3-12-12-12C142.9,297.3,141.9,298.5,141.9,303.5
	 M174.2,343.6c-2.1,3-3.9,4.6-7.8,4.6c-3.7,0-6.4-1.7-7.8-7.9l-1.6-7.2c-1.4-6.2-2.4-10.3-8.2-10.3h-6.9v16.7c0,5.3,1,6,5.9,6.2v1.5
	c-2.2-0.1-5.9-0.2-9.2-0.2c-3.8,0-7.3,0.1-9.3,0.2v-1.5c4.9-0.2,5.9-1,5.9-6.2v-36c0-5.3-1-6-5.9-6.2v-1.5c2,0.1,5.7,0.2,8.9,0.2
	c4.6,0,9.2-0.1,11-0.1c11.7,0,17.5,5.5,17.5,12.6c0,5-3.2,12.3-14.1,14l0.9,0.1c6.4,1.1,8.8,3.5,10.2,9.6l1.8,7.4
	c0.9,4.2,1.7,6,3.7,6c1.8,0,2.6-1.1,4-2.8L174.2,343.6z"/>
<path class="st0" d="M216.2,341.3c1.6,2.4,3.4,3.7,6.4,4.4v1.5c-2.3-0.1-6.3-0.2-8.7-0.2c-1.7,0-3.9,0-7.5,0.2v-1.5
	c2.2-0.1,3.3-0.5,3.3-1.5c0-0.5-0.2-1-0.7-1.7l-10.6-16c-2.9-4.4-4.3-5.1-7.6-5.3v18.3c0,5.3,1,6,5.9,6.2v1.5
	c-2.2-0.1-5.9-0.2-9.2-0.2c-3.8,0-7.3,0.1-9.3,0.2v-1.5c4.9-0.2,5.9-1,5.9-6.2v-36c0-5.3-0.9-6-5.9-6.2v-1.4c2,0.1,5.5,0.2,9.3,0.2
	c3.3,0,7-0.1,9.2-0.2v1.4c-4.9,0.2-5.9,1-5.9,6.2v16.3c3.9-0.1,6.5-1.8,8.3-4.1l6.9-8.9c2.4-3,3.7-5.3,3.7-6.9
	c0-1.7-1.4-2.6-4.5-2.6v-1.4c2.8,0.1,5.8,0.2,8.3,0.2c2.5,0,4.7-0.1,6.2-0.2v1.4c-3,0.4-5.8,1.7-8.6,5.3l-11.8,15.2L216.2,341.3z"/>
<path class="st0" d="M294.9,304.6c0,4.9-3.1,8.3-6.9,10.2c-2.3,1.1-6.6,2.5-10.8,3.8c5.7,2.4,7.9,7.1,7.9,12.3
	c0,8.8-8.1,17.4-22.1,17.4c-12.5,0-23.5-6.9-23.5-18.1c0-10.5,9.7-14.5,13.4-15.5c-4.9-2.1-7.3-5.8-7.3-9.4c0-4.7,4.2-9.1,12.3-9.1
	c3.7,0,6,1,7.5,2.2c1.9,1.5,2.7,3.5,2.7,5c0,2.4-2.1,3.9-4.1,3.9c-2,0-3.8-1.3-3.8-3.7c0-2.1,1.6-3.8,3.9-4
	c-0.4-1.2-2.6-2.3-5.5-2.3c-4.9,0-8.4,3.1-8.4,8.6c0,2.7,0.8,5.6,3.7,8.3c1.7-0.3,3.6-0.4,4.5-0.4c1.7,0,2.9,0.6,2.9,1.7
	c0,0.9-0.8,1.4-2,1.4c-1.8,0-4.1-1.1-5.3-1.6c-5.6,1.7-9.4,5.1-9.4,11.9c0,10,8.6,15.7,19.5,15.7c10.2,0,19.1-5,19.1-13.3
	c0-2.6-0.9-7.9-7.3-10.5c-3.3,1-6.4,2-8.4,2.8c-3.6,1.4-6.4,3.2-6.4,6.3c0,3.8,3.9,5.8,6.7,5.8c1.3,0,4.1-0.5,4.4-1.6
	c-1.5-0.3-3.4-1.2-3.4-3.7c0-2.3,1.7-3.8,4-3.8c2.3,0,3.9,1.6,3.9,3.9c0,4.1-4.8,6.2-8.6,6.2c-4.1,0-9-2.5-9-8.5
	c0-5,3.4-8.3,10-10.6c4.4-1.5,12.3-3.3,17.7-5.7c4.9-2.3,6.2-4.5,6.2-7c0-4.1-3.9-7.3-8.4-7.3c-1.2,0-2,0.2-2.2,0.6
	c1.3,0.7,2,2.1,2,3.4c0,2-1.9,3.5-4.1,3.5c-1.9,0-3.8-1.2-3.8-3.6c0-3.8,4.5-5,8-5C290.3,294.8,294.9,298.4,294.9,304.6"/>
<path class="st0" d="M349.7,299.5c0.6,0.5,1,0.7,1.5,0.7c0.9,0,1.5-1.4,1.8-4.4h1.7c-0.2,3.5-0.3,8.3-0.3,16.7h-1.7
	c-0.7-4.1-1.4-8-3.7-10.7c-2.8-3.5-7.7-5.7-12.5-5.7c-9.6,0-16,9.9-16,25.5c0,17.4,5.5,25.2,17.3,25.2c3.5,0,6.1-1.2,7.5-2.3
	c1.8-1.2,2.1-2.2,2.1-4v-7c0-5.9-1.2-6.7-7.3-7v-1.5c2.6,0.2,7,0.2,10.2,0.2c3.2,0,5.8-0.1,7.5-0.2v1.5c-3.2,0.2-3.7,0.9-3.7,6.2
	v14.4h-1.4c-0.1-1.7-0.7-4.1-2-4.1c-0.6,0-0.9,0.1-2.4,1.2c-3.2,2.4-6.6,3.9-11.3,3.9c-15,0-23.8-9.7-23.8-25.8
	c0-16.9,9.8-27.6,23.3-27.6C342.9,294.8,346.3,297,349.7,299.5"/>
<path class="st0" d="M377.8,303.5v17.9h4.9c10.3,0,12.5-5.4,12.5-12c0-7.6-3.3-12-12-12C378.8,297.3,377.8,298.5,377.8,303.5
	 M410.1,343.6c-2.1,3-3.9,4.6-7.8,4.6c-3.6,0-6.4-1.7-7.8-7.9l-1.6-7.2c-1.4-6.2-2.4-10.3-8.2-10.3h-6.9v16.7c0,5.3,1,6,5.9,6.2v1.5
	c-2.2-0.1-5.9-0.2-9.2-0.2c-3.8,0-7.3,0.1-9.3,0.2v-1.5c4.9-0.2,5.9-1,5.9-6.2v-36c0-5.3-1-6-5.9-6.2v-1.5c2,0.1,5.7,0.2,8.9,0.2
	c4.6,0,9.2-0.1,11-0.1c11.7,0,17.5,5.5,17.5,12.6c0,5-3.2,12.3-14.1,14l0.9,0.1c6.4,1.1,8.8,3.5,10.2,9.6l1.8,7.4
	c0.9,4.2,1.7,6,3.7,6c1.8,0,2.6-1.1,4-2.8L410.1,343.6z"/>
<path class="st0" d="M431.3,304.6l-8.3,21.6h16.4L431.3,304.6z M452.1,341.1c1.5,3.7,3.5,4.6,5,4.6v1.5c-2-0.1-5-0.2-7.8-0.2
	c-3.8,0-7.2,0.1-9.3,0.2v-1.5c3.5-0.1,5.1-0.7,5.1-2.7c0-0.9-0.3-2-0.9-3.4l-4.5-11.9h-17.5l-3,7.7c-1,2.5-1.5,4.5-1.5,6
	c0,3.2,2.2,4.3,6.3,4.4v1.5c-2.8-0.1-5.8-0.2-8.4-0.2c-2.4,0-4,0.1-5.4,0.2v-1.5c1.9-0.4,4-1.9,5.7-6.3l17.1-44h1.2L452.1,341.1z"/>
<path class="st0" d="M509,297.3c-4.9,0.2-5.9,1-5.9,6.2v36c0,5.3,1,6,5.9,6.2v1.5c-2-0.1-5.5-0.2-9.3-0.2c-3.3,0-6.9,0.1-9.2,0.2
	v-1.5c4.9-0.2,5.9-0.9,5.9-6.2v-17.4h-23.6v17.4c0,5.3,1,6,5.9,6.2v1.5c-2.2-0.1-5.9-0.2-9.2-0.2c-3.8,0-7.3,0.1-9.3,0.2v-1.5
	c4.9-0.2,5.9-0.9,5.9-6.2v-36c0-5.3-1-6-5.9-6.2v-1.5c2,0.1,5.5,0.2,9.3,0.2c3.3,0,7-0.1,9.2-0.2v1.5c-4.9,0.2-5.9,1-5.9,6.2v17.1
	h23.6v-17.1c0-5.3-1-6-5.9-6.2v-1.5c2.3,0.1,5.9,0.2,9.2,0.2c3.8,0,7.3-0.1,9.3-0.2V297.3z"/>
<path class="st0" d="M534.1,304.6l-8.3,21.6h16.4L534.1,304.6z M555,341.1c1.5,3.7,3.5,4.6,5,4.6v1.5c-2-0.1-5-0.2-7.8-0.2
	c-3.8,0-7.2,0.1-9.3,0.2v-1.5c3.5-0.1,5.1-0.7,5.1-2.7c0-0.9-0.3-2-0.8-3.4l-4.5-11.9h-17.5l-3,7.7c-1,2.5-1.5,4.5-1.5,6
	c0,3.2,2.2,4.3,6.3,4.4v1.5c-2.8-0.1-5.8-0.2-8.4-0.2c-2.4,0-4,0.1-5.4,0.2v-1.5c1.9-0.4,4-1.9,5.7-6.3l17.1-44h1.2L555,341.1z"/>
<path class="st0" d="M620,297.3c-4.9,0.2-5.9,1-5.9,6.2v36c0,5.3,1,6,5.9,6.2v1.5c-2.3-0.1-5.9-0.2-9.2-0.2c-3.8,0-7.3,0.1-9.3,0.2
	v-1.5c4.9-0.2,5.8-0.9,5.8-6.2v-38.8l-17.5,46.9h-1.2l-18.3-47.1v38.3c0,5.3,0.9,6.8,6.6,7v1.5c-1.7-0.1-4.9-0.2-7.4-0.2
	c-2.4,0-5.1,0.1-6.7,0.2v-1.5c4.9-0.2,5.9-1.7,5.9-7v-35.3c0-5.3-1-6-5.9-6.2v-1.5c1.6,0.1,4.3,0.2,6.7,0.2c2.1,0,4.6-0.1,6.2-0.2
	l15.9,42.1l15.6-41.9h3.4c3.3,0,6.9-0.1,9.2-0.2V297.3z"/>
</svg>
