<svg width="190px" height="34px" viewBox="0 0 385 69" version="1.1" role="img" xmlns="http://www.w3.org/2000/svg" xmlns:xlink="http://www.w3.org/1999/xlink">
<title>West Elm</title>
<desc>West Elm offers modern furniture and home decor featuring inspiring designs and colors.</desc>
<defs></defs>
<g class="west-elm__logo-outer" stroke="none" stroke-width="1" fill="none" fill-rule="evenodd">
<g class="west-elm__logo" fill="#565458">
<g class="west-elm__logo-inner">
<path d="M371.8148,19.4978 C364.8178,19.5228 361.0758,22.9968 358.6098,25.6918 C357.5108,26.8938 357.2048,27.4498 356.6688,27.4278 C356.1328,27.4058 356.0068,26.8248 355.5038,25.8128 C354.9618,24.8318 352.6128,19.6708 345.5178,19.6708 C338.6058,19.6708 334.4318,23.7418 332.1598,26.0138 C331.6688,26.5048 330.7378,26.8378 330.7378,25.7858 L330.7378,21.8148 C330.7378,20.2208 330.3158,20.2208 327.7138,20.2308 C325.1838,20.2388 324.3938,20.2338 324.3978,21.8358 L324.3978,67.4848 C324.4038,68.7228 325.1888,68.6938 327.6778,68.6938 C329.6918,68.6938 330.8968,68.7588 330.8968,67.4848 L330.8968,44.7018 C330.8968,33.4868 336.1978,26.2378 342.9718,26.2148 C349.8498,26.1898 351.1028,32.3428 351.1208,37.1348 L351.1208,67.7578 C351.1208,69.1088 352.3128,68.6938 354.2088,68.6938 C356.1428,68.6938 357.4658,69.0668 357.4658,67.7578 L357.4658,44.7018 C357.4658,33.4868 362.5578,26.2438 370.4188,26.2148 C376.3148,26.1938 377.9758,31.0178 377.9938,35.7848 L377.9938,67.1848 C377.9938,68.7588 378.4718,68.6978 381.0588,68.6978 C383.6458,68.6978 384.4228,68.5458 384.4228,67.1848 L384.4228,34.0848 C384.3908,24.8628 379.0888,19.4728 371.8148,19.4978" class="west-elm__logo-letter-w"></path>
<path d="M303.7386,1.7078 C303.7386,0.6488 303.5866,-0.0002 302.4886,-0.0002 L291.6456,0.1828 C290.8496,0.1828 290.9726,0.8498 290.9726,3.1158 C290.9726,4.7848 290.9086,5.8518 291.6456,5.8518 C295.8476,5.8518 297.1596,7.7258 297.1596,10.4578 L297.1596,66.8798 C297.1656,68.3618 296.8706,68.4108 300.3226,68.3968 C303.8856,68.3858 303.7446,68.5348 303.7386,66.8548 L303.7386,1.7078 Z" class="west-elm__logo-letter-e"></path>
<path d="M90.349,23.4861 C94.786,23.4861 100.9,27.1031 100.919,32.8941 C100.935,36.9661 100.494,37.5201 99.422,37.5201 C99.006,37.5201 80.726,37.5821 78.958,37.5821 C77.768,37.5821 77.674,36.9341 77.674,35.8111 C77.674,30.9221 82.258,23.4861 90.349,23.4861 M78.614,43.4081 L102.541,43.3331 C104.461,43.3261 105.955,42.7391 106.545,41.0641 C107.183,38.7671 107.699,36.8341 107.405,32.3961 C106.657,20.6111 96.79,17.2071 90.635,17.2071 C77.199,17.2071 69.574,28.5071 69.574,43.6601 C69.574,52.1561 71.215,56.4881 74.749,61.7051 C78.313,66.9201 84.96,68.8911 90.411,68.8721 C95.83,68.8521 104.891,65.5941 106.798,63.3681 C107.161,62.9441 107.198,61.5961 106.909,60.1681 C106.661,58.9471 106.18,57.2551 105.303,57.5901 C103.826,58.1541 99.351,62.0121 91.243,62.0411 C77.353,62.0911 77.142,48.7351 77.031,46.0621 C76.924,43.4601 77.368,43.4121 78.614,43.4081" class="west-elm__logo-letter-s"></path>
<path d="M199.6927,60.0242 C198.2097,60.6092 196.8737,61.6432 192.9777,61.6562 C185.8687,61.6812 184.2837,56.1052 184.2667,51.4242 L184.2667,25.9182 C184.3067,24.8682 184.6607,24.6582 186.0087,24.6582 L199.6467,24.6192 C200.1847,24.6192 200.0857,23.6852 200.0857,21.3742 C200.0857,19.0642 200.2077,18.0142 199.3467,18.0142 L186.0087,18.0482 C184.8107,18.0482 184.2667,17.6722 184.2667,15.9642 L184.2667,3.9512 C184.2667,2.0892 184.0807,2.0502 180.9797,2.9942 C177.5887,4.0272 177.5887,4.0272 177.5887,5.3622 L177.5887,15.9642 C177.5887,17.2272 177.3037,18.0972 175.8187,18.0972 L170.7137,18.1052 C169.4737,18.1052 169.8577,19.5302 169.8637,21.3742 C169.8717,23.3262 169.8347,24.7152 170.7137,24.7152 L176.0297,24.6582 C177.0217,24.7532 177.5887,24.8002 177.5887,25.8092 L177.5887,47.2522 C177.6327,59.5082 179.2867,62.2122 182.0347,65.0162 C184.7737,67.8662 188.5457,68.6452 191.2337,68.6352 C193.9637,68.6252 197.8447,67.5332 200.3867,66.3942 C201.6877,65.8112 201.8227,65.3942 201.3237,62.6412 C200.8097,59.8102 200.4897,59.7092 199.6927,60.0242" class="west-elm__logo-letter-t"></path>
<path d="M144.0462,40.1712 C139.6982,38.1642 133.6222,36.9072 133.6222,30.9542 C133.6222,25.8852 138.4092,23.4322 141.7252,23.4322 C143.8342,23.4322 146.6552,24.0942 149.5152,25.2382 C152.3922,26.4422 152.3032,25.4252 153.4552,23.5242 C154.2782,22.1662 154.5062,20.8762 154.1352,20.5622 C152.3262,19.0352 147.4002,17.0622 141.7422,17.0812 C131.4782,17.1172 126.1382,23.6242 126.1652,30.9542 C126.1902,38.0302 132.1622,42.4902 137.7872,45.0882 C143.5582,47.7092 149.4152,49.6972 149.4322,54.5822 C149.4432,57.8142 146.6322,62.4962 140.7062,62.4962 C135.7602,62.4962 130.7202,59.5652 128.9872,58.7362 C128.0202,58.2742 127.6262,59.2942 126.8862,60.8482 C125.9492,62.8172 125.2812,64.2842 126.0202,64.7342 C129.5712,66.9002 135.6202,69.0152 140.6332,68.9982 C149.8442,68.9652 156.9872,63.3862 156.9562,54.4102 C156.9242,45.0212 148.3602,42.2422 144.0462,40.1712" class="west-elm__logo-letter-e"></path>
<path d="M259.9456,23.4861 C264.3826,23.4861 270.4966,27.1031 270.5156,32.8941 C270.5316,36.9661 270.0906,37.5201 269.0186,37.5201 C268.6026,37.5201 250.3226,37.5821 248.5546,37.5821 C247.3646,37.5821 247.2706,36.9341 247.2706,35.8111 C247.2706,30.9221 251.8546,23.4861 259.9456,23.4861 M248.2106,43.4081 L272.1376,43.3331 C274.0576,43.3261 275.5516,42.7391 276.1406,41.0641 C276.7796,38.7671 277.2956,36.8341 277.0006,32.3961 C276.2536,20.6111 266.3866,17.2071 260.2316,17.2071 C246.7956,17.2071 239.1696,28.5071 239.1696,43.6601 C239.1696,52.1561 240.8116,56.4881 244.3456,61.7051 C247.9096,66.9201 254.5566,68.8911 260.0076,68.8721 C265.4266,68.8521 274.4876,65.5941 276.3946,63.3681 C276.7576,62.9441 276.7946,61.5961 276.5056,60.1681 C276.2576,58.9471 275.7766,57.2551 274.8986,57.5901 C273.4226,58.1541 268.9476,62.0121 260.8396,62.0411 C246.9496,62.0911 246.7386,48.7351 246.6266,46.0621 C246.5206,43.4601 246.9646,43.4121 248.2106,43.4081" class="west-elm__logo-letter-l"></path>
<path d="M54.2894,18.7673 C51.6144,18.7673 50.8984,18.5543 50.4224,19.6233 C50.2634,19.9803 43.4834,54.7283 43.4834,54.7283 C43.2164,55.7573 43.0184,56.2023 42.4894,56.2023 C41.8964,56.2023 41.6484,55.9193 41.4524,55.0223 L31.7404,20.0703 C31.4934,19.0593 31.0674,18.6863 28.6924,18.6863 C26.3174,18.6863 25.7944,18.9323 25.5164,20.0703 L16.0884,55.0283 C15.8344,55.9113 15.5634,56.2023 14.9724,56.2023 C14.4424,56.2023 14.2104,55.1743 13.9414,54.1453 L6.6394,19.4513 C6.2244,18.1413 5.5714,18.4673 3.1334,18.4673 C0.7234,18.4673 -0.0206,18.5943 0.0004,19.9593 C0.0104,20.5883 10.3164,64.5483 10.7514,66.3863 C11.2744,68.3633 11.9414,69.0073 14.7264,68.9973 C17.9794,68.9863 18.3814,67.5733 18.8624,66.3863 L27.7124,34.9043 C28.0124,34.0203 28.0584,33.5393 28.6924,33.5393 C29.3274,33.5393 29.3734,34.0203 29.6744,34.9043 L38.5234,66.3863 C39.0054,67.5733 39.4064,68.9863 42.6604,68.9973 C45.4444,69.0073 46.1114,68.3633 46.6354,66.3863 C47.0694,64.5483 57.1274,20.2283 57.1114,19.7333 C57.0744,18.5623 56.1194,18.7673 54.2894,18.7673" class="west-elm__logo-letter-m"></path>
</g>
</g>
</g>
</svg>