<?xml version="1.0" encoding="utf-8"?>
<!-- Generator: Adobe Illustrator 22.1.0, SVG Export Plug-In . SVG Version: 6.00 Build 0)  -->
<svg version="1.1" id="Layer_1" xmlns="http://www.w3.org/2000/svg" xmlns:xlink="http://www.w3.org/1999/xlink" x="0px" y="0px"
	 viewBox="0 0 355 52.1" style="enable-background:new 0 0 355 52.1;" xml:space="preserve">
<style type="text/css">
	.st0{fill:#231F20;}
</style>
<title>WS_Horizontal_Logo_Black_CMYK</title>
<rect x="117.4" y="35.4" class="st0" width="120.2" height="0.8"/>
<path class="st0" d="M139.5,46.1c-0.1-0.1-0.2-0.2-0.4-0.2c-0.4-0.3-0.9-0.4-1.5-0.4c-0.9,0-1.7,0.4-2.2,1.1
	c-0.4,0.5-0.5,1.1-0.5,1.7c0,0.4,0.1,0.8,0.3,1.2c0.5,0.9,1.4,1.5,2.5,1.5c0.7,0,1.3-0.3,1.8-0.7v1.2c-0.6,0.3-1.2,0.5-1.8,0.5
	c-0.9,0-1.8-0.3-2.5-0.9c-0.8-0.7-1.3-1.8-1.3-2.9c0-0.9,0.3-1.8,0.9-2.5c0.8-0.8,1.8-1.3,2.9-1.3c0.6,0,1.3,0.2,1.8,0.5L139.5,46.1
	z"/>
<path class="st0" d="M150.1,51.9h-1.1l-0.7-1.8H145l-0.8,1.8H143l3.6-7.7L150.1,51.9z M145.5,49.1h2.3l-1.1-2.6L145.5,49.1z"/>
<path class="st0" d="M155.1,44.5v6.3h2.2v1H154v-7.3H155.1z"/>
<path class="st0" d="M163.8,44.5v7.3h-1.1v-7.3H163.8z"/>
<path class="st0" d="M173,44.5v1h-2.5v1.8h2.5v1h-2.5v3.5h-1v-7.3H173z"/>
<path class="st0" d="M177.8,45.6c0.7-0.8,1.7-1.2,2.8-1.2c0.9,0,1.7,0.3,2.4,0.8c0.9,0.7,1.4,1.8,1.4,2.9c0,0.5-0.1,1-0.3,1.4
	c-0.6,1.4-2,2.3-3.5,2.3c-0.9,0-1.8-0.3-2.5-0.9c-0.9-0.7-1.4-1.8-1.4-3C176.8,47.1,177.2,46.3,177.8,45.6z M178.4,49.9
	c1,1.2,2.7,1.4,3.9,0.5c0.7-0.5,1.1-1.3,1.1-2.1c0-0.4-0.1-0.8-0.2-1.1c-0.6-1.4-2.2-2.1-3.6-1.5c-1.4,0.6-2.1,2.2-1.5,3.6
	C178.2,49.5,178.3,49.7,178.4,49.9L178.4,49.9z"/>
<path class="st0" d="M192.1,51.9l-2.2-3.1h-0.4v3.1h-1v-7.3h2.1c0.5,0,1,0.1,1.4,0.4c0.5,0.4,0.8,1,0.8,1.7c0,0.7-0.3,1.4-0.9,1.8
	c-0.2,0.1-0.4,0.2-0.7,0.3c0.3,0.5,0.7,1,1,1.4c0.3,0.4,0.5,0.7,0.8,1.1c0.2,0.2,0.3,0.4,0.4,0.7L192.1,51.9z M189.5,45.5v2.3h0.8
	c0.5,0,0.9-0.1,1.1-0.5c0.1-0.2,0.2-0.5,0.2-0.8c0-0.3-0.1-0.6-0.4-0.8c-0.2-0.1-0.5-0.2-0.8-0.2L189.5,45.5z"/>
<path class="st0" d="M202.8,44.6h1.1v7.6c-0.8-0.9-1.7-1.7-2.5-2.5c-0.5-0.5-1-1-1.5-1.5s-1-1.1-1.5-1.6c0,0.4,0,0.7,0.1,1
	s0,0.6,0,0.9v3.4h-1.1v-7.8c1,1,2.1,2,3,3c0.8,0.8,1.6,1.7,2.4,2.5c0-0.2-0.1-0.5-0.1-0.7s0-0.4,0-0.6L202.8,44.6z"/>
<path class="st0" d="M210.1,44.5v7.3H209v-7.3H210.1z"/>
<path class="st0" d="M221.1,51.9H220l-0.7-1.8h-3.2l-0.8,1.8h-1.1l3.7-7.7L221.1,51.9z M216.5,49.1h2.3l-1.1-2.6L216.5,49.1z"/>
<path class="st0" d="M36,2c-0.4,0-0.7,0.1-1,0.2c-0.4,0.1-0.7,0.3-1.1,0.5c-0.4,0.2-0.7,0.5-1,0.9C32.6,4,32.4,4.4,32.2,5
	c-0.8,2.7-1.8,5.9-2.9,9.6c-1.1,3.6-2.3,7.5-3.6,11.7h-1.6L17.7,6.8l-6.6,19.4H9.6C8.4,22,7.2,17.7,5.9,13.3S3.8,5.9,3.4,4.3
	C3.3,4,3.2,3.7,2.9,3.4C2.7,3.1,2.4,2.8,2.1,2.6c-0.3-0.2-0.7-0.4-1-0.5C0.7,2,0.4,2,0,2V0.7h10.2V2C9.5,2,8.7,2.1,8,2.2
	C7.3,2.4,7,2.6,7,2.9C7,3,7,3.2,7.1,3.3c0,0.2,0.1,0.4,0.1,0.5c0.3,1,0.8,2.8,1.4,5.2c0.7,2.4,1.7,6,3.1,10.8l6.3-18.7h1.7L26,20.1
	c0.9-2.9,1.6-5.5,2.2-7.7s1.1-4.1,1.5-5.6C30,5.7,30.2,5,30.3,4.6c0.1-0.3,0.1-0.7,0.1-1c0-0.4-0.3-0.7-0.8-1
	C28.7,2.2,27.8,2,26.9,2V0.7H36L36,2z"/>
<path class="st0" d="M48.9,25.8H37.6v-1.3l1.4-0.1c0.4,0,0.9-0.1,1.3-0.2c0.3-0.1,0.6-0.3,0.9-0.6c0.2-0.3,0.3-0.7,0.3-1.1V4.3
	c0-0.4-0.1-0.7-0.2-1c-0.2-0.3-0.5-0.6-0.9-0.7c-0.4-0.2-0.9-0.3-1.3-0.4C38.5,2.1,38,2,37.6,2V0.7h11.3V2C48.5,2,48,2,47.6,2.1
	c-0.4,0.1-0.9,0.2-1.3,0.3c-0.4,0.1-0.7,0.3-0.9,0.7c-0.2,0.3-0.2,0.7-0.2,1.1v18.2c0,0.4,0.1,0.7,0.3,1c0.2,0.3,0.5,0.6,0.9,0.7
	c0.4,0.1,0.8,0.2,1.2,0.3c0.5,0.1,0.9,0.2,1.4,0.2V25.8z"/>
<path class="st0" d="M72.2,18.4l-0.5,7.5H52v-1.3c0.3,0,0.7-0.1,1.2-0.1c0.4,0,0.8-0.1,1.1-0.2c0.3-0.1,0.6-0.4,0.8-0.7
	c0.2-0.4,0.3-0.7,0.2-1.1v-18c0-0.4-0.1-0.7-0.2-1.1C55,3,54.7,2.7,54.3,2.6c-0.4-0.2-0.7-0.3-1.1-0.4C52.8,2,52.4,2,52,1.9V0.7
	h10.6v1.3c-0.4,0-0.9,0.1-1.3,0.2c-0.4,0.1-0.8,0.2-1.1,0.3c-0.4,0.1-0.7,0.4-0.8,0.7c-0.2,0.3-0.2,0.7-0.2,1.1v16.9
	c0,0.6,0,1.2,0.1,1.8c0.1,0.4,0.2,0.7,0.5,1c0.4,0.2,0.8,0.4,1.2,0.4c0.7,0.1,1.5,0.1,2.3,0.1c0.4,0,0.9,0,1.4,0
	c0.5,0,0.9-0.1,1.3-0.1c0.4-0.1,0.8-0.2,1.1-0.3c0.3-0.1,0.6-0.3,0.8-0.5c0.6-0.8,1.2-1.6,1.7-2.5c0.5-0.9,1-1.8,1.3-2.7L72.2,18.4z
	"/>
<path class="st0" d="M94.5,18.4L94,25.8H74.4v-1.3c0.3,0,0.7-0.1,1.2-0.1c0.4,0,0.8-0.1,1.1-0.2c0.3-0.1,0.6-0.4,0.8-0.7
	c0.2-0.4,0.3-0.7,0.2-1.1v-18c0-0.4-0.1-0.7-0.2-1.1c-0.2-0.3-0.4-0.6-0.8-0.8c-0.4-0.2-0.7-0.3-1.1-0.4C75.2,2,74.8,2,74.4,1.9V0.7
	H85v1.3c-0.4,0-0.9,0.1-1.3,0.2c-0.4,0.1-0.8,0.2-1.1,0.3c-0.4,0.1-0.7,0.4-0.8,0.7c-0.1,0.3-0.2,0.7-0.2,1.1v16.9
	c0,0.6,0,1.2,0.1,1.8c0.1,0.4,0.2,0.7,0.5,1c0.4,0.2,0.8,0.4,1.2,0.4c0.7,0.1,1.5,0.1,2.3,0.1c0.4,0,0.9,0,1.4,0
	c0.5,0,0.9-0.1,1.3-0.1c0.4-0.1,0.8-0.2,1.1-0.3c0.3-0.1,0.6-0.3,0.8-0.5c0.6-0.8,1.2-1.6,1.7-2.5c0.5-0.9,1-1.8,1.3-2.7L94.5,18.4z
	"/>
<path class="st0" d="M107.9,25.8H96.6v-1.3l1.4-0.1c0.4,0,0.9-0.1,1.3-0.2c0.3-0.1,0.6-0.3,0.8-0.6c0.2-0.3,0.3-0.7,0.3-1.1V4.3
	c0-0.4-0.1-0.7-0.2-1c-0.2-0.3-0.5-0.6-0.9-0.7c-0.4-0.2-0.9-0.3-1.3-0.4C97.5,2.1,97,2,96.6,2V0.7h11.3V2c-0.4,0-0.9,0.1-1.3,0.1
	c-0.5,0.1-0.9,0.2-1.3,0.3c-0.4,0.1-0.7,0.3-0.9,0.7c-0.2,0.3-0.2,0.7-0.2,1.1v18.2c0,0.4,0.1,0.7,0.3,1c0.2,0.3,0.5,0.6,0.9,0.7
	c0.4,0.1,0.8,0.2,1.2,0.3c0.5,0.1,0.9,0.2,1.4,0.2V25.8z"/>
<path class="st0" d="M136.5,25.8H126v-1.3c0.8,0,1.5-0.2,2.3-0.4c0.6-0.2,0.9-0.4,0.9-0.7c0-0.1,0-0.3,0-0.4c0-0.1-0.1-0.3-0.1-0.4
	l-2.1-5.6h-8.8c-0.3,0.8-0.6,1.5-0.8,2.2c-0.2,0.6-0.4,1.2-0.6,1.7c-0.1,0.4-0.2,0.8-0.3,1.2c-0.1,0.3-0.1,0.5-0.1,0.8
	c0,0.5,0.4,0.8,1.1,1.1c0.8,0.3,1.7,0.4,2.5,0.4v1.3h-9.5v-1.3c0.4,0,0.8-0.1,1.1-0.2c0.4-0.1,0.8-0.2,1.1-0.5
	c0.4-0.3,0.8-0.6,1.1-1c0.3-0.4,0.6-0.9,0.8-1.4c1.3-3.2,2.7-6.7,4.2-10.6c1.5-3.9,2.9-7.4,4.1-10.5h1.4l8.4,21.7
	c0.1,0.4,0.3,0.8,0.6,1.1c0.3,0.3,0.6,0.6,0.9,0.8c0.3,0.2,0.7,0.3,1.1,0.4c0.4,0.1,0.7,0.2,1.1,0.2L136.5,25.8z M126.4,15.6
	l-3.8-9.8l-3.8,9.8L126.4,15.6z"/>
<path class="st0" d="M169.8,25.8h-11.1v-1.3c0.4,0,0.9-0.1,1.6-0.1c0.4,0,0.9-0.1,1.3-0.3c0.3-0.2,0.6-0.4,0.8-0.8
	c0.2-0.3,0.3-0.7,0.3-1.1V4h-0.3l-8.6,21.4h-0.9l-8.2-21.9h-0.2v15c0,1.1,0.1,2.2,0.3,3.3c0.1,0.6,0.4,1.2,0.8,1.6
	c0.5,0.4,1,0.6,1.6,0.7c0.5,0.2,1.1,0.3,1.6,0.4v1.3h-10.2v-1.3c0.6-0.1,1.1-0.1,1.7-0.3c0.5-0.1,1-0.3,1.4-0.6
	c0.5-0.4,0.7-0.9,0.8-1.5c0.2-1.1,0.3-2.3,0.2-3.4V5.9c0-0.6-0.1-1.2-0.3-1.8c-0.2-0.4-0.4-0.8-0.8-1.1c-0.4-0.3-0.9-0.6-1.3-0.7
	c-0.5-0.2-1-0.2-1.6-0.3V0.7h8.6l7.2,18.9l6.2-15.8c0.2-0.6,0.4-1.2,0.6-1.8c0.1-0.4,0.2-0.8,0.3-1.3h8.2V2c-0.4,0-0.8,0.1-1.3,0.2
	c-0.4,0.1-0.8,0.1-1.1,0.3c-0.4,0.1-0.7,0.4-0.8,0.7c-0.1,0.3-0.2,0.7-0.2,1.1v18.1c0,0.4,0.1,0.7,0.2,1c0.2,0.3,0.5,0.6,0.8,0.7
	c0.4,0.2,0.7,0.3,1.1,0.3c0.4,0.1,0.9,0.1,1.3,0.2L169.8,25.8z"/>
<path class="st0" d="M188.5,14.3c0.5,0.6,0.9,1.2,1.2,1.9c0.3,0.8,0.4,1.6,0.4,2.5c0.1,2.1-0.8,4.1-2.5,5.5
	c-1.7,1.5-3.9,2.2-6.1,2.2c-1.1,0-2.3-0.2-3.4-0.5c-1-0.3-2-0.7-2.9-1.3l-0.8,1.3h-1.4l-0.3-8.6h1.4c0.3,1,0.6,1.9,1,2.9
	c0.4,0.9,0.9,1.7,1.6,2.4c0.6,0.7,1.3,1.2,2.2,1.7c0.9,0.4,1.9,0.6,2.9,0.6c0.7,0,1.4-0.1,2.1-0.3c0.6-0.2,1.1-0.5,1.5-0.9
	c0.4-0.4,0.7-0.9,0.8-1.4c0.2-0.6,0.3-1.2,0.3-1.8c0-1-0.3-2-0.8-2.8c-0.6-0.9-1.5-1.6-2.5-2c-0.8-0.3-1.7-0.6-2.6-1
	c-1-0.4-1.8-0.7-2.6-1.1c-1.3-0.5-2.4-1.4-3.3-2.5c-0.8-1-1.2-2.4-1.2-4c0-0.9,0.2-1.8,0.6-2.7c0.4-0.8,1-1.6,1.7-2.2
	c0.7-0.6,1.5-1.1,2.4-1.4c0.9-0.4,1.9-0.5,2.9-0.5c1.1,0,2.1,0.2,3.1,0.5c0.9,0.3,1.7,0.7,2.5,1.2l0.7-1.2h1.4L189,9h-1.4
	c-0.3-1-0.6-1.9-0.9-2.7c-0.3-0.8-0.7-1.6-1.3-2.4c-0.5-0.7-1.1-1.2-1.9-1.6c-0.8-0.4-1.8-0.6-2.7-0.6c-1.1,0-2.1,0.4-2.9,1.1
	c-0.8,0.7-1.2,1.6-1.2,2.6c0,1,0.2,1.9,0.8,2.7c0.6,0.8,1.3,1.4,2.2,1.8c0.8,0.4,1.7,0.8,2.5,1.1c0.8,0.3,1.6,0.6,2.4,1
	c0.7,0.3,1.4,0.7,2,1C187.5,13.3,188,13.8,188.5,14.3z"/>
<path class="st0" d="M217.2,14.2c0.5,0.6,0.9,1.2,1.2,1.9c0.3,0.8,0.4,1.6,0.4,2.5c0.1,2.1-0.9,4.1-2.5,5.5
	c-1.7,1.5-3.9,2.2-6.1,2.2c-1.1,0-2.3-0.2-3.4-0.5c-1-0.3-2-0.7-2.9-1.3l-0.8,1.3h-1.4l-0.2-8.6h1.4c0.3,1,0.6,1.9,1,2.9
	c0.4,0.9,0.9,1.7,1.6,2.4c0.6,0.7,1.3,1.3,2.2,1.7c0.9,0.4,1.9,0.6,2.9,0.6c0.7,0,1.4-0.1,2.1-0.3c1.1-0.3,2-1.2,2.3-2.3
	c0.2-0.6,0.3-1.2,0.3-1.8c0-1-0.3-2-0.9-2.8c-0.6-0.9-1.5-1.6-2.5-2c-0.8-0.3-1.6-0.6-2.6-1c-1-0.4-1.8-0.7-2.6-1
	c-1.3-0.5-2.4-1.4-3.3-2.5c-0.8-1-1.2-2.4-1.2-4c0-0.9,0.2-1.8,0.6-2.7c0.4-0.8,1-1.6,1.7-2.2c0.7-0.6,1.5-1.1,2.4-1.4
	c0.9-0.4,1.9-0.5,2.9-0.5c1.1,0,2.1,0.2,3.1,0.5c0.9,0.3,1.7,0.8,2.5,1.2l0.7-1.2h1.4l0.1,8.3h-1.4c-0.3-1-0.6-1.9-0.9-2.7
	c-0.3-0.8-0.7-1.6-1.3-2.4c-0.5-0.7-1.1-1.2-1.9-1.6c-0.8-0.4-1.8-0.6-2.7-0.6c-1.1,0-2.1,0.4-2.9,1.1c-0.8,0.7-1.2,1.6-1.2,2.6
	c0,1,0.2,1.9,0.8,2.7c0.6,0.8,1.3,1.4,2.2,1.8c0.8,0.4,1.7,0.8,2.5,1.1c0.8,0.3,1.6,0.6,2.4,1c0.7,0.3,1.4,0.7,2,1
	C216.1,13.2,216.7,13.7,217.2,14.2z"/>
<path class="st0" d="M241.8,3.6c1.1,1.2,2,2.6,2.6,4.2c0.6,1.7,1,3.6,0.9,5.4c0,1.9-0.3,3.7-1,5.4c-0.6,1.6-1.5,3-2.7,4.2
	c-1.1,1.1-2.4,2-3.8,2.6c-3,1.3-6.5,1.2-9.5-0.1c-1.4-0.6-2.7-1.6-3.8-2.7c-1.1-1.2-2-2.6-2.5-4.2c-0.6-1.7-0.9-3.5-0.9-5.3
	c0-1.9,0.3-3.7,1-5.5c0.6-1.5,1.5-3,2.6-4.2c1.1-1.1,2.4-2.1,3.9-2.7c3-1.2,6.3-1.2,9.3,0C239.4,1.6,240.7,2.5,241.8,3.6z
	 M239.1,21.4c0.7-1.1,1.2-2.4,1.4-3.6c0.6-3.1,0.6-6.2-0.1-9.3c-0.3-1.3-0.8-2.5-1.5-3.7c-0.6-1-1.5-1.8-2.4-2.3
	c-1-0.6-2.2-0.9-3.4-0.8c-1.3,0-2.5,0.3-3.6,1c-1,0.7-1.8,1.6-2.4,2.6c-0.6,1.1-1.1,2.4-1.3,3.6c-0.3,1.4-0.4,2.9-0.4,4.4
	c0,1.5,0.1,3.1,0.5,4.6c0.3,1.3,0.8,2.5,1.5,3.6c0.6,1,1.4,1.8,2.4,2.4c1.1,0.6,2.3,0.9,3.5,0.9c1.2,0,2.4-0.3,3.4-0.9
	C237.7,23.3,238.5,22.4,239.1,21.4z"/>
<path class="st0" d="M272.3,1.9c-0.5,0-1,0.1-1.5,0.3c-0.5,0.1-1,0.3-1.5,0.6c-0.4,0.3-0.7,0.9-0.9,1.7c-0.2,1.1-0.2,2.1-0.2,3.2V26
	h-1.5L251.4,5.4v13c0,1.1,0.1,2.2,0.3,3.3c0.1,0.6,0.4,1.2,0.8,1.7c0.5,0.4,1.1,0.6,1.7,0.7c0.6,0.2,1.1,0.3,1.7,0.4v1.3h-10.3v-1.3
	c0.5-0.1,1.1-0.2,1.6-0.3c0.5-0.1,1-0.3,1.4-0.6c0.5-0.4,0.8-0.9,0.8-1.5c0.2-1.2,0.3-2.3,0.2-3.5V6.2c0-0.6-0.1-1.1-0.3-1.6
	c-0.1-0.5-0.4-0.9-0.8-1.3c-0.5-0.4-1.1-0.8-1.7-1c-0.6-0.2-1.2-0.4-1.8-0.5V0.6h7.2l14.1,19.2v-12c0-1.1-0.1-2.3-0.3-3.4
	c-0.2-0.8-0.5-1.3-0.8-1.6c-0.5-0.3-1.1-0.5-1.6-0.7c-0.6-0.2-1.1-0.3-1.7-0.4V0.6h10.2L272.3,1.9z"/>
<path class="st0" d="M292.6,3.6c1.1,1.2,2,2.6,2.6,4.2c0.6,1.7,1,3.6,0.9,5.4c0,1.9-0.3,3.7-1,5.4c-0.6,1.6-1.5,3-2.7,4.2
	c-1.1,1.1-2.4,2-3.8,2.6c-3,1.3-6.5,1.2-9.5-0.1c-1.4-0.6-2.7-1.6-3.8-2.7c-1.1-1.2-2-2.6-2.5-4.2c-0.6-1.7-0.9-3.5-0.9-5.3
	c0-1.9,0.3-3.7,1-5.4c0.6-1.5,1.5-3,2.6-4.2c1.1-1.1,2.4-2.1,3.9-2.7c3-1.2,6.3-1.2,9.3,0C290.3,1.6,291.6,2.5,292.6,3.6z M290,21.4
	c0.7-1.1,1.2-2.4,1.4-3.6c0.6-3.1,0.6-6.2,0-9.3c-0.3-1.3-0.8-2.5-1.5-3.7c-0.6-1-1.4-1.8-2.4-2.3c-1-0.6-2.2-0.9-3.4-0.8
	c-1.3,0-2.5,0.3-3.6,1c-1,0.7-1.8,1.6-2.4,2.6c-0.6,1.1-1.1,2.4-1.3,3.6c-0.3,1.4-0.4,2.9-0.4,4.4c0,1.5,0.1,3.1,0.5,4.6
	c0.3,1.3,0.8,2.5,1.5,3.6c0.6,1,1.4,1.8,2.4,2.4c1.1,0.6,2.3,0.9,3.5,0.9c1.2,0,2.4-0.3,3.4-0.9C288.6,23.3,289.4,22.4,290,21.4z"/>
<path class="st0" d="M327.5,25.8h-11.1v-1.3c0.4,0,0.9-0.1,1.6-0.1c0.4,0,0.9-0.1,1.3-0.3c0.3-0.2,0.6-0.4,0.8-0.8
	c0.2-0.3,0.3-0.7,0.3-1.1V3.9H320l-8.6,21.4h-0.9l-8.2-21.9h-0.2v15c0,1.1,0.1,2.2,0.3,3.3c0.1,0.6,0.4,1.2,0.8,1.6
	c0.5,0.4,1,0.6,1.6,0.7c0.5,0.2,1.1,0.3,1.6,0.4v1.3h-10.1v-1.3c0.6-0.1,1.1-0.1,1.7-0.3c0.5-0.1,1-0.3,1.4-0.6
	c0.4-0.4,0.7-0.9,0.9-1.5c0.2-1.1,0.3-2.3,0.2-3.4V5.8c0-0.6-0.1-1.2-0.3-1.8c-0.2-0.4-0.4-0.8-0.8-1.1c-0.4-0.3-0.8-0.6-1.3-0.7
	c-0.5-0.2-1-0.2-1.6-0.3V0.7h8.6l7.2,18.9l6.1-15.8c0.2-0.6,0.4-1.2,0.6-1.8c0.1-0.4,0.2-0.8,0.3-1.3h8.2v1.3
	c-0.4,0-0.8,0.1-1.3,0.2c-0.4,0.1-0.8,0.2-1.1,0.3c-0.4,0.1-0.7,0.4-0.8,0.7c-0.1,0.3-0.2,0.7-0.2,1.1v18.1c0,0.4,0.1,0.7,0.2,1
	c0.2,0.3,0.5,0.6,0.8,0.8c0.4,0.2,0.7,0.3,1.1,0.3c0.4,0.1,0.9,0.1,1.3,0.2L327.5,25.8z"/>
<path class="st0" d="M355,25.8h-10.5v-1.3c0.8,0,1.5-0.2,2.3-0.4c0.6-0.2,0.9-0.4,0.9-0.7c0-0.1,0-0.3,0-0.4c0-0.1-0.1-0.3-0.1-0.4
	l-2.1-5.6h-8.8c-0.3,0.8-0.6,1.5-0.8,2.2s-0.4,1.2-0.6,1.7c-0.1,0.4-0.2,0.8-0.3,1.2c-0.1,0.3-0.1,0.5-0.1,0.8
	c0,0.5,0.4,0.8,1.1,1.1c0.8,0.3,1.7,0.4,2.5,0.5v1.3h-9.5v-1.3c0.4,0,0.8-0.1,1.1-0.2c0.4-0.1,0.8-0.2,1.1-0.4
	c0.4-0.3,0.8-0.6,1.1-1c0.3-0.4,0.6-0.9,0.8-1.4c1.3-3.2,2.7-6.7,4.2-10.6s2.9-7.4,4.1-10.5h1.4l8.4,21.7c0.1,0.4,0.3,0.8,0.6,1.1
	c0.3,0.3,0.6,0.6,0.9,0.8c0.3,0.2,0.7,0.3,1.1,0.4c0.4,0.1,0.7,0.2,1.1,0.2L355,25.8z M344.9,15.5l-3.8-9.8l-3.8,9.8H344.9z"/>
</svg>
