<?xml version="1.0" encoding="UTF-8" standalone="no"?>
<!DOCTYPE svg PUBLIC "-//W3C//DTD SVG 1.1//EN" "http://www.w3.org/Graphics/SVG/1.1/DTD/svg11.dtd">
<svg width="100%" height="100%" viewBox="0 0 608 4101" version="1.1" xmlns="http://www.w3.org/2000/svg" xmlns:xlink="http://www.w3.org/1999/xlink" xml:space="preserve" xmlnsSerif="http://www.serif.com/" style="fill-rule:evenodd;clip-rule:evenodd;stroke-linejoin:round;stroke-miterlimit:2;">
    <g transform="matrix(1,0,0,1,-5503,-12692)">
        <g transform="matrix(-0.800457,0,0,0.55698,16465.6,11121.3)">
            <g id="Background-Tree-Trunk-1" serifId="Background Tree Trunk 1" transform="matrix(1.24929,0,0,1.7954,10312.8,-19961)">
                <path d="M2494.28,12722.4C2495.67,12731.7 2488.7,12806 2481.18,12836.1C2472.94,12869 2461.85,12977 2458.41,13011.5C2453.22,13063.5 2460.59,13116.6 2457.13,13167.7C2453.61,13219.8 2438.07,13285.7 2455.79,13298C2458.68,13300 2480.23,13290.4 2501.24,13276.5C2511.09,13270 2524.38,13252.2 2529.97,13241C2542.32,13216.3 2563.04,13190.5 2573.26,13159.8C2582.84,13131.1 2578.97,13098.5 2584.08,13067.8C2590.11,13031.6 2618.43,12878.1 2612.07,12840C2607.46,12812.3 2579.61,12721.9 2589.49,12712C2590.04,12711.5 2592.79,12712.3 2593.55,12712C2615.36,12704.8 2635.29,12725.5 2655.78,12729.6C2668.21,12732.1 2683.61,12729.6 2696.37,12729.6C2697.64,12729.6 2706.19,12728.6 2707.19,12729.6C2707.73,12730.2 2706.08,12733.2 2705.84,12733.7C2693.59,12758.2 2701.17,12757.2 2695.59,12785.1C2689.1,12817.5 2686.48,12860.8 2675.97,12892.3C2669.32,12912.3 2660.14,12938.2 2653.95,12956.8C2646.24,12979.9 2637.4,13065.7 2631.31,13090.1C2617.44,13145.5 2629.21,13167.8 2611.14,13222C2607.93,13231.7 2589.19,13251.3 2583.88,13261.9C2574.05,13281.5 2513.6,13340.3 2493.76,13350.3C2471.43,13361.5 2468.28,13384 2461.03,13413C2459.05,13420.9 2447.96,13490.6 2445.38,13501.3C2434.21,13547.6 2430.28,13598 2425.8,13633.3C2421.81,13664.8 2416.22,13728.6 2415.57,13777.1C2414.3,13871.7 2429.56,14055.6 2442.56,14180.5C2451.45,14265.9 2448.55,16788.9 2448.55,16788.9L2303.68,16788.9C2303.68,16788.9 2342.13,14110.4 2328.34,13867.5C2321.25,13742.6 2316.17,13598.8 2286.29,13510.2C2271.71,13466.9 2264.01,13436.9 2229.7,13361.2C2209.38,13316.4 2207.54,13264 2202.49,13228.9C2190.66,13146.5 2195.97,13065.1 2166.06,12985.3C2136.7,12907 2133.43,12832.8 2120.07,12752.6C2118.99,12746.2 2099.68,12704 2099.77,12703.9C2100.09,12703.6 2100.67,12703.9 2101.12,12703.9C2114.18,12703.9 2127.53,12699.1 2140.36,12701.2C2166.83,12705.6 2186.62,12718.8 2214.76,12718.8C2215.21,12718.8 2215.8,12718.5 2216.12,12718.8C2216.33,12719 2175.13,12768.9 2198.37,12883.3C2212.32,12952 2237.87,13094.4 2237.76,13151.7C2237.7,13183.5 2243.97,13263 2249.81,13265.9C2274.04,13278.1 2315.47,13138.7 2319.79,13105.4C2324.67,13067.9 2350.17,13031.2 2351.9,12994.4C2354.81,12932.6 2350.89,12878.9 2344.06,12840.5C2338.36,12808.5 2307.33,12701.4 2309.46,12697.2C2313.04,12690 2348.78,12687.7 2356.81,12690.4C2367.39,12693.9 2378.1,12699.5 2385.22,12706.6C2402.7,12724.1 2394,12894.7 2390.63,12921.7C2384.52,12970.6 2388.01,13016.1 2369.59,13062.2C2361.73,13081.8 2354.95,13117.7 2346.54,13134.5C2339.06,13149.5 2324.09,13189.4 2321.16,13205.5C2307.49,13280.7 2284.01,13275.4 2273.16,13316.6C2256.55,13379.6 2337.28,13513.3 2346.33,13507.1C2397.7,13472.2 2369.04,13429.2 2365.26,13328.9C2364.33,13304.1 2364.89,13254.3 2367.77,13239.9C2371.1,13223.2 2373.62,13201.1 2378.97,13185.1C2387.47,13159.6 2401.47,13117.6 2406.25,13088.9C2414.7,13038.2 2409.9,13008.4 2416.33,12956.9C2420.96,12919.8 2430.63,12861.1 2429.44,12814.9C2428.76,12788.3 2420.25,12728.4 2436.62,12713.4C2445.95,12704.9 2483.65,12719.7 2494.28,12722.4Z"/>
            </g>
        </g>
    </g>
</svg>
