<?xml version="1.0" encoding="UTF-8" standalone="no"?>
<!DOCTYPE svg PUBLIC "-//W3C//DTD SVG 1.1//EN" "http://www.w3.org/Graphics/SVG/1.1/DTD/svg11.dtd">
<svg width="100%" height="100%" viewBox="0 0 491 4075" version="1.1" xmlns="http://www.w3.org/2000/svg" xmlns:xlink="http://www.w3.org/1999/xlink" xml:space="preserve" xmlnsSerif="http://www.serif.com/" style="fill-rule:evenodd;clip-rule:evenodd;stroke-linejoin:round;stroke-miterlimit:2;">
    <g transform="matrix(1,0,0,1,-6098,-12718)">
        <g transform="matrix(-0.800457,0,0,0.55698,16465.6,11121.3)">
            <g id="Background-Tree-Trunk-2" serifId="Background Tree Trunk 2" transform="matrix(1.24929,0,0,1.7954,10312.8,-19961.2)">
                <path d="M1621.94,12719.9C1631.47,12678.6 1735.07,12924.3 1745.64,12945.4C1763.6,12981.3 1772.54,13049.6 1777.27,13063.8C1786.02,13090 1829.9,13175.3 1842.52,13197.3C1958.01,13398.8 1898.02,13503.5 1896.88,13594.7C1895.71,13688.6 1887.98,13826.1 1878.84,14066.7C1875.15,14164 1904.07,14353.2 1887.97,14449.8C1873.55,14536.3 1882,14680.7 1885.53,14733.3C1893.95,14858.5 1865.75,16788.9 1865.75,16788.9L2050.58,16788.9C2050.58,16788.9 2040.76,14899.3 2032.25,14822.7C2026.69,14772.7 2007.41,14608.1 2012.36,14424.6C2016.44,14272.8 2022.95,14174.3 1997.3,14052.4C1973.68,13940.2 2020.43,13519.7 2022.11,13396.8C2023.49,13295.7 2039.9,13137.7 2045.58,13120.1C2070.45,13043 2086.92,12848 2099.86,12809.2C2107.89,12785.1 2113.79,12723.1 2111.36,12720.7C2109.5,12718.8 2080.8,12726.4 2076.74,12727.2C2055.68,12731.4 2019.32,12724 2005.35,12738C1999.08,12744.2 2003.27,12785.1 2005.03,12849.8C2008.43,12974.1 1974.21,13036.9 1971.9,13060.8C1970.41,13076.4 1963.77,13103.5 1957.63,13123.3C1941.25,13176.3 1945.79,13218.2 1930.27,13224.5C1919.19,13228.9 1855.38,13135.4 1821.36,13040.6C1800.19,12981.6 1794.83,12752.3 1765.11,12722.6C1750.76,12708.2 1663.15,12737.7 1641.79,12737.7"/>
            </g>
        </g>
    </g>
</svg>
