<?xml version="1.0" encoding="UTF-8" standalone="no"?>
<!DOCTYPE svg PUBLIC "-//W3C//DTD SVG 1.1//EN" "http://www.w3.org/Graphics/SVG/1.1/DTD/svg11.dtd">
<svg width="100%" height="100%" viewBox="0 0 1006 259" version="1.1" xmlns="http://www.w3.org/2000/svg" xmlns:xlink="http://www.w3.org/1999/xlink" xml:space="preserve" xmlnsSerif="http://www.serif.com/" style="fill-rule:evenodd;clip-rule:evenodd;stroke-linecap:round;stroke-linejoin:round;stroke-miterlimit:1.5;">
    <g transform="matrix(1,0,0,1,-147.517,-265.408)">
        <g transform="matrix(6.78396,0,0,6.78396,-458.308,-1781.73)">
            <path d="M112.331,313.016C121.597,304.823 110.817,297.664 101.348,305.532C82.011,321.597 89.684,342.508 102.804,338.357C112.086,335.421 116.05,328.436 119.596,324.349C122.298,321.233 125.004,322.159 125.004,322.159C125.004,322.159 123.796,321.417 121.398,322.742C116.935,325.205 110.178,342.186 120.819,339.126C127.542,337.193 130.844,324.518 125.004,322.159C122.684,321.221 118.923,323.81 120.225,326.414C122.786,331.535 132.529,323.765 136.425,325.064C140.439,326.402 134.273,338.515 134.273,338.515C134.273,338.515 142.013,323.697 147.209,326.753C151.158,329.076 144.446,337.478 146.436,338.753C152.213,342.456 157.249,323.357 162.975,326.864C166.208,328.844 161.491,338.759 161.491,338.759C161.491,338.759 168.657,323.975 174.029,326.751C177.867,328.735 170.248,337.307 175.989,339.012C178.614,339.791 183.292,335.497 184.242,334.914C194.849,328.409 193.227,321.987 188.175,324.614C179.225,329.265 185.047,343.391 193.238,337.659C195.118,336.343 200.303,330.201 202.588,326.55C205.215,322.354 207.67,322.016 209.312,322.852C210.87,323.646 211.147,324.688 211.144,326.228C211.142,327.005 210.14,327.911 210.84,327.039C211.829,325.808 210.67,323.474 209.312,322.852C207.613,322.075 205.056,322.53 202.588,326.55C202.508,326.681 198.419,331.434 201.995,335.962C204.313,338.897 219.609,344.357 224.364,324.466C224.503,323.887 229.262,314.227 225.902,313.911C222.122,313.556 223.904,317.752 224.364,324.466C225.204,336.71 226.168,342.239 233.961,335.311C235.08,334.317 235.674,333.81 237.214,332.238" style="fill:none;stroke:black;stroke-width:0.74px;"/>
            <g transform="matrix(0.759261,0,0,0.987334,47.4842,0.380359)">
                <path d="M221.901,321.873C226.716,329.988 239.849,329.339 246.895,319.766" style="fill:none;stroke:black;stroke-width:0.84px;"/>
            </g>
        </g>
    </g>
</svg>
