<svg xmlns="http://www.w3.org/2000/svg" viewBox="0 0 455.12 63.25" fill="fff">
<title>Pottery Barn Kids</title>
<path d="M128.58,506c0-2.53,0-2.86-1.76-4l-.58-.39a.89.89,0,0,1,.06-1.17,38.59,38.59,0,0,0,6.44-3.51.73.73,0,0,1,.78.46,29.32,29.32,0,0,0-.26,3c0,.45.13.84.58.84.85-.39,4.94-3.05,9.1-3.05,6.57,0,10.79,5.33,10.79,11.89,0,9-6.63,15.54-15.86,15.54a24.43,24.43,0,0,1-3.57-.26c-.59.13-.91.45-.91,1.82v6.82c0,4.62.13,5.2,2.47,5.53l2.53.32a1.13,1.13,0,0,1-.13,1.63c-3.12-.13-5-.2-7.28-.2s-4.29.07-6.11.2a1.15,1.15,0,0,1-.13-1.63l1.37-.19c2.4-.33,2.47-1,2.47-5.66ZM133.39,518a4.19,4.19,0,0,0,2,3.9,8.51,8.51,0,0,0,4.68,1.43c5.33,0,8.45-4.94,8.45-11.7,0-5.2-2.93-10.46-8.78-10.46a8,8,0,0,0-5.52,1.82c-.59.71-.78,1.69-.78,3.83Z" transform="translate(-124.46 -478.13)"></path>
<path d="M186,511.54c0,8.13-5.59,14-13.71,14-7.48,0-13.33-5.27-13.33-13.39a13.66,13.66,0,0,1,13.85-14A13,13,0,0,1,186,511.54ZM172,500c-4.29,0-7.48,4.09-7.48,11.24,0,5.92,2.67,12.29,8.39,12.29s7.47-6,7.47-11C180.38,507.06,178.17,500,172,500Z" transform="translate(-124.46 -478.13)"></path>
<path d="M200.59,501.73c-1.1,0-1.17.19-1.17,1.56v12.15c0,3.77.46,7.22,4.75,7.22a4.83,4.83,0,0,0,1.75-.33c.59-.19,1.43-.91,1.63-.91.52,0,.78.72.65,1.11a9,9,0,0,1-6.83,3c-5.59,0-6.76-3.12-6.76-7V503.61c0-1.75-.06-1.88-1.36-1.88h-1.82a1.09,1.09,0,0,1-.2-1.37,12.86,12.86,0,0,0,4.16-2,16,16,0,0,0,2.73-3.84c.33-.13,1.11-.13,1.37.33v2.92c0,1.17.06,1.24,1.17,1.24h7.21a2.08,2.08,0,0,1,.07,2.73Z" transform="translate(-124.46 -478.13)"></path>
<path d="M221.2,501.73c-1.11,0-1.17.19-1.17,1.56v12.15c0,3.77.45,7.22,4.74,7.22a4.88,4.88,0,0,0,1.76-.33c.58-.19,1.43-.91,1.62-.91.52,0,.78.72.65,1.11a9,9,0,0,1-6.82,3c-5.59,0-6.76-3.12-6.76-7V503.61c0-1.75-.07-1.88-1.37-1.88H212a1.09,1.09,0,0,1-.19-1.37,13,13,0,0,0,4.16-2,16.27,16.27,0,0,0,2.73-3.84c.32-.13,1.1-.13,1.36.33v2.92c0,1.17.07,1.24,1.17,1.24h7.22a2.07,2.07,0,0,1,.06,2.73Z" transform="translate(-124.46 -478.13)"></path>
<path d="M238.55,508c-1.69,0-1.75.13-1.75,1.75,0,6.57,3.83,12.16,10.79,12.16,2.14,0,4-.65,6-3.19a.86.86,0,0,1,1.17.78c-2.15,4.42-6.83,6-10.21,6a11.64,11.64,0,0,1-9.42-4.29,13.81,13.81,0,0,1-2.73-8.45c0-8,5.26-14.69,13.06-14.69,5.59,0,9.23,3.83,9.23,7.73a4,4,0,0,1-.26,1.69c-.19.39-1.1.46-3.83.46Zm4-2c4.81,0,6.24-.26,6.76-.65.2-.13.39-.39.39-1.24,0-1.82-1.23-4.09-5-4.09s-7.15,3.51-7.22,5.65c0,.13,0,.33.46.33Z" transform="translate(-124.46 -478.13)"></path>
<path d="M262.86,506c0-2.53,0-2.86-1.75-4l-.59-.39a.88.88,0,0,1,.07-1.17,50.89,50.89,0,0,0,6.56-3.18c.33.06.52.19.52.45v3.77c0,.33.07.52.2.59,2.27-1.89,4.74-3.9,7.15-3.9a2.69,2.69,0,0,1,2.92,2.6,2.88,2.88,0,0,1-2.79,3,2.49,2.49,0,0,1-1.43-.46,5.34,5.34,0,0,0-2.86-1,2.9,2.9,0,0,0-2.34,1.3c-.65.91-.85,2.8-.85,5v8.84c0,4.68.13,5.46,2.6,5.65l2.34.2a1.12,1.12,0,0,1-.13,1.62c-3.05-.13-4.94-.19-7.21-.19s-4.29.06-6,.19a1.12,1.12,0,0,1-.13-1.62l1.23-.2c2.41-.39,2.47-1,2.47-5.65Z" transform="translate(-124.46 -478.13)"></path>
<path d="M281.44,538a2.42,2.42,0,0,1,2.6-2.6h1.24a2.35,2.35,0,0,0,2.14-1.17,40.88,40.88,0,0,0,3.77-7.22,9.64,9.64,0,0,0,.65-2.79c0-1.3-.26-2.08-1.1-4.49l-5.07-13.91c-1.11-3.05-1.56-4.61-3.84-5.07l-1.62-.32c-.39-.33-.33-1.43.19-1.63,2.08.13,4,.2,6.18.2,1.75,0,3.57-.07,5.65-.2.52.2.59,1.3.13,1.63l-1.62.32c-.91.2-1.43.39-1.43.85a49.33,49.33,0,0,0,1.88,6.11l2.08,6a36.17,36.17,0,0,0,1.89,4.61,32.17,32.17,0,0,0,2.4-4.81l2.21-5.13c1.43-3.38,2.28-5.79,2.28-6.5,0-.46-.39-.91-1.56-1.11l-2-.32c-.45-.33-.39-1.43.13-1.63,2.08.13,4,.2,5.72.2s3.12-.07,4.94-.2a1.09,1.09,0,0,1,.13,1.63l-1.1.19c-2.15.39-3.32,2.28-5.53,6.89L299.12,515c-2.14,4.35-7.47,15.66-10.66,22.75-1.1,2.47-2.66,3-4.16,3A2.61,2.61,0,0,1,281.44,538Z" transform="translate(-124.46 -478.13)"></path>
<path d="M330.78,488c0-3.84-.07-4.23-2-5.4l-.65-.39a1,1,0,0,1,0-1.3,60.09,60.09,0,0,0,7.09-2.73.7.7,0,0,1,.64.39c-.13,2.28-.26,5.2-.26,8.06v12.29c0,1.1.26,1.36.66,1.36a15,15,0,0,1,7.47-2.14c7.41,0,12.41,5.59,12.41,12.74,0,8.64-6.24,14.69-14.95,14.69a16.52,16.52,0,0,1-5.52-.85,20.4,20.4,0,0,0-2.73-.84c-.52,0-1,.52-1.37,1-.06.07-.13.07-.26.07a.74.74,0,0,1-.65-.39c.07-.91.14-2.15.14-5.53Zm4.8,27.82a9,9,0,0,0,1.63,5.65,6.18,6.18,0,0,0,4.94,2.15c6.11,0,8.52-5.2,8.52-10.79,0-6.7-3.45-11.9-9.88-11.9a8.51,8.51,0,0,0-4.42,1c-.66.46-.79,1.17-.79,3.71Z" transform="translate(-124.46 -478.13)"></path>
<path d="M374.46,511.15c1-.32,1-.91,1.1-1.88l.06-3c.07-2.41-.71-5.66-4.74-5.66-1.82,0-4,.91-4.16,2.93-.06,1-.13,1.82-.65,2.21a7,7,0,0,1-3.7,1.23.82.82,0,0,1-.91-.91c0-3.38,7.34-8,12.08-8s7,2.73,6.76,7.6L379.92,517c-.13,3,.45,5.66,3,5.66a3.82,3.82,0,0,0,1.62-.39c.33-.2.65-.46.85-.46s.45.39.45.85a6.84,6.84,0,0,1-5.46,2.86,5.18,5.18,0,0,1-4.22-2c-.27-.39-.65-.91-1-.91a10.08,10.08,0,0,0-2.54,1.3,9.62,9.62,0,0,1-4.68,1.63,6.7,6.7,0,0,1-4.55-1.5,6.05,6.05,0,0,1-2-4.55c0-2.53,1.23-4,5.39-5.52Zm-4,11.44a7.36,7.36,0,0,0,4-1.62c.78-.78.85-1.69.85-3.06l.13-3.83c0-.72-.26-.85-.66-.85a12.38,12.38,0,0,0-2.66.65c-3.84,1.3-5.72,2.28-5.72,4.81A3.91,3.91,0,0,0,370.42,522.59Z" transform="translate(-124.46 -478.13)"></path>
<path d="M392.33,506c0-2.53,0-2.86-1.76-4l-.58-.39a.89.89,0,0,1,.06-1.17,51,51,0,0,0,6.57-3.18c.32.06.52.19.52.45v3.77c0,.33.06.52.19.59,2.28-1.89,4.75-3.9,7.15-3.9a2.69,2.69,0,0,1,2.93,2.6,2.89,2.89,0,0,1-2.8,3,2.51,2.51,0,0,1-1.43-.46,5.32,5.32,0,0,0-2.86-1,2.9,2.9,0,0,0-2.34,1.3c-.65.91-.84,2.8-.84,5v8.84c0,4.68.13,5.46,2.6,5.65l2.34.2a1.14,1.14,0,0,1-.13,1.62c-3.06-.13-4.94-.19-7.22-.19s-4.29.06-6,.19a1.14,1.14,0,0,1-.13-1.62l1.24-.2c2.4-.39,2.47-1,2.47-5.65Z" transform="translate(-124.46 -478.13)"></path>
<path d="M414.56,506c0-2.53,0-2.86-1.76-4l-.58-.39a.89.89,0,0,1,.06-1.17,35.56,35.56,0,0,0,6.5-3.18.77.77,0,0,1,.72.45c-.13,1.5-.13,2.47-.13,3.06a.68.68,0,0,0,.71.71c2.73-1.69,5.79-3.31,9.1-3.31,5.4,0,7.61,3.7,7.61,8.06v11.18c0,4.68.13,5.33,2.47,5.65l1.43.2a1.14,1.14,0,0,1-.13,1.62c-1.95-.13-3.84-.19-6.11-.19s-4.29.06-6.05.19a1.14,1.14,0,0,1-.13-1.62l1.24-.2c2.4-.39,2.47-1,2.47-5.65v-9.69c0-3.7-1.69-6.43-6.11-6.43a7.11,7.11,0,0,0-5.53,2.27c-.84,1.11-1,2-1,3.9v10c0,4.68.13,5.26,2.47,5.65l1.17.2a1.14,1.14,0,0,1-.13,1.62c-1.76-.13-3.64-.19-5.92-.19s-4.29.06-6.11.19a1.14,1.14,0,0,1-.13-1.62l1.37-.2c2.4-.32,2.47-1,2.47-5.65Z" transform="translate(-124.46 -478.13)"></path>
<path d="M465.58,488c0-3.84-.06-4.23-2-5.4l-.65-.39a1,1,0,0,1,0-1.3,45.8,45.8,0,0,0,7-2.73.71.71,0,0,1,.65.39c-.07,2-.2,5.2-.2,8.06v22.3c0,.84.07,1,1.17,1,1.43,0,2.67-.71,4.42-2.53l2.67-2.86c1.82-1.95,2.27-2.67,2.27-3s-.32-.52-1.43-.65l-1.56-.2c-.58-.19-.58-1.43,0-1.62h1.5a101.52,101.52,0,0,0,10.33-.52c.46.19.52,1.3.13,1.62l-2.08.39a9.34,9.34,0,0,0-4.09,2.28,79.12,79.12,0,0,0-5.92,5.46c-.78.71-.84,1-.45,1.56a67.07,67.07,0,0,0,4.35,5.2c2.54,2.86,4.81,5.39,6.11,6.63a6.63,6.63,0,0,0,3.38,1.43l.91.13c.46.32.39,1.43-.13,1.62-1.88-.13-4.09-.19-6.17-.19-2.6,0-4.88.06-6.76.19a1.08,1.08,0,0,1-.13-1.62l1.17-.2c1-.13,1.62-.26,1.62-.65s-.26-.84-1.1-1.82l-7-8.06a2.63,2.63,0,0,0-2-.91c-1.17,0-1.24.2-1.24,2.21v3.58c0,4.68.13,5.33,2.47,5.65l1.56.2a1.12,1.12,0,0,1-.13,1.62c-2.14-.13-4-.19-6.3-.19s-4.29.06-6.24.19a1.07,1.07,0,0,1-.07-1.62l1.43-.2c2.41-.32,2.47-1,2.47-5.65Z" transform="translate(-124.46 -478.13)"></path>
<path d="M498.21,506c0-2.53,0-2.86-1.75-4l-.59-.39a.88.88,0,0,1,.07-1.17,45.06,45.06,0,0,0,6.69-3.18c.33,0,.59.13.65.39-.13,2.27-.26,5.39-.26,8.06v11.7c0,4.68.13,5.33,2.47,5.65l1.37.2a1.14,1.14,0,0,1-.13,1.62c-2-.13-3.84-.19-6.11-.19s-4.29.06-6.11.19a1.12,1.12,0,0,1-.13-1.62l1.36-.2c2.41-.32,2.47-1,2.47-5.65Zm5.33-21.06a3.35,3.35,0,0,1-6.69.13,3.36,3.36,0,0,1,3.51-3.44A3.13,3.13,0,0,1,503.54,484.89Z" transform="translate(-124.46 -478.13)"></path>
<path d="M536.76,515.12c0,5.13.06,7.54,1.88,7.54a10.86,10.86,0,0,0,2.8-.65c.45.13.52,1.75-.07,2.08a48.43,48.43,0,0,0-8.58,2.08c-.39,0-.71-.2-.71-.52v-1.11a7.22,7.22,0,0,0-.13-2h-.26c-2.86,2-5.07,3-8.19,3-7.22,0-12-5.66-12-12.48,0-9.1,6.89-14.95,15.73-14.95a13.43,13.43,0,0,1,4.36.58c.32,0,.39-.39.39-.91V488c0-3.84-.07-4.23-2-5.4l-.65-.39a1,1,0,0,1,0-1.3,45.4,45.4,0,0,0,7-2.73.71.71,0,0,1,.65.39c-.06,2-.19,5.2-.19,8.06ZM532,505.37a3.79,3.79,0,0,0-.72-2.54,6.78,6.78,0,0,0-5.46-2.73c-5.91,0-9,5.14-9,10.79,0,5.92,3.32,11.51,9.69,11.51a8,8,0,0,0,5-1.82,4,4,0,0,0,.46-2.41Z" transform="translate(-124.46 -478.13)"></path>
<path d="M560.74,499.26a15.06,15.06,0,0,1,1,5.26,1.13,1.13,0,0,1-1.56.2c-1.1-2.86-3.05-4.75-5.72-4.75a3.85,3.85,0,0,0-4.16,4c0,2.66,2.73,4.09,5,5.39,3.44,1.95,6.63,4.16,6.63,8.78,0,4.94-4.55,7.41-9.36,7.41-3.06,0-5.33-.65-7-1.95a19.36,19.36,0,0,1-.78-6.57,1.11,1.11,0,0,1,1.5-.06c1.1,3.57,3.18,6.69,6.89,6.69,2.34,0,4.35-1.36,4.35-4.16,0-3-2.6-4.61-5-6-3.77-2.14-6.44-4.42-6.44-8,0-4.75,3.9-7.41,8.84-7.41C557.75,498.09,560.16,498.74,560.74,499.26Z" transform="translate(-124.46 -478.13)"></path><text x="-124.46" y="-478.13"></text><text x="-124.46" y="-478.13"></text><text x="-124.46" y="-478.13"></text>
</svg>