<?xml version="1.0" encoding="UTF-8" standalone="no"?>
<!DOCTYPE svg PUBLIC "-//W3C//DTD SVG 1.1//EN" "http://www.w3.org/Graphics/SVG/1.1/DTD/svg11.dtd">
<svg width="100%" height="100%" viewBox="0 0 274 284" version="1.1" xmlns="http://www.w3.org/2000/svg" xmlns:xlink="http://www.w3.org/1999/xlink" xml:space="preserve" xmlnsSerif="http://www.serif.com/" style="fill-rule:evenodd;clip-rule:evenodd;stroke-linejoin:round;stroke-miterlimit:2;">
    <g transform="matrix(1,0,0,1,-9196.8,-1407.79)">
        <g transform="matrix(1,0,0,1,3814.39,656.989)">
            <g id="dribble-medium-3" transform="matrix(1,0,0,1,-883.321,323.309)">
                <g transform="matrix(1,0,0,1,1506.12,140.403)">
                    <path d="M5003.55,292.277C4998.64,293.915 4995.56,298.776 4993.28,303.044C4988.91,311.205 4987.91,320.769 4989.79,329.765C4990.78,334.499 4994.61,339.788 4999.64,340.728C5002.95,341.348 5004.92,340.503 5007.97,339.422C5015.17,336.867 5026.59,335.138 5030.47,327.514C5037.36,313.973 5032.87,290.361 5015.71,287.244C5012.68,286.694 5009.36,287.641 5006.76,289.142C5005.51,289.866 5005.03,291.784 5003.55,292.277Z" style="fill:rgb(250,53,101);"/>
                </g>
                <g transform="matrix(1,0,0,1,1519.09,157.92)">
                    <path d="M4919.8,348.785C4912.32,347.082 4905.39,352.619 4900.36,357.196C4892.22,364.6 4889.49,375.845 4884.66,385.224C4880.73,392.85 4876.66,398.023 4871.03,404.441C4863.29,413.261 4854.89,424.226 4842.76,427.389C4832.03,430.184 4819.67,429.473 4809.9,435.659C4797.01,443.822 4798.46,445.471 4786.02,454.458C4773.97,463.159 4757.22,470.005 4751.5,485.283C4746.46,498.724 4745.96,508.247 4747.23,522.413C4747.98,530.747 4749.9,541.559 4758.15,546.128C4770.05,552.723 4784.33,550.712 4797.21,551.282C4809.87,551.843 4824.32,555.391 4836.32,548.857C4853.87,539.297 4865.35,521.901 4875.77,505.591C4897.62,471.383 4895.08,470.105 4917.46,435.978C4924.55,425.163 4937.85,421.254 4947.65,413.855C4950.19,411.939 4952.85,405.573 4954.16,402.923C4961.59,387.831 4970.71,373.628 4970.15,356.204C4969.58,338.307 4948.4,341.755 4936.98,344.218C4932.92,345.096 4928.96,346.453 4925.01,347.743" style="fill:rgb(250,53,101);"/>
                </g>
            </g>
        </g>
    </g>
</svg>
