<?xml version="1.0" encoding="UTF-8"?>
<svg width="920px" height="381px" viewBox="0 0 920 381" version="1.1" xmlns="http://www.w3.org/2000/svg" xmlns:xlink="http://www.w3.org/1999/xlink">
    <!-- Generator: Sketch 59.1 (86144) - https://sketch.com -->
    <title>Werk-Logo Large</title>
    <desc>Created with Sketch.</desc>
    <defs>
        <linearGradient x1="57.5740684%" y1="49.0760976%" x2="42.93099%" y2="49.0837611%" id="linearGradient-1">
            <stop stop-color="#D82016" offset="0%"></stop>
            <stop stop-color="#E02614" offset="8.78378378%"></stop>
            <stop stop-color="#FE6C6F" offset="31.920397%"></stop>
            <stop stop-color="#E72812" offset="60.7685811%"></stop>
            <stop stop-color="#E23830" offset="74.3797508%"></stop>
            <stop stop-color="#B40712" offset="88.4792019%"></stop>
            <stop stop-color="#A82F27" offset="100%"></stop>
        </linearGradient>
        <linearGradient x1="50%" y1="0%" x2="50%" y2="100%" id="linearGradient-2">
            <stop stop-color="#BC0E14" offset="0.266575169%"></stop>
            <stop stop-color="#C11219" offset="99.3533573%"></stop>
        </linearGradient>
        <linearGradient x1="0%" y1="37.4719422%" x2="100%" y2="37.4719422%" id="linearGradient-3">
            <stop stop-color="#101010" offset="0%"></stop>
            <stop stop-color="#050505" offset="14.0189448%"></stop>
            <stop stop-color="#3C3D3F" offset="23.1399549%"></stop>
            <stop stop-color="#040404" offset="59.8566633%"></stop>
            <stop stop-color="#828388" offset="62.9602611%"></stop>
            <stop stop-color="#000000" offset="84.3820554%"></stop>
            <stop stop-color="#000000" offset="93.1168177%"></stop>
            <stop stop-color="#302E30" offset="100%"></stop>
        </linearGradient>
        <path d="M11.8021722,99.0337977 C22.4991769,97.9780102 32.6519069,97.4501165 42.260362,97.4501165 C51.7219438,97.4501165 61.1835255,97.961995 70.6451072,98.9857519 C73.1835283,99.260416 75.1072361,101.4035 75.1072361,103.956737 L75.1072361,238.313061 L75.1072361,238.313061 L7.29328261,238.313061 L7.29328261,104.00962 C7.29328278,101.438397 9.24338255,99.2863485 11.8021722,99.0337977 Z" id="path-4"></path>
        <filter x="-6.6%" y="-3.2%" width="113.3%" height="106.4%" filterUnits="objectBoundingBox" id="filter-5">
            <feMorphology radius="1" operator="erode" in="SourceAlpha" result="shadowSpreadInner1"></feMorphology>
            <feGaussianBlur stdDeviation="2" in="shadowSpreadInner1" result="shadowBlurInner1"></feGaussianBlur>
            <feOffset dx="0" dy="4" in="shadowBlurInner1" result="shadowOffsetInner1"></feOffset>
            <feComposite in="shadowOffsetInner1" in2="SourceAlpha" operator="arithmetic" k2="-1" k3="1" result="shadowInnerInner1"></feComposite>
            <feColorMatrix values="0 0 0 0 0   0 0 0 0 0   0 0 0 0 0  0 0 0 0.5 0" type="matrix" in="shadowInnerInner1"></feColorMatrix>
        </filter>
        <linearGradient x1="57.7493122%" y1="49.0760976%" x2="42.767432%" y2="49.0837611%" id="linearGradient-6">
            <stop stop-color="#D82016" offset="0%"></stop>
            <stop stop-color="#E02614" offset="8.78378378%"></stop>
            <stop stop-color="#FE6C6F" offset="31.920397%"></stop>
            <stop stop-color="#E72812" offset="60.7685811%"></stop>
            <stop stop-color="#E23830" offset="74.3797508%"></stop>
            <stop stop-color="#B40712" offset="88.4792019%"></stop>
            <stop stop-color="#A82F27" offset="100%"></stop>
        </linearGradient>
        <path d="M4.50042029,169.668287 C15.9820598,168.9924 27.7418791,168.654457 39.7798782,168.654457 C51.8789584,168.654457 63.9780386,168.995838 76.0771187,169.678601 C78.1953395,169.798128 79.8517598,171.550657 79.8517598,173.672247 L79.8517598,364.618924 C79.8517598,367.380348 77.6131836,369.618924 74.8517598,369.618924 L5.73548074,369.618924 C2.97405699,369.618924 0.735480738,367.380348 0.735480738,364.618924 L0.735480738,173.661382 C0.735472711,171.543539 2.38623721,169.792742 4.50042029,169.668287 Z" id="path-7"></path>
        <filter x="-4.4%" y="-1.7%" width="108.8%" height="103.5%" filterUnits="objectBoundingBox" id="filter-8">
            <feGaussianBlur stdDeviation="2" in="SourceAlpha" result="shadowBlurInner1"></feGaussianBlur>
            <feOffset dx="0" dy="3" in="shadowBlurInner1" result="shadowOffsetInner1"></feOffset>
            <feComposite in="shadowOffsetInner1" in2="SourceAlpha" operator="arithmetic" k2="-1" k3="1" result="shadowInnerInner1"></feComposite>
            <feColorMatrix values="0 0 0 0 0   0 0 0 0 0   0 0 0 0 0  0 0 0 0.5 0" type="matrix" in="shadowInnerInner1"></feColorMatrix>
        </filter>
    </defs>
    <g id="Werk-Logo-Large" stroke="none" stroke-width="1" fill="none" fill-rule="evenodd">
        <g id="Group" transform="translate(29.000000, 2.000000)">
            <path d="M145.146339,192.570018 C167.421391,125.633633 182.271202,92.1659428 189.69622,92.1659428 C190.569751,92.1659428 191.552459,92.2749581 192.644373,92.4929919 C196.138499,92.7110257 200.069332,91.2938271 204.436989,88.2413536 C210.114943,83.4446094 216.720925,79.7380899 224.255134,77.121684 C231.789343,74.5052781 239.159654,73.5241406 246.366288,74.1782421 C263.181768,75.7044789 273.773178,84.5347164 278.140835,100.66922 L278.140835,101.650367 C277.048921,104.70284 275.957023,107.210192 274.865108,109.172496 L276.175399,109.172496 C270.94331,115.649918 265.911856,123.979465 261.0809,134.16137 L260.451912,135.499949 C256.14665,144.750813 252.723875,152.239515 250.183515,157.966214 L248.986869,160.68273 C246.366275,166.67866 242.653822,174.255222 237.849399,183.412643 C233.044976,192.570064 227.530892,203.798637 221.30698,217.098701 C215.083069,230.398764 208.586276,243.589613 201.816408,256.671642 C185.656076,288.068513 169.605177,312.705966 153.663228,330.58474 C145.583062,340.396262 134.664083,345.192934 120.905963,344.9749 C115.009626,344.756866 109.331757,343.230652 103.872186,340.396213 C98.4126141,337.561773 94.1542123,333.201162 91.0968523,327.314249 L84.2178266,306.710155 C81.5972324,308.924037 78.6045245,311.695221 75.2396259,315.023779 L74.3906472,315.86753 C71.208497,319.044594 67.8659455,322.301711 64.3629186,325.638951 L62.5980318,327.314249 C52.9891861,336.471669 45.5642803,341.268342 40.3230917,341.704409 C35.0819031,342.140477 30.6051217,342.194984 26.8926131,341.867934 C23.1801045,341.540883 19.6860312,340.723268 16.4102883,339.415065 C8.98527115,336.580626 4.18092034,331.129862 1.99709176,323.06261 C-1.71541682,285.778826 0.140834832,238.13915 7.56582679,180.142152 C9.53127251,165.969953 11.2783092,152.015998 12.8069892,138.279866 C16.4437323,119.270877 23.2237782,105.49272 33.147324,96.945003 L33.7716387,96.4175812 C42.506953,89.0044311 51.0237567,86.8241255 59.3223053,89.8765991 C63.0348139,91.184802 65.8737485,93.3651076 67.8391942,96.4175812 C69.8046399,99.4700547 70.4597787,103.176574 69.8046301,107.537251 L69.8801257,109.991407 C70.2256144,122.064162 70.0912592,131.166518 69.4770574,137.298719 L69.2313769,140.54633 C68.5689496,149.673206 68.3165998,156.589147 68.4743211,161.29431 L68.4943395,161.827402 C68.7127224,167.060214 68.6581275,171.366317 68.3305532,174.745842 C68.0029789,178.125366 67.7845993,181.286809 67.6754079,184.230266 C67.5662164,187.173722 67.6754062,189.572058 68.0029805,191.425346 C68.3305548,193.278633 69.1494782,193.660187 70.4597754,192.570018 L71.4541445,190.472534 C76.0469713,180.86743 79.9739247,173.826493 83.2351087,169.349531 L85.8966411,165.711104 C88.5991133,162.031804 91.4244102,158.229881 94.3725788,154.305273 C100.487299,148.854427 105.837599,146.783137 110.423639,148.09134 C112.558938,148.478955 114.780482,149.16804 117.088323,150.158611 L117.957809,150.544208 C120.578404,151.743394 124.072477,152.779039 128.440134,153.651174 C131.279111,156.049546 133.135338,158.665913 134.008869,161.500353 C134.664018,162.154454 135.319157,162.754038 135.974305,163.299123 C136.629454,163.844207 137.120808,164.498299 137.448382,165.261418 L137.591059,165.616085 C137.925425,166.491607 138.423817,168.063127 139.086245,170.330679 L141.110825,177.212333 C141.25338,177.693822 141.397452,178.179855 141.54304,178.670431 C142.241865,181.025196 142.870801,183.310163 143.429858,185.525376 L145.146339,192.570018 L145.146339,192.570018 Z M153.314835,329.261152 L152.966835,330.305152 L152.975427,330.554339 C152.995477,330.774883 153.050612,330.74982 153.140835,330.479152 C153.256835,330.131151 153.314835,329.725155 153.314835,329.261152 Z M352.351131,282.748039 C348.196983,284.708117 344.152216,286.232599 340.216709,287.321531 C336.281201,288.410463 331.689844,289.499379 326.4425,290.588311 L321.86982,291.51208 C310.44438,293.777232 302.020636,295.102688 296.598381,295.488481 C297.254299,297.666345 300.533839,300.279743 306.437101,303.328753 C310.372609,303.982112 314.690671,303.383209 319.391417,301.532024 C324.092162,299.68084 329.011473,297.938574 334.149498,296.305176 C339.287522,294.671778 344.316151,293.7462 349.235536,293.528413 C354.154921,293.310627 358.800937,295.161783 363.173723,299.081939 C364.922838,303.002095 366.343972,305.288818 367.437169,305.942177 C368.393716,306.513866 369.266554,306.835438 370.055702,306.906898 L370.388785,306.922211 C371.263342,306.922211 372.247204,307.248886 373.340401,307.902245 C374.433598,308.555604 376.018709,311.060111 378.095783,315.415839 C380.172856,319.771568 379.626266,323.909448 376.455996,327.829603 C373.285726,331.749759 368.421074,335.125398 361.861894,337.956621 C355.302714,340.787845 347.650452,343.074568 338.904879,344.816859 C330.159306,346.559151 321.413864,347.756958 312.668291,348.410317 C292.990752,349.934822 278.014182,348.41034 267.738134,343.836825 C252.87066,338.827737 243.250673,328.918604 238.877887,314.109127 C233.286455,294.829673 236.261925,272.389985 247.804388,246.78941 L248.38865,245.506747 C253.854633,233.310707 262.490757,220.243718 274.297281,206.305387 C284.573329,194.109347 296.051722,185.289129 308.732803,179.844469 C323.381638,173.528663 338.686161,170.58859 354.646832,171.024163 C371.7007,171.459736 383.507046,178.864363 390.066226,193.238267 C393.345816,200.860792 394.001724,211.532166 392.03397,225.252711 L391.550163,227.65556 C388.116086,244.24871 383.685992,256.0792 378.259761,263.147359 C372.575139,270.334311 363.939015,276.867806 352.351131,282.748039 Z M333.846654,230.460248 C322.297398,228.083574 313.254248,234.565316 306.716932,249.905668 C304.755738,254.010833 303.230387,258.331994 302.140835,262.869281 C309.549792,263.733526 317.394452,259.628423 325.675051,250.553849 C328.725798,246.880807 331.013824,243.153805 332.539198,239.372732 C334.064571,235.591659 334.500386,232.620861 333.846654,230.460248 Z M429.896786,195.004975 C432.944315,187.153482 437.243443,181.210428 442.7943,177.175633 C448.345156,173.140838 453.678252,170.63276 458.793748,169.651323 C463.909243,168.669887 468.153952,169.269644 471.528002,171.450615 C474.902052,173.631585 476.044858,177.012038 474.956455,181.592075 C479.092388,177.448232 485.078516,173.631591 492.915019,170.142039 L494.922288,169.256459 C501.818101,166.243509 507.352832,164.139666 511.526622,162.944873 C516.097916,161.636291 520.016109,160.98201 523.281318,160.98201 C530.46478,161.418204 532.532715,165.343892 529.485186,172.75919 C533.185757,173.413481 535.906724,175.812513 537.648169,179.956356 C539.389615,184.100199 539.607292,188.680168 538.301208,193.696399 C536.995124,198.712631 534.05648,203.61974 529.485186,208.417875 C525.096744,213.024084 519.253932,216.22326 511.956587,218.01549 L511.036843,218.232191 C503.30918,219.976967 496.887697,223.957178 491.772201,230.172943 C486.656706,236.388708 482.1399,244.076513 478.221649,253.236588 C471.821837,268.411778 466.049292,289.765734 460.903848,317.299074 L460.589604,318.99251 C458.886858,329.01528 452.085433,337.47409 440.185132,344.369181 L439.365847,344.836878 C427.890967,351.436909 417.349713,353.46454 407.741785,350.919826 L407.040431,350.725468 C395.938718,347.672109 391.040977,339.493594 392.347061,326.189676 C392.769983,317.079452 395.45248,305.036578 400.394628,290.060712 L403.82749,279.83336 C407.081491,270.187279 409.772527,262.335875 411.900636,256.279034 L413.607101,251.449783 C416.068098,244.444187 417.797425,239.042197 418.795128,235.243674 L429.896786,195.004975 Z M590.756219,73.9855979 C595.551115,68.0973822 601.326698,64.8262003 608.083143,64.1719541 C614.839587,63.5177079 621.377983,64.5535822 627.698527,67.279608 C634.019072,70.0056338 639.413248,74.1491309 643.881219,79.7102235 C648.349191,85.2713162 650.801089,91.4320421 651.236989,98.1925861 L648.294681,107.679109 C650.692129,110.514175 652.817108,112.804003 654.669681,114.548659 C656.522254,116.293316 657.5575,119.019301 657.77545,122.726696 C659.063918,125.734945 653.793279,137.529193 641.963377,158.109787 L638.047048,164.909222 C635.194881,169.849697 632.258641,174.90794 629.238303,180.083997 L625.573527,186.35182 C620.015807,195.83839 615.493416,204.288943 612.006219,211.703733 C614.098538,211.180337 616.190831,210.726731 618.283139,210.342909 L619.852373,210.068126 C622.467771,209.631962 625.083129,209.086765 627.698527,208.432519 L630.854438,207.630704 C645.256543,204.014423 655.101919,202.155422 660.390835,202.05365 C666.05753,201.944609 670.74338,202.544326 674.448527,203.852818 C684.474218,207.778296 689.704935,213.884502 690.140835,222.17162 C687.089538,229.368328 675.647344,239.399953 655.813912,252.266795 L654.029632,253.377558 C650.264439,255.733806 647.154095,257.762427 644.698527,259.463467 L616.256219,279.744998 C614.730571,282.1439 613.640835,284.433728 612.986989,286.614548 L612.986989,286.94167 C613.422888,288.03208 616.201707,289.558632 621.323527,291.52137 L625.850162,293.271183 C629.094242,294.537083 631.99881,295.698454 634.563912,296.755314 C643.281904,300.680791 651.019006,306.023721 657.77545,312.784265 C659.954948,315.183168 661.371601,318.726948 662.02545,323.415713 C662.6793,328.104477 661.970973,332.411533 659.90045,336.337011 C657.829927,340.262488 654.179323,343.097512 648.948527,344.842169 C643.717732,346.586825 636.416523,345.823549 627.044681,342.552318 C613.313843,336.44602 597.076826,322.816096 578.333143,301.662136 L574.04682,316.709715 C573.344542,319.181295 572.648317,321.634706 571.958143,324.069956 C569.887619,331.375705 567.653667,338.844904 565.256219,346.477776 C561.986972,353.892566 554.358843,357.381827 542.371604,356.945663 C537.576708,356.945663 533.272264,355.964308 529.458143,354.001569 C525.644021,352.038831 523.410069,349.421885 522.756219,346.150654 C521.012621,341.352849 520.140835,337.809069 520.140835,335.519207 C520.140835,333.229345 520.685701,330.55788 521.77545,327.504731 L522.722545,325.088583 C527.188356,313.565199 530.032888,304.284419 531.256219,297.245996 L531.635452,295.082078 C532.733917,288.870021 533.479294,285.17522 533.871604,283.997577 C527.959716,280.194771 524.400097,274.243071 523.192649,266.142307 L523.083143,265.351653 C521.775444,257.064535 523.736963,249.649856 528.967758,243.107394 L533.830751,241.267331 C538.325945,239.549943 541.717746,238.200577 544.006219,237.219208 C545.232187,229.450034 547.224356,221.105957 549.98278,212.186756 L551.693087,206.738482 C556.209978,192.251627 559.806103,179.447261 562.481541,168.325101 L563.131219,165.579607 C565.955849,153.436798 569.985595,139.736557 575.22057,124.478505 L575.881219,122.563135 C581.43894,106.534103 586.397223,90.3417528 590.756219,73.9855979 Z" id="Werk" fill="#FB0000" fill-rule="nonzero"></path>
            <g id="Lipstick-Symbol---All" transform="translate(768.500000, 189.000000) rotate(-163.000000) translate(-768.500000, -189.000000) translate(728.000000, 4.000000)">
                <g id="Lipstick---Red-Lipstick-Gradient">
                    <g>
                        <path d="M17.4463861,130.413004 L66.4231303,130.413004 C66.4231303,99.4693846 66.4231303,78.5654275 66.4231303,67.7011324 C66.4231303,39.5492379 62.775926,9.1015179 54.4394589,4.98926425 C52.3553564,3.96120787 50.2712253,4.98926425 47.1450502,6.53135937 C41.7076689,9.21353764 39.0593412,12.5792531 35.1613787,15.7839301 C32.0352035,18.3540886 27.8298704,21.8125803 23.6987365,29.1487544 C18.4884445,38.4013251 18.9397177,56.8676277 18.4884445,67.7011324 C18.4884445,86.5489616 18.1410917,107.452919 17.4463861,130.413004 Z" id="Lipstick" fill="url(#linearGradient-1)"></path>
                        <path d="M38.4722699,42.2043393 C42.2089887,42.4097676 46.2530727,26.6810546 45.722276,17.2809526 C45.1914793,7.88085059 41.6567266,-0.846603595 37.9200078,-1.05203185 C34.1832891,-1.25746011 31.6119678,11.9056306 32.1427645,21.3057326 C32.6735612,30.7058346 34.7355512,41.9989111 38.4722699,42.2043393 Z" id="Lipstick-Tip" fill="url(#linearGradient-2)" transform="translate(38.921424, 20.575962) rotate(43.000000) translate(-38.921424, -20.575962) "></path>
                        <g id="Lipstick-Shaft---Black">
                            <use fill="url(#linearGradient-3)" fill-rule="evenodd" xlink:href="#path-4"></use>
                            <use fill="black" fill-opacity="1" filter="url(#filter-5)" xlink:href="#path-4"></use>
                        </g>
                        <g id="Lipstick-Body---Red">
                            <use fill="url(#linearGradient-6)" fill-rule="evenodd" xlink:href="#path-7"></use>
                            <use fill="black" fill-opacity="1" filter="url(#filter-8)" xlink:href="#path-7"></use>
                        </g>
                    </g>
                </g>
            </g>
        </g>
    </g>
</svg>