<?xml version="1.0" encoding="UTF-8" standalone="no"?>
<!DOCTYPE svg PUBLIC "-//W3C//DTD SVG 1.1//EN" "http://www.w3.org/Graphics/SVG/1.1/DTD/svg11.dtd">
<svg width="100%" height="100%" viewBox="0 0 223 70" version="1.1" xmlns="http://www.w3.org/2000/svg" xmlns:xlink="http://www.w3.org/1999/xlink" xml:space="preserve" xmlns:serif="http://www.serif.com/" style="fill-rule:evenodd;clip-rule:evenodd;stroke-linejoin:round;stroke-miterlimit:2;">
    <g transform="matrix(1,0,0,1,-9556,-4148)">
        <g transform="matrix(0.446014,0,0,0.446014,7013.5,3883.68)">
            <g id="brace-bottom" transform="matrix(5.5475e-17,0.905975,-0.905975,5.5475e-17,6377.48,-127.705)">
                <path d="M967.63,717.732L967.63,215.412C966.832,212.621 965.836,210.329 964.64,208.535C963.444,206.741 962.447,205.047 961.65,203.452C958.46,198.668 937.73,196.276 899.458,196.276L812.748,196.276C809.957,196.276 806.17,196.874 801.386,198.07C797,201.259 795.206,204.249 796.004,207.04L796.004,220.794L795.406,235.744C796.602,239.332 800.588,242.123 807.366,244.116L811.552,244.714L839.658,244.714L839.06,681.254L839.06,699.194L817.532,699.194C802.781,699.194 795.406,703.579 795.406,712.35C795.406,728.297 796.602,738.064 798.994,741.652C801.386,745.24 808.362,747.034 819.924,747.034L903.644,747.034C936.334,747.034 955.271,746.037 960.454,744.044C965.238,742.449 967.63,733.679 967.63,717.732Z" style="fill:rgb(117,57,252);fill-rule:nonzero;"/>
            </g>
        </g>
    </g>
</svg>
