<?xml version="1.0" encoding="UTF-8" standalone="no"?>
<!DOCTYPE svg PUBLIC "-//W3C//DTD SVG 1.1//EN" "http://www.w3.org/Graphics/SVG/1.1/DTD/svg11.dtd">
<svg width="100%" height="100%" viewBox="0 0 1024 1024" version="1.1" xmlns="http://www.w3.org/2000/svg" xmlns:xlink="http://www.w3.org/1999/xlink" xml:space="preserve" xmlnsSerif="http://www.serif.com/" style="fill-rule:evenodd;clip-rule:evenodd;stroke-linejoin:round;stroke-miterlimit:2;">
    <g transform="matrix(2.7381,0,0,2.7381,-659.336,-526.991)">
        <path d="M428.851,388.71C466.022,388.71 496.128,358.605 496.128,321.434C496.128,284.262 466.022,254.157 428.851,254.157C391.68,254.157 361.472,284.16 361.472,321.434C361.472,358.605 391.578,388.71 428.851,388.71ZM428.851,291.021C445.645,291.021 459.264,304.64 459.264,321.434C459.264,338.227 445.645,351.846 428.851,351.846C412.058,351.846 398.438,338.227 398.438,321.434C398.438,304.64 412.058,291.021 428.851,291.021ZM355.43,504.73C367.104,504.73 376.525,495.309 376.525,483.635C376.525,460.8 400.486,441.446 428.851,441.446C457.216,441.446 481.178,460.698 481.178,483.635C481.178,495.309 490.598,504.73 502.272,504.73C513.946,504.73 523.366,495.309 523.366,483.635C523.366,437.146 480.973,399.258 428.851,399.258C376.73,399.258 334.336,437.146 334.336,483.635C334.336,495.309 343.757,504.73 355.43,504.73Z" style="fill-rule:nonzero;"/>
    </g>
</svg>
