<?xml version="1.0" encoding="UTF-8" standalone="no"?>
<!DOCTYPE svg PUBLIC "-//W3C//DTD SVG 1.1//EN" "http://www.w3.org/Graphics/SVG/1.1/DTD/svg11.dtd">
<svg width="100%" height="100%" viewBox="0 0 291 211" version="1.1" xmlns="http://www.w3.org/2000/svg" xmlns:xlink="http://www.w3.org/1999/xlink" xml:space="preserve" xmlnsSerif="http://www.serif.com/" style="fill-rule:evenodd;clip-rule:evenodd;stroke-linecap:round;stroke-linejoin:round;stroke-miterlimit:1.5;">
    <g transform="matrix(1,0,0,1,-10952,-653.434)">
        <g transform="matrix(1,0,0,1,6431.85,589.285)">
            <g id="outline-5" transform="matrix(1,0,0,1,-1107.2,-918.696)">
                <path d="M5912.89,1037.89C5913.9,1024.61 5902.41,1013.45 5893.96,1005.33C5871.18,983.453 5833.84,986.366 5805.59,991.5C5776.88,996.719 5755.59,1023.38 5742.02,1047.28C5733.54,1062.21 5728.41,1079.79 5715.28,1091.7C5692.19,1112.66 5649.96,1109.89 5636.49,1142.22C5634.49,1147.03 5632.97,1152.13 5632.49,1157.31C5632.05,1162.06 5632.88,1166.88 5633.77,1171.56C5638.36,1195.83 5668.25,1189.4 5684,1181C5695.73,1174.74 5705.16,1166.12 5716.62,1159.44C5732.53,1150.17 5734.76,1152.16 5750.2,1141.96C5766.22,1131.39 5775.05,1113.51 5790.4,1102.2C5808.37,1088.97 5830.07,1084.12 5850.93,1077.43C5871.23,1070.91 5880.95,1068.75 5899.31,1057.5C5906.24,1053.26 5912.26,1046.27 5912.89,1037.89Z" style="fill:none;stroke:rgb(255,195,0);stroke-width:10px;"/>
            </g>
        </g>
    </g>
</svg>
