<?xml version="1.0" encoding="UTF-8" standalone="no"?>
<!DOCTYPE svg PUBLIC "-//W3C//DTD SVG 1.1//EN" "http://www.w3.org/Graphics/SVG/1.1/DTD/svg11.dtd">
<svg width="100%" height="100%" viewBox="0 0 186 104" version="1.1" xmlns="http://www.w3.org/2000/svg" xmlns:xlink="http://www.w3.org/1999/xlink" xml:space="preserve" xmlns:serif="http://www.serif.com/" style="fill-rule:evenodd;clip-rule:evenodd;stroke-linejoin:round;stroke-miterlimit:2;">
    <g transform="matrix(1,0,0,1,-6304,-4527)">
        <g transform="matrix(1,0,0,1,501.996,3661.44)">
            <g id="bean" transform="matrix(1,0,0,1,599.824,-691.535)">
                <path d="M5295.46,1580.48C5287.47,1579.87 5279.28,1576.04 5271.64,1574.11C5256.79,1570.35 5239.24,1569.04 5224.67,1574.93C5220.87,1576.46 5217.09,1578.36 5214,1581.06C5192.22,1600.02 5206.99,1629.85 5224.84,1644.54C5238.5,1655.78 5260.17,1658.05 5276.53,1659.54C5309.68,1662.57 5347.54,1658.95 5372.81,1634.81C5389.87,1618.49 5391.86,1599 5382.42,1577.83C5379.2,1570.62 5373.88,1561.48 5365.46,1559.02C5338.47,1551.14 5321.12,1582.43 5295.46,1580.48Z" style="fill:rgb(2,136,254);"/>
            </g>
        </g>
    </g>
</svg>
