<?xml version="1.0" encoding="UTF-8" standalone="no"?>
<!DOCTYPE svg PUBLIC "-//W3C//DTD SVG 1.1//EN" "http://www.w3.org/Graphics/SVG/1.1/DTD/svg11.dtd">
<svg width="100%" height="100%" viewBox="0 0 290 347" version="1.1" xmlns="http://www.w3.org/2000/svg" xmlns:xlink="http://www.w3.org/1999/xlink" xml:space="preserve" xmlns:serif="http://www.serif.com/" style="fill-rule:evenodd;clip-rule:evenodd;stroke-linecap:round;stroke-linejoin:round;stroke-miterlimit:1.5;">
    <g transform="matrix(1,0,0,1,-6141,-995)">
        <g transform="matrix(1,0,0,1,505.47,652.887)">
            <g id="dribble-medium-2" transform="matrix(0.640111,0.30986,-0.537896,1.11119,3384.37,-2295.94)">
                <path d="M4762.87,1082.51C4760.16,1085.22 4759.41,1094.49 4758.65,1097.76C4754.31,1116.28 4749.69,1134.73 4745.21,1153.21C4742.4,1164.81 4742.22,1169.48 4735.89,1179.85C4733.98,1182.96 4727.05,1189.06 4723.87,1190.77C4701.67,1202.72 4700.67,1200.32 4678.32,1212.11C4673.4,1214.71 4665.1,1220.37 4663.83,1226.78C4658.8,1252.1 4695.98,1250.1 4697.77,1272.12C4699.15,1289.08 4689.95,1304.52 4684.49,1319.79C4681.14,1329.16 4677.86,1338.57 4675.24,1348.17C4672.16,1359.52 4679.73,1366.15 4690.66,1365.75C4696.39,1365.54 4702.12,1364.95 4707.76,1363.95C4712.81,1363.06 4717.76,1361.64 4722.65,1360.08C4729.48,1357.91 4738.59,1354.24 4743.66,1348.78C4758.31,1333 4756.44,1310.63 4766.92,1292.87C4773.81,1281.2 4787.9,1283.45 4798.94,1280C4818.37,1273.92 4834.05,1255.68 4830.47,1234.58C4827.26,1215.66 4800.57,1220.96 4791.44,1208.17C4787.82,1203.1 4788.13,1194.35 4788.82,1189.14C4791.9,1165.74 4810.38,1144.33 4821.42,1125.75C4830.29,1110.82 4834.66,1101.77 4838.63,1084.87C4839.58,1080.81 4840.02,1076.58 4839.82,1072.41C4839.55,1066.69 4838.56,1061.01 4837.23,1055.44C4831.45,1031.22 4802.72,1043.31 4788.75,1051.63C4784.59,1054.11 4780.51,1056.78 4776.75,1059.82C4769.35,1065.81 4769.41,1075.97 4762.87,1082.51Z" style="fill:none;stroke:rgb(255,195,0);stroke-width:20px;"/>
            </g>
        </g>
    </g>
</svg>
