<?xml version="1.0" encoding="UTF-8" standalone="no"?>
<!DOCTYPE svg PUBLIC "-//W3C//DTD SVG 1.1//EN" "http://www.w3.org/Graphics/SVG/1.1/DTD/svg11.dtd">
<svg width="100%" height="100%" viewBox="0 0 336 242" version="1.1" xmlns="http://www.w3.org/2000/svg" xmlns:xlink="http://www.w3.org/1999/xlink" xml:space="preserve" xmlns:serif="http://www.serif.com/" style="fill-rule:evenodd;clip-rule:evenodd;stroke-linecap:round;stroke-linejoin:round;stroke-miterlimit:1.5;">
    <g transform="matrix(1,0,0,1,-7804,-55)">
        <g transform="matrix(1,0,0,1,3122.93,585.182)">
            <g id="outline-2" transform="matrix(1,0,0,1,-317.126,-1806.08)">
                <path d="M5316.77,1281.15C5314.17,1280.78 5311.99,1282.2 5309.86,1283.45C5305.45,1286.04 5300.22,1288.32 5298.44,1293.57C5297.83,1295.39 5297.54,1297.3 5297.21,1299.19C5296.48,1303.36 5296.84,1308 5301.15,1310.08C5302.12,1310.55 5303.22,1310.74 5304.3,1310.89C5310.68,1311.76 5319.13,1311.81 5324.21,1307.03C5327.93,1303.53 5329.13,1297.96 5328.85,1293.04C5328.72,1290.72 5328.4,1287.3 5326.52,1285.51C5323.12,1282.25 5321.22,1281.78 5316.77,1281.15Z" style="fill:none;stroke:rgb(253,251,222);stroke-width:10px;"/>
                <path d="M5275.7,1317.15C5274.82,1310.42 5267.33,1306.92 5262.06,1304.6C5242.84,1296.13 5221.07,1306.25 5205.37,1317.52C5198.45,1322.48 5196.1,1331.3 5192.11,1338.26C5184.19,1352.09 5175.28,1369.83 5160.14,1377.71C5152.63,1381.62 5134.56,1386.91 5126.69,1388.05C5114.38,1389.84 5097.12,1386.76 5085.35,1393.36C5065.24,1404.62 5068.03,1436.02 5047.42,1447.25C5042.53,1449.91 5035.06,1449.32 5029.88,1450.81C5016.15,1454.76 5002.03,1465.31 5003.52,1481.37C5003.91,1485.58 5005.42,1489.68 5007.21,1493.52C5012.47,1504.76 5025.82,1508.63 5037.06,1510.06C5061.11,1513.12 5087.4,1514.68 5109.3,1502.1C5117.74,1497.26 5125.36,1491.1 5133.29,1485.46C5137.68,1482.34 5142.58,1479.75 5146.26,1475.81C5150.34,1471.44 5159.16,1453.92 5162.25,1448.96C5170.33,1435.99 5178.41,1423 5187.14,1410.45C5193.9,1400.72 5206.45,1399.45 5216.29,1394.84C5224.73,1390.88 5229.42,1387.22 5233.81,1378.83C5235.82,1374.98 5237.53,1370.82 5238.07,1366.5C5238.87,1359.96 5233.51,1351.34 5237.36,1344.86C5243.9,1333.83 5255.01,1334.36 5266.27,1331.24C5272.48,1329.52 5276.55,1323.59 5275.7,1317.15Z" style="fill:none;stroke:rgb(253,251,222);stroke-width:10px;"/>
            </g>
        </g>
    </g>
</svg>
