<?xml version="1.0" encoding="UTF-8" standalone="no"?>
<!DOCTYPE svg PUBLIC "-//W3C//DTD SVG 1.1//EN" "http://www.w3.org/Graphics/SVG/1.1/DTD/svg11.dtd">
<svg width="100%" height="100%" viewBox="0 0 172 193" version="1.1" xmlns="http://www.w3.org/2000/svg" xmlns:xlink="http://www.w3.org/1999/xlink" xml:space="preserve" xmlns:serif="http://www.serif.com/" style="fill-rule:evenodd;clip-rule:evenodd;stroke-linecap:round;stroke-linejoin:round;stroke-miterlimit:1.5;">
    <g transform="matrix(1,0,0,1,-7690,-67)">
        <g transform="matrix(1,0,0,1,3122.93,585.182)">
            <g id="outline-1" transform="matrix(1,0,0,1,-747.898,-1775.86)">
                <path d="M5432.36,1267.57C5428.13,1269.6 5424.3,1272.45 5419.95,1274.22C5414.05,1276.62 5407.45,1277 5401.59,1279.49C5388.8,1284.91 5377.07,1298.2 5367.58,1307.89C5354.27,1321.46 5332.67,1339.64 5326.24,1359.97C5323.86,1367.49 5321,1385.19 5320.61,1393.53C5320.28,1400.52 5319.56,1414.77 5322.79,1422.92C5328.18,1436.52 5343.44,1450.49 5358.96,1443.66C5376.91,1435.76 5393.78,1419.85 5403.79,1403.09C5412.78,1388.03 5418.63,1368.83 5431.47,1356.07C5447.77,1339.87 5469.32,1325.89 5479.62,1304.29C5483.07,1297.04 5481.76,1291.76 5480.45,1284.31C5479.82,1280.7 5478.46,1274.03 5475.53,1271.29C5464.03,1260.56 5445.73,1261.17 5432.36,1267.57Z" style="fill:none;stroke:rgb(255,195,0);stroke-width:10px;"/>
            </g>
        </g>
    </g>
</svg>
