<?xml version="1.0" encoding="UTF-8"?>
<svg width="260px" height="205px" viewBox="0 0 260 205" version="1.1" xmlns="http://www.w3.org/2000/svg" xmlns:xlink="http://www.w3.org/1999/xlink">
    <!-- Generator: Sketch 59.1 (86144) - https://sketch.com -->
    <title>final logo flattened</title>
    <desc>Created with Sketch.</desc>
    <g id="Symbols" stroke="none" stroke-width="1" fill="none" fill-rule="evenodd">
        <g id="foreverhomes-portfolio" transform="translate(-219.000000, -29.000000)" fill="#FFFFFF" fill-rule="nonzero">
            <g id="Group-2" transform="translate(202.000000, 29.000000)">
                <path d="M151.030289,1.36269881 L262.737755,77.2958183 C264.971348,78.8141025 265.521467,81.8128618 263.96648,83.9937345 C263.045172,85.2858707 261.534691,86.056156 259.922202,86.056156 L217.765584,86.0558443 C217.974078,86.8349534 218.085071,87.6525481 218.085071,88.4954546 L218.085,124.988 L248.894721,117.233569 C251.521875,116.572292 254.234894,117.993542 254.954419,120.408021 C255.673944,122.8225 254.127505,125.315893 251.500351,125.977171 L218.085,134.387 L218.085,138.928 L272.019328,138.928571 C274.770077,138.928571 277,141.103188 277,143.785714 C277,146.46824 274.770077,148.642857 272.019328,148.642857 L218.085,148.642 L218.085,153.183 L251.500351,161.594258 C254.054528,162.237166 255.587196,164.61182 255.009159,166.962059 L254.954419,167.163407 C254.234894,169.577886 251.521875,170.999137 248.894721,170.337859 L248.894721,170.337859 L218.085,162.583 L218.085071,199.688482 C218.085071,202.34581 215.878806,204.5 213.15724,204.5 L83.2722323,204.5 C80.5506661,204.5 78.3444009,202.34581 78.3444009,199.688482 L78.344,161.971 L45.1052789,170.337859 C42.4781251,170.999137 39.765106,169.577886 39.0455812,167.163407 C38.3260564,164.748928 39.8724953,162.255535 42.4996491,161.594258 L78.344,152.571 L78.344,148.642 L21.9806723,148.642857 C19.3023111,148.642857 17.117725,146.581188 17.0046017,143.996407 L17,143.785714 C17,141.103188 19.2299229,138.928571 21.9806723,138.928571 L21.9806723,138.928571 L78.344,138.928 L78.344,134.999 L42.4996491,125.977171 C39.9454718,125.334262 38.4128036,122.959608 38.9908407,120.60937 L39.0455812,120.408021 C39.765106,117.993542 42.4781251,116.572292 45.1052789,117.233569 L45.1052789,117.233569 L78.344,125.6 L78.3444009,88.4954546 C78.3444009,87.6525481 78.455394,86.8349534 78.6638883,86.0558443 L36.5072706,86.056156 C33.7857045,86.056156 31.5794393,83.9019659 31.5794393,81.2446378 C31.5794393,79.6702085 32.3683454,78.1953802 33.6917175,77.2958183 L80.177,45.696 L80.1775701,16.0714286 C80.1775701,15.5191438 80.6252853,15.0714286 81.1775701,15.0714286 L103.476636,15.0714286 C104.02892,15.0714286 104.476636,15.5191438 104.476636,16.0714286 L104.476,29.179 L145.399183,1.36269881 C147.091372,0.212433732 149.3381,0.212433732 151.030289,1.36269881 Z M96.4729072,128.452252 C96.4729072,147.669857 148.323158,190.180673 148.323158,190.180673 L152.258921,186.843208 C164.320597,176.443802 199.957366,144.37129 199.957366,128.452252 C199.957366,109.290447 173.810284,91.5079164 148.323158,111.413963 C122.829479,91.5079163 96.4729072,109.234648 96.4729072,128.452252 Z" id="final-logo-flattened"></path>
            </g>
        </g>
    </g>
</svg>