<?xml version="1.0" encoding="UTF-8"?>
<svg width="2486px" height="2718px" viewBox="0 0 2486 2718" version="1.1" xmlns="http://www.w3.org/2000/svg" xmlns:xlink="http://www.w3.org/1999/xlink">
    <title>jest</title>
    <g id="jest" stroke="none" stroke-width="1" fill="none" fill-rule="evenodd">
        <g fill-rule="nonzero">
            <path d="M2307.09965,1338.23709 C2307.09965,1198.54274 2193.81683,1085.28903 2054.08658,1085.28903 C2045.09099,1085.28903 2036.23023,1085.77047 2027.48505,1086.69483 L2375,62 L898.181864,62 L1245.21525,1085.79935 C1240.09446,1085.47686 1234.96506,1085.30988 1229.83413,1085.29866 C1090.10389,1085.29866 976.821062,1198.53312 976.821062,1338.24672 C976.821062,1451.16343 1050.84689,1546.76759 1153.00561,1579.29361 C1099.05132,1672.7313 1031.15097,1756.89647 954.062406,1829.61302 C849.235826,1928.47171 729.268912,2003.4414 599.516643,2049.63066 C445.031311,1970.28951 372.084184,1793.8421 437.904182,1639.13649 C445.339511,1621.66025 452.92894,1603.95292 460.181275,1586.32262 C572.096459,1560.20937 655.503129,1459.90636 655.503129,1340.05693 C655.503129,1200.35296 542.220306,1087.10887 402.480425,1087.10887 C262.740545,1087.10887 149.467353,1200.35296 149.467353,1340.05693 C149.467353,1425.72419 192.095288,1501.39678 257.269992,1547.15275 C194.647571,1689.69721 102.592035,1838.88554 73.9101568,2011.78955 C39.5362073,2219.00091 73.7945817,2438.96077 253.061133,2563.18167 C670.556781,2852.46876 1123.74586,2383.84563 1601.57169,2266.0375 C1774.74166,2223.35312 1964.83374,2230.22807 2117.40245,2141.89364 C2231.97586,2075.55134 2307.5138,1965.60029 2328.94334,1842.16895 C2350.1321,1720.23008 2319.2543,1598.82078 2248.25268,1500.37613 C2286.34436,1454.93821 2307.18269,1397.52308 2307.09965,1338.23709" id="Path" fill="#99425B"></path>
            <path d="M2267.88788,1831.66509 C2249.28255,1938.8504 2183.08533,2032.46661 2086.2837,2088.54389 C1996.04016,2140.80756 1887.90392,2156.40866 1773.40219,2172.91501 C1712.06817,2181.75563 1648.64442,2190.91405 1586.68445,2206.18772 C1422.85742,2246.58685 1264.17285,2325.41091 1110.72705,2401.63479 C803.623596,2554.17885 538.411014,2685.90219 288.336928,2512.57593 C105.153423,2385.61959 113.608639,2150.71715 134.948911,2021.99847 C154.729108,1902.73675 208.204979,1792.9031 259.908913,1686.69045 C268.717604,1668.63912 277.45537,1650.55326 286.122008,1632.4333 C312.185373,1642.85273 339.533591,1649.71343 367.428829,1652.83029 C314.790776,1826.55139 397.570999,2015.44023 571.307389,2104.69391 L595.093703,2116.91477 L620.266749,2107.94896 C757.620673,2059.027 884.188899,1980.54 996.446817,1874.61625 C1069.00952,1806.1544 1131.40285,1730.41204 1182.68306,1649.47894 C1198.2731,1651.83094 1214.01736,1653.01235 1229.78381,1653.01327 C1389.24842,1653.01327 1521.29616,1533.7997 1541.7312,1379.83035 C1607.00393,1377.44204 1676.33092,1377.42278 1741.97922,1379.81109 C1762.39501,1533.7997 1894.46201,1653.0229 2053.92661,1653.0229 C2120.60533,1653.0229 2182.44975,1632.12513 2233.40254,1596.62782 C2268.77384,1669.0381 2281.97669,1750.51049 2267.88788,1831.66509 L2267.88788,1831.66509 Z M402.540124,1148.84745 C507.970311,1148.84745 593.735861,1234.62459 593.735861,1340.05719 C593.735861,1377.92355 582.622741,1413.23789 563.54554,1442.97628 C531.766254,1492.54346 477.741469,1526.51919 415.675562,1530.75652 C411.332393,1531.04543 406.950703,1531.2573 402.540124,1531.2573 C379.042713,1531.2573 356.537201,1526.97181 335.726584,1519.19052 C293.814831,1503.4299 258.717426,1473.53596 236.488543,1434.66532 C219.982501,1405.86855 211.309908,1373.24929 211.334703,1340.05719 C211.334703,1234.62459 297.109937,1148.84745 402.540124,1148.84745 L402.540124,1148.84745 Z M1038.59771,1338.23706 C1038.59771,1242.4444 1109.40773,1162.90769 1201.41358,1149.15562 C1210.67772,1147.75922 1220.15373,1147.03695 1229.79344,1147.03695 C1291.08894,1147.03695 1345.66264,1176.07232 1380.65838,1221.06512 C1389.42421,1232.28353 1396.91135,1244.44476 1402.98092,1257.32322 C1414.86545,1282.6404 1421.01451,1310.26909 1420.98926,1338.23706 C1420.98926,1353.52036 1419.1402,1368.37992 1415.74078,1382.63277 C1397.10657,1460.63826 1330.59156,1520.26912 1249.08251,1528.47414 C1242.74591,1529.10974 1236.31301,1529.43723 1229.79344,1529.43723 C1193.01707,1529.46737 1157.02196,1518.82582 1126.17371,1498.80316 C1073.53566,1464.70225 1038.59771,1405.48549 1038.59771,1338.23706 L1038.59771,1338.23706 Z M1836.59482,1110.86552 C1794.98773,1150.58056 1765.0445,1200.92669 1750.01071,1256.44686 C1677.94437,1253.78997 1605.80458,1253.78997 1533.73823,1256.44686 C1517.55969,1196.43079 1484.02773,1143.48336 1438.91077,1103.2672 L1636.7609,703.205 L1836.59482,1110.86552 Z M984.351429,123.595357 L2288.62145,123.595357 L1980.56462,1032.16665 C1967.31138,1035.34111 1954.27978,1039.37839 1941.55314,1044.25268 L1637.2424,423.454219 L1332.06496,1040.54502 C1318.76125,1035.97842 1305.16485,1032.3138 1291.36822,1029.5761 L984.351429,123.595357 Z M2245.12235,1338.24669 C2245.12235,1357.411 2242.26222,1375.92045 2236.99456,1393.39946 C2224.49728,1434.55016 2198.54373,1470.31214 2163.29551,1494.95104 C2131.25942,1517.43435 2093.06465,1529.48127 2053.92661,1529.44687 C1965.64761,1529.44687 1891.17815,1469.28627 1869.27934,1387.81388 C1864.93081,1371.65045 1862.73088,1354.98487 1862.73088,1338.24669 C1862.73088,1312.11004 1868.00816,1287.1868 1877.54195,1264.47854 C1882.46157,1252.85951 1888.51955,1241.75618 1895.62725,1231.33102 C1930.03555,1180.54079 1988.09534,1147.04658 2053.92661,1147.04658 C2059.96468,1147.04658 2065.91607,1147.35475 2071.81931,1147.91331 C2168.89059,1156.95616 2245.13198,1238.84266 2245.13198,1338.24669 L2245.12235,1338.24669 Z M2368.70525,1338.24669 C2368.70525,1184.56625 2257.97852,1056.33872 2112.14049,1028.95013 L2461,0 L811.992141,0 L1161.39094,1031.03027 C1020.61833,1062.35766 915.024436,1188.15836 915.024436,1338.23706 C915.024436,1450.93091 974.576891,1549.9112 1063.82853,1605.53585 C1020.89761,1669.50035 969.99297,1729.68977 911.653906,1784.7366 C819.128035,1872.01607 716.057219,1938.2148 604.935651,1981.77268 C493.005156,1911.46181 445.692541,1778.86211 494.825243,1663.35622 L498.677277,1654.30373 L505.899842,1637.31587 C628.837526,1594.43211 717.309131,1477.42388 717.309131,1340.05719 C717.309131,1166.48054 576.103173,1025.27135 402.540124,1025.27135 C228.977075,1025.27135 87.7518569,1166.48054 87.7518569,1340.05719 C87.7518569,1427.66409 123.76838,1506.99855 181.722241,1564.12553 C170.913378,1587.02737 159.94122,1609.85178 148.806605,1632.59702 C95.8122393,1741.42911 35.7590199,1864.78371 13.0416459,2001.77483 C-32.0656792,2273.83099 40.6992543,2491.31221 217.940996,2614.14677 C325.489802,2688.68535 434.714243,2718 544.62242,2718 C751.572978,2718 960.931059,2614.02158 1165.69559,2512.30628 C1313.1611,2439.06779 1465.65352,2363.32543 1616.2777,2326.17171 C1672.32481,2312.35222 1729.98977,2304.03163 1791.04451,2295.22953 C1912.12359,2277.76016 2037.31472,2259.70333 2148.21479,2195.47882 C2276.76682,2121.01728 2364.75692,1996.1122 2389.64106,1852.81324 C2411.00059,1729.78607 2385.29789,1606.5663 2322.60603,1502.05821 C2352.81384,1452.75976 2368.77061,1396.05475 2368.70525,1338.23706 L2368.70525,1338.24669 Z" id="Shape" fill="#FFFFFF"></path>
        </g>
    </g>
</svg>