<?xml version="1.0" encoding="UTF-8" standalone="no"?>
<!DOCTYPE svg PUBLIC "-//W3C//DTD SVG 1.1//EN" "http://www.w3.org/Graphics/SVG/1.1/DTD/svg11.dtd">
<svg width="100%" height="100%" viewBox="0 0 3100 1492" version="1.1" xmlns="http://www.w3.org/2000/svg" xmlns:xlink="http://www.w3.org/1999/xlink" xml:space="preserve" xmlns:serif="http://www.serif.com/" style="fill-rule:evenodd;clip-rule:evenodd;stroke-linecap:round;stroke-linejoin:round;stroke-miterlimit:1.5;">
    <g transform="matrix(1,0,0,1,-3738.32,-435.551)">
        <g transform="matrix(1,0,0,1,-120.126,66.611)">
            <g id="memphis-logo-expanded" transform="matrix(1,0,0,1,19.0272,166.797)">
                <g id="shapes-simple">
                    <g transform="matrix(1,0,0,1,-72.3798,-48.5769)">
                        <circle cx="4755.79" cy="733.764" r="306.068" style="fill:rgb(2,136,254);"/>
                    </g>
                    <g transform="matrix(0.321323,0,0,0.321323,5219.94,761.197)">
                        <circle cx="4755.79" cy="733.764" r="306.068" style="fill:rgb(117,57,252);"/>
                    </g>
                    <g transform="matrix(1,0,0,1,0.163406,-51.2808)">
                        <rect x="5141.35" y="712.613" width="166.471" height="512.791" style="fill:rgb(107,79,140);"/>
                    </g>
                    <g transform="matrix(1,0,0,1,-21.2139,-54.4743)">
                        <rect x="6480.03" y="1163.6" width="209.863" height="209.863" style="fill:rgb(117,57,252);"/>
                    </g>
                    <g transform="matrix(1.12892,0,0,1,-1008.42,-29.7746)">
                        <g id="horizontal-lines---all" serif:id="horizontal lines - all">
                            <g id="horizontal-lines" serif:id="horizontal lines">
                                <g transform="matrix(0.97495,0,0,1,167.393,-51.2808)">
                                    <path d="M6899.51,1287.06L6469.04,1287.06" style="fill:none;stroke:rgb(1,136,254);stroke-width:12.15px;"/>
                                </g>
                                <g transform="matrix(0.97495,0,0,1,167.393,-29.2318)">
                                    <path d="M6899.51,1287.06L6469.04,1287.06" style="fill:none;stroke:rgb(1,136,254);stroke-width:12.15px;"/>
                                </g>
                                <g transform="matrix(0.97495,0,0,1,167.393,-7.18283)">
                                    <path d="M6899.51,1287.06L6469.04,1287.06" style="fill:none;stroke:rgb(1,136,254);stroke-width:12.15px;"/>
                                </g>
                                <g transform="matrix(0.97495,0,0,1,167.393,14.8662)">
                                    <path d="M6899.51,1287.06L6469.04,1287.06" style="fill:none;stroke:rgb(1,136,254);stroke-width:12.15px;"/>
                                </g>
                                <g transform="matrix(0.97495,0,0,1,167.393,36.9152)">
                                    <path d="M6899.51,1287.06L6469.04,1287.06" style="fill:none;stroke:rgb(1,136,254);stroke-width:12.15px;"/>
                                </g>
                                <g transform="matrix(0.97495,0,0,1,167.393,58.9642)">
                                    <path d="M6899.51,1287.06L6469.04,1287.06" style="fill:none;stroke:rgb(1,136,254);stroke-width:12.15px;"/>
                                </g>
                                <g transform="matrix(0.97495,0,0,1,167.393,81.0132)">
                                    <path d="M6899.51,1287.06L6469.04,1287.06" style="fill:none;stroke:rgb(1,136,254);stroke-width:12.15px;"/>
                                </g>
                                <g transform="matrix(0.97495,0,0,1,167.393,103.062)">
                                    <path d="M6899.51,1287.06L6469.04,1287.06" style="fill:none;stroke:rgb(1,136,254);stroke-width:12.15px;"/>
                                </g>
                                <g transform="matrix(0.97495,0,0,1,167.393,125.111)">
                                    <path d="M6899.51,1287.06L6469.04,1287.06" style="fill:none;stroke:rgb(1,136,254);stroke-width:12.15px;"/>
                                </g>
                            </g>
                        </g>
                    </g>
                    <g transform="matrix(1,0,0,1,405.924,269.542)">
                        <path d="M5880.33,843.828C5877.41,839.163 5873.65,835.048 5869.81,831.116C5853.53,814.477 5832.63,837.67 5820.74,847.708C5817.69,850.28 5814.93,853.325 5811.4,855.194C5790.35,866.356 5759.16,864.787 5746,887.928C5735.46,906.473 5732.8,928.513 5720.74,946.304C5713.24,957.373 5698.42,969.087 5698.52,984.331C5698.62,1000.27 5713.96,1010.79 5722.67,1021.68C5739.33,1042.52 5749.58,1067.96 5754.59,1094C5759.45,1119.22 5758.49,1145.28 5758.81,1170.77C5758.93,1179.86 5757.49,1192.25 5763.77,1200.23C5773.35,1212.4 5788.78,1216.19 5800.38,1225.73C5810.34,1233.91 5819.88,1247.17 5834.14,1248.46C5856.81,1250.51 5881.24,1228.53 5883.97,1206.14C5884.22,1204.04 5880.78,1199.96 5879.69,1198.69C5870.42,1187.91 5859.85,1193.46 5847.05,1194.14C5843.74,1194.32 5836.95,1194.47 5834.87,1190.33C5832.12,1184.87 5823.21,1161.11 5821.19,1151.38C5820.33,1147.26 5820.16,1141.32 5822.96,1137.65C5832.47,1125.13 5838.12,1123.58 5849.07,1112.56C5864.9,1096.63 5880.21,1080.19 5895.69,1063.93C5904.56,1054.62 5912.45,1044.96 5922.41,1036.88C5936.28,1025.66 5952.74,1020.06 5968.33,1011.88C5985.99,1002.61 5993.88,997.587 6008.83,984.005C6020.66,973.252 6029.09,956.547 6027.82,940.307C6027.37,934.549 6026.25,928.826 6024.7,923.263C6021.65,912.298 6010.1,906.03 6003.57,897.747C5994.02,885.62 5996.99,883.858 5987.03,871.859C5981.6,865.319 5974.37,867.195 5966.98,867.933C5948.02,869.826 5930.17,869.689 5914.16,881.027C5906.08,886.749 5879.23,881.351 5882.04,872.145C5882.99,869.055 5885.49,860.9 5884.89,857.509C5884.06,852.775 5882.11,848.292 5880.33,843.828Z" style="fill:rgb(255,195,0);"/>
                    </g>
                    <g id="half-circles-all" transform="matrix(1,0,0,1,9,0)">
                        <g id="half-circles-concentric" transform="matrix(0.980956,0,0,0.94462,-108.868,-186.216)">
                            <g transform="matrix(0.86364,0,0,0.86364,707.255,240.815)">
                                <path d="M5724.88,848.138C5560.97,848.138 5427.9,715.067 5427.9,551.16C5427.9,387.254 5560.97,254.183 5724.88,254.183" style="fill:none;stroke:rgb(2,136,254);stroke-width:19.8px;"/>
                            </g>
                            <g transform="matrix(0.715583,0,0,0.715583,1554.87,322.419)">
                                <path d="M5724.88,848.138C5560.97,848.138 5427.9,715.067 5427.9,551.16C5427.9,387.254 5560.97,254.183 5724.88,254.183" style="fill:none;stroke:rgb(2,136,254);stroke-width:23.89px;"/>
                            </g>
                            <g transform="matrix(0.571233,0,0,0.571233,2381.25,401.978)">
                                <path d="M5724.88,848.138C5560.97,848.138 5427.9,715.067 5427.9,551.16C5427.9,387.254 5560.97,254.183 5724.88,254.183" style="fill:none;stroke:rgb(2,136,254);stroke-width:29.93px;"/>
                            </g>
                            <g transform="matrix(0.4179,0,0,0.4179,3259.06,486.489)">
                                <path d="M5724.88,848.138C5560.97,848.138 5427.9,715.067 5427.9,551.16C5427.9,387.254 5560.97,254.183 5724.88,254.183" style="fill:none;stroke:rgb(2,136,254);stroke-width:40.91px;"/>
                            </g>
                            <g transform="matrix(0.26145,0,0,0.26145,4151.19,572.719)">
                                <path d="M5724.88,848.138C5560.97,848.138 5427.9,715.067 5427.9,551.16C5427.9,387.254 5560.97,254.183 5724.88,254.183" style="fill:none;stroke:rgb(2,136,254);stroke-width:65.39px;"/>
                            </g>
                            <g transform="matrix(1,0,0,1,-73.3876,165.659)">
                                <path d="M5724.88,848.138C5560.97,848.138 5427.9,715.067 5427.9,551.16C5427.9,387.254 5560.97,254.183 5724.88,254.183" style="fill:none;stroke:rgb(2,136,254);stroke-width:17.1px;"/>
                            </g>
                        </g>
                        <g id="half-circles-concentric1" serif:id="half-circles-concentric" transform="matrix(-0.929839,0,0,0.895396,11158.6,777.542)">
                            <g transform="matrix(0.86364,0,0,0.86364,707.255,240.815)">
                                <path d="M5724.88,848.138C5560.97,848.138 5427.9,715.067 5427.9,551.16C5427.9,387.254 5560.97,254.183 5724.88,254.183" style="fill:none;stroke:rgb(1,195,129);stroke-width:20.88px;"/>
                            </g>
                            <g transform="matrix(0.715583,0,0,0.715583,1554.87,322.419)">
                                <path d="M5724.88,848.138C5560.97,848.138 5427.9,715.067 5427.9,551.16C5427.9,387.254 5560.97,254.183 5724.88,254.183" style="fill:none;stroke:rgb(1,195,129);stroke-width:25.21px;"/>
                            </g>
                            <g transform="matrix(0.571233,0,0,0.571233,2381.25,401.978)">
                                <path d="M5724.88,848.138C5560.97,848.138 5427.9,715.067 5427.9,551.16C5427.9,387.254 5560.97,254.183 5724.88,254.183" style="fill:none;stroke:rgb(1,195,129);stroke-width:31.57px;"/>
                            </g>
                            <g transform="matrix(0.4179,0,0,0.4179,3259.06,486.489)">
                                <path d="M5724.88,848.138C5560.97,848.138 5427.9,715.067 5427.9,551.16C5427.9,387.254 5560.97,254.183 5724.88,254.183" style="fill:none;stroke:rgb(1,195,129);stroke-width:43.16px;"/>
                            </g>
                            <g transform="matrix(0.26145,0,0,0.26145,4151.19,572.719)">
                                <path d="M5724.88,848.138C5560.97,848.138 5427.9,715.067 5427.9,551.16C5427.9,387.254 5560.97,254.183 5724.88,254.183" style="fill:none;stroke:rgb(1,195,129);stroke-width:68.99px;"/>
                            </g>
                            <g transform="matrix(1,0,0,1,-73.3876,165.659)">
                                <path d="M5724.88,848.138C5560.97,848.138 5427.9,715.067 5427.9,551.16C5427.9,387.254 5560.97,254.183 5724.88,254.183" style="fill:none;stroke:rgb(1,195,129);stroke-width:18.04px;"/>
                            </g>
                        </g>
                    </g>
                </g>
                <g id="Organic-shapes" serif:id="Organic shapes">
                    <g>
                        <g transform="matrix(1,0,0,1,1.03378,-50.1908)">
                            <path d="M5003.55,292.277C4998.64,293.915 4995.56,298.776 4993.28,303.044C4988.91,311.205 4987.91,320.769 4989.79,329.765C4990.78,334.499 4994.61,339.788 4999.64,340.728C5002.95,341.348 5004.92,340.503 5007.97,339.422C5015.17,336.867 5026.59,335.138 5030.47,327.514C5037.36,313.973 5032.87,290.361 5015.71,287.244C5012.68,286.694 5009.36,287.641 5006.76,289.142C5005.51,289.866 5005.03,291.784 5003.55,292.277Z" style="fill:rgb(250,53,101);"/>
                        </g>
                        <g transform="matrix(1,0,0,1,0.163406,-51.2808)">
                            <path d="M4919.8,348.785C4912.32,347.082 4905.39,352.619 4900.36,357.196C4892.22,364.6 4889.49,375.845 4884.66,385.224C4880.73,392.85 4876.66,398.023 4871.03,404.441C4863.29,413.261 4854.89,424.226 4842.76,427.389C4832.03,430.184 4819.67,429.473 4809.9,435.659C4797.01,443.822 4798.46,445.471 4786.02,454.458C4773.97,463.159 4757.22,470.005 4751.5,485.283C4746.46,498.724 4745.96,508.247 4747.23,522.413C4747.98,530.747 4749.9,541.559 4758.15,546.128C4770.05,552.723 4784.33,550.712 4797.21,551.282C4809.87,551.843 4824.32,555.391 4836.32,548.857C4853.87,539.297 4865.35,521.901 4875.77,505.591C4897.62,471.383 4895.08,470.105 4917.46,435.978C4924.55,425.163 4937.85,421.254 4947.65,413.855C4950.19,411.939 4952.85,405.573 4954.16,402.923C4961.59,387.831 4970.71,373.628 4970.15,356.204C4969.58,338.307 4948.4,341.755 4936.98,344.218C4932.92,345.096 4928.96,346.453 4925.01,347.743" style="fill:rgb(250,53,101);"/>
                        </g>
                    </g>
                    <g transform="matrix(1,0,0,1,38.9538,-48.0545)">
                        <path d="M4971.84,1496.26C4971.19,1496.26 4971.81,1494.89 4972.15,1494.34C4972.86,1493.19 4973.92,1492.3 4974.86,1491.32C4978.75,1487.25 4982.74,1483.27 4986.64,1479.19C5000.64,1464.58 5014.03,1447.32 5033.18,1438.88C5039.54,1436.07 5046.25,1434.13 5052.9,1432.09C5070.66,1426.64 5074.6,1427.53 5091.67,1419.88C5137.06,1399.56 5178.53,1371.4 5221.16,1346.18C5233.72,1338.75 5232.55,1316.12 5244.37,1307.39C5267.37,1290.42 5291.67,1288.54 5311.08,1267.99C5325.64,1252.57 5340.3,1237.24 5355.48,1222.42C5400.77,1178.2 5450.13,1134.12 5508.54,1107.79C5531.98,1097.22 5557,1087.48 5583,1085.77C5602.02,1084.53 5621.18,1086.66 5640.18,1085.15C5651.39,1084.26 5662.42,1081.79 5673.58,1080.46C5711.24,1075.97 5768.43,1071.97 5783.9,1117.82C5798.15,1160.04 5775.72,1201.76 5747.42,1232.16C5734.92,1245.59 5725.75,1249.19 5711.91,1260.95C5706.26,1265.76 5701.72,1271.83 5695.83,1276.36C5690.5,1280.45 5675.79,1286.39 5669.45,1288.26C5649.6,1294.11 5642.09,1305.54 5621.42,1307.07C5612.78,1307.71 5617.74,1306.09 5608.22,1309.96C5589.85,1317.43 5589.57,1314.59 5587.26,1315.83C5574.24,1322.84 5565.07,1323.02 5558.19,1334.18C5553.93,1341.09 5544.07,1341.42 5537.41,1343.41C5532.06,1345.01 5526.9,1347.19 5521.53,1348.72C5510.02,1352 5498.23,1355.19 5486.23,1352.63C5466.67,1348.46 5437.83,1333.66 5420.56,1351.99C5409.84,1363.36 5402.43,1376.84 5400.99,1392.63C5398.43,1420.7 5405.88,1452.28 5394.06,1478.95C5386.23,1496.61 5369.89,1508.08 5353.01,1516.14C5335.75,1524.39 5318.65,1533.03 5300.94,1540.24C5283.23,1547.46 5265,1553.35 5246.85,1559.4C5195.33,1576.57 5146.18,1588.27 5091.92,1578.26C5067.16,1573.69 5045.86,1566.12 5022.76,1556.31C5006.76,1549.51 4993.95,1535.86 4982.96,1523.05C4976.58,1515.61 4970.1,1506.67 4971.84,1496.26Z" style="fill:rgb(117,57,252);"/>
                    </g>
                    <g transform="matrix(1,0,0,1,-43.5216,-16.5156)">
                        <g transform="matrix(1,0,0,1,0.163406,-51.2808)">
                            <path d="M5856.98,299.029C5854.9,295.664 5841.93,289.592 5838.88,288.044C5833.69,285.407 5827.51,281.845 5821.61,280.905C5808.5,278.815 5792.04,284.353 5780.5,288.975C5742.13,304.348 5724.16,352.433 5743.45,389.091C5753.53,408.257 5767.97,422.509 5791.17,416.551C5798.94,414.557 5806.46,411.691 5814.01,408.997C5840.51,399.55 5870.43,387.683 5880.12,358.591C5887.23,337.248 5866.68,314.675 5856.98,299.029Z" style="fill:rgb(255,195,0);"/>
                        </g>
                        <g transform="matrix(1,0,0,1,0.163406,-51.2808)">
                            <path d="M5777.56,526.152C5775.14,560.979 5755.76,591.635 5742.76,622.908C5735.85,639.545 5735.12,654.748 5719.57,665.774C5700.29,679.44 5672.16,679.424 5656.04,697.856C5642.89,712.9 5642.85,734.92 5633.43,751.962C5625.7,765.96 5609.47,771.955 5600.95,785.32C5587.86,805.861 5590.77,807.296 5577.97,827.851C5570.73,839.458 5562.08,850.142 5554.91,861.789C5548.62,872.004 5543.19,886.52 5539.47,897.838C5532.17,920.082 5524.31,949.053 5516.03,970.991C5502.36,1007.24 5488.13,1043.29 5473.56,1079.19C5472.1,1082.78 5470.34,1086.33 5467.95,1089.4C5456.08,1104.68 5436.86,1110.88 5421.2,1120.93C5407.65,1129.62 5402.21,1145.99 5389.39,1155.53C5377.92,1164.07 5362.36,1164.71 5352.97,1176.44C5341.88,1190.31 5340.43,1209.04 5331.43,1224.03C5321.82,1240.03 5306.56,1252.01 5294.53,1265.91C5285.4,1276.45 5275.43,1290.83 5269.26,1303.37C5262.86,1316.36 5259.68,1330.1 5254.23,1343.45C5240.48,1377.12 5221.56,1408.43 5201.61,1438.7C5195.55,1447.36 5185.85,1452.73 5176.38,1456.76C5152,1467.13 5125.33,1470.08 5099.89,1476.6C5073.13,1483.45 5049.28,1498.84 5021.79,1503.29C5012.62,1504.77 5002.9,1503.62 4994,1501.29C4976.46,1496.69 4957.45,1491.45 4943.14,1479.52C4930.62,1469.09 4924.88,1453.38 4919.73,1438.5C4910.88,1412.89 4901.5,1386.01 4902.03,1358.42C4902.29,1344.53 4904.51,1330.71 4904.53,1316.81C4904.58,1267.6 4887.62,1217.62 4903.69,1169.25C4911.63,1145.36 4926.55,1123.94 4940.24,1103.23C4955.82,1079.65 4967.57,1031.48 4983.32,1008.02C5006.72,973.173 5053.66,908.202 5092.12,918.364C5120.81,925.941 5135.9,933.121 5165.12,930.17C5180.79,928.587 5197.35,928.362 5209.94,917.501C5240.14,891.459 5234.95,846.553 5256.2,815.303C5265.98,800.908 5270.84,795.524 5285.66,786.232C5306.4,773.231 5336.15,763.052 5348.21,739.03C5364.68,706.221 5363.57,668.817 5378.86,635.803C5393.66,603.86 5421.15,580.36 5449.93,561.337C5482.92,539.532 5525.03,542.57 5562.64,539.417C5600.42,536.25 5638.68,529.936 5673.22,513.513C5690.38,505.353 5699.72,487.777 5715.37,477.627C5724.59,471.644 5733.97,465.822 5743.82,460.93C5745.7,459.995 5748.09,459.754 5750.09,460.373C5755.13,461.927 5759.61,467.451 5762.22,471.629C5772.3,487.819 5778.9,506.86 5777.56,526.152Z" style="fill:rgb(255,195,0);"/>
                        </g>
                    </g>
                    <g transform="matrix(0.897369,-0.0700304,0.0579586,0.742681,625.99,659.503)">
                        <path d="M5618.72,776.691C5646.7,771.53 5675.81,777.481 5704.02,774.837C5714.38,773.866 5720.04,770.386 5729.63,766.575C5729.68,766.555 5747.75,759.846 5751.03,758.063C5760.23,753.057 5768.02,741.53 5774.29,735.461C5785.05,725.044 5802.7,707.437 5818.49,703.384C5825.19,701.664 5832.31,702.497 5839.16,701.536C5848.71,700.196 5858.22,698.51 5867.65,696.486C5894.91,690.637 5920.75,681.555 5944.12,666.001C5950.42,661.806 5953.83,655.116 5957.95,649.132C5969.7,632.061 5979.43,617.45 5992.97,601.696C5995.21,599.091 6000.49,596.536 6003.5,595.173C6019.92,587.736 6036.18,579.909 6052.87,573.094C6059.22,570.5 6070.91,566.863 6074.29,576.21C6079.27,589.97 6070.56,600.184 6062.05,609.791C6055.34,617.367 6053.49,620.733 6044.06,624.759C6035.59,628.374 6024.99,628.653 6017.26,634.224C6005.07,643 5993.02,651.98 5981.31,661.385C5969.82,670.605 5963.78,685.422 5955.56,697.035C5949.18,706.042 5937.78,709.416 5928.76,714.637C5918.07,720.822 5905.58,730.488 5893.91,735.006C5884.27,738.742 5856.49,744.967 5846.18,745.789C5839.76,746.3 5829.79,741.108 5823.51,745.789C5807.38,757.816 5802.53,778.274 5786.86,790.714C5753.02,817.56 5706.43,814.564 5666.4,821.067C5648.48,823.979 5649.35,826.507 5632.03,831.875C5623.64,834.474 5615.02,836.27 5606.56,838.614C5591.21,842.865 5577.05,849.323 5561,845.121C5545.59,841.085 5560.58,822.578 5564.87,817.373C5573.97,806.34 5584.37,798.799 5595.94,790.703C5602.39,786.192 5610.33,778.24 5618.72,776.691Z" style="fill:rgb(1,195,129);"/>
                    </g>
                    <g transform="matrix(1,0,0,1,0.163406,-51.2808)">
                        <path d="M4931.56,976.125C4915.65,977.272 4906.6,977.292 4891.38,982.658C4875.75,988.167 4860.38,997.304 4845.69,1004.75C4830.2,1012.59 4814.51,1020.01 4799.09,1027.99C4762.06,1047.14 4723.42,1066.47 4690.11,1092.07C4667.3,1109.6 4645.73,1129.01 4625.31,1149.24C4596.03,1178.26 4567.13,1207.33 4544.63,1242.06C4539.33,1250.24 4533.22,1261.12 4535.75,1271.49C4536.88,1276.13 4540.93,1281.76 4543.22,1285.78C4545.02,1288.93 4545.38,1291.34 4548.72,1293.37C4552.13,1295.43 4556.07,1296.52 4559.5,1298.56C4563.65,1301.03 4568,1307.38 4573.88,1305.67C4576.63,1304.87 4579.16,1303.43 4581.72,1302.14C4584.98,1300.5 4588.05,1298.52 4591.31,1296.88C4601.28,1291.84 4622.01,1282.14 4626.4,1299.09C4627.3,1302.58 4627.95,1306.15 4628.22,1309.74C4629.51,1326.7 4622.97,1339.24 4608.18,1347.93C4591.09,1357.98 4569.14,1357.88 4553.25,1370.06C4542.73,1378.11 4536.42,1388.05 4528.45,1398.32C4515.47,1415.02 4499.4,1430.36 4506.15,1453.15C4507.17,1456.61 4508.66,1459.92 4510.29,1463.13C4516.52,1475.37 4521.93,1487.32 4535.56,1492.16C4540.32,1493.85 4546.1,1487.45 4549.91,1486.57C4564.57,1483.17 4579.58,1481.49 4594.28,1478.32C4615.79,1473.68 4637.7,1468.12 4656.52,1456.17C4673.96,1445.11 4690.68,1429.71 4709.73,1420.98C4733.67,1410 4741,1448.67 4763.54,1444.14C4779.54,1440.93 4790.07,1427.66 4791.14,1411.6C4791.61,1404.71 4790.27,1397.77 4790.84,1390.89C4790.98,1389.2 4791.71,1387.17 4793.21,1386.39C4795.11,1385.4 4800.65,1388.6 4801.78,1389.65C4807.99,1395.43 4815.98,1408.79 4826.98,1406.75C4832.28,1405.77 4837.13,1403.13 4842.25,1401.46C4852.31,1398.17 4864.65,1396.08 4872.82,1388.45C4879.83,1381.9 4885.81,1374.28 4893.02,1367.94C4915.52,1348.17 4941.92,1333.17 4957.65,1306.79C4982.43,1265.21 4994.27,1217.6 5007.89,1171.72C5019.35,1133.08 5032.13,1094.57 5034.99,1054.08C5035.86,1041.76 5036.46,1024.55 5027.11,1014.38C5010.93,996.764 4987.64,989.694 4965.04,984.794" style="fill:rgb(117,57,252);"/>
                    </g>
                    <g transform="matrix(1,0,0,1,0.163406,-51.2808)">
                        <path d="M6405.31,903.924C6415.43,891.776 6430.91,886.081 6443.84,877.889C6453.19,871.964 6457.31,860.79 6466.75,854.978C6475.76,849.437 6485.62,845.312 6494.35,839.357C6497.19,837.419 6500.11,829.295 6502.16,826.86C6508.73,819.052 6512.43,819.445 6518.06,810.709C6519.56,808.381 6520.27,805.602 6520.91,802.908C6522.5,796.152 6517.42,792.011 6511.49,789.749C6500.84,785.686 6496.17,787.35 6487.99,782.118C6468.15,769.434 6464.02,743.591 6474.33,723.695C6484.77,703.563 6486.67,704.857 6497.99,685.229C6507.82,668.205 6514.26,647.701 6532.4,637.234C6548.92,627.707 6570.88,630.815 6588.6,628.994C6602.41,627.574 6613.11,616.513 6627.13,615.976C6656.08,614.868 6682.65,624.871 6709.51,634.559C6764.42,654.365 6818.32,678.306 6846.18,732.773C6855.33,750.657 6838.76,768.782 6831.24,783.121C6827.93,789.437 6830.4,790.166 6827.08,796.659C6822.31,805.972 6813.96,813.061 6804.31,816.934C6792.21,821.789 6777.91,817.251 6766.69,824.049C6763.59,825.929 6761.12,828.704 6758.58,831.293C6752.5,837.49 6747.15,844.403 6740.86,850.382C6734.96,855.984 6726.65,858.641 6720.86,864.35C6716.58,868.562 6714.92,877.804 6708.71,880.43C6696.92,885.418 6690.26,878.172 6678.67,875.688C6675.83,875.079 6669.49,877.503 6666.93,878.642C6656.55,883.251 6645.94,887.421 6635.93,892.779C6621.33,900.589 6615.37,922.64 6597.98,925.386C6594.11,925.997 6592.64,918.368 6592.24,916.48C6590.53,908.566 6590.97,892.359 6585.1,886.077C6582.26,883.039 6576.45,881.789 6572.98,881.544C6559.8,880.613 6549.18,883.75 6536.42,885.409C6527.57,886.56 6523.27,901.698 6519.49,907.513C6506.78,927.113 6486.87,945.565 6463.56,951.185C6449.57,954.559 6440.38,954.807 6426.24,952.081C6421.25,951.118 6416.69,948.445 6411.69,947.507C6408.32,946.874 6400.08,950.215 6397.5,945.58C6392.4,936.406 6396.24,925.377 6398.98,916.334C6400.12,912.56 6402.76,906.985 6405.31,903.924Z" style="fill:rgb(117,57,252);"/>
                    </g>
                    <g transform="matrix(1,0,0,1,0.163406,-51.2808)">
                        <path d="M6160.88,820.149C6168.92,806.322 6173.09,792.585 6182.18,779.319C6192.17,764.76 6207.1,746.321 6223.14,736.991C6242.41,725.776 6266.22,725.917 6280.75,707.762C6292.29,693.341 6303.19,678.396 6313.67,663.188C6321.5,651.831 6330.67,630.695 6342.35,620.504C6349.16,614.564 6360.02,611.47 6368.52,609.522C6377.92,607.37 6396.3,606.016 6403.63,605.137C6428.66,602.134 6430.9,600.405 6456.07,600.616C6470.43,600.737 6484.18,604.848 6498.52,601.019C6523.09,594.461 6540.5,565.424 6568.96,574.14C6585.65,579.251 6598.66,588.388 6610.05,601.549C6616.57,609.094 6625.15,619.622 6625.47,630.5C6625.64,636.46 6623.28,643.946 6621.13,649.3C6616.93,659.789 6611.79,674.441 6602.02,681.82C6581.94,696.992 6556.53,700.47 6536.74,715.929C6518,730.568 6505.65,749.185 6483.63,759.943C6477.96,762.71 6472.05,764.963 6466.09,767.023C6456.85,770.218 6445.24,771.072 6437.28,777.614C6430.55,783.141 6429,793.187 6426.87,800.87C6426.23,803.172 6425.54,807.989 6423.18,809.551C6403.02,822.892 6374.34,824.9 6359.87,846.698C6354.74,854.426 6353.89,860.854 6351.89,869.702C6350.49,875.926 6350.14,884.003 6344.43,888.294C6328.53,900.249 6305.78,890.312 6289.66,901.989C6274.87,912.699 6278.11,934.825 6270.48,949.724C6266.97,956.576 6256.22,958.586 6250.25,961.019C6241.68,964.514 6233.35,968.613 6224.68,971.852C6219.59,973.753 6214.38,975.473 6209.02,976.415C6181.8,981.208 6161.23,963.86 6141.43,947.696C6130,938.359 6123.36,930.948 6114.68,918.874C6113.3,916.956 6112.11,912.327 6112.77,909.977C6115.76,899.355 6126.47,893.457 6132.93,885.464C6147.8,867.089 6155.91,842.915 6160.88,820.149Z" style="fill:rgb(2,136,254);"/>
                    </g>
                    <g transform="matrix(1.06551,0.15547,-0.143749,0.985181,342.086,-775.606)">
                        <path d="M5416.75,1128.8C5399.5,1130.37 5384.34,1138 5368.04,1142.98C5346.85,1149.45 5325.26,1152.34 5304.83,1161.49C5295.86,1165.5 5294.53,1169.82 5285.49,1173.73C5264.13,1182.97 5235.21,1187.47 5219.92,1207.37C5203.52,1228.72 5207.96,1261.72 5184.94,1278.8C5164.38,1294.05 5138.46,1300.1 5119.05,1317.16C5089.89,1342.79 5106.33,1388.2 5129.68,1411.52C5154.81,1436.63 5188.94,1438.51 5222.48,1432.64C5230.49,1431.24 5243.28,1428.62 5250.86,1423.3C5266.83,1412.07 5262.39,1387.24 5282.62,1380.39C5301.21,1374.1 5318.59,1374.06 5338.03,1371.25C5348.14,1369.79 5357.9,1366.39 5368,1364.95C5385.8,1362.41 5404.9,1361.2 5419.6,1349.13C5430.14,1340.47 5413.71,1328.01 5407.93,1323.48C5406.58,1322.44 5402.48,1318.95 5404.9,1316.63C5413.75,1308.13 5427.72,1307.2 5435.67,1297.85C5444.22,1287.8 5444.02,1275.7 5448.94,1264.17C5453.1,1254.43 5456.97,1250.4 5465.67,1244.05C5474.9,1237.31 5496.75,1227.76 5503.78,1223.42C5519.75,1213.59 5530.01,1204.06 5541.47,1189.26C5547.67,1181.26 5554.76,1166.43 5557.49,1156.99C5559.32,1150.65 5560.35,1144.08 5561.01,1137.51C5563.34,1114.38 5543.24,1100.89 5522.47,1099.31C5508.12,1098.22 5494.49,1103.52 5481.69,1109.31C5472.63,1113.4 5463.87,1118.14 5454.73,1122.06L5416.75,1128.8Z" style="fill:rgb(107,79,140);"/>
                    </g>
                    <g transform="matrix(1,0,0,1.02685,-8.70259,-109.07)">
                        <rect x="4238.77" y="988.519" width="2332.07" height="279.562" style="fill:rgb(250,53,101);"/>
                    </g>
                    <g transform="matrix(1,0,0,1,-135.31,16.836)">
                        <path d="M6430.79,1118.35C6428.28,1116.68 6424.98,1116.56 6421.97,1116.37C6411.92,1115.72 6395.72,1116.6 6387.48,1123.55C6387.24,1123.75 6379.5,1136.28 6379.25,1136.54C6374.32,1141.9 6372.62,1139.64 6367.99,1145.2C6356.95,1158.47 6351.78,1177.29 6348.93,1193.71C6347.63,1201.21 6351,1209.79 6347.64,1217.1C6345.96,1220.73 6341.03,1226.63 6338.54,1229.66C6323.11,1248.41 6302.55,1259.17 6283.93,1274.36C6275.86,1280.95 6265.98,1289.77 6259.5,1298.84C6253.47,1307.28 6249.18,1316.86 6243.26,1325.37C6234.84,1337.48 6219.97,1345.36 6209.04,1354.39C6201.3,1360.79 6179.75,1380.27 6173.53,1389.04C6172.56,1390.4 6169.13,1406.15 6168.77,1407.66C6166.36,1417.6 6161.03,1428.36 6171.36,1435.81C6175.88,1439.07 6183.36,1440.33 6188.69,1440.58C6198.75,1441.04 6213.81,1442.89 6222.55,1434.87C6226.33,1431.4 6229.83,1427.56 6232.8,1423.38C6246.25,1404.48 6256.31,1383.37 6269.57,1364.39C6277.27,1353.37 6283.78,1341.26 6293.33,1331.8C6311.84,1313.46 6338.37,1304.82 6354.57,1283.8C6356.61,1281.14 6370.17,1253.3 6371.89,1250.45C6376.76,1242.4 6381.63,1240.55 6384.88,1231.39C6388.63,1220.85 6387.49,1215.8 6390.21,1206.35C6393.69,1194.23 6402.32,1183.67 6411.3,1175.09C6415.04,1171.52 6422.29,1168.86 6424.29,1163.39C6426.46,1157.49 6423.85,1157.24 6425.59,1151.27C6427.14,1145.97 6440.38,1124.75 6430.79,1118.35Z" style="fill:rgb(2,136,254);"/>
                    </g>
                    <g transform="matrix(1,0,0,1,0.163406,-51.2808)">
                        <rect x="6393.57" y="1028.72" width="544.932" height="35.292" style="fill:rgb(1,195,129);"/>
                    </g>
                    <g transform="matrix(1.32137,0.310604,-0.310604,1.32137,-1505.18,-2244.25)">
                        <path d="M5806.86,1208.56C5784.88,1216.2 5774.45,1240.67 5761.45,1257.43C5758.62,1261.07 5752.27,1263.61 5749.13,1266.84C5742.71,1273.45 5744.3,1284.48 5736.84,1290.34C5727.93,1297.35 5708.93,1308.74 5699.06,1314.23C5685.82,1321.59 5671.6,1327.72 5656.36,1329.31C5651.34,1329.83 5646.24,1329.9 5641.22,1329.45C5632.45,1328.67 5622.54,1323.42 5613.84,1328.26C5597.3,1337.47 5586.71,1354.03 5573.68,1367.03C5562.48,1378.19 5557.62,1381.1 5542.94,1386.85C5527.27,1392.98 5509.97,1391.66 5493.6,1392.55C5480.83,1393.24 5465.42,1392.79 5455.05,1402.07C5443.23,1412.64 5440.16,1429.23 5440.49,1444.31C5440.72,1454.83 5444.1,1466.08 5436.65,1475.13C5434.61,1477.6 5432.08,1479.7 5429.35,1481.38C5418.59,1487.95 5402.38,1492.27 5395.19,1504.13C5391.81,1509.7 5392.11,1514.42 5396.3,1519.43C5402.77,1527.14 5413.32,1529.6 5422.88,1528.48C5443.18,1526.09 5461.89,1510.49 5468.76,1491.49C5471.83,1483 5473.21,1462.85 5474.28,1457.4C5476.09,1448.16 5479.49,1436.59 5488.12,1431.03C5499.99,1423.37 5511.48,1428.05 5524.61,1428.76C5546.2,1429.92 5553.24,1429.72 5574,1423.35C5582.41,1420.77 5593.61,1415.4 5598.13,1406.95C5605.66,1392.85 5610.33,1372.96 5624.97,1363.5C5643.48,1351.54 5667.03,1352.73 5687.6,1348.57C5708.68,1344.31 5730.44,1338.17 5748.54,1326.01C5760.43,1318.03 5766.73,1304.15 5776.13,1293.9C5788.04,1280.91 5800.65,1268.58 5813.23,1256.24C5818.27,1251.3 5826.01,1251.69 5831.69,1247.91C5837.08,1244.31 5841.34,1239.24 5846.57,1235.41C5855.4,1228.92 5868.19,1224.19 5875.1,1215C5878.34,1210.7 5883.32,1203.75 5882.06,1197.43C5879.62,1185.24 5864.72,1183.14 5855.13,1185.42L5806.86,1208.56Z" style="fill:rgb(2,136,254);"/>
                    </g>
                    <g transform="matrix(1,0,0,1,0.163406,-51.2808)">
                        <path d="M5295.46,1580.48C5287.47,1579.87 5279.28,1576.04 5271.64,1574.11C5256.79,1570.35 5239.24,1569.04 5224.67,1574.93C5220.87,1576.46 5217.09,1578.36 5214,1581.06C5192.22,1600.02 5206.99,1629.85 5224.84,1644.54C5238.5,1655.78 5260.17,1658.05 5276.53,1659.54C5309.68,1662.57 5347.54,1658.95 5372.81,1634.81C5389.87,1618.49 5391.86,1599 5382.42,1577.83C5379.2,1570.62 5373.88,1561.48 5365.46,1559.02C5338.47,1551.14 5321.12,1582.43 5295.46,1580.48Z" style="fill:rgb(2,136,254);"/>
                    </g>
                    <g transform="matrix(0.995487,0.102881,-0.102881,0.995487,82.396,-415.467)">
                        <g transform="matrix(1,0,0,1,29.1634,-63.2808)">
                            <path d="M4620.82,764.502C4622.89,765.249 4601.39,765.301 4599.64,765.41C4587.44,766.173 4574.57,763.702 4562.55,766.413C4555.79,767.935 4549.53,771.208 4542.82,772.924C4525.76,777.292 4525.25,774.375 4508.71,780.303C4496.67,784.619 4475.63,794.654 4464.81,801.498C4453.19,808.847 4436.25,820.513 4430.72,834.579C4428.1,841.24 4427.78,848.685 4424.97,855.267C4421.69,862.94 4411.64,874.155 4405.66,879.69C4391.76,892.554 4373.03,902.253 4354.03,904.25C4345.37,905.161 4334.55,901.963 4326.97,908.26C4320.59,913.559 4322.37,924.029 4320.45,930.815C4316.29,945.553 4303.2,955.58 4295.89,968.407C4292.02,975.206 4292.55,988.375 4283.86,992.466C4269.08,999.423 4253.54,992.221 4238.25,994.972C4213.49,999.429 4191.41,1012.49 4170.08,1025.05C4139.61,1042.99 4118.41,1082.15 4138.51,1115.27C4148.22,1131.28 4171.75,1116.02 4183.12,1111.76C4199.67,1105.56 4219.36,1101.05 4234.61,1091.32C4247.45,1083.14 4254.75,1076.21 4265.29,1065.29C4270.38,1060.02 4275.42,1053.63 4278.82,1047.1C4284.03,1037.07 4285.88,1024.47 4298.29,1020.82C4312.62,1016.61 4328.76,1022.19 4343.01,1022.04C4353.69,1021.93 4364.28,1019.99 4374.95,1019.46C4423.13,1017.11 4423.07,1019.5 4471.32,1015.52C4488.89,1014.07 4513.45,1012.81 4527.24,998.848C4534.17,991.835 4537.17,981.896 4541.49,973.42C4545.61,965.344 4557.86,943.823 4562.66,932.244C4568.81,917.391 4570.24,901.412 4575.95,886.513C4583.83,865.972 4600.81,846.263 4614.67,829.567C4620.76,822.236 4624.64,821.81 4629.71,813.528C4632.24,809.39 4634.22,804.892 4635.8,800.307C4637.89,794.263 4646.96,765.912 4631.21,765.41" style="fill:rgb(117,57,252);"/>
                        </g>
                        <g transform="matrix(1,-4.16334e-17,4.16334e-17,1,112.485,-36.3074)">
                            <path d="M4682.07,548.214C4650.61,556.267 4635.8,594.114 4643.6,623.572C4646.56,634.725 4655.41,643.071 4663.9,650.189C4667.78,653.435 4676.34,658.456 4681.52,659.12C4694.61,660.795 4704.44,659.014 4716.65,654.277C4734.17,647.475 4746.93,632.012 4754.36,615.217C4756.88,609.522 4758.83,602.216 4757.55,595.895C4753.08,573.82 4737.16,554.39 4716.1,546.198C4711.88,544.556 4699.91,543.812 4695.58,545.528" style="fill:rgb(1,195,129);"/>
                        </g>
                    </g>
                    <g transform="matrix(0.640111,0.30986,-0.537896,1.11119,2334.54,-1616.84)">
                        <path d="M4762.87,1082.51C4760.16,1085.22 4759.41,1094.49 4758.65,1097.76C4754.31,1116.28 4749.69,1134.73 4745.21,1153.21C4742.4,1164.81 4742.22,1169.48 4735.89,1179.85C4733.98,1182.96 4727.05,1189.06 4723.87,1190.77C4701.67,1202.72 4700.67,1200.32 4678.32,1212.11C4673.4,1214.71 4665.1,1220.37 4663.83,1226.78C4658.8,1252.1 4695.98,1250.1 4697.77,1272.12C4699.15,1289.08 4689.95,1304.52 4684.49,1319.79C4681.14,1329.16 4677.86,1338.57 4675.24,1348.17C4672.16,1359.52 4679.73,1366.15 4690.66,1365.75C4696.39,1365.54 4702.12,1364.95 4707.76,1363.95C4712.81,1363.06 4717.76,1361.64 4722.65,1360.08C4729.48,1357.91 4738.59,1354.24 4743.66,1348.78C4758.31,1333 4756.44,1310.63 4766.92,1292.87C4773.81,1281.2 4787.9,1283.45 4798.94,1280C4818.37,1273.92 4834.05,1255.68 4830.47,1234.58C4827.26,1215.66 4800.57,1220.96 4791.44,1208.17C4787.82,1203.1 4788.13,1194.35 4788.82,1189.14C4791.9,1165.74 4810.38,1144.33 4821.42,1125.75C4830.29,1110.82 4834.66,1101.77 4838.63,1084.87C4839.58,1080.81 4840.02,1076.58 4839.82,1072.41C4839.55,1066.69 4838.56,1061.01 4837.23,1055.44C4831.45,1031.22 4802.72,1043.31 4788.75,1051.63C4784.59,1054.11 4780.51,1056.78 4776.75,1059.82C4769.35,1065.81 4769.41,1075.97 4762.87,1082.51Z" style="fill:rgb(255,195,0);"/>
                    </g>
                    <g transform="matrix(0.748816,0.26877,-0.428391,1.19353,1805.77,-1641.15)">
                        <path d="M5012.62,1186.02C5013.93,1183.99 5009.69,1189.86 5008.09,1191.66C5004.78,1195.38 5002.05,1198.45 4996.97,1199.71C4991.53,1201.06 4985.78,1200.8 4980.37,1202.26C4964.48,1206.53 4952.84,1220.57 4946.26,1234.96C4939.21,1250.37 4937.32,1267.69 4938.11,1284.48C4938.23,1287.05 4942.35,1303.36 4942.18,1308.74C4941.98,1315.41 4941.02,1317.43 4936.26,1321.64C4932.36,1325.09 4924.6,1327.86 4923.78,1333.94C4923.24,1338.02 4926.51,1343.6 4927.84,1346.34C4932.02,1354.99 4938.66,1363.43 4936.92,1373.79C4935.58,1381.79 4932.38,1384.21 4925.25,1387.18C4918.69,1389.92 4908.65,1389.27 4906.68,1398.21C4903.62,1412.15 4910.46,1424.48 4922.76,1430.99C4940.36,1440.3 4958.95,1420.67 4970.38,1409.96C4983.54,1397.63 4998.69,1384.04 4999.59,1364.54C5000.23,1350.71 4985.48,1344.35 4982.13,1332.05C4975.96,1309.42 4979.06,1284.47 4984.57,1262.08C4987.28,1251.1 4992.43,1240.9 5000.44,1232.81C5011.5,1221.66 5028.55,1216.14 5035.31,1200.95C5039.06,1192.52 5037.81,1172.9 5024.18,1177.45" style="fill:rgb(1,195,129);"/>
                    </g>
                    <g transform="matrix(1.96626,6.60671e-05,-4.48806e-05,1.33572,-5273.15,-432.48)">
                        <path d="M5538.48,1129.95C5531.09,1135.49 5522.87,1139.87 5515.47,1145.4C5507.88,1151.08 5509.31,1154.22 5500.2,1157.89C5486.33,1163.48 5471.3,1155.82 5457.87,1163.43C5452.87,1166.27 5443.71,1176.03 5438.88,1179.06C5435.37,1181.27 5431.16,1182.16 5427.55,1184.21C5423.46,1186.53 5420.27,1190.45 5415.87,1192.11C5410.32,1194.2 5403.99,1193.37 5398.36,1195.2C5394.97,1196.31 5384.96,1204.64 5381.87,1206.19C5370.24,1212.02 5365.69,1211.84 5353.36,1215.37C5334.96,1220.66 5314.23,1244.34 5326.57,1263.89C5336.8,1280.09 5359.62,1270.37 5371.91,1262.52C5375.75,1260.07 5379.11,1256.91 5382.91,1254.39C5386.64,1251.91 5390.69,1249.94 5394.48,1247.55C5404.47,1241.26 5407.95,1233.65 5416.96,1225.76C5423.29,1220.21 5435.14,1214.38 5442.66,1211C5450.99,1207.26 5465.66,1201.4 5474.6,1199.32C5483.59,1197.23 5492.7,1199.05 5500.36,1193C5511.16,1184.47 5516.9,1171.1 5528.16,1163.04C5540.07,1154.52 5546.25,1153.65 5557.45,1143.68C5564.27,1137.61 5569.98,1116.69 5554.67,1116.06C5546.53,1115.73 5543.56,1126.14 5538.48,1129.95Z" style="fill:rgb(107,79,140);"/>
                    </g>
                    <g transform="matrix(1,0,0,1,0.163406,-51.2808)">
                        <rect x="6272.76" y="466.314" width="124.462" height="124.462" style="fill:rgb(255,195,0);"/>
                    </g>
                    <g transform="matrix(1,0,0,1,-5.47641,-67.5295)">
                        <circle cx="4753.82" cy="1564.11" r="39.826" style="fill:rgb(250,53,101);"/>
                    </g>
                    <g id="dots-all">
                        <g id="dot" transform="matrix(4.84889e-17,-0.607406,0.791884,3.71929e-17,4296.42,3825.04)">
                            <path d="M3835.46,624.5C3844.16,624.5 3852.42,623.369 3860.25,621.107C3868.08,618.845 3874.95,615.452 3880.87,610.928C3886.79,606.404 3891.48,601.097 3894.96,595.007C3898.44,588.917 3900.18,581.87 3900.18,573.866C3900.18,558.206 3893.22,545.156 3879.3,534.716C3866.08,525.32 3851.46,520.622 3835.46,520.622C3821.19,519.23 3806.4,523.754 3791.09,534.194C3774.38,546.026 3766.2,560.468 3766.55,577.52C3766.9,591.092 3773.43,602.315 3786.13,611.189C3798.83,620.063 3815.27,624.5 3835.46,624.5Z" style="fill:none;fill-rule:nonzero;"/>
                        </g>
                        <g id="dots" transform="matrix(0.791884,0,0,0.607406,1062,459.061)">
                            <g transform="matrix(6.12323e-17,-1,1,6.12323e-17,3338.66,5422.68)">
                                <path d="M3892.09,1113.87C3898.36,1103.09 3901.49,1092.3 3901.49,1081.51C3901.49,1063.07 3893.66,1048.1 3878,1036.62C3864.43,1026.18 3849.81,1021.48 3834.15,1022.52C3830.32,1022.52 3827.54,1022.7 3825.8,1023.05C3800.74,1025.83 3783.34,1034.88 3773.6,1050.19C3768.73,1056.11 3765.94,1064.11 3765.25,1074.2C3764.9,1087.08 3770.99,1098.04 3783.52,1107.09C3794.31,1114.74 3804.57,1118.05 3814.32,1117.01L3823.19,1117.01L3821.62,1119.62L3819.53,1122.23L3817.45,1125.88L3813.79,1130.58L3801.79,1144.67L3790.83,1156.16L3788.22,1158.77C3785.43,1161.55 3784.04,1164.51 3784.04,1167.64C3784.04,1176.34 3791.87,1180.69 3807.53,1180.69C3811.36,1179.99 3818.49,1176.86 3828.93,1171.29C3834.15,1168.51 3838.59,1165.99 3842.24,1163.73C3845.9,1161.46 3848.94,1159.46 3851.38,1157.72C3870.17,1142.76 3883.74,1128.14 3892.09,1113.87Z" style="fill:rgb(1,195,129);fill-rule:nonzero;"/>
                            </g>
                            <g transform="matrix(6.12323e-17,-1,1,6.12323e-17,3703.8,5421.38)">
                                <path d="M3835.46,624.5C3844.16,624.5 3852.42,623.369 3860.25,621.107C3868.08,618.845 3874.95,615.452 3880.87,610.928C3886.79,606.404 3891.48,601.097 3894.96,595.007C3898.44,588.917 3900.18,581.87 3900.18,573.866C3900.18,558.206 3893.22,545.156 3879.3,534.716C3866.08,525.32 3851.46,520.622 3835.46,520.622C3821.19,519.23 3806.4,523.754 3791.09,534.194C3774.38,546.026 3766.2,560.468 3766.55,577.52C3766.9,591.092 3773.43,602.315 3786.13,611.189C3798.83,620.063 3815.27,624.5 3835.46,624.5Z" style="fill:rgb(250,53,101);fill-rule:nonzero;"/>
                            </g>
                            <g transform="matrix(6.12323e-17,-1,1,6.12323e-17,3566.93,5421.38)">
                                <path d="M3835.46,624.5C3844.16,624.5 3852.42,623.369 3860.25,621.107C3868.08,618.845 3874.95,615.452 3880.87,610.928C3886.79,606.404 3891.48,601.097 3894.96,595.007C3898.44,588.917 3900.18,581.87 3900.18,573.866C3900.18,558.206 3893.22,545.156 3879.3,534.716C3866.08,525.32 3851.46,520.622 3835.46,520.622C3821.19,519.23 3806.4,523.754 3791.09,534.194C3774.38,546.026 3766.2,560.468 3766.55,577.52C3766.9,591.092 3773.43,602.315 3786.13,611.189C3798.83,620.063 3815.27,624.5 3835.46,624.5Z" style="fill:rgb(255,195,0);fill-rule:nonzero;"/>
                            </g>
                            <g transform="matrix(6.12323e-17,-1,1,6.12323e-17,3430.06,5421.38)">
                                <path d="M3835.46,624.5C3844.16,624.5 3852.42,623.369 3860.25,621.107C3868.08,618.845 3874.95,615.452 3880.87,610.928C3886.79,606.404 3891.48,601.097 3894.96,595.007C3898.44,588.917 3900.18,581.87 3900.18,573.866C3900.18,558.206 3893.22,545.156 3879.3,534.716C3866.08,525.32 3851.46,520.622 3835.46,520.622C3821.19,519.23 3806.4,523.754 3791.09,534.194C3774.38,546.026 3766.2,560.468 3766.55,577.52C3766.9,591.092 3773.43,602.315 3786.13,611.189C3798.83,620.063 3815.27,624.5 3835.46,624.5Z" style="fill:rgb(2,136,254);fill-rule:nonzero;"/>
                            </g>
                            <g transform="matrix(6.12323e-17,-1,1,6.12323e-17,3293.19,5421.38)">
                                <path d="M3835.46,624.5C3844.16,624.5 3852.42,623.369 3860.25,621.107C3868.08,618.845 3874.95,615.452 3880.87,610.928C3886.79,606.404 3891.48,601.097 3894.96,595.007C3898.44,588.917 3900.18,581.87 3900.18,573.866C3900.18,558.206 3893.22,545.156 3879.3,534.716C3866.08,525.32 3851.46,520.622 3835.46,520.622C3821.19,519.23 3806.4,523.754 3791.09,534.194C3774.38,546.026 3766.2,560.468 3766.55,577.52C3766.9,591.092 3773.43,602.315 3786.13,611.189C3798.83,620.063 3815.27,624.5 3835.46,624.5Z" style="fill:rgb(117,57,252);fill-rule:nonzero;"/>
                            </g>
                            <g transform="matrix(6.12323e-17,-1,1,6.12323e-17,3156.33,5421.38)">
                                <path d="M3835.46,624.5C3844.16,624.5 3852.42,623.369 3860.25,621.107C3868.08,618.845 3874.95,615.452 3880.87,610.928C3886.79,606.404 3891.48,601.097 3894.96,595.007C3898.44,588.917 3900.18,581.87 3900.18,573.866C3900.18,558.206 3893.22,545.156 3879.3,534.716C3866.08,525.32 3851.46,520.622 3835.46,520.622C3821.19,519.23 3806.4,523.754 3791.09,534.194C3774.38,546.026 3766.2,560.468 3766.55,577.52C3766.9,591.092 3773.43,602.315 3786.13,611.189C3798.83,620.063 3815.27,624.5 3835.46,624.5Z" style="fill:rgb(0,44,81);fill-rule:nonzero;"/>
                            </g>
                        </g>
                        <g id="dots1" serif:id="dots" transform="matrix(0.791884,0,0,0.607406,2936.96,-462.76)">
                            <g transform="matrix(6.12323e-17,-1,1,6.12323e-17,3338.66,5422.68)">
                                <path d="M3892.09,1113.87C3898.36,1103.09 3901.49,1092.3 3901.49,1081.51C3901.49,1063.07 3893.66,1048.1 3878,1036.62C3864.43,1026.18 3849.81,1021.48 3834.15,1022.52C3830.32,1022.52 3827.54,1022.7 3825.8,1023.05C3800.74,1025.83 3783.34,1034.88 3773.6,1050.19C3768.73,1056.11 3765.94,1064.11 3765.25,1074.2C3764.9,1087.08 3770.99,1098.04 3783.52,1107.09C3794.31,1114.74 3804.57,1118.05 3814.32,1117.01L3823.19,1117.01L3821.62,1119.62L3819.53,1122.23L3817.45,1125.88L3813.79,1130.58L3801.79,1144.67L3790.83,1156.16L3788.22,1158.77C3785.43,1161.55 3784.04,1164.51 3784.04,1167.64C3784.04,1176.34 3791.87,1180.69 3807.53,1180.69C3811.36,1179.99 3818.49,1176.86 3828.93,1171.29C3834.15,1168.51 3838.59,1165.99 3842.24,1163.73C3845.9,1161.46 3848.94,1159.46 3851.38,1157.72C3870.17,1142.76 3883.74,1128.14 3892.09,1113.87Z" style="fill:rgb(1,195,129);fill-rule:nonzero;"/>
                            </g>
                            <g transform="matrix(6.12323e-17,-1,1,6.12323e-17,3703.8,5421.38)">
                                <path d="M3835.46,624.5C3844.16,624.5 3852.42,623.369 3860.25,621.107C3868.08,618.845 3874.95,615.452 3880.87,610.928C3886.79,606.404 3891.48,601.097 3894.96,595.007C3898.44,588.917 3900.18,581.87 3900.18,573.866C3900.18,558.206 3893.22,545.156 3879.3,534.716C3866.08,525.32 3851.46,520.622 3835.46,520.622C3821.19,519.23 3806.4,523.754 3791.09,534.194C3774.38,546.026 3766.2,560.468 3766.55,577.52C3766.9,591.092 3773.43,602.315 3786.13,611.189C3798.83,620.063 3815.27,624.5 3835.46,624.5Z" style="fill:rgb(250,53,101);fill-rule:nonzero;"/>
                            </g>
                            <g transform="matrix(6.12323e-17,-1,1,6.12323e-17,3566.93,5421.38)">
                                <path d="M3835.46,624.5C3844.16,624.5 3852.42,623.369 3860.25,621.107C3868.08,618.845 3874.95,615.452 3880.87,610.928C3886.79,606.404 3891.48,601.097 3894.96,595.007C3898.44,588.917 3900.18,581.87 3900.18,573.866C3900.18,558.206 3893.22,545.156 3879.3,534.716C3866.08,525.32 3851.46,520.622 3835.46,520.622C3821.19,519.23 3806.4,523.754 3791.09,534.194C3774.38,546.026 3766.2,560.468 3766.55,577.52C3766.9,591.092 3773.43,602.315 3786.13,611.189C3798.83,620.063 3815.27,624.5 3835.46,624.5Z" style="fill:rgb(255,195,0);fill-rule:nonzero;"/>
                            </g>
                            <g transform="matrix(6.12323e-17,-1,1,6.12323e-17,3430.06,5421.38)">
                                <path d="M3835.46,624.5C3844.16,624.5 3852.42,623.369 3860.25,621.107C3868.08,618.845 3874.95,615.452 3880.87,610.928C3886.79,606.404 3891.48,601.097 3894.96,595.007C3898.44,588.917 3900.18,581.87 3900.18,573.866C3900.18,558.206 3893.22,545.156 3879.3,534.716C3866.08,525.32 3851.46,520.622 3835.46,520.622C3821.19,519.23 3806.4,523.754 3791.09,534.194C3774.38,546.026 3766.2,560.468 3766.55,577.52C3766.9,591.092 3773.43,602.315 3786.13,611.189C3798.83,620.063 3815.27,624.5 3835.46,624.5Z" style="fill:rgb(2,136,254);fill-rule:nonzero;"/>
                            </g>
                            <g transform="matrix(6.12323e-17,-1,1,6.12323e-17,3293.19,5421.38)">
                                <path d="M3835.46,624.5C3844.16,624.5 3852.42,623.369 3860.25,621.107C3868.08,618.845 3874.95,615.452 3880.87,610.928C3886.79,606.404 3891.48,601.097 3894.96,595.007C3898.44,588.917 3900.18,581.87 3900.18,573.866C3900.18,558.206 3893.22,545.156 3879.3,534.716C3866.08,525.32 3851.46,520.622 3835.46,520.622C3821.19,519.23 3806.4,523.754 3791.09,534.194C3774.38,546.026 3766.2,560.468 3766.55,577.52C3766.9,591.092 3773.43,602.315 3786.13,611.189C3798.83,620.063 3815.27,624.5 3835.46,624.5Z" style="fill:rgb(117,57,252);fill-rule:nonzero;"/>
                            </g>
                            <g transform="matrix(6.12323e-17,-1,1,6.12323e-17,3156.33,5421.38)">
                                <path d="M3835.46,624.5C3844.16,624.5 3852.42,623.369 3860.25,621.107C3868.08,618.845 3874.95,615.452 3880.87,610.928C3886.79,606.404 3891.48,601.097 3894.96,595.007C3898.44,588.917 3900.18,581.87 3900.18,573.866C3900.18,558.206 3893.22,545.156 3879.3,534.716C3866.08,525.32 3851.46,520.622 3835.46,520.622C3821.19,519.23 3806.4,523.754 3791.09,534.194C3774.38,546.026 3766.2,560.468 3766.55,577.52C3766.9,591.092 3773.43,602.315 3786.13,611.189C3798.83,620.063 3815.27,624.5 3835.46,624.5Z" style="fill:rgb(0,44,81);fill-rule:nonzero;"/>
                            </g>
                        </g>
                    </g>
                    <g transform="matrix(1.20086,0,0,1.45548,-1363.61,-532.957)">
                        <path d="M6509.14,799.126C6500.05,789.791 6485.53,802.68 6478.35,806.897C6462.81,816.037 6457.56,819.274 6440.71,825.824C6425.53,831.725 6408.79,834.576 6396.82,846.593C6385.02,858.452 6380.65,875.96 6373.61,890.429C6364.92,908.293 6355.76,925.292 6341.53,939.288C6325.57,954.989 6324.49,953.566 6308.9,969.837C6295.08,984.26 6281.44,1003.85 6265.85,1017.14C6249.56,1031.02 6223.13,1022.54 6208.97,1040.59C6201.7,1049.86 6199.98,1063.03 6197.54,1073.98C6191.17,1102.54 6192.06,1102.5 6187.47,1131.26C6184.83,1147.82 6164.69,1148.86 6155.44,1160.19C6152.11,1164.26 6148.53,1173.06 6152.73,1178.08C6154.67,1180.41 6158.6,1181.73 6161.55,1180.88C6176.01,1176.7 6177.85,1173.94 6190.45,1165.72C6201.34,1158.62 6217.8,1151.43 6220.46,1136.55C6221.56,1130.43 6218.91,1118.96 6218.81,1112.94C6218.68,1105.14 6220.03,1092.43 6222.34,1084.94C6224.68,1077.37 6229.31,1065.8 6238.2,1063.11C6251.53,1059.09 6270.53,1067.21 6282,1057.27C6290.27,1050.11 6297.88,1039.98 6303.01,1029.99C6307.15,1021.92 6309.37,1013.66 6314.72,1006.11C6321.89,995.984 6332.63,990.031 6341.59,981.715C6354.2,970.002 6372.94,950.364 6383.39,936.643C6396.86,918.964 6399.47,896.131 6411.46,877.591C6416.88,869.224 6428.7,862.902 6436.91,858.679C6456.74,848.479 6479.4,840.69 6496.59,825.768C6501.28,821.698 6517.55,807.769 6509.14,799.126Z" style="fill:rgb(255,195,0);"/>
                    </g>
                    <g id="Compass" transform="matrix(1,0,0,1,6,-5)">
                        <g transform="matrix(2.17421,0,0,2.17421,-5094.82,-1668.32)">
                            <path d="M4147.53,1330.84C4147.07,1326.03 4147.1,1325.42 4147.1,1320.49C4147.1,1236.34 4215.41,1168.02 4299.56,1168.02C4321.3,1168.02 4341.98,1172.58 4360.7,1180.8" style="fill:none;stroke:rgb(255,195,0);stroke-width:9.2px;"/>
                        </g>
                        <g transform="matrix(1.0584,0,0,1,-2933.53,182.229)">
                            <rect x="6393.57" y="1028.72" width="544.932" height="35.292" style="fill:rgb(1,195,129);"/>
                        </g>
                        <g transform="matrix(6.48083e-17,1.0584,-1,6.12323e-17,5435.54,-6097.47)">
                            <rect x="6393.57" y="1028.72" width="544.932" height="35.292" style="fill:rgb(1,195,129);"/>
                        </g>
                        <g transform="matrix(1,0,0,1,-46.2333,-103.784)">
                            <path d="M4147.1,1320.49C4147.1,1236.34 4215.41,1168.02 4299.56,1168.02C4383.71,1168.02 4452.03,1236.34 4452.03,1320.49" style="fill:rgb(2,136,254);"/>
                        </g>
                        <g transform="matrix(0.0543108,0,0,0.331131,3747.66,918.819)">
                            <rect x="4238.77" y="988.519" width="2332.07" height="279.562" style="fill:rgb(250,53,101);"/>
                        </g>
                    </g>
                    <g id="horizontal-lines1" serif:id="horizontal lines" transform="matrix(1,0,0,1,-2324.6,-747.953)">
                        <g transform="matrix(0.97495,0,0,1,167.393,-51.2808)">
                            <path d="M6899.51,1287.06L6469.04,1287.06" style="fill:none;stroke:rgb(255,195,0);stroke-width:12.15px;"/>
                        </g>
                        <g transform="matrix(0.97495,0,0,1,167.393,-29.2318)">
                            <path d="M6899.51,1287.06L6469.04,1287.06" style="fill:none;stroke:rgb(255,195,0);stroke-width:12.15px;"/>
                        </g>
                        <g transform="matrix(0.97495,0,0,1,167.393,-7.18283)">
                            <path d="M6899.51,1287.06L6469.04,1287.06" style="fill:none;stroke:rgb(255,195,0);stroke-width:12.15px;"/>
                        </g>
                        <g transform="matrix(0.97495,0,0,1,167.393,14.8662)">
                            <path d="M6899.51,1287.06L6469.04,1287.06" style="fill:none;stroke:rgb(255,195,0);stroke-width:12.15px;"/>
                        </g>
                        <g transform="matrix(0.97495,0,0,1,167.393,36.9152)">
                            <path d="M6899.51,1287.06L6469.04,1287.06" style="fill:none;stroke:rgb(255,195,0);stroke-width:12.15px;"/>
                        </g>
                        <g transform="matrix(0.97495,0,0,1,167.393,58.9642)">
                            <path d="M6899.51,1287.06L6469.04,1287.06" style="fill:none;stroke:rgb(255,195,0);stroke-width:12.15px;"/>
                        </g>
                        <g transform="matrix(0.97495,0,0,1,167.393,81.0132)">
                            <path d="M6899.51,1287.06L6469.04,1287.06" style="fill:none;stroke:rgb(255,195,0);stroke-width:12.15px;"/>
                        </g>
                        <g transform="matrix(0.97495,0,0,1,167.393,103.062)">
                            <path d="M6899.51,1287.06L6469.04,1287.06" style="fill:none;stroke:rgb(255,195,0);stroke-width:12.15px;"/>
                        </g>
                        <g transform="matrix(0.97495,0,0,1,167.393,125.111)">
                            <path d="M6899.51,1287.06L6469.04,1287.06" style="fill:none;stroke:rgb(255,195,0);stroke-width:12.15px;"/>
                        </g>
                    </g>
                </g>
                <g id="Outlines" transform="matrix(1,0,0,1,0.163406,-51.2808)">
                    <path d="M4751.82,738.372C4752.99,737.189 4754.16,736.006 4755.35,734.846C4758.88,731.414 4762.24,727.803 4765.97,724.596C4776.96,715.146 4776.55,714.993 4786.69,704.682C4803.14,687.95 4828.99,692.87 4846.89,679.038C4854.71,672.99 4860.76,664.856 4868.58,658.808C4873.5,655.003 4878.9,651.849 4884.24,648.661C4885.15,648.114 4893.51,643.18 4895.21,646.702C4909.84,677 4885.85,705.904 4864.26,725.053C4857.35,731.183 4847.11,730.857 4840.75,737.98C4830.37,749.616 4817.22,773.028 4798.44,774.805C4783.78,776.193 4765.85,773.404 4753.39,765.011C4744.78,759.209 4744.74,745.456 4751.82,738.372Z" style="fill:none;stroke:rgb(107,79,140);stroke-width:10px;"/>
                    <path d="M5498.72,786.803C5490.56,777.013 5475.52,784.068 5469.93,793.147C5466.77,798.278 5463.83,803.628 5461.84,809.317C5458.64,818.46 5460.1,832.235 5453.63,840.495C5440.83,856.854 5422.89,866.309 5415.14,886.634C5412.12,894.543 5406.49,910.262 5411.75,919.397C5420.67,934.866 5441.14,923.662 5450.31,915.763C5453.51,913.008 5456.47,909.923 5458.97,906.525C5470.41,890.993 5468.17,889.874 5476.98,872.611C5483.78,859.267 5495.4,842.323 5499.52,826.542C5502.14,816.554 5502.64,808.228 5501.91,798.291C5501.69,795.281 5500.92,789.441 5498.72,786.803Z" style="fill:none;stroke:rgb(107,79,140);stroke-width:10px;"/>
                    <path d="M5074.6,1192.58C5053.39,1207.15 5039.32,1224.33 5027.59,1247.04C5020.85,1260.09 5011.78,1275.17 5008.6,1289.96C5004.94,1306.97 4999.56,1343.71 5025.91,1345.85C5028.94,1346.09 5032.05,1345.69 5035,1344.95C5039.09,1343.93 5043.16,1342.6 5046.86,1340.6C5052.63,1337.48 5062.01,1328.76 5066.71,1324.35C5080.51,1311.38 5095.8,1298.63 5104.52,1281.34C5110.72,1269.05 5114.21,1253.34 5124.55,1243.26C5142.41,1225.83 5166.64,1209.72 5181.02,1188.5C5183.71,1184.53 5184.74,1176.64 5184.53,1172.02C5184.37,1168.63 5183.88,1165.25 5183.04,1161.96C5181.44,1155.71 5174.46,1154.07 5168.91,1153.67C5152.03,1152.46 5139.44,1160.65 5124.48,1167.49C5106.15,1175.87 5091.35,1181.06 5074.6,1192.58Z" style="fill:none;stroke:rgb(107,79,140);stroke-width:10px;"/>
                    <circle cx="5943.65" cy="718.057" r="69.554" style="fill:none;stroke:rgb(2,136,254);stroke-width:10px;"/>
                    <path d="M5912.89,1037.89C5913.9,1024.61 5902.41,1013.45 5893.96,1005.33C5871.18,983.453 5833.84,986.366 5805.59,991.5C5776.88,996.719 5755.59,1023.38 5742.02,1047.28C5733.54,1062.21 5728.41,1079.79 5715.28,1091.7C5692.19,1112.66 5649.96,1109.89 5636.49,1142.22C5634.49,1147.03 5632.97,1152.13 5632.49,1157.31C5632.05,1162.06 5632.88,1166.88 5633.77,1171.56C5638.36,1195.83 5668.25,1189.4 5684,1181C5695.73,1174.74 5705.16,1166.12 5716.62,1159.44C5732.53,1150.17 5734.76,1152.16 5750.2,1141.96C5766.22,1131.39 5775.05,1113.51 5790.4,1102.2C5808.37,1088.97 5830.07,1084.12 5850.93,1077.43C5871.23,1070.91 5880.95,1068.75 5899.31,1057.5C5906.24,1053.26 5912.26,1046.27 5912.89,1037.89Z" style="fill:none;stroke:rgb(255,195,0);stroke-width:10px;"/>
                    <path d="M6330.53,774.177C6338.26,769.785 6339.5,759.146 6342.85,752.11C6350.09,736.933 6356.45,724.435 6370.42,715.055C6383.97,705.96 6398.9,698.615 6415.14,696.075C6422.06,694.993 6432.67,696.839 6436.53,703.592C6438.94,707.811 6438.81,715.419 6438.15,720.027C6436.84,729.1 6418.43,731.618 6415.12,732.93C6407.03,736.14 6404.09,737.046 6397.99,743.42C6388.39,753.439 6400.35,769.339 6395.82,780.966C6393.81,786.142 6387.43,791.469 6383.03,794.404C6372.6,801.364 6359.37,806.847 6350.25,815.877C6333.39,832.564 6321.3,853.417 6306.79,871.969C6298.57,882.467 6286.82,897.429 6273.2,902.302C6253.89,909.21 6238.18,893.676 6230.92,877.359C6226.37,867.136 6224.28,854.536 6223.21,843.844C6221.49,826.696 6222.31,808.677 6234.17,795.089C6249.92,777.05 6277.08,776.991 6298.92,777.092C6309.07,777.139 6321.02,779.585 6330.53,774.177Z" style="fill:none;stroke:rgb(255,195,0);stroke-width:10px;"/>
                    <path d="M6117.1,1262.16C6126.25,1243.86 6137.61,1221.33 6154.66,1208.32C6166.88,1199 6184.28,1189.66 6198.34,1183.49C6203.01,1181.44 6216.59,1174.7 6224.09,1176.39C6243.32,1180.71 6239.43,1200.25 6235.93,1211.4C6234.58,1215.71 6232.83,1219.95 6230.43,1223.77C6220.27,1239.93 6200.68,1245.38 6190.01,1260.94C6160.23,1304.36 6141.92,1357.83 6098.89,1390.94C6095.8,1393.32 6090.42,1394.32 6086.73,1394.48C6073.12,1395.04 6043.73,1394.05 6042.81,1374.67C6041.7,1351.48 6070.21,1346.44 6082.24,1331.93C6087.68,1325.36 6092.82,1312.79 6096.42,1305.24C6103.28,1290.86 6109.98,1276.41 6117.1,1262.16Z" style="fill:none;stroke:rgb(2,136,254);stroke-width:10px;"/>
                    <g>
                        <path d="M5316.77,1281.15C5314.17,1280.78 5311.99,1282.2 5309.86,1283.45C5305.45,1286.04 5300.22,1288.32 5298.44,1293.57C5297.83,1295.39 5297.54,1297.3 5297.21,1299.19C5296.48,1303.36 5296.84,1308 5301.15,1310.08C5302.12,1310.55 5303.22,1310.74 5304.3,1310.89C5310.68,1311.76 5319.13,1311.81 5324.21,1307.03C5327.93,1303.53 5329.13,1297.96 5328.85,1293.04C5328.72,1290.72 5328.4,1287.3 5326.52,1285.51C5323.12,1282.25 5321.22,1281.78 5316.77,1281.15Z" style="fill:none;stroke:rgb(253,251,222);stroke-width:10px;"/>
                        <path d="M5275.7,1317.15C5274.82,1310.42 5267.33,1306.92 5262.06,1304.6C5242.84,1296.13 5221.07,1306.25 5205.37,1317.52C5198.45,1322.48 5196.1,1331.3 5192.11,1338.26C5184.19,1352.09 5175.28,1369.83 5160.14,1377.71C5152.63,1381.62 5134.56,1386.91 5126.69,1388.05C5114.38,1389.84 5097.12,1386.76 5085.35,1393.36C5065.24,1404.62 5068.03,1436.02 5047.42,1447.25C5042.53,1449.91 5035.06,1449.32 5029.88,1450.81C5016.15,1454.76 5002.03,1465.31 5003.52,1481.37C5003.91,1485.58 5005.42,1489.68 5007.21,1493.52C5012.47,1504.76 5025.82,1508.63 5037.06,1510.06C5061.11,1513.12 5087.4,1514.68 5109.3,1502.1C5117.74,1497.26 5125.36,1491.1 5133.29,1485.46C5137.68,1482.34 5142.58,1479.75 5146.26,1475.81C5150.34,1471.44 5159.16,1453.92 5162.25,1448.96C5170.33,1435.99 5178.41,1423 5187.14,1410.45C5193.9,1400.72 5206.45,1399.45 5216.29,1394.84C5224.73,1390.88 5229.42,1387.22 5233.81,1378.83C5235.82,1374.98 5237.53,1370.82 5238.07,1366.5C5238.87,1359.96 5233.51,1351.34 5237.36,1344.86C5243.9,1333.83 5255.01,1334.36 5266.27,1331.24C5272.48,1329.52 5276.55,1323.59 5275.7,1317.15Z" style="fill:none;stroke:rgb(253,251,222);stroke-width:10px;"/>
                    </g>
                    <path d="M5432.36,1267.57C5428.13,1269.6 5424.3,1272.45 5419.95,1274.22C5414.05,1276.62 5407.45,1277 5401.59,1279.49C5388.8,1284.91 5377.07,1298.2 5367.58,1307.89C5354.27,1321.46 5332.67,1339.64 5326.24,1359.97C5323.86,1367.49 5321,1385.19 5320.61,1393.53C5320.28,1400.52 5319.56,1414.77 5322.79,1422.92C5328.18,1436.52 5343.44,1450.49 5358.96,1443.66C5376.91,1435.76 5393.78,1419.85 5403.79,1403.09C5412.78,1388.03 5418.63,1368.83 5431.47,1356.07C5447.77,1339.87 5469.32,1325.89 5479.62,1304.29C5483.07,1297.04 5481.76,1291.76 5480.45,1284.31C5479.82,1280.7 5478.46,1274.03 5475.53,1271.29C5464.03,1260.56 5445.73,1261.17 5432.36,1267.57Z" style="fill:none;stroke:rgb(255,195,0);stroke-width:10px;"/>
                </g>
                <g id="punctuation-expanded" transform="matrix(1,0,0,1,537.661,-220.075)">
                    <g transform="matrix(5.5475e-17,0.905975,-0.905975,5.5475e-17,4175.62,936.303)">
                        <path d="M769.094,231.558C769.094,216.01 768.296,206.841 766.702,204.05C763.911,198.867 756.536,196.276 744.576,196.276L660.258,196.276C677.799,196.276 667.234,195.678 628.564,194.482C617.8,194.482 609.826,196.475 604.644,200.462C599.461,204.449 596.87,212.821 596.87,225.578L596.87,728.496C597.667,731.287 599.062,734.476 601.056,738.064C602.252,740.456 603.448,742.25 604.644,743.446C605.84,744.642 607.534,745.539 609.727,746.137C611.919,746.735 614.61,747.034 617.8,747.034L752.35,747.034C759.924,747.034 765.306,743.446 768.496,736.27L768.496,707.566C766.901,703.579 763.114,700.789 757.134,699.194L753.546,698.596L724.842,698.596L725.44,261.458L725.44,244.116L746.37,244.116C761.519,244.116 769.094,239.93 769.094,231.558Z" style="fill:rgb(107,79,140);fill-rule:nonzero;"/>
                        <path d="M967.63,717.732L967.63,215.412C966.832,212.621 965.836,210.329 964.64,208.535C963.444,206.741 962.447,205.047 961.65,203.452C958.46,198.668 937.73,196.276 899.458,196.276L812.748,196.276C809.957,196.276 806.17,196.874 801.386,198.07C797,201.259 795.206,204.249 796.004,207.04L796.004,220.794L795.406,235.744C796.602,239.332 800.588,242.123 807.366,244.116L811.552,244.714L839.658,244.714L839.06,681.254L839.06,699.194L817.532,699.194C802.781,699.194 795.406,703.579 795.406,712.35C795.406,728.297 796.602,738.064 798.994,741.652C801.386,745.24 808.362,747.034 819.924,747.034L903.644,747.034C936.334,747.034 955.271,746.037 960.454,744.044C965.238,742.449 967.63,733.679 967.63,717.732Z" style="fill:rgb(107,79,140);fill-rule:nonzero;"/>
                    </g>
                    <g transform="matrix(5.39793e-17,-0.895714,0.895714,5.39793e-17,4513.42,1631.84)">
                        <path d="M999.991,1519.62L999.991,1469.39L992.217,1469.39C970.689,1469.39 959.925,1460.42 959.925,1442.48L959.925,1294.78C959.925,1284.01 956.537,1273.85 949.759,1264.28C942.982,1254.71 934.211,1247.93 923.447,1243.95L907.899,1240.36L923.447,1236.77C947.766,1226.8 959.925,1209.86 959.925,1185.94L959.925,1038.24C959.925,1019.5 970.689,1010.13 992.217,1010.13L999.991,1010.13L999.991,959.897L916.869,959.897C878.199,959.897 858.863,979.431 858.863,1018.5L858.863,1198.5C858.863,1210.46 855.076,1220.42 847.501,1228.4C839.927,1236.37 830.757,1240.36 819.993,1240.36C831.156,1240.36 840.425,1244.25 847.8,1252.02C855.176,1259.79 858.863,1269.86 858.863,1282.22L858.863,1461.02C858.863,1479.36 864.046,1493.71 874.411,1504.08C884.777,1514.44 898.929,1519.62 916.869,1519.62L999.991,1519.62Z" style="fill:rgb(117,57,252);fill-rule:nonzero;"/>
                        <path d="M1213.48,1240.36C1202.32,1240.36 1192.95,1236.37 1185.37,1228.4C1177.8,1220.42 1174.01,1210.46 1174.01,1198.5L1174.01,1018.5C1174.01,1000.56 1168.93,986.308 1158.76,975.744C1148.59,965.179 1134.54,959.897 1116.6,959.897L1033.48,959.897L1033.48,1010.13L1041.25,1010.13C1062.78,1010.13 1073.55,1019.5 1073.55,1038.24L1073.55,1185.94C1073.55,1197.5 1076.93,1207.87 1083.71,1217.04C1092.48,1229.39 1106.43,1237.17 1125.57,1240.36C1121.19,1241.16 1117.3,1242.15 1113.91,1243.35C1110.52,1244.55 1107.63,1245.54 1105.24,1246.34C1097.27,1249.13 1089.99,1255.31 1083.41,1264.88C1076.83,1274.44 1073.55,1284.41 1073.55,1294.78L1073.55,1442.48C1073.55,1460.42 1062.78,1469.39 1041.25,1469.39L1033.48,1469.39L1033.48,1519.62L1116.6,1519.62C1154.87,1519.62 1174.01,1500.09 1174.01,1461.02L1174.01,1282.22C1174.01,1270.66 1177.9,1260.79 1185.67,1252.62C1193.44,1244.44 1202.71,1240.36 1213.48,1240.36Z" style="fill:rgb(117,57,252);fill-rule:nonzero;"/>
                    </g>
                    <g transform="matrix(0.674264,0,0,0.674264,4461.88,916.864)">
                        <path d="M1026.52,1317.53L1026.52,1298.4C1026.52,1290.82 1024.73,1284.84 1021.14,1280.46C1018.35,1278.07 1012.57,1274.68 1003.8,1270.29L847.122,1202.12L1003.8,1133.95C1018.95,1127.17 1026.52,1117.6 1026.52,1105.24L1026.52,1086.7C1026.52,1067.17 1022.54,1057.4 1014.56,1057.4C1013.37,1057.4 1005.79,1059.6 991.838,1063.98L747.256,1170.42C740.479,1173.61 737.09,1184.18 737.09,1202.12C737.09,1220.06 740.479,1230.62 747.256,1233.81L991.838,1340.26C1002.6,1344.64 1010.18,1346.84 1014.56,1346.84C1022.54,1346.84 1026.52,1337.07 1026.52,1317.53Z" style="fill:rgb(2,136,254);fill-rule:nonzero;"/>
                        <path d="M1269.31,908.501C1270.51,904.913 1270.21,902.022 1268.41,899.83C1266.62,897.637 1264.13,896.541 1260.94,896.541L1248.38,897.139L1238.21,897.139L1236.42,897.737C1228.45,897.737 1223.07,899.132 1220.27,901.923C1217.48,904.713 1214.29,910.693 1210.71,919.863L1035.49,1368.96L1028.32,1385.7C1028.32,1390.49 1028.82,1393.38 1029.81,1394.38C1030.81,1395.37 1034.3,1396.27 1040.28,1397.07L1054.03,1397.66L1063.6,1397.66C1073.96,1397.66 1081.74,1390.89 1086.92,1377.33L1263.33,926.441L1269.31,908.501Z" style="fill:rgb(2,136,254);fill-rule:nonzero;"/>
                        <path d="M1560.54,1202.12C1560.54,1184.18 1557.15,1173.61 1550.37,1170.42L1305.79,1063.98C1295.02,1059.6 1287.45,1057.4 1283.06,1057.4C1275.09,1057.4 1271.1,1067.17 1271.1,1086.7L1271.1,1105.84C1271.1,1113.81 1272.7,1119.5 1275.89,1122.88C1279.08,1126.27 1285.06,1129.96 1293.83,1133.95L1450.5,1202.12L1293.83,1270.29C1278.68,1277.07 1271.1,1286.64 1271.1,1299L1271.1,1317.53C1271.1,1337.07 1275.09,1346.84 1283.06,1346.84C1287.45,1346.84 1295.02,1344.64 1305.79,1340.26L1550.37,1233.81C1557.15,1230.62 1560.54,1220.06 1560.54,1202.12Z" style="fill:rgb(2,136,254);fill-rule:nonzero;"/>
                    </g>
                    <g transform="matrix(1,0,0,1,5229.77,-249.316)">
                        <path d="M896.587,1225.43C896.587,1216.26 887.019,1204.7 867.883,1190.75C849.146,1176.79 839.777,1167.22 839.777,1162.04C839.777,1156.86 834.893,1152.57 825.126,1149.18C815.359,1145.8 803.498,1144.1 789.545,1144.1C754.064,1144.1 736.323,1155.26 736.323,1177.59C736.323,1192.34 753.665,1208.09 788.349,1224.83C820.641,1239.98 845.956,1247.56 864.295,1247.56C885.823,1247.56 896.587,1240.18 896.587,1225.43Z" style="fill:rgb(250,53,101);fill-rule:nonzero;"/>
                    </g>
                    <g transform="matrix(1,0,0,1,3098.58,247.723)">
                        <path d="M1347.4,1488.75C1354.18,1477.19 1357.57,1465.03 1357.57,1452.27C1357.57,1420.78 1341.42,1399.65 1309.13,1388.88C1298.77,1385.69 1289.2,1384.1 1280.43,1384.1L1272.06,1384.1C1270.06,1384.1 1268.07,1384.3 1266.08,1384.7C1248.93,1387.09 1234.58,1393.27 1223.02,1403.24C1209.86,1413.6 1202.89,1426.95 1202.09,1443.3C1201.69,1458.05 1208.67,1470.61 1223.02,1480.98C1235.38,1489.75 1247.14,1493.53 1258.3,1492.34L1267.87,1492.34L1264.28,1498.32L1261.89,1502.5L1257.7,1507.88L1243.95,1524.03L1227.8,1540.18C1225.01,1542.97 1223.62,1546.36 1223.62,1550.34C1223.62,1560.31 1232.39,1565.29 1249.93,1565.29C1253.12,1564.5 1257.11,1563.1 1261.89,1561.11C1275.44,1555.53 1287.2,1548.95 1297.17,1541.37C1317.11,1529.41 1333.85,1511.87 1347.4,1488.75Z" style="fill:rgb(0,44,81);fill-rule:nonzero;"/>
                    </g>
                    <g transform="matrix(1,0,0,1,4674.56,-361.452)">
                        <path d="M1339.56,1549.12C1349.53,1549.12 1359,1547.82 1367.97,1545.23C1376.94,1542.64 1384.81,1538.75 1391.59,1533.57C1398.36,1528.39 1403.75,1522.31 1407.73,1515.33C1411.72,1508.36 1413.71,1500.28 1413.71,1491.11C1413.71,1473.17 1405.74,1458.22 1389.79,1446.26C1374.64,1435.5 1357.9,1430.12 1339.56,1430.12C1323.22,1428.52 1306.27,1433.7 1288.73,1445.66C1269.6,1459.22 1260.23,1475.77 1260.62,1495.3C1261.02,1510.85 1268.5,1523.7 1283.05,1533.87C1297.6,1544.04 1316.44,1549.12 1339.56,1549.12ZM1405.34,1708.79C1412.52,1696.43 1416.11,1684.07 1416.11,1671.71C1416.11,1650.58 1407.13,1633.44 1389.19,1620.28C1373.65,1608.32 1356.9,1602.94 1338.96,1604.13C1334.58,1604.13 1331.39,1604.34 1329.39,1604.73C1300.69,1607.92 1280.76,1618.29 1269.6,1635.83C1264.01,1642.61 1260.82,1651.78 1260.03,1663.34C1259.63,1678.09 1266.61,1690.65 1280.96,1701.01C1293.32,1709.78 1305.08,1713.57 1316.24,1712.37L1326.4,1712.37L1324.61,1715.36L1322.22,1718.35L1319.83,1722.54L1315.64,1727.92L1301.89,1744.07L1289.33,1757.22L1286.34,1760.21C1283.15,1763.4 1281.56,1766.79 1281.56,1770.38C1281.56,1780.35 1290.53,1785.33 1308.46,1785.33C1312.85,1784.53 1321.02,1780.94 1332.98,1774.57C1338.96,1771.38 1344.05,1768.49 1348.23,1765.89C1352.42,1763.3 1355.91,1761.01 1358.7,1759.02C1380.23,1741.88 1395.77,1725.13 1405.34,1708.79Z" style="fill:rgb(255,195,0);fill-rule:nonzero;"/>
                    </g>
                    <g transform="matrix(1,0,0,1,5299.69,-8.4958)">
                        <path d="M724.287,1593.01C724.287,1577.06 721.895,1567.29 717.111,1563.71C712.725,1560.12 702.161,1558.32 685.417,1558.32L464.157,1558.32C457.778,1558.32 453.592,1558.52 451.599,1558.92C440.436,1560.52 434.855,1571.88 434.855,1593.01C434.855,1607.76 436.848,1617.23 440.835,1621.41C444.821,1625.6 452.595,1627.69 464.157,1627.69L685.417,1627.69C702.161,1627.69 712.725,1625.9 717.111,1622.31C721.895,1618.72 724.287,1608.95 724.287,1593.01ZM724.287,1710.22C724.287,1694.27 721.895,1684.5 717.111,1680.91C712.725,1677.33 702.161,1675.53 685.417,1675.53L464.157,1675.53C457.778,1675.53 453.592,1675.73 451.599,1676.13C440.436,1677.72 434.855,1689.09 434.855,1710.22C434.855,1724.97 436.848,1734.43 440.835,1738.62C444.821,1742.81 452.595,1744.9 464.157,1744.9L685.417,1744.9C702.161,1744.9 712.725,1743.11 717.111,1739.52C721.895,1735.93 724.287,1726.16 724.287,1710.22Z" style="fill:rgb(1,195,129);fill-rule:nonzero;"/>
                    </g>
                    <g transform="matrix(0.701259,0,0,0.701259,4237.29,-262.199)">
                        <path d="M1456.26,1777.78C1456.26,1765.02 1452.27,1756.85 1444.3,1753.26C1439.91,1750.47 1435.73,1749.87 1431.74,1751.47C1421.38,1755.06 1412.8,1756.85 1406.03,1756.85C1388.88,1756.85 1372.94,1750.27 1358.19,1737.12L1345.03,1725.75L1361.78,1704.82C1368.55,1696.45 1375.03,1687.88 1381.21,1679.11C1387.39,1670.34 1393.27,1661.37 1398.85,1652.2L1411.41,1631.87C1415.79,1627.08 1421.77,1623.1 1429.35,1619.91C1440.91,1615.92 1447.69,1608.75 1449.68,1598.38C1449.68,1580.84 1444.1,1572.07 1432.94,1572.07L1327.69,1572.07L1313.93,1571.47C1301.58,1574.26 1296.19,1583.03 1297.79,1597.78L1298.99,1603.16C1301.78,1609.14 1306.56,1613.53 1313.34,1616.32C1320.91,1619.11 1324.7,1621.1 1324.7,1622.3C1328.29,1625.49 1330.08,1629.67 1330.08,1634.86C1330.08,1648.41 1323.9,1662.17 1311.54,1676.12L1307.36,1679.71L1304.37,1682.7L1227.23,1583.43L1235,1580.44L1236.79,1579.24L1272.08,1565.49C1307.16,1545.95 1324.7,1517.25 1324.7,1479.38C1324.7,1456.26 1314.73,1436.52 1294.8,1420.18C1268.89,1399.05 1230.61,1388.48 1179.98,1388.48L1176.39,1388.48C1174.8,1388.48 1172.81,1388.68 1170.41,1389.08L1128.56,1392.67C1100.65,1395.06 1076.53,1407.02 1056.2,1428.55C1035.87,1449.68 1025.7,1474.19 1025.7,1502.1L1025.7,1508.68C1025.7,1511.47 1026.3,1517.85 1027.49,1527.82C1028.29,1533.4 1030.58,1540.27 1034.37,1548.45C1038.16,1556.62 1043.44,1565.89 1050.22,1576.25L1058.59,1588.81L1051.41,1591.8L1046.03,1594.19L1031.68,1602.57C998.988,1621.7 977.46,1642.43 967.095,1664.76C962.71,1674.33 960.118,1690.27 959.321,1712.6C958.524,1773.59 995.6,1809.87 1070.55,1821.43L1101.64,1825.62C1159.85,1825.62 1202.91,1817.45 1230.81,1801.1L1241.58,1794.52L1252.94,1801.1C1271.68,1812.27 1288.02,1819.04 1301.98,1821.43C1307.56,1822.23 1315.03,1822.83 1324.4,1823.23C1333.77,1823.63 1345.43,1823.83 1359.38,1823.83C1376.53,1823.83 1393.47,1820.64 1410.21,1814.26L1422.17,1809.47C1444.9,1800.7 1456.26,1790.14 1456.26,1777.78ZM1216.46,1489.54C1216.46,1496.72 1212.87,1505.29 1205.7,1515.26L1194.34,1526.62L1188.95,1531.4L1186.56,1533.8L1181.78,1526.02L1179.98,1523.63L1171.61,1515.26C1166.03,1508.88 1162.44,1502.9 1160.85,1497.32L1159.05,1491.34C1157.86,1485.36 1157.26,1480.17 1157.26,1475.79C1157.26,1454.66 1166.43,1444.1 1184.77,1444.1C1206.3,1444.1 1217.06,1456.85 1217.06,1482.37C1217.06,1485.96 1216.86,1488.35 1216.46,1489.54ZM1191.94,1753.26L1188.95,1756.25L1185.37,1758.64C1176.59,1764.23 1165.63,1767.02 1152.48,1767.02C1130.55,1767.02 1113.01,1761.04 1099.85,1749.08C1086.69,1737.12 1080.12,1720.17 1080.12,1698.25L1080.12,1690.47C1081.71,1681.3 1083.41,1672.13 1085.2,1662.96C1086.99,1653.8 1091.48,1645.62 1098.65,1638.45L1191.94,1753.26Z" style="fill:rgb(250,53,101);fill-rule:nonzero;"/>
                    </g>
                    <g transform="matrix(0.816891,0,0,0.816891,3225.87,325.161)">
                        <path d="M1069.26,1140.76L985.542,1140.76L972.984,1287.27L1056.7,1287.27L1069.26,1140.76ZM952.054,1140.76L868.334,1140.76L855.178,1287.27L938.898,1287.27L952.054,1140.76Z" style="fill:rgb(117,57,252);fill-rule:nonzero;"/>
                    </g>
                </g>
                <g id="Name" transform="matrix(1,0,0,1,113.195,-12.5206)">
                    <g transform="matrix(1,0,0,1,-622.71,217.639)">
                        <path d="M5285.36,339.878C5280.9,328.711 5271.74,323.128 5257.89,323.128L5070.29,323.128C5051.09,323.128 5041.48,332.285 5041.48,350.598C5041.48,362.211 5046.62,370.475 5056.89,375.388L5060.24,377.398C5070.07,381.865 5075.88,390.351 5077.66,402.858L5078.33,618.598L5078.33,682.248C5078.33,691.181 5077.66,697.881 5076.32,702.348C5074.53,706.368 5072.97,710.053 5071.63,713.403C5070.29,716.753 5068.73,719.545 5066.94,721.778C5062.48,730.265 5054.44,734.508 5042.82,734.508C5034.34,734.508 5027.08,731.158 5021.05,724.458C5015.02,717.758 5012,711.281 5012,705.028C5012,703.688 5012.45,701.678 5013.34,698.998C5014.23,696.318 5015.24,693.638 5016.36,690.958C5017.47,688.278 5018.7,685.821 5020.04,683.588C5021.38,681.355 5022.72,679.791 5024.06,678.898L5027.41,676.888L5032.77,674.208L5034.78,672.198L5038.13,669.518C5048.4,661.478 5053.54,650.088 5053.54,635.348C5053.54,618.375 5047.07,604.081 5034.11,592.468C5018.48,579.068 4999.94,572.368 4978.5,572.368C4949.91,572.368 4926.69,584.428 4908.82,608.548C4892.74,630.881 4884.7,656.565 4884.7,685.598C4887.83,719.991 4899.89,746.121 4920.88,763.988C4928.92,771.135 4937.41,776.83 4946.34,781.073C4955.28,785.316 4964.43,788.666 4973.81,791.123C4983.19,793.58 4992.8,795.478 5002.62,796.818C5012.45,798.158 5022.05,799.498 5031.43,800.838L5070.29,800.838C5190.44,800.838 5250.52,755.055 5250.52,663.488L5251.19,409.558L5251.19,402.858C5253.43,389.905 5259.01,381.418 5267.94,377.398L5271.29,375.388C5282.01,369.581 5287.37,361.318 5287.37,350.598C5287.37,347.025 5286.7,343.451 5285.36,339.878Z" style="fill:rgb(0,44,81);fill-rule:nonzero;"/>
                        <path d="M5702.1,776.718C5702.99,773.145 5703.44,770.241 5703.44,768.008C5703.44,758.628 5700.09,751.481 5693.39,746.568L5689.37,743.888L5685.35,742.548C5675.08,737.188 5669.72,725.128 5669.27,706.368C5669.72,711.281 5669.94,710.165 5669.94,703.018L5669.94,587.108C5669.94,541.995 5651.18,510.281 5613.66,491.968C5596.24,483.481 5580.39,478.345 5566.09,476.558C5557.16,475.218 5547.56,474.325 5537.28,473.878C5527.01,473.431 5516.29,473.431 5505.12,473.878L5459.56,475.888L5442.14,477.898C5426.51,479.685 5412.77,481.806 5400.94,484.263C5389.1,486.72 5379.39,489.511 5371.79,492.638C5346.33,502.911 5333.6,519.215 5333.6,541.548C5333.6,563.881 5344.32,577.281 5365.76,581.748L5375.81,583.758C5378.05,584.205 5380.39,584.54 5382.85,584.763C5385.3,584.986 5387.65,585.098 5389.88,585.098C5408.19,585.098 5423.83,578.398 5436.78,564.998L5444.82,556.288L5458.89,542.218L5464.25,537.528C5470.51,533.955 5476.31,532.168 5481.67,532.168C5498.65,532.168 5509.14,542.441 5513.16,562.988L5514.5,579.738L5513.83,586.438L5476.31,589.118L5461.57,590.458L5438.79,593.138C5429.86,594.031 5421.15,595.483 5412.66,597.493C5404.18,599.503 5395.47,601.848 5386.53,604.528C5332.48,621.055 5305.46,652.545 5305.46,698.998C5305.46,728.478 5314.4,750.588 5332.26,765.328C5362.19,789.001 5391.89,800.838 5421.37,800.838C5446.39,800.838 5466.93,797.935 5483.01,792.128L5485.69,790.788L5496.41,784.758C5508.47,777.611 5516.29,772.028 5519.86,768.008L5521.87,772.028L5525.89,778.058L5528.57,781.408L5529.91,783.418C5535.72,789.225 5544.65,792.128 5556.71,792.128L5677.31,792.128C5688.93,792.128 5697.19,786.991 5702.1,776.718ZM5514.5,694.978L5513.83,697.658L5513.16,703.018C5510.48,709.718 5506.91,715.301 5502.44,719.768C5494.85,728.255 5487.48,732.721 5480.33,733.168C5457.11,736.295 5445.49,724.905 5445.49,698.998C5445.49,677.558 5451.74,662.595 5464.25,654.108C5469.16,650.535 5473.3,647.855 5476.65,646.068C5480,644.281 5482.12,643.165 5483.01,642.718L5511.82,637.358L5514.5,637.358L5514.5,694.978Z" style="fill:rgb(0,44,81);fill-rule:nonzero;"/>
                        <path d="M6054.52,538.868C6052.29,518.768 6047.82,505.591 6041.12,499.338C6032.19,490.851 6014.1,484.375 5986.85,479.908C5976.13,478.121 5965.86,476.781 5956.03,475.888C5946.2,474.995 5936.82,474.548 5927.89,474.548C5893.05,474.548 5865.14,477.005 5844.14,481.918C5816,487.725 5791.44,500.231 5770.44,519.438C5750.79,536.411 5740.74,559.191 5740.29,587.778C5739.85,611.005 5749.23,631.998 5768.43,650.758C5783.62,665.945 5799.48,674.878 5816,677.558L5864.24,691.628L5880.32,696.988C5893.72,703.241 5900.42,711.281 5900.42,721.108C5900.42,728.701 5895.51,734.731 5885.68,739.198C5877.64,742.771 5870.27,744.558 5863.57,744.558C5841.69,744.558 5824.49,736.295 5811.98,719.768L5796.57,700.338L5795.23,698.998C5789.87,691.851 5780.27,688.278 5766.42,688.278C5755.7,688.278 5746.77,691.628 5739.62,698.328C5732.48,705.028 5728.9,713.738 5728.9,724.458C5728.9,749.025 5743.19,767.561 5771.78,780.068C5781.61,784.535 5796.8,788.555 5817.34,792.128C5844.14,797.488 5872.95,800.168 5903.77,800.168L5928.56,797.488C5948.22,795.701 5967.87,791.011 5987.52,783.418C6040.23,762.871 6066.58,730.711 6066.58,686.938C6066.58,673.091 6063.12,659.691 6056.2,646.738C6049.27,633.785 6041.12,624.181 6031.74,617.928C6024.15,613.015 6017.78,609.106 6012.65,606.203C6007.51,603.3 6003.38,601.401 6000.25,600.508L5949.33,585.098L5942.63,582.418L5933.25,579.068L5927.22,576.388L5921.86,574.378L5913.82,570.358C5904.44,565.891 5899.75,559.861 5899.75,552.268C5899.75,537.081 5914.72,529.488 5944.64,529.488C5961.17,529.488 5974.12,534.848 5983.5,545.568C5986.63,548.695 5992.44,558.298 6000.92,574.378C6006.28,585.098 6012.53,590.458 6019.68,590.458C6025.49,590.458 6029.06,590.235 6030.4,589.788C6047.38,589.788 6055.86,577.728 6055.86,553.608C6055.86,553.161 6055.75,551.821 6055.53,549.588C6055.3,547.355 6054.97,543.781 6054.52,538.868Z" style="fill:rgb(0,44,81);fill-rule:nonzero;"/>
                        <path d="M6492.03,636.688C6492.03,591.575 6477.96,554.948 6449.82,526.808C6414.09,491.075 6363.39,473.208 6297.73,473.208C6291.48,473.208 6270.71,475.218 6235.42,479.238C6196.56,483.705 6164.85,501.348 6140.28,532.168C6115.72,562.095 6103.43,596.935 6103.43,636.688C6103.43,674.655 6114.6,708.825 6136.93,739.198C6160.16,771.358 6190.76,789.448 6228.72,793.468C6247.48,795.701 6261.66,797.376 6271.27,798.493C6280.87,799.61 6285.9,800.168 6286.34,800.168L6297.73,800.168C6328.55,797.041 6351.78,795.031 6367.41,794.138C6404.04,790.118 6434.41,771.805 6458.53,739.198C6480.86,708.825 6492.03,674.655 6492.03,636.688ZM6347.31,615.248C6347.31,632.668 6346.98,647.743 6346.31,660.473C6345.64,673.203 6344.86,683.365 6343.96,690.958C6338.6,728.031 6323.19,746.568 6297.73,746.568C6284.78,746.568 6274.51,741.431 6266.91,731.158C6254.4,713.291 6248.15,681.801 6248.15,636.688C6248.15,594.255 6253.51,564.551 6264.23,547.578C6274.06,535.071 6285.23,528.818 6297.73,528.818C6311.13,528.818 6321.4,533.731 6328.55,543.558C6341.06,560.531 6347.31,584.428 6347.31,615.248Z" style="fill:rgb(0,44,81);fill-rule:nonzero;"/>
                        <path d="M6933.56,792.128C6951.43,792.128 6960.36,783.641 6960.36,766.668C6960.36,758.628 6957.01,751.928 6950.31,746.568L6945.62,743.888L6942.27,742.548C6932,735.848 6926.86,725.798 6926.86,712.398L6926.86,678.228L6927.53,670.188L6927.53,617.258C6927.53,568.571 6918.04,532.615 6899.06,509.388C6880.07,486.161 6849.59,474.548 6807.6,474.548C6752.66,474.548 6714.03,490.405 6691.69,522.118L6691.69,502.688L6691.02,499.338C6687.9,481.471 6678.96,472.538 6664.22,472.538C6660.65,472.538 6658.19,472.761 6656.85,473.208L6535.58,507.378C6520.84,511.398 6513.47,519.885 6513.47,532.838C6513.47,542.218 6516.82,549.141 6523.52,553.608L6527.54,556.288L6530.89,558.298C6540.27,564.105 6545.19,571.698 6545.63,581.078L6546.3,712.398L6545.63,717.088C6543.4,730.935 6538.04,739.421 6529.55,742.548L6526.2,743.888C6516.82,750.141 6512.13,757.735 6512.13,766.668C6512.13,772.475 6514.48,778.17 6519.17,783.753C6523.86,789.336 6530.44,792.128 6538.93,792.128L6709.78,792.128C6725.86,792.128 6733.9,783.865 6733.9,767.338C6733.9,757.065 6729.21,749.248 6719.83,743.888L6716.48,742.548C6711.57,740.761 6708.89,739.31 6708.44,738.193C6707.99,737.076 6707.55,732.945 6707.1,725.798L6706.43,592.468C6706.43,561.648 6717.6,546.238 6739.93,546.238C6754.67,546.238 6763.61,555.171 6766.73,573.038L6768.07,581.078L6768.07,599.838L6769.41,623.288L6769.41,668.178L6768.74,693.638L6768.07,712.398L6768.07,719.098L6767.4,725.798L6766.73,736.518C6766.28,737.858 6763.16,739.868 6757.35,742.548L6754.67,743.888C6745.29,748.801 6740.6,756.395 6740.6,766.668C6740.6,772.475 6742.95,778.17 6747.64,783.753C6752.33,789.336 6758.91,792.128 6767.4,792.128L6933.56,792.128Z" style="fill:rgb(0,44,81);fill-rule:nonzero;"/>
                    </g>
                    <g transform="matrix(1.02716,0,0,1.02716,-567.655,507.463)">
                        <path d="M5262.68,431.172L5256.28,402.645L5254.53,397.988C5249.1,389.061 5241.92,384.597 5232.99,384.597L4917.45,384.597C4908.52,384.597 4901.34,389.061 4895.91,397.988L4893.58,403.227L4887.76,431.172C4883.49,452.519 4881.35,463.775 4881.35,464.939C4881.35,472.701 4884.46,479.688 4890.67,485.898C4896.88,492.108 4905.03,494.436 4915.12,492.884C4927.15,491.331 4937.24,482.793 4945.39,467.268C4948.11,462.222 4950.83,458.05 4953.54,454.751C4956.26,451.452 4959.27,448.638 4962.57,446.309C4965.87,443.98 4969.75,442.234 4974.21,441.069C4978.67,439.905 4984.2,438.741 4990.8,437.576L5000.12,437.576L5000.12,717.026L4999.54,722.848C4998.37,733.715 4993.71,741.09 4985.56,744.971L4982.07,746.717C4973.14,750.987 4968.68,757.973 4968.68,767.676C4968.68,771.557 4969.46,774.856 4971.01,777.573C4973.73,787.276 4981.29,792.128 4993.71,792.128L5156.73,792.128C5173.8,792.128 5182.34,784.171 5182.34,768.258C5182.34,758.555 5177.88,751.375 5168.95,746.717L5167.2,745.553L5165.46,744.971C5157.31,741.09 5152.65,733.715 5151.49,722.848L5150.9,437.576L5160.8,437.576C5174,439.517 5183.51,442.428 5189.33,446.309C5195.15,450.19 5200.39,456.982 5205.05,466.686C5212.42,482.211 5222.51,490.943 5235.32,492.884C5244.64,494.436 5252.98,491.914 5260.36,485.316C5266.18,479.494 5269.09,472.896 5269.09,465.521C5269.09,463.581 5268.51,459.796 5267.34,454.169C5266.18,448.541 5264.62,440.875 5262.68,431.172Z" style="fill:none;fill-rule:nonzero;stroke:white;stroke-width:19.47px;stroke-linecap:butt;stroke-miterlimit:2;"/>
                        <path d="M5618.98,657.061C5618.98,617.86 5606.76,586.034 5582.31,561.582C5551.26,530.532 5507.2,515.007 5450.15,515.007C5444.71,515.007 5426.67,516.754 5396.01,520.247C5362.24,524.128 5334.68,539.459 5313.33,566.24C5291.99,592.244 5281.31,622.518 5281.31,657.061C5281.31,690.051 5291.02,719.743 5310.42,746.135C5330.61,774.08 5357.19,789.799 5390.18,793.292C5406.48,795.233 5418.81,796.688 5427.15,797.659C5435.5,798.629 5439.86,799.114 5440.25,799.114L5450.15,799.114C5476.93,796.397 5497.11,794.651 5510.7,793.875C5542.52,790.381 5568.91,774.468 5589.87,746.135C5609.28,719.743 5618.98,690.051 5618.98,657.061ZM5493.23,638.431C5493.23,653.568 5492.94,666.667 5492.36,677.728C5491.78,688.79 5491.1,697.62 5490.32,704.218C5485.66,736.432 5472.27,752.539 5450.15,752.539C5438.89,752.539 5429.97,748.076 5423.37,739.149C5412.5,723.624 5407.07,696.261 5407.07,657.061C5407.07,620.189 5411.72,594.379 5421.04,579.63C5429.58,568.762 5439.28,563.329 5450.15,563.329C5461.79,563.329 5470.72,567.598 5476.93,576.137C5487.8,590.885 5493.23,611.65 5493.23,638.431Z" style="fill:none;fill-rule:nonzero;stroke:white;stroke-width:19.47px;stroke-linecap:butt;stroke-miterlimit:2;"/>
                        <path d="M6000.32,792.128C6015.84,792.128 6023.6,784.754 6023.6,770.005C6023.6,762.242 6020.5,756.421 6014.29,752.539L6010.79,750.211L6008.47,749.046C5999.15,744.389 5994.49,735.656 5994.49,722.848L5994.49,558.671C5994.49,545.475 5992.75,534.413 5989.25,525.486C5986.54,518.112 5980.33,514.425 5970.62,514.425C5967.52,514.425 5965.38,514.619 5964.22,515.007L5846.03,544.699C5833.61,550.132 5827.4,557.701 5827.4,567.404C5827.4,575.166 5830.32,580.988 5836.14,584.869L5841.38,588.363L5843.12,588.945C5850.11,592.826 5854.38,599.424 5855.93,608.739L5855.93,684.423L5854.77,706.547L5854.19,710.04L5853.02,714.697L5851.86,718.772C5849.14,728.476 5841.96,733.909 5830.32,735.074C5827.99,735.074 5826.44,735.268 5825.66,735.656C5813.63,735.656 5806.84,730.416 5805.28,719.937L5807.61,558.671C5808,546.639 5806.25,535.578 5802.37,525.486C5799.65,518.112 5793.25,514.425 5783.16,514.425C5780.05,514.425 5777.92,514.619 5776.76,515.007L5659.73,544.699C5646.54,549.356 5639.94,556.925 5639.94,567.404C5639.94,574.39 5642.85,580.212 5648.67,584.869L5652.75,587.198L5655.66,588.945C5662.65,592.826 5667.11,599.618 5669.05,609.321L5664.98,717.608C5664.2,740.896 5673.03,759.914 5691.47,774.662C5709.9,789.411 5735.42,796.785 5768.02,796.785L5776.17,796.785C5778.89,796.785 5781.22,796.591 5783.16,796.203L5815.18,792.128C5830.7,790.576 5846.62,781.649 5862.92,765.347L5868.16,760.108L5868.74,763.601C5870.29,771.751 5873.49,778.544 5878.35,783.977C5883.2,789.411 5888.53,792.128 5894.36,792.128L6000.32,792.128Z" style="fill:none;fill-rule:nonzero;stroke:white;stroke-width:19.47px;stroke-linecap:butt;stroke-miterlimit:2;"/>
                        <path d="M6409.01,650.074C6409.01,608.545 6395.43,576.137 6368.26,552.849C6351.96,538.877 6336.04,528.98 6320.52,523.158C6319.74,522.77 6310.43,520.441 6292.57,516.171L6277.44,516.171C6246.39,516.171 6223.1,526.263 6207.57,546.445L6199.42,556.925L6199.42,545.281L6198.26,537.712L6196.51,531.89C6191.08,520.247 6183.7,514.425 6174.39,514.425C6171.28,514.425 6169.15,514.619 6167.99,515.007L6052.71,544.699C6039.52,548.192 6032.92,555.76 6032.92,567.404C6032.92,575.166 6035.83,580.988 6041.65,584.869L6045.14,587.198L6046.89,587.78L6048.64,588.945C6050.97,590.109 6052.81,591.079 6054.17,591.856C6055.53,592.632 6056.5,593.796 6057.08,595.349C6057.66,596.901 6058.15,599.036 6058.53,601.753C6058.92,604.47 6059.5,608.157 6060.28,612.814L6060.28,823.566L6059.7,829.388C6059.31,838.703 6055.04,845.495 6046.89,849.765L6043.98,850.929C6035.83,856.363 6031.75,862.961 6031.75,870.723C6031.75,875.769 6033.79,880.717 6037.87,885.569C6041.94,890.421 6047.67,892.846 6055.04,892.846L6206.41,892.846C6221.55,892.846 6229.11,885.472 6229.11,870.723C6229.11,863.737 6226.4,857.915 6220.96,853.258L6217.47,850.929L6213.98,849.765C6205.05,845.107 6200.59,836.374 6200.59,823.566L6200.59,623.294C6200.59,605.828 6202.72,593.796 6206.99,587.198C6211.26,580.6 6218.25,576.719 6227.95,575.554C6241.53,575.554 6251.62,584.093 6258.22,601.171L6260.55,607.575L6262.3,613.397C6266.57,628.533 6268.7,639.401 6268.7,645.999L6269.87,654.15L6269.87,661.718L6270.45,670.451L6270.45,677.437L6269.87,685.588C6268.7,702.277 6266.18,714.212 6262.3,721.392C6258.42,728.573 6252.4,733.133 6244.25,735.074C6238.82,736.626 6234.84,737.791 6232.32,738.567C6229.79,739.343 6228.53,739.731 6228.53,739.731C6218.05,745.553 6212.81,753.51 6212.81,763.601C6215.53,789.993 6228.92,801.637 6252.98,798.532C6260.36,798.532 6264.63,798.338 6265.79,797.95C6282.09,797.95 6310.43,790.964 6350.79,776.991C6381.07,766.124 6398.14,746.135 6402.02,717.026C6406.68,682.095 6409.01,663.077 6409.01,659.972L6409.01,650.074Z" style="fill:none;fill-rule:nonzero;stroke:white;stroke-width:19.47px;stroke-linecap:butt;stroke-miterlimit:2;"/>
                        <path d="M6726.3,572.061C6724.36,554.596 6720.48,543.146 6714.66,537.712C6706.9,530.338 6691.18,524.71 6667.5,520.829C6658.19,519.276 6649.26,518.112 6640.72,517.336C6632.18,516.56 6624.03,516.171 6616.27,516.171C6585.99,516.171 6561.74,518.306 6543.49,522.575C6519.04,527.621 6497.7,538.489 6479.45,555.178C6462.38,569.927 6453.64,589.721 6453.26,614.561C6452.87,634.743 6461.02,652.985 6477.71,669.287C6490.9,682.483 6504.68,690.245 6519.04,692.574L6560.96,704.8L6574.93,709.457C6586.58,714.891 6592.4,721.877 6592.4,730.416C6592.4,737.014 6588.13,742.254 6579.59,746.135C6572.6,749.24 6566.2,750.793 6560.38,750.793C6541.36,750.793 6526.42,743.612 6515.55,729.252L6502.16,712.368L6500.99,711.204C6496.34,704.994 6487.99,701.889 6475.96,701.889C6466.65,701.889 6458.88,704.8 6452.67,710.622C6446.46,716.444 6443.36,724.012 6443.36,733.327C6443.36,754.674 6455.78,770.781 6480.62,781.649C6489.16,785.53 6502.35,789.023 6520.21,792.128C6543.49,796.785 6568.53,799.114 6595.31,799.114L6616.85,796.785C6633.93,795.233 6651.01,791.158 6668.08,784.56C6713.88,766.706 6736.78,738.761 6736.78,700.725C6736.78,688.693 6733.77,677.049 6727.76,665.793C6721.74,654.538 6714.66,646.193 6706.51,640.759C6699.91,636.49 6694.38,633.094 6689.91,630.571C6685.45,628.048 6681.86,626.399 6679.15,625.623L6634.9,612.232L6629.08,609.904L6620.93,606.993L6615.69,604.664L6611.03,602.917L6604.04,599.424C6595.89,595.543 6591.82,590.303 6591.82,583.705C6591.82,570.509 6604.82,563.911 6630.82,563.911C6645.18,563.911 6656.44,568.568 6664.59,577.883C6667.31,580.6 6672.35,588.945 6679.73,602.917C6684.38,612.232 6689.82,616.89 6696.03,616.89C6701.07,616.89 6704.18,616.696 6705.34,616.308C6720.09,616.308 6727.47,605.828 6727.47,584.869C6727.47,584.481 6727.37,583.317 6727.18,581.376C6726.98,579.436 6726.69,576.331 6726.3,572.061Z" style="fill:none;fill-rule:nonzero;stroke:white;stroke-width:19.47px;stroke-linecap:butt;stroke-miterlimit:2;"/>
                    </g>
                </g>
            </g>
        </g>
    </g>
</svg>
