<?xml version="1.0" encoding="UTF-8" standalone="no"?>
<!DOCTYPE svg PUBLIC "-//W3C//DTD SVG 1.1//EN" "http://www.w3.org/Graphics/SVG/1.1/DTD/svg11.dtd">
<svg width="100%" height="100%" viewBox="0 0 795 247" version="1.1" xmlns="http://www.w3.org/2000/svg" xmlns:xlink="http://www.w3.org/1999/xlink" xml:space="preserve" xmlns:serif="http://www.serif.com/" style="fill-rule:evenodd;clip-rule:evenodd;stroke-linecap:round;stroke-miterlimit:1.5;">
    <g transform="matrix(1,0,0,1,-1132,-22)">
        <g id="react-unsplash-logo-portfolio" transform="matrix(1,0,0,1,-0.637815,-0.867494)">
            <rect x="1132.64" y="22.867" width="794.523" height="246.603" style="fill:none;"/>
            <clipPath id="_clip1">
                <rect x="1132.64" y="22.867" width="794.523" height="246.603"/>
            </clipPath>
            <g clip-path="url(#_clip1)">
                <g id="react-unsplash-logo" transform="matrix(1,0,0,1,1080.2,-300.334)">
                    <g id="react-unsplash-text" transform="matrix(11.3493,0,0,11.3493,-5518.46,-4850.49)">
                        <path d="M516.678,472.547C515.662,472.547 514.886,472.247 514.35,471.647C513.814,471.047 513.546,470.091 513.546,468.779L513.546,464.579L515.322,464.579L515.322,468.959C515.322,469.727 515.438,470.263 515.67,470.567C515.902,470.871 516.238,471.023 516.678,471.023C517.118,471.023 517.458,470.871 517.698,470.567C517.938,470.263 518.058,469.727 518.058,468.959L518.058,464.579L519.762,464.579L519.762,468.779C519.762,470.091 519.5,471.047 518.976,471.647C518.452,472.247 517.686,472.547 516.678,472.547Z" style="fill-rule:nonzero;"/>
                        <path d="M521.43,472.403L521.43,466.451L522.87,466.451L522.99,467.207L523.038,467.207C523.294,466.967 523.576,466.757 523.884,466.577C524.192,466.397 524.546,466.307 524.946,466.307C525.594,466.307 526.064,466.521 526.356,466.949C526.648,467.377 526.794,467.963 526.794,468.707L526.794,472.403L525.03,472.403L525.03,468.935C525.03,468.503 524.972,468.207 524.856,468.047C524.74,467.887 524.554,467.807 524.298,467.807C524.074,467.807 523.882,467.857 523.722,467.957C523.562,468.057 523.386,468.199 523.194,468.383L523.194,472.403L521.43,472.403Z" style="fill-rule:nonzero;"/>
                        <path d="M530.046,472.547C529.654,472.547 529.252,472.471 528.84,472.319C528.428,472.167 528.07,471.967 527.766,471.719L528.558,470.615C528.83,470.815 529.092,470.969 529.344,471.077C529.596,471.185 529.846,471.239 530.094,471.239C530.358,471.239 530.55,471.193 530.67,471.101C530.79,471.009 530.85,470.887 530.85,470.735C530.85,470.599 530.792,470.487 530.676,470.399C530.56,470.311 530.41,470.229 530.226,470.153C530.042,470.077 529.846,469.999 529.638,469.919C529.398,469.823 529.16,469.703 528.924,469.559C528.688,469.415 528.49,469.229 528.33,469.001C528.17,468.773 528.09,468.495 528.09,468.167C528.09,467.615 528.3,467.167 528.72,466.823C529.14,466.479 529.69,466.307 530.37,466.307C530.826,466.307 531.228,466.385 531.576,466.541C531.924,466.697 532.222,466.871 532.47,467.063L531.678,468.119C531.47,467.959 531.262,467.835 531.054,467.747C530.846,467.659 530.638,467.615 530.43,467.615C529.974,467.615 529.746,467.771 529.746,468.083C529.746,468.275 529.86,468.421 530.088,468.521C530.316,468.621 530.582,468.727 530.886,468.839C531.142,468.927 531.392,469.041 531.636,469.181C531.88,469.321 532.084,469.505 532.248,469.733C532.412,469.961 532.494,470.259 532.494,470.627C532.494,471.163 532.286,471.617 531.87,471.989C531.454,472.361 530.846,472.547 530.046,472.547Z" style="fill-rule:nonzero;"/>
                        <path d="M533.61,474.611L533.61,466.451L535.05,466.451L535.17,467.039L535.218,467.039C535.45,466.831 535.712,466.657 536.004,466.517C536.296,466.377 536.598,466.307 536.91,466.307C537.63,466.307 538.198,466.581 538.614,467.129C539.03,467.677 539.238,468.411 539.238,469.331C539.238,470.011 539.118,470.591 538.878,471.071C538.638,471.551 538.328,471.917 537.948,472.169C537.568,472.421 537.162,472.547 536.73,472.547C536.474,472.547 536.226,472.493 535.986,472.385C535.746,472.277 535.522,472.123 535.314,471.923L535.374,472.871L535.374,474.611L533.61,474.611ZM536.322,471.107C536.626,471.107 536.886,470.967 537.102,470.687C537.318,470.407 537.426,469.963 537.426,469.355C537.426,468.283 537.082,467.747 536.394,467.747C536.05,467.747 535.71,467.927 535.374,468.287L535.374,470.723C535.534,470.867 535.694,470.967 535.854,471.023C536.014,471.079 536.17,471.107 536.322,471.107Z" style="fill-rule:nonzero;"/>
                        <path d="M542.106,472.547C541.498,472.547 541.076,472.365 540.84,472.001C540.604,471.637 540.486,471.155 540.486,470.555L540.486,463.991L542.25,463.991L542.25,470.627C542.25,470.811 542.284,470.939 542.352,471.011C542.42,471.083 542.49,471.119 542.562,471.119C542.602,471.119 542.636,471.117 542.664,471.113C542.692,471.109 542.73,471.103 542.778,471.095L542.994,472.403C542.898,472.443 542.776,472.477 542.628,472.505C542.48,472.533 542.306,472.547 542.106,472.547Z" style="fill-rule:nonzero;"/>
                        <path d="M545.418,472.547C544.874,472.547 544.442,472.373 544.122,472.025C543.802,471.677 543.642,471.251 543.642,470.747C543.642,470.123 543.906,469.635 544.434,469.283C544.962,468.931 545.814,468.695 546.99,468.575C546.974,468.311 546.896,468.101 546.756,467.945C546.616,467.789 546.382,467.711 546.054,467.711C545.806,467.711 545.554,467.759 545.298,467.855C545.042,467.951 544.77,468.083 544.482,468.251L543.846,467.087C544.222,466.855 544.624,466.667 545.052,466.523C545.48,466.379 545.926,466.307 546.39,466.307C547.15,466.307 547.734,466.527 548.142,466.967C548.55,467.407 548.754,468.083 548.754,468.995L548.754,472.403L547.314,472.403L547.194,471.791L547.146,471.791C546.898,472.015 546.632,472.197 546.348,472.337C546.064,472.477 545.754,472.547 545.418,472.547ZM546.018,471.179C546.218,471.179 546.392,471.133 546.54,471.041C546.688,470.949 546.838,470.827 546.99,470.675L546.99,469.631C546.366,469.711 545.934,469.837 545.694,470.009C545.454,470.181 545.334,470.383 545.334,470.615C545.334,470.807 545.396,470.949 545.52,471.041C545.644,471.133 545.81,471.179 546.018,471.179Z" style="fill-rule:nonzero;"/>
                        <path d="M551.994,472.547C551.602,472.547 551.2,472.471 550.788,472.319C550.376,472.167 550.018,471.967 549.714,471.719L550.506,470.615C550.778,470.815 551.04,470.969 551.292,471.077C551.544,471.185 551.794,471.239 552.042,471.239C552.306,471.239 552.498,471.193 552.618,471.101C552.738,471.009 552.798,470.887 552.798,470.735C552.798,470.599 552.74,470.487 552.624,470.399C552.508,470.311 552.358,470.229 552.174,470.153C551.99,470.077 551.794,469.999 551.586,469.919C551.346,469.823 551.108,469.703 550.872,469.559C550.636,469.415 550.438,469.229 550.278,469.001C550.118,468.773 550.038,468.495 550.038,468.167C550.038,467.615 550.248,467.167 550.668,466.823C551.088,466.479 551.638,466.307 552.318,466.307C552.774,466.307 553.176,466.385 553.524,466.541C553.872,466.697 554.17,466.871 554.418,467.063L553.626,468.119C553.418,467.959 553.21,467.835 553.002,467.747C552.794,467.659 552.586,467.615 552.378,467.615C551.922,467.615 551.694,467.771 551.694,468.083C551.694,468.275 551.808,468.421 552.036,468.521C552.264,468.621 552.53,468.727 552.834,468.839C553.09,468.927 553.34,469.041 553.584,469.181C553.828,469.321 554.032,469.505 554.196,469.733C554.36,469.961 554.442,470.259 554.442,470.627C554.442,471.163 554.234,471.617 553.818,471.989C553.402,472.361 552.794,472.547 551.994,472.547Z" style="fill-rule:nonzero;"/>
                        <path d="M555.558,472.403L555.558,463.991L557.322,463.991L557.322,466.055L557.238,467.123C557.462,466.923 557.724,466.737 558.024,466.565C558.324,466.393 558.674,466.307 559.074,466.307C559.722,466.307 560.192,466.521 560.484,466.949C560.776,467.377 560.922,467.963 560.922,468.707L560.922,472.403L559.158,472.403L559.158,468.935C559.158,468.503 559.1,468.207 558.984,468.047C558.868,467.887 558.682,467.807 558.426,467.807C558.202,467.807 558.01,467.857 557.85,467.957C557.69,468.057 557.514,468.199 557.322,468.383L557.322,472.403L555.558,472.403Z" style="fill-rule:nonzero;"/>
                    </g>
                    <g id="react-unsplash-favicon">
                        <g id="react-symbol" transform="matrix(0.898539,0,0,0.898539,16.8839,34.7349)">
                            <g>
                                <g transform="matrix(0.919787,-0.526925,0.497648,0.868682,-1078.84,898.404)">
                                    <ellipse cx="1225.26" cy="237.657" rx="42.709" ry="117.88" style="fill:none;stroke:rgb(97,218,251);stroke-width:9.71px;"/>
                                </g>
                                <g transform="matrix(0.921126,0.541653,-0.49548,0.860736,-844.46,-408.997)">
                                    <ellipse cx="1225.26" cy="237.657" rx="42.709" ry="117.88" style="fill:none;stroke:rgb(97,218,251);stroke-width:9.71px;"/>
                                </g>
                                <g transform="matrix(0.00133955,1.06858,-0.993129,-0.00794544,400.789,-848.17)">
                                    <ellipse cx="1225.26" cy="237.657" rx="42.709" ry="117.88" style="fill:none;stroke:rgb(97,218,251);stroke-width:9.71px;"/>
                                </g>
                            </g>
                            <g transform="matrix(1,0,0,1,-1157.14,-6.04383)">
                                <circle cx="1323.54" cy="465.274" r="24.867" style="fill:rgb(97,218,251);"/>
                            </g>
                        </g>
                        <g id="unsplash-logo" transform="matrix(2.16465,0,0,2.16465,-3137.56,93.0465)">
                            <g transform="matrix(1,0,0,1,-0.335517,0.202686)">
                                <rect x="1507.54" y="113.653" width="38.254" height="28.587"/>
                            </g>
                            <path d="M1544.76,157.328L1475.66,157.328L1475.66,214.952L1577,214.952L1577,157.328L1544.76,157.328L1544.76,185.574L1506.51,185.574L1506.51,157.328L1544.76,157.328Z"/>
                        </g>
                    </g>
                </g>
            </g>
        </g>
    </g>
</svg>
