<?xml version="1.0" encoding="UTF-8" standalone="no"?>
<!DOCTYPE svg PUBLIC "-//W3C//DTD SVG 1.1//EN" "http://www.w3.org/Graphics/SVG/1.1/DTD/svg11.dtd">
<svg width="100%" height="100%" viewBox="0 0 235 78" version="1.1" xmlns="http://www.w3.org/2000/svg" xmlns:xlink="http://www.w3.org/1999/xlink" xml:space="preserve" xmlns:serif="http://www.serif.com/" style="fill-rule:evenodd;clip-rule:evenodd;stroke-linejoin:round;stroke-miterlimit:2;">
    <g transform="matrix(1,0,0,1,-9643,-111)">
        <g transform="matrix(0.454787,0,0,0.439236,7052.64,14.1829)">
            <g id="curly-bottom" transform="matrix(5.39793e-17,-0.895714,0.895714,5.39793e-17,4843.77,1123.62)">
                <path d="M999.991,1519.62L999.991,1469.39L992.217,1469.39C970.689,1469.39 959.925,1460.42 959.925,1442.48L959.925,1294.78C959.925,1284.01 956.537,1273.85 949.759,1264.28C942.982,1254.71 934.211,1247.93 923.447,1243.95L907.899,1240.36L923.447,1236.77C947.766,1226.8 959.925,1209.86 959.925,1185.94L959.925,1038.24C959.925,1019.5 970.689,1010.13 992.217,1010.13L999.991,1010.13L999.991,959.897L916.869,959.897C878.199,959.897 858.863,979.431 858.863,1018.5L858.863,1198.5C858.863,1210.46 855.076,1220.42 847.501,1228.4C839.927,1236.37 830.757,1240.36 819.993,1240.36C831.156,1240.36 840.425,1244.25 847.8,1252.02C855.176,1259.79 858.863,1269.86 858.863,1282.22L858.863,1461.02C858.863,1479.36 864.046,1493.71 874.411,1504.08C884.777,1514.44 898.929,1519.62 916.869,1519.62L999.991,1519.62Z" style="fill:none;fill-rule:nonzero;stroke:rgb(2,136,254);stroke-width:16.46px;"/>
            </g>
        </g>
    </g>
</svg>
