<?xml version="1.0" encoding="UTF-8" standalone="no"?>
<!DOCTYPE svg PUBLIC "-//W3C//DTD SVG 1.1//EN" "http://www.w3.org/Graphics/SVG/1.1/DTD/svg11.dtd">
<svg width="100%" height="100%" viewBox="0 0 312 45" version="1.1" xmlns="http://www.w3.org/2000/svg" xmlns:xlink="http://www.w3.org/1999/xlink" xml:space="preserve" xmlns:serif="http://www.serif.com/" style="fill-rule:evenodd;clip-rule:evenodd;stroke-linejoin:round;stroke-miterlimit:2;">
    <g transform="matrix(1,0,0,1,-9797,-554)">
        <g transform="matrix(0.454787,0,0,0.439236,7000.36,271.632)">
            <g id="dots" transform="matrix(0.791884,0,0,0.607406,3247.76,-270.666)">
                <g transform="matrix(6.12323e-17,-1,1,6.12323e-17,3338.66,5422.68)">
                    <path d="M3892.09,1113.87C3898.36,1103.09 3901.49,1092.3 3901.49,1081.51C3901.49,1063.07 3893.66,1048.1 3878,1036.62C3864.43,1026.18 3849.81,1021.48 3834.15,1022.52C3830.32,1022.52 3827.54,1022.7 3825.8,1023.05C3800.74,1025.83 3783.34,1034.88 3773.6,1050.19C3768.73,1056.11 3765.94,1064.11 3765.25,1074.2C3764.9,1087.08 3770.99,1098.04 3783.52,1107.09C3794.31,1114.74 3804.57,1118.05 3814.32,1117.01L3823.19,1117.01L3821.62,1119.62L3819.53,1122.23L3817.45,1125.88L3813.79,1130.58L3801.79,1144.67L3790.83,1156.16L3788.22,1158.77C3785.43,1161.55 3784.04,1164.51 3784.04,1167.64C3784.04,1176.34 3791.87,1180.69 3807.53,1180.69C3811.36,1179.99 3818.49,1176.86 3828.93,1171.29C3834.15,1168.51 3838.59,1165.99 3842.24,1163.73C3845.9,1161.46 3848.94,1159.46 3851.38,1157.72C3870.17,1142.76 3883.74,1128.14 3892.09,1113.87Z" style="fill:none;fill-rule:nonzero;stroke:rgb(1,195,129);stroke-width:23.33px;"/>
                </g>
                <g transform="matrix(6.12323e-17,-1,1,6.12323e-17,3703.8,5421.38)">
                    <path d="M3835.46,624.5C3844.16,624.5 3852.42,623.369 3860.25,621.107C3868.08,618.845 3874.95,615.452 3880.87,610.928C3886.79,606.404 3891.48,601.097 3894.96,595.007C3898.44,588.917 3900.18,581.87 3900.18,573.866C3900.18,558.206 3893.22,545.156 3879.3,534.716C3866.08,525.32 3851.46,520.622 3835.46,520.622C3821.19,519.23 3806.4,523.754 3791.09,534.194C3774.38,546.026 3766.2,560.468 3766.55,577.52C3766.9,591.092 3773.43,602.315 3786.13,611.189C3798.83,620.063 3815.27,624.5 3835.46,624.5Z" style="fill:none;fill-rule:nonzero;stroke:rgb(250,53,101);stroke-width:23.33px;"/>
                </g>
                <g transform="matrix(6.12323e-17,-1,1,6.12323e-17,3566.93,5421.38)">
                    <path d="M3835.46,624.5C3844.16,624.5 3852.42,623.369 3860.25,621.107C3868.08,618.845 3874.95,615.452 3880.87,610.928C3886.79,606.404 3891.48,601.097 3894.96,595.007C3898.44,588.917 3900.18,581.87 3900.18,573.866C3900.18,558.206 3893.22,545.156 3879.3,534.716C3866.08,525.32 3851.46,520.622 3835.46,520.622C3821.19,519.23 3806.4,523.754 3791.09,534.194C3774.38,546.026 3766.2,560.468 3766.55,577.52C3766.9,591.092 3773.43,602.315 3786.13,611.189C3798.83,620.063 3815.27,624.5 3835.46,624.5Z" style="fill:none;fill-rule:nonzero;stroke:rgb(255,195,0);stroke-width:23.33px;"/>
                </g>
                <g transform="matrix(6.12323e-17,-1,1,6.12323e-17,3430.06,5421.38)">
                    <path d="M3835.46,624.5C3844.16,624.5 3852.42,623.369 3860.25,621.107C3868.08,618.845 3874.95,615.452 3880.87,610.928C3886.79,606.404 3891.48,601.097 3894.96,595.007C3898.44,588.917 3900.18,581.87 3900.18,573.866C3900.18,558.206 3893.22,545.156 3879.3,534.716C3866.08,525.32 3851.46,520.622 3835.46,520.622C3821.19,519.23 3806.4,523.754 3791.09,534.194C3774.38,546.026 3766.2,560.468 3766.55,577.52C3766.9,591.092 3773.43,602.315 3786.13,611.189C3798.83,620.063 3815.27,624.5 3835.46,624.5Z" style="fill:none;fill-rule:nonzero;stroke:rgb(2,136,254);stroke-width:23.33px;"/>
                </g>
                <g transform="matrix(6.12323e-17,-1,1,6.12323e-17,3293.19,5421.38)">
                    <path d="M3835.46,624.5C3844.16,624.5 3852.42,623.369 3860.25,621.107C3868.08,618.845 3874.95,615.452 3880.87,610.928C3886.79,606.404 3891.48,601.097 3894.96,595.007C3898.44,588.917 3900.18,581.87 3900.18,573.866C3900.18,558.206 3893.22,545.156 3879.3,534.716C3866.08,525.32 3851.46,520.622 3835.46,520.622C3821.19,519.23 3806.4,523.754 3791.09,534.194C3774.38,546.026 3766.2,560.468 3766.55,577.52C3766.9,591.092 3773.43,602.315 3786.13,611.189C3798.83,620.063 3815.27,624.5 3835.46,624.5Z" style="fill:none;fill-rule:nonzero;stroke:rgb(117,57,252);stroke-width:23.33px;"/>
                </g>
                <g transform="matrix(6.12323e-17,-1,1,6.12323e-17,3156.33,5421.38)">
                    <path d="M3835.46,624.5C3844.16,624.5 3852.42,623.369 3860.25,621.107C3868.08,618.845 3874.95,615.452 3880.87,610.928C3886.79,606.404 3891.48,601.097 3894.96,595.007C3898.44,588.917 3900.18,581.87 3900.18,573.866C3900.18,558.206 3893.22,545.156 3879.3,534.716C3866.08,525.32 3851.46,520.622 3835.46,520.622C3821.19,519.23 3806.4,523.754 3791.09,534.194C3774.38,546.026 3766.2,560.468 3766.55,577.52C3766.9,591.092 3773.43,602.315 3786.13,611.189C3798.83,620.063 3815.27,624.5 3835.46,624.5Z" style="fill:none;fill-rule:nonzero;stroke:rgb(0,44,81);stroke-width:23.33px;"/>
                </g>
            </g>
        </g>
    </g>
</svg>
