<?xml version="1.0" encoding="UTF-8" standalone="no"?>
<!DOCTYPE svg PUBLIC "-//W3C//DTD SVG 1.1//EN" "http://www.w3.org/Graphics/SVG/1.1/DTD/svg11.dtd">
<svg width="100%" height="100%" viewBox="0 0 126 145" version="1.1" xmlns="http://www.w3.org/2000/svg" xmlns:xlink="http://www.w3.org/1999/xlink" xml:space="preserve" xmlnsSerif="http://www.serif.com/" style="fill-rule:evenodd;clip-rule:evenodd;stroke-linecap:round;stroke-linejoin:round;stroke-miterlimit:1.5;">
    <g transform="matrix(1,0,0,1,-9081,-459)">
        <g transform="matrix(0.454787,0,0,0.439236,6643.08,303.943)">
            <g id="dribble-medium-1" transform="matrix(1,0,-6.77626e-21,1,-800.749,-760.301)">
                <path d="M6430.79,1118.35C6428.28,1116.68 6424.98,1116.56 6421.97,1116.37C6411.92,1115.72 6395.72,1116.6 6387.48,1123.55C6387.24,1123.75 6379.5,1136.28 6379.25,1136.54C6374.32,1141.9 6372.62,1139.64 6367.99,1145.2C6356.95,1158.47 6351.78,1177.29 6348.93,1193.71C6347.63,1201.21 6351,1209.79 6347.64,1217.1C6345.96,1220.73 6341.03,1226.63 6338.54,1229.66C6323.11,1248.41 6302.55,1259.17 6283.93,1274.36C6275.86,1280.95 6265.98,1289.77 6259.5,1298.84C6253.47,1307.28 6249.18,1316.86 6243.26,1325.37C6234.84,1337.48 6219.97,1345.36 6209.04,1354.39C6201.3,1360.79 6179.75,1380.27 6173.53,1389.04C6172.56,1390.4 6169.13,1406.15 6168.77,1407.66C6166.36,1417.6 6161.03,1428.36 6171.36,1435.81C6175.88,1439.07 6183.36,1440.33 6188.69,1440.58C6198.75,1441.04 6213.81,1442.89 6222.55,1434.87C6226.33,1431.4 6229.83,1427.56 6232.8,1423.38C6246.25,1404.48 6256.31,1383.37 6269.57,1364.39C6277.27,1353.37 6283.78,1341.26 6293.33,1331.8C6311.84,1313.46 6338.37,1304.82 6354.57,1283.8C6356.61,1281.14 6370.17,1253.3 6371.89,1250.45C6376.76,1242.4 6381.63,1240.55 6384.88,1231.39C6388.63,1220.85 6387.49,1215.8 6390.21,1206.35C6393.69,1194.23 6402.32,1183.67 6411.3,1175.09C6415.04,1171.52 6422.29,1168.86 6424.29,1163.39C6426.46,1157.49 6423.85,1157.24 6425.59,1151.27C6427.14,1145.97 6440.38,1124.75 6430.79,1118.35Z" style="fill:none;stroke:rgb(2,136,254);stroke-width:4.47px;"/>
            </g>
        </g>
    </g>
</svg>
