<?xml version="1.0" encoding="UTF-8" standalone="no"?>
<!DOCTYPE svg PUBLIC "-//W3C//DTD SVG 1.1//EN" "http://www.w3.org/Graphics/SVG/1.1/DTD/svg11.dtd">
<svg width="100%" height="100%" viewBox="0 0 233 108" version="1.1" xmlns="http://www.w3.org/2000/svg" xmlns:xlink="http://www.w3.org/1999/xlink" xml:space="preserve" xmlns:serif="http://www.serif.com/" style="fill-rule:evenodd;clip-rule:evenodd;stroke-linecap:round;stroke-linejoin:round;stroke-miterlimit:1.5;">
    <g transform="matrix(1,0,0,1,-8963,-597)">
        <g transform="matrix(0.454787,0,0,0.439236,6643.08,303.943)">
            <g id="dribble-large-1" transform="matrix(1.96626,6.60671e-05,-4.48806e-05,1.33572,-5346.29,-806.668)">
                <path d="M5538.48,1129.95C5531.09,1135.49 5522.87,1139.87 5515.47,1145.4C5507.88,1151.08 5509.31,1154.22 5500.2,1157.89C5486.33,1163.48 5471.3,1155.82 5457.87,1163.43C5452.87,1166.27 5443.71,1176.03 5438.88,1179.06C5435.37,1181.27 5431.16,1182.16 5427.55,1184.21C5423.46,1186.53 5420.27,1190.45 5415.87,1192.11C5410.32,1194.2 5403.99,1193.37 5398.36,1195.2C5394.97,1196.31 5384.96,1204.64 5381.87,1206.19C5370.24,1212.02 5365.69,1211.84 5353.36,1215.37C5334.96,1220.66 5314.23,1244.34 5326.57,1263.89C5336.8,1280.09 5359.62,1270.37 5371.91,1262.52C5375.75,1260.07 5379.11,1256.91 5382.91,1254.39C5386.64,1251.91 5390.69,1249.94 5394.48,1247.55C5404.47,1241.26 5407.95,1233.65 5416.96,1225.76C5423.29,1220.21 5435.14,1214.38 5442.66,1211C5450.99,1207.26 5465.66,1201.4 5474.6,1199.32C5483.59,1197.23 5492.7,1199.05 5500.36,1193C5511.16,1184.47 5516.9,1171.1 5528.16,1163.04C5540.07,1154.52 5546.25,1153.65 5557.45,1143.68C5564.27,1137.61 5569.98,1116.69 5554.67,1116.06C5546.53,1115.73 5543.56,1126.14 5538.48,1129.95Z" style="fill:none;stroke:rgb(107,79,140);stroke-width:20px;"/>
            </g>
        </g>
    </g>
</svg>
