<?xml version="1.0" encoding="UTF-8" standalone="no"?>
<!DOCTYPE svg PUBLIC "-//W3C//DTD SVG 1.1//EN" "http://www.w3.org/Graphics/SVG/1.1/DTD/svg11.dtd">
<svg width="100%" height="100%" viewBox="0 0 92 99" version="1.1" xmlns="http://www.w3.org/2000/svg" xmlns:xlink="http://www.w3.org/1999/xlink" xml:space="preserve" xmlnsSerif="http://www.serif.com/" style="fill-rule:evenodd;clip-rule:evenodd;stroke-linecap:round;stroke-linejoin:round;stroke-miterlimit:1.5;">
    <g transform="matrix(1,0,0,1,-9881,-175)">
        <g transform="matrix(0.454787,0,0,0.439236,7833.46,274.205)">
            <g id="outline-3" transform="matrix(1,0,0,1,-1537.01,-1398.23)">
                <path d="M6117.1,1262.16C6126.25,1243.86 6137.61,1221.33 6154.66,1208.32C6166.88,1199 6184.28,1189.66 6198.34,1183.49C6203.01,1181.44 6216.59,1174.7 6224.09,1176.39C6243.32,1180.71 6239.43,1200.25 6235.93,1211.4C6234.58,1215.71 6232.83,1219.95 6230.43,1223.77C6220.27,1239.93 6200.68,1245.38 6190.01,1260.94C6160.23,1304.36 6141.92,1357.83 6098.89,1390.94C6095.8,1393.32 6090.42,1394.32 6086.73,1394.48C6073.12,1395.04 6043.73,1394.05 6042.81,1374.67C6041.7,1351.48 6070.21,1346.44 6082.24,1331.93C6087.68,1325.36 6092.82,1312.79 6096.42,1305.24C6103.28,1290.86 6109.98,1276.41 6117.1,1262.16Z" style="fill:none;stroke:rgb(2,136,254);stroke-width:4.47px;"/>
            </g>
        </g>
    </g>
</svg>
