<?xml version="1.0" encoding="UTF-8" standalone="no"?>
<!DOCTYPE svg PUBLIC "-//W3C//DTD SVG 1.1//EN" "http://www.w3.org/Graphics/SVG/1.1/DTD/svg11.dtd">
<svg width="100%" height="100%" viewBox="0 0 75 62" version="1.1" xmlns="http://www.w3.org/2000/svg" xmlns:xlink="http://www.w3.org/1999/xlink" xml:space="preserve" xmlns:serif="http://www.serif.com/" style="fill-rule:evenodd;clip-rule:evenodd;stroke-linecap:round;stroke-linejoin:round;stroke-miterlimit:1.5;">
    <g transform="matrix(1,0,0,1,-10048,-366)">
        <g transform="matrix(0.454787,0,0,0.439236,7833.46,274.205)">
            <g id="outline-8" transform="matrix(1,0,0,1,129.698,-430.95)">
                <path d="M4751.82,738.372C4752.99,737.189 4754.16,736.006 4755.35,734.846C4758.88,731.414 4762.24,727.803 4765.97,724.596C4776.96,715.146 4776.55,714.993 4786.69,704.682C4803.14,687.95 4828.99,692.87 4846.89,679.038C4854.71,672.99 4860.76,664.856 4868.58,658.808C4873.5,655.003 4878.9,651.849 4884.24,648.661C4885.15,648.114 4893.51,643.18 4895.21,646.702C4909.84,677 4885.85,705.904 4864.26,725.053C4857.35,731.183 4847.11,730.857 4840.75,737.98C4830.37,749.616 4817.22,773.028 4798.44,774.805C4783.78,776.193 4765.85,773.404 4753.39,765.011C4744.78,759.209 4744.74,745.456 4751.82,738.372Z" style="fill:none;stroke:rgb(107,79,140);stroke-width:10px;"/>
            </g>
        </g>
    </g>
</svg>
